G04*
G04 #@! TF.GenerationSoftware,Altium Limited,Altium Designer,21.3.2 (30)*
G04*
G04 Layer_Color=255*
%FSLAX25Y25*%
%MOIN*%
G70*
G04*
G04 #@! TF.SameCoordinates,AD82394D-94CB-4E6D-8DF2-E68E24F3FF13*
G04*
G04*
G04 #@! TF.FilePolarity,Positive*
G04*
G01*
G75*
%ADD87C,0.07087*%
%ADD88R,0.07087X0.07087*%
%ADD89C,0.04724*%
%ADD90C,0.19685*%
%ADD91C,0.12992*%
%ADD92C,0.08661*%
%ADD93C,0.11024*%
%ADD94C,0.02756*%
%ADD95O,0.06299X0.03937*%
%ADD96O,0.08268X0.03937*%
%ADD97R,0.07087X0.07087*%
%ADD98R,0.10236X0.07087*%
%ADD99O,0.10236X0.07087*%
%ADD100C,0.07874*%
D87*
X71444Y297982D02*
D03*
X41444D02*
D03*
X101444Y211368D02*
D03*
X41444D02*
D03*
X132000Y187500D02*
D03*
X142000D02*
D03*
X112000D02*
D03*
X122000D02*
D03*
X82000D02*
D03*
X92000D02*
D03*
X102000D02*
D03*
X19000Y74500D02*
D03*
X29000D02*
D03*
X39000D02*
D03*
X131500Y106394D02*
D03*
Y125606D02*
D03*
X97500Y138500D02*
D03*
X107500D02*
D03*
X153500Y166000D02*
D03*
X19000Y100000D02*
D03*
X29000D02*
D03*
X12457Y45342D02*
D03*
X69543Y35500D02*
D03*
Y25657D02*
D03*
X12457D02*
D03*
X69543Y45342D02*
D03*
X272000Y195000D02*
D03*
X262000D02*
D03*
X252000D02*
D03*
X272000Y165000D02*
D03*
X262000Y165000D02*
D03*
X230315Y252500D02*
D03*
D88*
X72000Y187500D02*
D03*
X9000Y74500D02*
D03*
X87500Y138500D02*
D03*
X9000Y100000D02*
D03*
X279685Y252500D02*
D03*
D89*
X159028Y31500D02*
D03*
X129500D02*
D03*
D90*
X200000Y285658D02*
D03*
Y45500D02*
D03*
D91*
X292035Y292411D02*
D03*
X240853D02*
D03*
D92*
X238885Y271938D02*
D03*
X294003D02*
D03*
D93*
X162000Y299500D02*
D03*
X161915Y281047D02*
D03*
X161831Y262594D02*
D03*
D94*
X22341Y117268D02*
D03*
Y140733D02*
D03*
D95*
X7970Y111992D02*
D03*
Y146008D02*
D03*
D96*
X24428Y111992D02*
D03*
Y146008D02*
D03*
D97*
X153500Y156000D02*
D03*
X252000Y165000D02*
D03*
D98*
X295000Y232000D02*
D03*
D99*
X294961Y212000D02*
D03*
X295000Y222000D02*
D03*
D100*
X298500Y167500D02*
D03*
Y187500D02*
D03*
M02*
