G04*
G04 #@! TF.GenerationSoftware,Altium Limited,Altium Designer,21.3.2 (30)*
G04*
G04 Layer_Color=32896*
%FSLAX25Y25*%
%MOIN*%
G70*
G04*
G04 #@! TF.SameCoordinates,AD82394D-94CB-4E6D-8DF2-E68E24F3FF13*
G04*
G04*
G04 #@! TF.FilePolarity,Positive*
G04*
G01*
G75*
%ADD16C,0.00100*%
D16*
X74533Y244200D02*
X131367D01*
X74333Y244300D02*
X131367D01*
X74233Y244400D02*
X131367D01*
X74733Y244100D02*
X131367D01*
X73933Y244600D02*
X131367D01*
X73833Y244700D02*
X131367D01*
X74933Y244000D02*
X131367D01*
X72933Y245700D02*
X131367D01*
X72633Y246200D02*
X131367D01*
X72633Y246300D02*
X131367D01*
X72633Y246400D02*
X131367D01*
X72733Y246100D02*
X131367D01*
X72533Y246600D02*
X131367D01*
X72533Y246700D02*
X131367D01*
X72433Y246800D02*
X131367D01*
X72533Y246500D02*
X131367D01*
X72433Y246900D02*
X131367D01*
X72433Y247000D02*
X131367D01*
X72433Y247100D02*
X131367D01*
X72433Y247300D02*
X131367D01*
X122533Y248900D02*
X122967D01*
X123333Y248800D02*
X123467D01*
X124133D02*
X124767D01*
X127033D02*
X131367D01*
X124233Y248900D02*
X124767D01*
X125233D02*
X125667D01*
X126233D02*
X126567D01*
X117033Y248800D02*
X117167D01*
X117733D02*
X118467D01*
X119833D02*
X120367D01*
X120833D02*
X121067D01*
X121633D02*
X122067D01*
X126133D02*
X126567D01*
X127033Y248900D02*
X131367D01*
X72433Y247400D02*
X131367D01*
X72433Y247500D02*
X131367D01*
X72433Y247700D02*
X131367D01*
X72433Y247800D02*
X131367D01*
X72433Y247900D02*
X131367D01*
X72433Y247200D02*
X131367D01*
X72433Y247600D02*
X131367D01*
X72433Y248000D02*
X131367D01*
X72433Y248100D02*
X131367D01*
X91933Y248200D02*
X116867D01*
X117933Y248300D02*
X131367D01*
X117833Y248200D02*
X131367D01*
X117933Y248400D02*
X131367D01*
X73733Y244800D02*
X131367D01*
X74033Y244500D02*
X131367D01*
X73533Y245000D02*
X131367D01*
X73433Y245100D02*
X131367D01*
X73333Y245200D02*
X131367D01*
X73633Y244900D02*
X131367D01*
X73133Y245400D02*
X131367D01*
X73033Y245500D02*
X131367D01*
X73033Y245600D02*
X131367D01*
X73233Y245300D02*
X131367D01*
X72833Y245800D02*
X131367D01*
X72833Y245900D02*
X131367D01*
X72733Y246000D02*
X131367D01*
X126433Y249600D02*
X126567D01*
X127033Y249400D02*
X131367D01*
X125933D02*
X125967D01*
X126333D02*
X126567D01*
X117033Y249500D02*
X117567D01*
X118033D02*
X118467D01*
X118933D02*
X119367D01*
X119833D02*
X120367D01*
X120833D02*
X121667D01*
X122533D02*
X122967D01*
X124233D02*
X124767D01*
X125233D02*
X125467D01*
X125833D02*
X125967D01*
X126433D02*
X126567D01*
X127033D02*
X131367D01*
X113433Y249400D02*
X114667D01*
X115133D02*
X116567D01*
X117033D02*
X117567D01*
X118033D02*
X118467D01*
X118933D02*
X119367D01*
X119833D02*
X120367D01*
X120833D02*
X121567D01*
X122533D02*
X122967D01*
X123433D02*
X123767D01*
X124333D02*
X124767D01*
X125233D02*
X125467D01*
X115133Y249500D02*
X116567D01*
X113433D02*
X114667D01*
X110833Y249600D02*
X111167D01*
X108033Y249500D02*
X108767D01*
X109233D02*
X110367D01*
X110833D02*
X111167D01*
X106933Y249400D02*
X107667D01*
X108033D02*
X108767D01*
X109233D02*
X110367D01*
X110833D02*
X111167D01*
X106933Y249600D02*
X107567D01*
X108033D02*
X108767D01*
X109233D02*
X110367D01*
X105833Y249400D02*
X106467D01*
X98333Y249500D02*
X99767D01*
X100733D02*
X101767D01*
X102233D02*
X102667D01*
X103133D02*
X103567D01*
X105033D02*
X105367D01*
X105833D02*
X106467D01*
X106933D02*
X107567D01*
X104033D02*
X104567D01*
X97133D02*
X97867D01*
X87433Y248800D02*
X88867D01*
X89233D02*
X89767D01*
X95933D02*
X97267D01*
X90233Y248900D02*
X90667D01*
X91133D02*
X91167D01*
X92033D02*
X92567D01*
X89233D02*
X89767D01*
X96033D02*
X97067D01*
X101833Y248800D02*
X102667D01*
X103133D02*
X103567D01*
X91133D02*
X91367D01*
X91833D02*
X92567D01*
X93033D02*
X93667D01*
X90233D02*
X90667D01*
X94533D02*
X95067D01*
X98333D02*
X99967D01*
X100833D02*
X101067D01*
X72433Y248200D02*
X91067D01*
X72433Y248300D02*
X90967D01*
X72433Y248400D02*
X90867D01*
X72433Y248500D02*
X90767D01*
X72433Y248600D02*
X90767D01*
X72433Y248700D02*
X90767D01*
X72433Y248800D02*
X79367D01*
X85533D02*
X86167D01*
X84833D02*
X84867D01*
X79833Y248900D02*
X80367D01*
X81433D02*
X82067D01*
X81333Y248800D02*
X82067D01*
X82533D02*
X83167D01*
X84033D02*
X84367D01*
X79833D02*
X80467D01*
X72433Y248900D02*
X79367D01*
X94533D02*
X94967D01*
X93033D02*
X93567D01*
X84033D02*
X84367D01*
X85733D02*
X86167D01*
X87433D02*
X88867D01*
X82533D02*
X83067D01*
X103133D02*
X103567D01*
X96133Y249000D02*
X96867D01*
X98333D02*
X99767D01*
X100833D02*
X101067D01*
X102133D02*
X102667D01*
X81533D02*
X82067D01*
X82533D02*
X82967D01*
X84033D02*
X84367D01*
X85733D02*
X86167D01*
X87433D02*
X88867D01*
X89233D02*
X89767D01*
X90233D02*
X90667D01*
X92133D02*
X92567D01*
X103133D02*
X103567D01*
X90233Y249100D02*
X90667D01*
X91333D02*
X91567D01*
X92133D02*
X92567D01*
X89233D02*
X89767D01*
X93933D02*
X94967D01*
X95133D02*
X95667D01*
X103133D02*
X103567D01*
X72433D02*
X79367D01*
X84933D02*
X85267D01*
X85733D02*
X86867D01*
X87433D02*
X88867D01*
X83433D02*
X84367D01*
X80533D02*
X81067D01*
X81633D02*
X82067D01*
X82533D02*
X82967D01*
X79833D02*
X80367D01*
X93033D02*
X93467D01*
X82533Y249200D02*
X82867D01*
X83433D02*
X84367D01*
X84833D02*
X85367D01*
X85733D02*
X86867D01*
X87433D02*
X88867D01*
X79833D02*
X81167D01*
X81633D02*
X82067D01*
X72433D02*
X79367D01*
X93033Y249000D02*
X93467D01*
X94533D02*
X94967D01*
X79833D02*
X80367D01*
X72433D02*
X79367D01*
X122533Y248800D02*
X122967D01*
X125233D02*
X125667D01*
X113433D02*
X113867D01*
X115133D02*
X116567D01*
X112133D02*
X112967D01*
X127033Y249100D02*
X131367D01*
X127033Y249300D02*
X131367D01*
X126233Y249000D02*
X126567D01*
X127033D02*
X131367D01*
X125233Y249100D02*
X125567D01*
X126233D02*
X126567D01*
X125233Y249300D02*
X125467D01*
X126333D02*
X126567D01*
X121933Y249200D02*
X122067D01*
X122533D02*
X122967D01*
X123433D02*
X123867D01*
X124333D02*
X124767D01*
X125233D02*
X125567D01*
X126333D02*
X126567D01*
X127033D02*
X131367D01*
X112433Y249000D02*
X112967D01*
X113433D02*
X113867D01*
X115133D02*
X116567D01*
X117933D02*
X118467D01*
X118933D02*
X119367D01*
X119833D02*
X120367D01*
X120833D02*
X121267D01*
X121833D02*
X122067D01*
X122533D02*
X122967D01*
X124333D02*
X124767D01*
X125233D02*
X125567D01*
X120833Y249200D02*
X121367D01*
X119833D02*
X120367D01*
X115133Y249100D02*
X116567D01*
X117233D02*
X117367D01*
X118033D02*
X118467D01*
X118933D02*
X119367D01*
X119833D02*
X120367D01*
X120833D02*
X121367D01*
X121833D02*
X122067D01*
X122533D02*
X122967D01*
X123533D02*
X123867D01*
X124333D02*
X124767D01*
X118933Y249200D02*
X119367D01*
X118033D02*
X118467D01*
X109133Y248900D02*
X109667D01*
X110633D02*
X111267D01*
X106933Y249100D02*
X107667D01*
X108033D02*
X108667D01*
X105833Y249300D02*
X106467D01*
X106933D02*
X107667D01*
X108033D02*
X108767D01*
X106833Y249000D02*
X107667D01*
X108033D02*
X108367D01*
X109233D02*
X109667D01*
X110733D02*
X111267D01*
X106933Y249200D02*
X107667D01*
X108033D02*
X108767D01*
X108033Y248900D02*
X108367D01*
X115133Y249300D02*
X116567D01*
X117033D02*
X117567D01*
X118033D02*
X118467D01*
X118933D02*
X119367D01*
X119833D02*
X120367D01*
X120833D02*
X121467D01*
X122033D02*
X122067D01*
X122533D02*
X122967D01*
X123433D02*
X123867D01*
X124333D02*
X124767D01*
X117133Y249200D02*
X117467D01*
X115133D02*
X116567D01*
X118933Y248800D02*
X119367D01*
X118933Y248900D02*
X119367D01*
X112333D02*
X112967D01*
X113433D02*
X113867D01*
X115133D02*
X116567D01*
X117833D02*
X118467D01*
X119833D02*
X120367D01*
X120833D02*
X121167D01*
X121733D02*
X122067D01*
X109033Y248800D02*
X109667D01*
X110433D02*
X111267D01*
X108033D02*
X108367D01*
X92033Y248300D02*
X116767D01*
X92033Y248400D02*
X116667D01*
X91333Y248500D02*
X91767D01*
X92033D02*
X116667D01*
X117233D02*
X117667D01*
X117933D02*
X131367D01*
X91233Y248600D02*
X116567D01*
X117133D02*
X131367D01*
X91233Y248700D02*
X116567D01*
X117033D02*
X131367D01*
X105033Y248800D02*
X105767D01*
X106533D02*
X107667D01*
X104033D02*
X104567D01*
X104033Y248900D02*
X104567D01*
X105033D02*
X105567D01*
X106733D02*
X107667D01*
X100833D02*
X101067D01*
X113433Y249100D02*
X114667D01*
X109233D02*
X110167D01*
X110733D02*
X111267D01*
X111433D02*
X111967D01*
X112533D02*
X112967D01*
X113433Y249300D02*
X114667D01*
X109233D02*
X110367D01*
X110833D02*
X112167D01*
X112533D02*
X112967D01*
X109233Y249200D02*
X110267D01*
X110833D02*
X112067D01*
X112533D02*
X112967D01*
X112533Y249400D02*
X112967D01*
X113433Y249200D02*
X114667D01*
X112533Y249500D02*
X112967D01*
X102033Y248900D02*
X102667D01*
X104033Y249000D02*
X104567D01*
X105033D02*
X105567D01*
X102233Y249100D02*
X102667D01*
X104033D02*
X104567D01*
X105033D02*
X105467D01*
X106033D02*
X106367D01*
X103133Y249200D02*
X103567D01*
X104033D02*
X104567D01*
X105033D02*
X105367D01*
X105933D02*
X106467D01*
X102233D02*
X102667D01*
X98333Y248900D02*
X99867D01*
X96233Y249100D02*
X96767D01*
X98333D02*
X99767D01*
X100233D02*
X101567D01*
X97633D02*
X97867D01*
X97433Y249200D02*
X97867D01*
X98333D02*
X99767D01*
X100233D02*
X101667D01*
X96233D02*
X96767D01*
X96333Y249400D02*
X96667D01*
X97233D02*
X97867D01*
X98333D02*
X99767D01*
X100533D02*
X101767D01*
X103133D02*
X103567D01*
X104033D02*
X104567D01*
X105033D02*
X105367D01*
X102233D02*
X102667D01*
X87433Y249300D02*
X88867D01*
X89233D02*
X89767D01*
X90233D02*
X90667D01*
X91233D02*
X91667D01*
X90233Y249400D02*
X90667D01*
X85733Y249300D02*
X86867D01*
X91133Y249400D02*
X91767D01*
X92233D02*
X92567D01*
X93033D02*
X93467D01*
X94233D02*
X94867D01*
X87433Y249500D02*
X88867D01*
X89233D02*
X89767D01*
X90233D02*
X90667D01*
X91133D02*
X91767D01*
X92233D02*
X92567D01*
X93033D02*
X93567D01*
X94433D02*
X94867D01*
X96333D02*
X96667D01*
X85633D02*
X86867D01*
X92233Y249700D02*
X92567D01*
X93033D02*
X93967D01*
X94533D02*
X94867D01*
X96233Y249800D02*
X96567D01*
X97133D02*
X97867D01*
X94533D02*
X94867D01*
X98333D02*
X100367D01*
X92233Y249300D02*
X92567D01*
X93033D02*
X93467D01*
X93933D02*
X95867D01*
X97233D02*
X97867D01*
X98333D02*
X99767D01*
X100233D02*
X101767D01*
X96333D02*
X96667D01*
X103133D02*
X103567D01*
X104033D02*
X104567D01*
X102233D02*
X102667D01*
X105033D02*
X105367D01*
X118033Y249800D02*
X118467D01*
X118933D02*
X119367D01*
X123433D02*
X124767D01*
X120833D02*
X121467D01*
X122033D02*
X122067D01*
X122533D02*
X122967D01*
X125233D02*
X125367D01*
X125733D02*
X126067D01*
X126433D02*
X126567D01*
X127033D02*
X131367D01*
X124133Y249600D02*
X124767D01*
X125233D02*
X125367D01*
X127033D02*
X131367D01*
X118033Y249700D02*
X118467D01*
X118933D02*
X119367D01*
X119833D02*
X120367D01*
X120833D02*
X121567D01*
X122533D02*
X122967D01*
X123433D02*
X124767D01*
X125233D02*
X125367D01*
X125833D02*
X125967D01*
X126433D02*
X126567D01*
X127033D02*
X131367D01*
X115133Y249600D02*
X116567D01*
X117033D02*
X117567D01*
X118033D02*
X118467D01*
X118933D02*
X119367D01*
X119833D02*
X120367D01*
X120833D02*
X121667D01*
X122533D02*
X122967D01*
X117033Y249700D02*
X117567D01*
X115133D02*
X116567D01*
X110833Y249800D02*
X111167D01*
X111633D02*
X112067D01*
X112533D02*
X112967D01*
X113433D02*
X113967D01*
X117033D02*
X117567D01*
X115133D02*
X116567D01*
X109233D02*
X110267D01*
X118933Y249900D02*
X119267D01*
X119833D02*
X120367D01*
X120833D02*
X121467D01*
X121933D02*
X122067D01*
X122533D02*
X122967D01*
X123433D02*
X123967D01*
X124233D02*
X124767D01*
X125233D02*
X125267D01*
X125733D02*
X126067D01*
X126533D02*
X126567D01*
X126533Y250000D02*
X126567D01*
X124233D02*
X124767D01*
X125233D02*
X125267D01*
X125733D02*
X126067D01*
X127033D02*
X131367D01*
X127033Y249900D02*
X131367D01*
X113433Y249700D02*
X113967D01*
X112533Y249600D02*
X112967D01*
X113433D02*
X114667D01*
X125833D02*
X125967D01*
X97133Y249700D02*
X97867D01*
X98333D02*
X100267D01*
X96333D02*
X96567D01*
X110633Y250100D02*
X111367D01*
X106733D02*
X107167D01*
X110733Y249900D02*
X111167D01*
X111633D02*
X112067D01*
X110733Y250000D02*
X111267D01*
X106933Y249900D02*
X107167D01*
X108033D02*
X108767D01*
X109233D02*
X110167D01*
X108033Y250000D02*
X108467D01*
X109533D02*
X109667D01*
X107633Y250100D02*
X107667D01*
X108033D02*
X108467D01*
X109533D02*
X109667D01*
X106833Y250000D02*
X107167D01*
X112533Y249900D02*
X112967D01*
X117133D02*
X117467D01*
X118033D02*
X118467D01*
X113433D02*
X113967D01*
X115133D02*
X116567D01*
X117833Y250100D02*
X118567D01*
X113433Y250000D02*
X114667D01*
X115133D02*
X116567D01*
X112433D02*
X112967D01*
X117933D02*
X118467D01*
X96333Y249600D02*
X96567D01*
X97133D02*
X97867D01*
X98333D02*
X99967D01*
X100833D02*
X101767D01*
X102233D02*
X102667D01*
X103133D02*
X103567D01*
X104033D02*
X104567D01*
X105033D02*
X105367D01*
X105833D02*
X106467D01*
X106033Y249900D02*
X106367D01*
X105033Y250100D02*
X105567D01*
X105033Y250000D02*
X105567D01*
X105033Y249900D02*
X105467D01*
X97133D02*
X97867D01*
X98333D02*
X100367D01*
X102233D02*
X102667D01*
X103133D02*
X103567D01*
X104133D02*
X104367D01*
X100833D02*
X101667D01*
X103133Y249800D02*
X103567D01*
X102233D02*
X102667D01*
X104033D02*
X104467D01*
X105033D02*
X105367D01*
X105933D02*
X106467D01*
X100833D02*
X101667D01*
X100833Y249700D02*
X101767D01*
X102233D02*
X102667D01*
X104033D02*
X104467D01*
X105033D02*
X105367D01*
X105833D02*
X106467D01*
X106933D02*
X107567D01*
X108033D02*
X108767D01*
X109233D02*
X110367D01*
X110833D02*
X111167D01*
X111533D02*
X112167D01*
X112533D02*
X112967D01*
X103133D02*
X103567D01*
X95333D02*
X95867D01*
X119833Y249800D02*
X120367D01*
X106933D02*
X107567D01*
X108033D02*
X108767D01*
X95333D02*
X95867D01*
X122533Y250000D02*
X123067D01*
X120833D02*
X121367D01*
X121833D02*
X122067D01*
X119833D02*
X120367D01*
X101933Y250200D02*
X102667D01*
X103133D02*
X103767D01*
X104433D02*
X104567D01*
X105033D02*
X105767D01*
X106533D02*
X107167D01*
X107533D02*
X107667D01*
X108033D02*
X108467D01*
X109533D02*
X109667D01*
X110433D02*
X111467D01*
X119333D02*
X119467D01*
X119833D02*
X120367D01*
X117733D02*
X118667D01*
X120833D02*
X121167D01*
X72433Y250300D02*
X76467D01*
X98333D02*
X108767D01*
X77533D02*
X77867D01*
X98333Y250500D02*
X108767D01*
X109233D02*
X112967D01*
X115133Y250600D02*
X120367D01*
X113433Y250700D02*
X113867D01*
X115133D02*
X120367D01*
X113433Y250500D02*
X113867D01*
X115133D02*
X122067D01*
X113433Y250800D02*
X120367D01*
X113433Y250600D02*
X113867D01*
X120833Y250700D02*
X122067D01*
X109233Y250300D02*
X112967D01*
X113433D02*
X114667D01*
X115133D02*
X122067D01*
X113433Y250400D02*
X114667D01*
X115133D02*
X122067D01*
X109233D02*
X112967D01*
X72433Y251600D02*
X131367D01*
X78333Y250900D02*
X112967D01*
X113433D02*
X122067D01*
X72433Y251000D02*
X131367D01*
X72433Y251100D02*
X131367D01*
X72433Y251200D02*
X131367D01*
X122533Y250900D02*
X131367D01*
X72433Y251300D02*
X131367D01*
X72433Y251400D02*
X131367D01*
X72433Y251500D02*
X131367D01*
X125533Y250500D02*
X126267D01*
X122533Y250700D02*
X124767D01*
X125533D02*
X126367D01*
X122533Y250500D02*
X124767D01*
X127033Y250600D02*
X131367D01*
X120833Y250800D02*
X122067D01*
X120833Y250600D02*
X122067D01*
X122533D02*
X124767D01*
X125533D02*
X126267D01*
X127033Y250700D02*
X131367D01*
X127033Y250500D02*
X131367D01*
X122533Y250800D02*
X131367D01*
X82533Y249300D02*
X82967D01*
X83433D02*
X84367D01*
X84833D02*
X85267D01*
X81733D02*
X82067D01*
X79833D02*
X81267D01*
X72433D02*
X79367D01*
X72433Y249400D02*
X79367D01*
X79833Y249500D02*
X80267D01*
X81733D02*
X82067D01*
X82533D02*
X82967D01*
X83933D02*
X84367D01*
X72433D02*
X79367D01*
X84033Y249800D02*
X84367D01*
X84833D02*
X86167D01*
X89333D02*
X89667D01*
X90233D02*
X90667D01*
X91233D02*
X91667D01*
X87433D02*
X88867D01*
X84033Y249900D02*
X84467D01*
X84933D02*
X85367D01*
X85633D02*
X86167D01*
X87433D02*
X88867D01*
X90233D02*
X90667D01*
X89333D02*
X89667D01*
X93033Y249800D02*
X94067D01*
X79833Y249400D02*
X80267D01*
X81733D02*
X82067D01*
X82533D02*
X82967D01*
X83633D02*
X84367D01*
X85733D02*
X86867D01*
X87433D02*
X88867D01*
X89233D02*
X89767D01*
X84833D02*
X85167D01*
X79833Y249600D02*
X80267D01*
X81733D02*
X82067D01*
X81633Y249800D02*
X82067D01*
X79833D02*
X80267D01*
X80733D02*
X81267D01*
X80733Y249700D02*
X81267D01*
X81733D02*
X82067D01*
X79833D02*
X80267D01*
X89233Y249200D02*
X89767D01*
X90233D02*
X90667D01*
X91233D02*
X91667D01*
X92233D02*
X92567D01*
X93033D02*
X93467D01*
X93933D02*
X95767D01*
X92133Y249900D02*
X92567D01*
X93033D02*
X94067D01*
X94533D02*
X94967D01*
X95333D02*
X95767D01*
X96233D02*
X96567D01*
X91333D02*
X91567D01*
X72433Y249600D02*
X79367D01*
X84033D02*
X84367D01*
X85533D02*
X86867D01*
X87433D02*
X88867D01*
X89233D02*
X89767D01*
X90233D02*
X90667D01*
X91133D02*
X91767D01*
X92233D02*
X92567D01*
X93033D02*
X93667D01*
X94533D02*
X94867D01*
X82533D02*
X83167D01*
X103133Y250100D02*
X103667D01*
X96133Y250000D02*
X96667D01*
X97133D02*
X97867D01*
X98333D02*
X99767D01*
X102133D02*
X102667D01*
X103133D02*
X103667D01*
X100833D02*
X101167D01*
X97233Y250100D02*
X97867D01*
X98333D02*
X99767D01*
X100733D02*
X101167D01*
X102033D02*
X102667D01*
X100633Y250200D02*
X101067D01*
X98333D02*
X99767D01*
X94533Y250000D02*
X94967D01*
X83933Y250100D02*
X84567D01*
X85633D02*
X86867D01*
X87433D02*
X88967D01*
X90233D02*
X90667D01*
X92033D02*
X92567D01*
X93033D02*
X93467D01*
X94433D02*
X95067D01*
X79433D02*
X79467D01*
X79833D02*
X80467D01*
X81433D02*
X82067D01*
X72433D02*
X78967D01*
X76633Y250200D02*
X76867D01*
X96133Y250100D02*
X96667D01*
X78033Y250200D02*
X78967D01*
X79333D02*
X79467D01*
X81333D02*
X82067D01*
X78033Y250300D02*
X86867D01*
X87433D02*
X96767D01*
X97333D02*
X97867D01*
X82533Y250200D02*
X82967D01*
X83833D02*
X84667D01*
X85533D02*
X86867D01*
X87433D02*
X89067D01*
X89733D02*
X89767D01*
X90233D02*
X90667D01*
X91133D02*
X91267D01*
X91933D02*
X92567D01*
X93033D02*
X93467D01*
X94333D02*
X95167D01*
X95933D02*
X96667D01*
X97233D02*
X97867D01*
X79833D02*
X80567D01*
X82533Y250100D02*
X82967D01*
X87433Y250500D02*
X96867D01*
X78033D02*
X86167D01*
X72433D02*
X76467D01*
X82533Y249700D02*
X83467D01*
X84033D02*
X84367D01*
X84833D02*
X86167D01*
X87433D02*
X88867D01*
X89333D02*
X89767D01*
X90233D02*
X90667D01*
X91233D02*
X91767D01*
X72433D02*
X79367D01*
X92233Y249800D02*
X92567D01*
X82533D02*
X83567D01*
X82533Y249900D02*
X83567D01*
X72433Y249800D02*
X79267D01*
X77133Y250200D02*
X77267D01*
X77533D02*
X77867D01*
X76633Y250300D02*
X76767D01*
X77133D02*
X77267D01*
X72433Y250200D02*
X76467D01*
X76633Y250400D02*
X76767D01*
X77233D02*
X77267D01*
X77533D02*
X77867D01*
X78033D02*
X86867D01*
X87433D02*
X96767D01*
X72433D02*
X76467D01*
X72433Y252000D02*
X131367D01*
X72433Y251800D02*
X131367D01*
X72433Y251900D02*
X131367D01*
X72433Y251700D02*
X131367D01*
X97533Y250400D02*
X97867D01*
X98333Y250700D02*
X102667D01*
X103133D02*
X112967D01*
X103133Y250600D02*
X108767D01*
X109033D02*
X112967D01*
X93033D02*
X96967D01*
X98333D02*
X102667D01*
X103133Y250800D02*
X112967D01*
X93033D02*
X102667D01*
X98333Y250400D02*
X108767D01*
X110033Y253300D02*
X112767D01*
X105833D02*
X106967D01*
X115833D02*
X116467D01*
X115833Y253400D02*
X116467D01*
X120033Y253300D02*
X123267D01*
X120033Y253400D02*
X123267D01*
X126833D02*
X131367D01*
X126833Y253500D02*
X131367D01*
X105833Y253400D02*
X106867D01*
X110333D02*
X112667D01*
X105833Y253500D02*
X106867D01*
X110533D02*
X112667D01*
X115833D02*
X116467D01*
X120033D02*
X123167D01*
X126933Y253300D02*
X131367D01*
X72433Y252400D02*
X131367D01*
X72433Y252800D02*
X131367D01*
X99533Y253100D02*
X131367D01*
X72433Y252100D02*
X131367D01*
X72433Y252200D02*
X131367D01*
X72433Y252300D02*
X131367D01*
X72433Y252500D02*
X131367D01*
X72433Y252600D02*
X131367D01*
X72433Y252700D02*
X131367D01*
X72433Y252900D02*
X131367D01*
X100033Y253200D02*
X107867D01*
X109133D02*
X131367D01*
X72433Y253000D02*
X131367D01*
X96633Y253300D02*
X97567D01*
X100233D02*
X102767D01*
X100433Y253400D02*
X102667D01*
X100633Y253500D02*
X102667D01*
X96533Y253400D02*
X97367D01*
X105733Y254000D02*
X106767D01*
X105633Y254100D02*
X106767D01*
X96433Y253900D02*
X96667D01*
X96433Y254000D02*
X96567D01*
X96433Y253800D02*
X96767D01*
X96533Y253600D02*
X97067D01*
X96433Y254100D02*
X96467D01*
X110833Y253700D02*
X112667D01*
X115733D02*
X116467D01*
X126633Y253800D02*
X131367D01*
X126733Y253700D02*
X131367D01*
X126733Y253600D02*
X131367D01*
X105733Y253700D02*
X106867D01*
X120033D02*
X123167D01*
X100833D02*
X102667D01*
X96533D02*
X96867D01*
X96533Y253500D02*
X97167D01*
X121733Y250200D02*
X122067D01*
X122533D02*
X123167D01*
X124133D02*
X124767D01*
X125633D02*
X126167D01*
X127033Y250300D02*
X131367D01*
X122533D02*
X124767D01*
X127033Y250400D02*
X131367D01*
X122533D02*
X124767D01*
X125633D02*
X126267D01*
X125633Y250300D02*
X126167D01*
X127033Y250200D02*
X131367D01*
X122533Y250100D02*
X123067D01*
X112333D02*
X112967D01*
X113433D02*
X114667D01*
X115133D02*
X116567D01*
X125733D02*
X126167D01*
X120833D02*
X121267D01*
X121833D02*
X122067D01*
X127033D02*
X131367D01*
X124233D02*
X124767D01*
X125233D02*
X125267D01*
X119833D02*
X120367D01*
X113433Y250200D02*
X114667D01*
X115133D02*
X116567D01*
X117033D02*
X117067D01*
X112233D02*
X112967D01*
X115533Y254400D02*
X116467D01*
X115633Y254300D02*
X116467D01*
X110933D02*
X112467D01*
X119933Y254600D02*
X122767D01*
X110933D02*
X112367D01*
X110933Y254800D02*
X112367D01*
X110933Y255000D02*
X112267D01*
X115433D02*
X116467D01*
X119933D02*
X122567D01*
X125733Y255500D02*
X131367D01*
X125833Y255300D02*
X131367D01*
X125933Y255200D02*
X131367D01*
X126033Y255000D02*
X131367D01*
X126133Y254800D02*
X131367D01*
X126233Y254600D02*
X131367D01*
X126333Y254400D02*
X131367D01*
X119933Y254300D02*
X122867D01*
X119933Y254400D02*
X122867D01*
X115533Y254600D02*
X116467D01*
X125633Y255700D02*
X131367D01*
X125533Y255900D02*
X131367D01*
X115433Y254800D02*
X116467D01*
X119933D02*
X122667D01*
X125433Y256100D02*
X131367D01*
X125333Y256300D02*
X131367D01*
X82533Y250700D02*
X86167D01*
X87433D02*
X92567D01*
X77533Y250600D02*
X77867D01*
X78033D02*
X82067D01*
X87433D02*
X92567D01*
X82533Y250800D02*
X92567D01*
X82533Y250600D02*
X86167D01*
X93033Y250700D02*
X97267D01*
X72433Y253200D02*
X97867D01*
X72433Y253400D02*
X76467D01*
X76633Y253500D02*
X76767D01*
X72433Y253100D02*
X98367D01*
X76633Y250600D02*
X76667D01*
X76933D02*
X77067D01*
X72433D02*
X76467D01*
X76833Y250700D02*
X77067D01*
X77533D02*
X77867D01*
X78033D02*
X82067D01*
X72433D02*
X76467D01*
X76833Y250800D02*
X77167D01*
X72433D02*
X76467D01*
X76733Y250900D02*
X77167D01*
X77533D02*
X77567D01*
X78033Y250800D02*
X82067D01*
X77533D02*
X77867D01*
X72433Y250900D02*
X76467D01*
X77133Y253500D02*
X77267D01*
X77533D02*
X77867D01*
X72433D02*
X76467D01*
X76633Y253400D02*
X76767D01*
X77133D02*
X77267D01*
X77533D02*
X77867D01*
X78133D02*
X80167D01*
X82333D02*
X84067D01*
X87233D02*
X88867D01*
X82333Y253500D02*
X84067D01*
X87133D02*
X88867D01*
X78133D02*
X79967D01*
X92033D02*
X93467D01*
X92033Y253400D02*
X93467D01*
X91933Y253700D02*
X93367D01*
X91733Y254400D02*
X93167D01*
X91933Y253800D02*
X93367D01*
X91933Y253600D02*
X93367D01*
X91933Y253900D02*
X93367D01*
X91833Y254000D02*
X93267D01*
X91833Y254200D02*
X93267D01*
X91833Y254300D02*
X93267D01*
X91833Y254100D02*
X93267D01*
X91733Y254500D02*
X93167D01*
X91733Y254600D02*
X93167D01*
X91733Y254700D02*
X93167D01*
X91633Y254800D02*
X93067D01*
X91633Y255000D02*
X93067D01*
X91633Y255100D02*
X93067D01*
X91633Y254900D02*
X93067D01*
X91533Y255200D02*
X92967D01*
X91533Y255300D02*
X92967D01*
X91533Y255400D02*
X92967D01*
X91533Y255500D02*
X92967D01*
X91433Y255600D02*
X92867D01*
X91433Y255800D02*
X92867D01*
X91433Y255900D02*
X92867D01*
X91333Y256000D02*
X92767D01*
X91333Y256100D02*
X92767D01*
X91333Y256200D02*
X92767D01*
X91333Y256300D02*
X92767D01*
X91233Y256400D02*
X92667D01*
X91433Y255700D02*
X92867D01*
X91233Y256500D02*
X92667D01*
X91233Y256700D02*
X92667D01*
X91233Y256600D02*
X92667D01*
X91133Y256800D02*
X92567D01*
X95733D02*
X97367D01*
X91133Y256900D02*
X92567D01*
X91133Y257000D02*
X92567D01*
X95733D02*
X97367D01*
X91133Y257100D02*
X92567D01*
X95633D02*
X97367D01*
X91033Y257300D02*
X92467D01*
X91033Y257200D02*
X92467D01*
X95633D02*
X97267D01*
X95733Y256900D02*
X97367D01*
X95633Y257300D02*
X97267D01*
X77133Y253300D02*
X77267D01*
X76633D02*
X76867D01*
X72433D02*
X76467D01*
X76633Y253600D02*
X76767D01*
X76933D02*
X76967D01*
X77233D02*
X77267D01*
X78133D02*
X79767D01*
X82333D02*
X84067D01*
X87133D02*
X88867D01*
X77533D02*
X77867D01*
X72433D02*
X76467D01*
X95633Y257400D02*
X97267D01*
X91033D02*
X92467D01*
X91033Y257500D02*
X92467D01*
X95533D02*
X97267D01*
X90933Y257700D02*
X92367D01*
X95533Y257600D02*
X97167D01*
X90933D02*
X92367D01*
X95533Y257700D02*
X97167D01*
X115033Y256700D02*
X116567D01*
X115033Y256600D02*
X116567D01*
X125033Y256800D02*
X131367D01*
X125133Y256700D02*
X131367D01*
X125133Y256600D02*
X131367D01*
X125233Y256500D02*
X131367D01*
X125233Y256400D02*
X131367D01*
X115033D02*
X116567D01*
X100633Y256500D02*
X101967D01*
X105033D02*
X107367D01*
X110533D02*
X111967D01*
X100633Y256600D02*
X101867D01*
X105033D02*
X107367D01*
X110533D02*
X111867D01*
X115033Y256500D02*
X116567D01*
X119833Y257600D02*
X121367D01*
X119733Y258200D02*
X121167D01*
X119833Y257800D02*
X121267D01*
X119833Y257400D02*
X121467D01*
X119833Y257900D02*
X121267D01*
X119733Y258000D02*
X121267D01*
X119733Y258100D02*
X121167D01*
X119733Y258300D02*
X121067D01*
X119833Y257300D02*
X121567D01*
X124933Y257000D02*
X131367D01*
X110433Y256800D02*
X111867D01*
X114933D02*
X116567D01*
X105033D02*
X107367D01*
X110433Y257000D02*
X111767D01*
X114933D02*
X116567D01*
X104933D02*
X107267D01*
X100533Y256800D02*
X101867D01*
X104933Y256900D02*
X107267D01*
X110433D02*
X111867D01*
X114933D02*
X116567D01*
X100533D02*
X101867D01*
X110533Y256700D02*
X111867D01*
X105033D02*
X107367D01*
X100533D02*
X101867D01*
X95733D02*
X97467D01*
X95833Y256400D02*
X97467D01*
X100633D02*
X101967D01*
X105133D02*
X107467D01*
X110533D02*
X111967D01*
X95833Y256500D02*
X97467D01*
X95833Y256600D02*
X97467D01*
X119733Y259000D02*
X120767D01*
X119733Y258900D02*
X120767D01*
X119733Y258600D02*
X120967D01*
X119733Y258700D02*
X120867D01*
X119733Y258800D02*
X120867D01*
X119733Y259200D02*
X120667D01*
X119733Y259400D02*
X120567D01*
X119733Y259600D02*
X120467D01*
X119733Y259700D02*
X120467D01*
X85833Y259400D02*
X87167D01*
X90533D02*
X91967D01*
X95133D02*
X96767D01*
X99933D02*
X101167D01*
X104333D02*
X106667D01*
X81033D02*
X82367D01*
X123933Y258900D02*
X131367D01*
X124033Y258700D02*
X131367D01*
X124133Y258500D02*
X131367D01*
X123933Y258800D02*
X131367D01*
X119733Y259100D02*
X120667D01*
X123833Y259000D02*
X131367D01*
X119733Y259500D02*
X120567D01*
X119733Y259300D02*
X120667D01*
X123433Y259800D02*
X131367D01*
X123533Y259600D02*
X131367D01*
X123633Y259500D02*
X131367D01*
X123733Y259300D02*
X131367D01*
X123833Y259100D02*
X131367D01*
X124133Y258400D02*
X131367D01*
X119733D02*
X121067D01*
X119633Y259800D02*
X120367D01*
X80933Y259100D02*
X82567D01*
X72433Y259000D02*
X77867D01*
X81033D02*
X82667D01*
X85833D02*
X87467D01*
X90633D02*
X92067D01*
X72433Y259100D02*
X77767D01*
X72433Y259200D02*
X77767D01*
X81033Y259300D02*
X82467D01*
X85833D02*
X87267D01*
X72433D02*
X77767D01*
X72433Y259400D02*
X77767D01*
X72433Y259500D02*
X77667D01*
X72433Y259600D02*
X77667D01*
X72433Y259700D02*
X77667D01*
X72433Y259800D02*
X77667D01*
X90433Y259600D02*
X91867D01*
X95033D02*
X96667D01*
X99833D02*
X101167D01*
X95033Y259700D02*
X96667D01*
X99833D02*
X101167D01*
X104233D02*
X105367D01*
X90433D02*
X91867D01*
X109733D02*
X111167D01*
X95033Y259800D02*
X96667D01*
X99833D02*
X101067D01*
X104233D02*
X105267D01*
X109733D02*
X111067D01*
X90433D02*
X91867D01*
X124233Y258300D02*
X131367D01*
X124333Y258100D02*
X131367D01*
X124433Y258000D02*
X131367D01*
X124533Y257800D02*
X131367D01*
X124633Y257600D02*
X131367D01*
X124733Y257400D02*
X131367D01*
X124833Y257200D02*
X131367D01*
X124233Y258200D02*
X131367D01*
X124433Y257900D02*
X131367D01*
X119833Y257500D02*
X121467D01*
X119833Y257700D02*
X121367D01*
X124533D02*
X131367D01*
X123433Y259700D02*
X131367D01*
X114833Y257200D02*
X116567D01*
X114733Y257600D02*
X116567D01*
X114733Y257800D02*
X116567D01*
X114833Y257400D02*
X116567D01*
X114833Y257300D02*
X116567D01*
X114833Y257500D02*
X116567D01*
X114733Y257700D02*
X116567D01*
X114933Y257100D02*
X116567D01*
X100233Y257900D02*
X101567D01*
X100233Y258000D02*
X101567D01*
X100433Y257300D02*
X101767D01*
X100433Y257100D02*
X101767D01*
X72433Y257400D02*
X78267D01*
X72433Y257500D02*
X78167D01*
X81333Y257600D02*
X83067D01*
X72433D02*
X78167D01*
X72433Y257700D02*
X78167D01*
X81333D02*
X82967D01*
X81233Y257800D02*
X82967D01*
X72433D02*
X78167D01*
X72433Y257100D02*
X78267D01*
X114433Y259000D02*
X116667D01*
X114433Y259100D02*
X116667D01*
X114333Y259500D02*
X116667D01*
X114333Y259300D02*
X116667D01*
X114333Y259200D02*
X116667D01*
X114233Y259600D02*
X116667D01*
X114233Y259700D02*
X116667D01*
X114333Y259400D02*
X116667D01*
X114233Y259800D02*
X116667D01*
X114633Y258200D02*
X116667D01*
X114733Y257900D02*
X116567D01*
X114633Y258000D02*
X116567D01*
X114633Y258100D02*
X116567D01*
X114633Y258300D02*
X116667D01*
X114533Y258500D02*
X116667D01*
X114533Y258600D02*
X116667D01*
X114533Y258700D02*
X116667D01*
X114433Y258800D02*
X116667D01*
X114533Y258400D02*
X116667D01*
X114433Y258900D02*
X116667D01*
X72433Y267200D02*
X129667D01*
X72433Y267300D02*
X129567D01*
X72433Y267400D02*
X129467D01*
X72433Y267600D02*
X129167D01*
X72433Y267700D02*
X129067D01*
X72433Y267000D02*
X129867D01*
X72433Y266900D02*
X129867D01*
X72433Y268000D02*
X128667D01*
X72433Y268100D02*
X128567D01*
X72433Y267800D02*
X128967D01*
X72433Y267900D02*
X128867D01*
X72433Y268600D02*
X127567D01*
X72433Y268700D02*
X127267D01*
X72433Y268800D02*
X126967D01*
X72433Y268900D02*
X126667D01*
X72433Y269000D02*
X126067D01*
X72433Y268500D02*
X127767D01*
X72433Y268400D02*
X127967D01*
X72433Y268300D02*
X128167D01*
X72433Y268200D02*
X128367D01*
X109633Y259900D02*
X111067D01*
X114233D02*
X116667D01*
X119633D02*
X120367D01*
X109633Y260000D02*
X111067D01*
X114133D02*
X116667D01*
X123333D02*
X131367D01*
X109633Y260100D02*
X111067D01*
X114133D02*
X116667D01*
X119633D02*
X120267D01*
X119633Y260000D02*
X120267D01*
X123233Y260100D02*
X131367D01*
X123333Y259900D02*
X131367D01*
X123033Y260600D02*
X131367D01*
X123133Y260400D02*
X131367D01*
X123233Y260200D02*
X131367D01*
X109633D02*
X110967D01*
X114133D02*
X116667D01*
X119633D02*
X120167D01*
X109533Y260300D02*
X110967D01*
X114133D02*
X116667D01*
X119633D02*
X120167D01*
X109533Y260400D02*
X110967D01*
X114033D02*
X116667D01*
X109533Y260600D02*
X110867D01*
X114033D02*
X116667D01*
X119633D02*
X120067D01*
X119633Y260400D02*
X120167D01*
X123133Y260300D02*
X131367D01*
X72433Y259900D02*
X77667D01*
X72433Y260000D02*
X77567D01*
X72433Y260100D02*
X77567D01*
X72433Y260200D02*
X77567D01*
X94933D02*
X96567D01*
X99733D02*
X100967D01*
X104133D02*
X105167D01*
X90333D02*
X91767D01*
X94833Y260400D02*
X96467D01*
X99633D02*
X100967D01*
X104133D02*
X105167D01*
X90233D02*
X91667D01*
X90333Y260300D02*
X91767D01*
X72433D02*
X77567D01*
X94833D02*
X96567D01*
X99633D02*
X100967D01*
X104133D02*
X105167D01*
X72433Y260400D02*
X77567D01*
X122833Y260900D02*
X131367D01*
X122933Y260800D02*
X131367D01*
X109433Y260700D02*
X110867D01*
X114033D02*
X116667D01*
X109433Y260800D02*
X110867D01*
X113933D02*
X116667D01*
X119633D02*
X119967D01*
X109433Y260900D02*
X110867D01*
X113933D02*
X116767D01*
X119633Y260700D02*
X119967D01*
X122933D02*
X131367D01*
X119633Y260900D02*
X119867D01*
X123033Y260500D02*
X131367D01*
X72433D02*
X77567D01*
X90233D02*
X91667D01*
X94833D02*
X96467D01*
X99633D02*
X100967D01*
X109533D02*
X110967D01*
X114033D02*
X116667D01*
X119633D02*
X120067D01*
X104033D02*
X105167D01*
X72433Y260600D02*
X77667D01*
X82333D02*
X82367D01*
X87033D02*
X87067D01*
X94833D02*
X96467D01*
X99633D02*
X100867D01*
X104033D02*
X105067D01*
X90233D02*
X91667D01*
X122733Y261100D02*
X131367D01*
X109433Y261000D02*
X110767D01*
X113933D02*
X116767D01*
X119633D02*
X119867D01*
X109333Y261100D02*
X110767D01*
X113933D02*
X116767D01*
X122733Y261000D02*
X131367D01*
X119633Y261100D02*
X119767D01*
X82033Y260900D02*
X82467D01*
X86733D02*
X86967D01*
X90133D02*
X91567D01*
X94733D02*
X96367D01*
X99533D02*
X100867D01*
X103933D02*
X105067D01*
X90133Y261100D02*
X91567D01*
X94633D02*
X96367D01*
X86533D02*
X86967D01*
X104233Y260000D02*
X105267D01*
X94933Y259900D02*
X96667D01*
X99733D02*
X101067D01*
X90433D02*
X91867D01*
X99733Y260100D02*
X101067D01*
X104133D02*
X105267D01*
X90333D02*
X91767D01*
X94933D02*
X96567D01*
X90333Y260000D02*
X91767D01*
X94933D02*
X96567D01*
X99733D02*
X101067D01*
X104233Y259900D02*
X105267D01*
X72433Y260700D02*
X77667D01*
X72433Y260800D02*
X77667D01*
X72433Y260900D02*
X77667D01*
X72433Y261000D02*
X77767D01*
X81933D02*
X82567D01*
X86633D02*
X86967D01*
X90133D02*
X91567D01*
X94733D02*
X96367D01*
X99533D02*
X100767D01*
X81833Y261100D02*
X82667D01*
X72433D02*
X77767D01*
X82233Y260700D02*
X82467D01*
X86933D02*
X87067D01*
X90233D02*
X91667D01*
X94733D02*
X96467D01*
X99533D02*
X100867D01*
X104033D02*
X105067D01*
X82133Y260800D02*
X82467D01*
X86833D02*
X86967D01*
X90133D02*
X91567D01*
X94733D02*
X96367D01*
X99533D02*
X100867D01*
X104033D02*
X105067D01*
X103933Y261000D02*
X104967D01*
X103933Y261100D02*
X104967D01*
X99433D02*
X100767D01*
X109333Y261300D02*
X110667D01*
X103833D02*
X104967D01*
X99433Y261400D02*
X100667D01*
X103833D02*
X104867D01*
X99433Y261300D02*
X100767D01*
X99433Y261200D02*
X100767D01*
X103933D02*
X104967D01*
X109333D02*
X110767D01*
X113833Y261300D02*
X116767D01*
X119633D02*
X119667D01*
X122633D02*
X131367D01*
X113833Y261200D02*
X116767D01*
X119633D02*
X119767D01*
X109333Y261400D02*
X110667D01*
X113833D02*
X116767D01*
X119633D02*
X119667D01*
X122533D02*
X131367D01*
X109233Y261600D02*
X110667D01*
X113733D02*
X116767D01*
X122433D02*
X131367D01*
X109233Y261500D02*
X110667D01*
X113833D02*
X116767D01*
X122533D02*
X131367D01*
X122633Y261200D02*
X131367D01*
X90033Y261400D02*
X91467D01*
X94633D02*
X96267D01*
X94633Y261300D02*
X96267D01*
X90033D02*
X91467D01*
X86033Y261400D02*
X86867D01*
X86233Y261300D02*
X86867D01*
X86333Y261200D02*
X86867D01*
X90033D02*
X91467D01*
X94633D02*
X96267D01*
X81633D02*
X82667D01*
X109233Y261700D02*
X110567D01*
X113733D02*
X116767D01*
X122433D02*
X131367D01*
X109233Y261800D02*
X110567D01*
X113733D02*
X116767D01*
X122333D02*
X131367D01*
X109133Y262000D02*
X110567D01*
X113633D02*
X116767D01*
X109133Y261900D02*
X110567D01*
X113733D02*
X116767D01*
X122333D02*
X131367D01*
X122233Y262000D02*
X131367D01*
X80733Y261600D02*
X83367D01*
X85533D02*
X106167D01*
X80133Y261700D02*
X83767D01*
X84933D02*
X106067D01*
X72433Y261800D02*
X106067D01*
X85833Y261500D02*
X104867D01*
X72433Y262000D02*
X106067D01*
X72433Y261900D02*
X106067D01*
X81033Y261500D02*
X83067D01*
X72433Y262100D02*
X105967D01*
X109133D02*
X110467D01*
X113633D02*
X116767D01*
X122233D02*
X131367D01*
X72433Y262200D02*
X105967D01*
X109133D02*
X110467D01*
X113633D02*
X116767D01*
X122133D02*
X131367D01*
X72433Y262400D02*
X105967D01*
X109033D02*
X110467D01*
X113633D02*
X116767D01*
X72433Y261400D02*
X78167D01*
X72433Y261700D02*
X79067D01*
X72433Y261500D02*
X78367D01*
X72433Y261600D02*
X78567D01*
X72433Y261300D02*
X77967D01*
X72433Y261200D02*
X77867D01*
X81433Y261300D02*
X82767D01*
X81233Y261400D02*
X82967D01*
X122033Y262400D02*
X131367D01*
X72433Y262500D02*
X105867D01*
X109033D02*
X110367D01*
X113533D02*
X116767D01*
X121933D02*
X131367D01*
X72433Y262600D02*
X105867D01*
X109033D02*
X110367D01*
X113533D02*
X116767D01*
X72433Y262300D02*
X105967D01*
X109033D02*
X110467D01*
X113633D02*
X116767D01*
X122033D02*
X131367D01*
X121833Y262600D02*
X131367D01*
X72433Y262800D02*
X105767D01*
X108933D02*
X110367D01*
X113533D02*
X116767D01*
X121633D02*
X131367D01*
X72433Y262700D02*
X105867D01*
X108933D02*
X110367D01*
X113533D02*
X116767D01*
X121733D02*
X131367D01*
X72433Y262900D02*
X105767D01*
X108933D02*
X110267D01*
X113433D02*
X116767D01*
X121533D02*
X131367D01*
X72433Y263000D02*
X105767D01*
X108933D02*
X110267D01*
X113433D02*
X116767D01*
X121433D02*
X131367D01*
X72433Y263200D02*
X105667D01*
X108833D02*
X110267D01*
X113433D02*
X116767D01*
X121233D02*
X131367D01*
X72433Y263300D02*
X105667D01*
X108833D02*
X110167D01*
X113333D02*
X116767D01*
X121133D02*
X131367D01*
X72433Y263400D02*
X105667D01*
X108833D02*
X110167D01*
X113333D02*
X116767D01*
X72433Y263100D02*
X105767D01*
X108833D02*
X110267D01*
X113433D02*
X116767D01*
X121333D02*
X131367D01*
X120933Y263400D02*
X131367D01*
X72433Y267500D02*
X129367D01*
X72433Y267100D02*
X129767D01*
X72433Y266800D02*
X129967D01*
X72433Y266700D02*
X130067D01*
X96533Y255200D02*
X97467D01*
X96333Y255300D02*
X97567D01*
X96133Y255500D02*
X97667D01*
X96133Y255600D02*
X97667D01*
X96033Y255700D02*
X97667D01*
X96233Y255400D02*
X97567D01*
X100933Y255100D02*
X102267D01*
X100933Y255200D02*
X102267D01*
X105433D02*
X107467D01*
X100933Y255300D02*
X102267D01*
X105333D02*
X107567D01*
X100933Y255400D02*
X102167D01*
X105333D02*
X107567D01*
X100833Y255500D02*
X102167D01*
X105333D02*
X107667D01*
X100833Y255600D02*
X102167D01*
X105333D02*
X107567D01*
X105233Y255700D02*
X107567D01*
X100833D02*
X102167D01*
X110933Y255100D02*
X112267D01*
X110833Y255200D02*
X112267D01*
X110833Y255300D02*
X112267D01*
X110833Y255400D02*
X112167D01*
X110733Y255600D02*
X112167D01*
X110733Y255700D02*
X112167D01*
X110833Y255500D02*
X112167D01*
X101033Y254400D02*
X102467D01*
X105633D02*
X106667D01*
X101033Y254500D02*
X102467D01*
X105533D02*
X106667D01*
X101033Y254600D02*
X102367D01*
X105533D02*
X106567D01*
X101033Y254700D02*
X102367D01*
X105533D02*
X106567D01*
X101033Y254800D02*
X102367D01*
X105533D02*
X106567D01*
X101033Y254900D02*
X102367D01*
X101033Y255000D02*
X102267D01*
X105433D02*
X106467D01*
X105433Y254900D02*
X106567D01*
X105433Y255100D02*
X106467D01*
X100733Y253600D02*
X102667D01*
X105833D02*
X106867D01*
X100833Y253800D02*
X102567D01*
X105733D02*
X106767D01*
X105733Y253900D02*
X106767D01*
X100933D02*
X102567D01*
X100933Y254000D02*
X102567D01*
X101033Y254200D02*
X102467D01*
X105633D02*
X106667D01*
X101033Y254300D02*
X102467D01*
X105633D02*
X106667D01*
X100933Y254100D02*
X102567D01*
X76633Y253800D02*
X76667D01*
X72433Y253900D02*
X76467D01*
X76833D02*
X77067D01*
X72433Y254200D02*
X79167D01*
X72433Y254100D02*
X76467D01*
X76733D02*
X77167D01*
X77533D02*
X77567D01*
X78333D02*
X79267D01*
X76833Y254000D02*
X77167D01*
X77533D02*
X77867D01*
X78133D02*
X79267D01*
X72433D02*
X76467D01*
X76833Y253800D02*
X77067D01*
X78133Y253700D02*
X79667D01*
X77533Y253800D02*
X77867D01*
X78133D02*
X79467D01*
X77533Y253900D02*
X77867D01*
X78133D02*
X79367D01*
X79833Y249900D02*
X80367D01*
X80733D02*
X81167D01*
X77533Y253700D02*
X77867D01*
X76633D02*
X76667D01*
X76933D02*
X77067D01*
X77233D02*
X77267D01*
X72433D02*
X76467D01*
X72433Y253800D02*
X76467D01*
X72433Y254300D02*
X79067D01*
X72433Y254400D02*
X79067D01*
X72433Y254500D02*
X78967D01*
X87133Y253700D02*
X88767D01*
X87133Y253800D02*
X88767D01*
X87033Y253900D02*
X88767D01*
X86933Y254400D02*
X88667D01*
X87033Y254000D02*
X88767D01*
X87033Y254200D02*
X88667D01*
X86933Y254300D02*
X88667D01*
X87033Y254100D02*
X88667D01*
X86933Y254500D02*
X88567D01*
X86933Y254600D02*
X88567D01*
X86833Y254700D02*
X88567D01*
X86833Y254900D02*
X88467D01*
X86833Y255000D02*
X88467D01*
X86733Y255100D02*
X88467D01*
X86833Y254800D02*
X88567D01*
X82333Y253700D02*
X83967D01*
X82233Y253800D02*
X83967D01*
X82233Y253900D02*
X83967D01*
X82233Y254000D02*
X83967D01*
X82133Y254400D02*
X83867D01*
X82133Y254200D02*
X83867D01*
X82133Y254300D02*
X83867D01*
X82233Y254100D02*
X83867D01*
X82133Y254500D02*
X83767D01*
X82033Y254600D02*
X83767D01*
X82033Y254700D02*
X83767D01*
X82033Y254800D02*
X83767D01*
X81933Y255000D02*
X83667D01*
X81933Y255100D02*
X83667D01*
X81933Y255200D02*
X83667D01*
X82033Y254900D02*
X83667D01*
X86733Y255200D02*
X88467D01*
X86733Y255300D02*
X88367D01*
X86733Y255400D02*
X88367D01*
X86633Y255500D02*
X88367D01*
X86633Y255600D02*
X88367D01*
X86633Y255800D02*
X88267D01*
X86533Y255900D02*
X88267D01*
X86533Y256000D02*
X88267D01*
X86533Y256100D02*
X88167D01*
X86533Y256200D02*
X88167D01*
X86433Y256300D02*
X88167D01*
X86633Y255700D02*
X88267D01*
X86433Y256400D02*
X88167D01*
X72433Y254600D02*
X78967D01*
X72433Y254700D02*
X78867D01*
X72433Y254800D02*
X78867D01*
X72433Y254900D02*
X78867D01*
X72433Y255000D02*
X78867D01*
X72433Y255100D02*
X78767D01*
X72433Y255200D02*
X78767D01*
X72433Y255300D02*
X78767D01*
X72433Y255400D02*
X78767D01*
X72433Y255500D02*
X78667D01*
X72433Y255600D02*
X78667D01*
X72433Y255900D02*
X78567D01*
X72433Y256000D02*
X78567D01*
X81933Y255300D02*
X83567D01*
X81833Y255400D02*
X83567D01*
X81833Y255500D02*
X83567D01*
X81833Y255600D02*
X83567D01*
X81733Y255800D02*
X83467D01*
X81733Y255900D02*
X83467D01*
X81733Y256000D02*
X83467D01*
X81733Y256100D02*
X83367D01*
X81633Y256200D02*
X83367D01*
X81633Y256300D02*
X83367D01*
X81833Y255700D02*
X83467D01*
X81633Y256400D02*
X83367D01*
X81533Y256800D02*
X83267D01*
X86333Y256700D02*
X88067D01*
X81533D02*
X83267D01*
X81633Y256500D02*
X83267D01*
X86433D02*
X88067D01*
X81533Y256600D02*
X83267D01*
X86433D02*
X88067D01*
X86333Y256800D02*
X88067D01*
X81533Y256900D02*
X83167D01*
X86333D02*
X87967D01*
X81433Y257000D02*
X83167D01*
X86233Y257100D02*
X87967D01*
X86233Y257300D02*
X87867D01*
X86233Y257200D02*
X87967D01*
X86333Y257000D02*
X87967D01*
X86233Y257400D02*
X87867D01*
X72433Y249900D02*
X78967D01*
X79833Y250000D02*
X80367D01*
X72433D02*
X78967D01*
X82533D02*
X82967D01*
X84033D02*
X84467D01*
X81533D02*
X82067D01*
X78133Y253300D02*
X80567D01*
X82433D02*
X84067D01*
X77533D02*
X77867D01*
X76933Y250500D02*
X76967D01*
X77233D02*
X77267D01*
X77533D02*
X77867D01*
X76633D02*
X76667D01*
X81633Y249900D02*
X82067D01*
X72433Y255800D02*
X78667D01*
X72433Y256100D02*
X78567D01*
X72433Y256200D02*
X78567D01*
X72433Y256300D02*
X78467D01*
X72433Y256400D02*
X78467D01*
X72433Y255700D02*
X78667D01*
X72433Y256500D02*
X78467D01*
X72433Y256700D02*
X78367D01*
X72433Y256600D02*
X78467D01*
X72433Y256800D02*
X78367D01*
X72433Y256900D02*
X78367D01*
X72433Y257000D02*
X78367D01*
X72433Y257200D02*
X78267D01*
X72433Y257300D02*
X78267D01*
X100533Y257000D02*
X101767D01*
X100433Y257400D02*
X101667D01*
X100333Y257500D02*
X101667D01*
X100333Y257700D02*
X101667D01*
X100333Y257600D02*
X101667D01*
X100333Y257800D02*
X101567D01*
X100433Y257200D02*
X101767D01*
X86133Y257500D02*
X87867D01*
X85633Y250000D02*
X86867D01*
X87233Y253300D02*
X88867D01*
X87433Y250000D02*
X88867D01*
X90233D02*
X90667D01*
X92133D02*
X92567D01*
X92033Y253300D02*
X93467D01*
X93033Y250000D02*
X93567D01*
X110333Y257200D02*
X111767D01*
X110233Y257600D02*
X111667D01*
X110233Y257800D02*
X111567D01*
X110333Y257400D02*
X111667D01*
X110333Y257300D02*
X111767D01*
X110333Y257500D02*
X111667D01*
X110233Y257700D02*
X111667D01*
X110433Y257100D02*
X111767D01*
X81233Y257900D02*
X82967D01*
X81433Y257200D02*
X83167D01*
X81433Y257300D02*
X83067D01*
X81333Y257400D02*
X83067D01*
X81333Y257500D02*
X83067D01*
X81433Y257100D02*
X83167D01*
X104933Y257200D02*
X107267D01*
X104733Y257900D02*
X107067D01*
X104933Y257100D02*
X107267D01*
X104833Y257400D02*
X107167D01*
X104833Y257500D02*
X107167D01*
X104733Y257700D02*
X107067D01*
X104833Y257600D02*
X107167D01*
X104733Y257800D02*
X107067D01*
X104833Y257300D02*
X107167D01*
X72433Y257900D02*
X78067D01*
X81233Y258000D02*
X82967D01*
X72433D02*
X78067D01*
X72433Y258100D02*
X78067D01*
X81233D02*
X82867D01*
X81133Y258200D02*
X82867D01*
X72433D02*
X78067D01*
X72433Y258300D02*
X77967D01*
X81133D02*
X82867D01*
X110233Y257900D02*
X111567D01*
X110133Y258000D02*
X111567D01*
X110133Y258200D02*
X111467D01*
X110133Y258100D02*
X111567D01*
X109933Y258900D02*
X111367D01*
X109933Y259000D02*
X111267D01*
X109833Y259300D02*
X111267D01*
X110033Y258400D02*
X111467D01*
X110033Y258500D02*
X111467D01*
X110033Y258600D02*
X111367D01*
X109933Y258700D02*
X111367D01*
X109933Y258800D02*
X111367D01*
X109833Y259100D02*
X111267D01*
X109833Y259200D02*
X111267D01*
X110133Y258300D02*
X111467D01*
X109833Y259400D02*
X111167D01*
X90933Y257900D02*
X92367D01*
X95433D02*
X97167D01*
X95433Y258000D02*
X97067D01*
X90833D02*
X92267D01*
X90833Y258100D02*
X92267D01*
X95433D02*
X97067D01*
X90833Y258200D02*
X92267D01*
X95433D02*
X97067D01*
X95533Y257800D02*
X97167D01*
X95133Y259300D02*
X96767D01*
X90833Y258300D02*
X92267D01*
X90733Y258400D02*
X92167D01*
X90933Y257800D02*
X92367D01*
X95333Y258300D02*
X97067D01*
X95333Y258500D02*
X96967D01*
X95333Y258600D02*
X96967D01*
X95333Y258400D02*
X96967D01*
X95233Y258700D02*
X96967D01*
X86033Y257900D02*
X87767D01*
X86033Y258000D02*
X87767D01*
X86033Y258100D02*
X87667D01*
X86033Y258200D02*
X87667D01*
X86133Y257600D02*
X87867D01*
X86133Y257700D02*
X87767D01*
X86133Y257800D02*
X87767D01*
X85933Y258300D02*
X87667D01*
X85933Y258400D02*
X87667D01*
X85933Y258600D02*
X87567D01*
X85833Y258700D02*
X87567D01*
X85833Y258800D02*
X87567D01*
X85833Y258900D02*
X87467D01*
X85833Y259100D02*
X87367D01*
X85933Y258500D02*
X87567D01*
X85833Y259200D02*
X87367D01*
X100233Y258100D02*
X101567D01*
X100233Y258200D02*
X101467D01*
X100033Y259000D02*
X101267D01*
X100133Y258300D02*
X101467D01*
X100133Y258400D02*
X101467D01*
X100133Y258500D02*
X101467D01*
X100133Y258600D02*
X101367D01*
X100033Y258900D02*
X101367D01*
X100033Y258700D02*
X101367D01*
X99933Y259100D02*
X101267D01*
X99933Y259200D02*
X101267D01*
X100033Y258800D02*
X101367D01*
X99933Y259300D02*
X101267D01*
X104733Y258000D02*
X107067D01*
X104633Y258100D02*
X106967D01*
X104633Y258200D02*
X106967D01*
X104433Y259000D02*
X106767D01*
X104633Y258300D02*
X106967D01*
X104633Y258400D02*
X106967D01*
X104433Y258900D02*
X106767D01*
X104533Y258500D02*
X106867D01*
X104533Y258600D02*
X106867D01*
X104533Y258700D02*
X106867D01*
X104433Y259100D02*
X106767D01*
X104433Y259200D02*
X106767D01*
X104533Y258800D02*
X106867D01*
X104333Y259300D02*
X106667D01*
X90733Y258500D02*
X92167D01*
X90733Y258600D02*
X92167D01*
X90733Y258700D02*
X92167D01*
X95233Y258900D02*
X96867D01*
X90633Y258800D02*
X92067D01*
X95233D02*
X96867D01*
X95233Y259000D02*
X96867D01*
X90633Y258900D02*
X92067D01*
X90633Y259100D02*
X92067D01*
X95133D02*
X96867D01*
X95133Y259200D02*
X96767D01*
X90533D02*
X91967D01*
X90533Y259300D02*
X91967D01*
X109733Y259500D02*
X111167D01*
X95033D02*
X96767D01*
X99833D02*
X101167D01*
X104333D02*
X106667D01*
X90533D02*
X91967D01*
X81133D02*
X82267D01*
X85933D02*
X87067D01*
X81233Y259600D02*
X82067D01*
X86033D02*
X86867D01*
X104333D02*
X106667D01*
X109733D02*
X111167D01*
X81133Y258400D02*
X82867D01*
X72433D02*
X77967D01*
X72433Y258500D02*
X77967D01*
X81133D02*
X82767D01*
X72433Y258600D02*
X77967D01*
X81033D02*
X82767D01*
X81033Y258700D02*
X82767D01*
X72433D02*
X77867D01*
X81033Y258800D02*
X82667D01*
X72433D02*
X77867D01*
X81033Y258900D02*
X82667D01*
X72433D02*
X77867D01*
X81033Y259200D02*
X82567D01*
X115733Y253600D02*
X116467D01*
X115733Y253800D02*
X116467D01*
X115633Y254000D02*
X116467D01*
X115633Y254100D02*
X116467D01*
X115633Y254200D02*
X116467D01*
X115733Y253900D02*
X116467D01*
X125733Y255400D02*
X131367D01*
X125633Y255600D02*
X131367D01*
X125533Y255800D02*
X131367D01*
X125433Y256000D02*
X131367D01*
X125333Y256200D02*
X131367D01*
X124833Y257100D02*
X131367D01*
X124733Y257300D02*
X131367D01*
X124033Y258600D02*
X131367D01*
X126633Y253900D02*
X131367D01*
X124633Y257500D02*
X131367D01*
X124933Y256900D02*
X131367D01*
X126233Y254500D02*
X131367D01*
X126533Y254000D02*
X131367D01*
X110733Y253600D02*
X112667D01*
X110933Y254400D02*
X112467D01*
X110833Y253800D02*
X112567D01*
X110933Y253900D02*
X112567D01*
X110933Y254000D02*
X112567D01*
X110933Y254100D02*
X112567D01*
X110933Y254200D02*
X112467D01*
X110933Y254500D02*
X112467D01*
X110933Y254700D02*
X112367D01*
X115533D02*
X116467D01*
X110933Y254900D02*
X112367D01*
X115533Y254500D02*
X116467D01*
X126433Y254100D02*
X131367D01*
X126433Y254200D02*
X131367D01*
X126333Y254300D02*
X131367D01*
X123733Y259200D02*
X131367D01*
X115433Y254900D02*
X116467D01*
X115433Y255100D02*
X116467D01*
X115333Y255200D02*
X116467D01*
X115233Y255700D02*
X116567D01*
X115333Y255300D02*
X116467D01*
X115333Y255400D02*
X116467D01*
X115333Y255500D02*
X116467D01*
X115233Y255600D02*
X116567D01*
X115233Y255900D02*
X116567D01*
X115133Y256000D02*
X116567D01*
X115133Y256100D02*
X116567D01*
X115233Y255800D02*
X116567D01*
X115133Y256200D02*
X116567D01*
X105233Y255800D02*
X107567D01*
X110733D02*
X112067D01*
X105233Y255900D02*
X107567D01*
X110733D02*
X112067D01*
X105233Y256000D02*
X107567D01*
X110633D02*
X112067D01*
X105133Y256100D02*
X107467D01*
X110633D02*
X112067D01*
X105133Y256200D02*
X107467D01*
X110633D02*
X111967D01*
X105133Y256300D02*
X107467D01*
X110633D02*
X111967D01*
X115133D02*
X116567D01*
X126133Y254700D02*
X131367D01*
X126033Y254900D02*
X131367D01*
X125933Y255100D02*
X131367D01*
X123633Y259400D02*
X131367D01*
X96033Y255800D02*
X97667D01*
X100833D02*
X102067D01*
X95933Y255900D02*
X97667D01*
X100733D02*
X102067D01*
X95933Y256000D02*
X97567D01*
X100733D02*
X102067D01*
X95933Y256100D02*
X97567D01*
X100733D02*
X102067D01*
X95933Y256200D02*
X97567D01*
X100733D02*
X101967D01*
X100633Y256300D02*
X101967D01*
X95833D02*
X97567D01*
X120033Y253600D02*
X123167D01*
X120033Y253800D02*
X123067D01*
X120033Y253900D02*
X123067D01*
X120033Y254000D02*
X122967D01*
X120033Y254100D02*
X122967D01*
X120033Y254200D02*
X122867D01*
X119933Y254500D02*
X122767D01*
X119933Y254700D02*
X122667D01*
X119933Y254900D02*
X122567D01*
X119933Y255100D02*
X122467D01*
X119733Y258500D02*
X120967D01*
X72433Y263900D02*
X105567D01*
X108633D02*
X110067D01*
X113233D02*
X116867D01*
X119933D02*
X131367D01*
X72433Y263700D02*
X105567D01*
X108733D02*
X110067D01*
X113233D02*
X116867D01*
X72433Y263800D02*
X105567D01*
X108733D02*
X110067D01*
X113233D02*
X116867D01*
X120233D02*
X131367D01*
X120433Y263700D02*
X131367D01*
X72433Y266300D02*
X130367D01*
X72433Y265900D02*
X130667D01*
X72433Y265100D02*
X131067D01*
X72433Y265000D02*
X131067D01*
X72433Y263600D02*
X105567D01*
X108733D02*
X110167D01*
X113333D02*
X116867D01*
X120633D02*
X131367D01*
X72433Y263500D02*
X105667D01*
X108733D02*
X110167D01*
X113333D02*
X116867D01*
X120833D02*
X131367D01*
X72433Y264700D02*
X131167D01*
X72433Y264300D02*
X131267D01*
X72433Y264400D02*
X131267D01*
X72433Y264600D02*
X131267D01*
X72433Y264800D02*
X131167D01*
X72433Y264900D02*
X131167D01*
X72433Y264500D02*
X131267D01*
X72433Y265500D02*
X130867D01*
X72433Y265200D02*
X130967D01*
X72433Y265300D02*
X130967D01*
X72433Y265400D02*
X130867D01*
X72433Y265600D02*
X130867D01*
X72433Y265700D02*
X130767D01*
X72433Y265800D02*
X130667D01*
X72433Y266000D02*
X130567D01*
X72433Y266100D02*
X130567D01*
X72433Y266400D02*
X130267D01*
X72433Y266500D02*
X130267D01*
X72433Y266200D02*
X130467D01*
X72433Y266600D02*
X130167D01*
X108633Y264000D02*
X110067D01*
X113233D02*
X116867D01*
X119633D02*
X131367D01*
X113133Y264100D02*
X116867D01*
X119033D02*
X131367D01*
X72433D02*
X109967D01*
X72433Y264000D02*
X105467D01*
X72433Y264200D02*
X131367D01*
M02*
