G04*
G04 #@! TF.GenerationSoftware,Altium Limited,Altium Designer,21.3.2 (30)*
G04*
G04 Layer_Color=255*
%FSLAX25Y25*%
%MOIN*%
G70*
G04*
G04 #@! TF.SameCoordinates,2DA63E57-4869-4DD6-A6C4-22B490529F43*
G04*
G04*
G04 #@! TF.FilePolarity,Positive*
G04*
G01*
G75*
%ADD24R,0.03661X0.03858*%
%ADD80C,0.07087*%
%ADD81R,0.07087X0.10236*%
%ADD82O,0.07087X0.10236*%
%ADD83C,0.04724*%
%ADD84O,0.06299X0.03937*%
%ADD85O,0.08268X0.03937*%
%ADD86C,0.02756*%
%ADD87R,0.07087X0.07087*%
%ADD88C,0.07874*%
%ADD89C,0.12992*%
%ADD90C,0.08661*%
%ADD91C,0.13780*%
%ADD92R,0.07087X0.07087*%
D24*
X157063Y84000D02*
D03*
X151000Y84000D02*
D03*
D80*
X352043Y47500D02*
D03*
Y57342D02*
D03*
X294957Y37657D02*
D03*
X352043Y37657D02*
D03*
X294957Y57342D02*
D03*
X93000Y128000D02*
D03*
X93000Y118000D02*
D03*
X93000Y108000D02*
D03*
X123000Y128000D02*
D03*
X123000Y118000D02*
D03*
X191500Y188606D02*
D03*
Y169394D02*
D03*
X248500Y99339D02*
D03*
X258500D02*
D03*
X228500D02*
D03*
X238500Y99339D02*
D03*
X198500Y99339D02*
D03*
X208500Y99339D02*
D03*
X218500Y99339D02*
D03*
X31500Y129685D02*
D03*
X101000Y197193D02*
D03*
X41000Y283807D02*
D03*
X71000D02*
D03*
X41000Y197193D02*
D03*
X151000Y113500D02*
D03*
X351500Y231500D02*
D03*
Y241500D02*
D03*
Y251500D02*
D03*
X233500Y130000D02*
D03*
Y120000D02*
D03*
X351500Y274000D02*
D03*
Y284000D02*
D03*
D81*
X51500Y103500D02*
D03*
D82*
X71500Y103461D02*
D03*
X61500Y103500D02*
D03*
D83*
X209000Y251646D02*
D03*
Y281173D02*
D03*
D84*
X357030Y192508D02*
D03*
Y158492D02*
D03*
D85*
X340573Y192508D02*
D03*
X340573Y158492D02*
D03*
D86*
X342659Y187232D02*
D03*
Y163768D02*
D03*
D87*
X123000Y108000D02*
D03*
X188500Y99339D02*
D03*
D88*
X22000Y146500D02*
D03*
Y156500D02*
D03*
D89*
X90591Y326736D02*
D03*
X39410D02*
D03*
D90*
X37441Y306264D02*
D03*
X92559Y306264D02*
D03*
D91*
X272886Y95395D02*
D03*
X174114Y20605D02*
D03*
X174287Y95402D02*
D03*
X272713Y20598D02*
D03*
D92*
X31500Y80315D02*
D03*
X151000Y123500D02*
D03*
X351500Y221500D02*
D03*
X233500Y140000D02*
D03*
X351500Y264000D02*
D03*
M02*
