G04*
G04 #@! TF.GenerationSoftware,Altium Limited,Altium Designer,21.3.2 (30)*
G04*
G04 Layer_Color=32768*
%FSLAX25Y25*%
%MOIN*%
G70*
G04*
G04 #@! TF.SameCoordinates,2DA63E57-4869-4DD6-A6C4-22B490529F43*
G04*
G04*
G04 #@! TF.FilePolarity,Positive*
G04*
G01*
G75*
%ADD10C,0.01575*%
%ADD11C,0.01000*%
%ADD12C,0.00787*%
%ADD13C,0.01181*%
%ADD14C,0.02362*%
G36*
X41579Y115331D02*
X41579Y112024D01*
X81146D01*
X81146Y115331D01*
X41579D01*
D02*
G37*
G36*
X197125Y115121D02*
X194525Y115121D01*
Y115821D01*
X197125Y115821D01*
X197125Y115121D01*
D02*
G37*
G36*
X197125Y124121D02*
X194525Y124121D01*
Y124821D01*
X197125Y124821D01*
X197125Y124121D01*
D02*
G37*
G36*
X209514Y115821D02*
X210511D01*
X210511Y115121D01*
X209514D01*
Y114182D01*
X208814D01*
Y115121D01*
X207911D01*
Y115821D01*
X208814D01*
Y116782D01*
X209514D01*
Y115821D01*
D02*
G37*
G36*
X209514Y124821D02*
X210511D01*
Y124121D01*
X209514D01*
Y123182D01*
X208814D01*
X208814Y124121D01*
X207911D01*
Y124821D01*
X208814D01*
X208814Y125782D01*
X209514Y125782D01*
Y124821D01*
D02*
G37*
D10*
X152001Y151572D02*
G03*
X152001Y151572I-787J0D01*
G01*
X25348Y160750D02*
G03*
X25348Y160750I-787J0D01*
G01*
X255501Y267082D02*
G03*
X255501Y267082I-787J0D01*
G01*
X283000D02*
G03*
X283000Y267082I-787J0D01*
G01*
D11*
X366500Y325500D02*
G03*
X346500Y345500I-20000J0D01*
G01*
Y2500D02*
G03*
X366500Y22500I0J20000D01*
G01*
X20000Y345500D02*
G03*
X0Y325500I0J-20000D01*
G01*
Y22500D02*
G03*
X20000Y2500I20000J0D01*
G01*
X346500D01*
X20000Y345500D02*
X346500D01*
X366500Y22500D02*
Y325500D01*
X0Y22500D02*
Y325500D01*
D12*
X298493Y170480D02*
G03*
X298493Y170480I-394J0D01*
G01*
D13*
X189977Y125000D02*
G03*
X189977Y125000I-591J0D01*
G01*
X234763Y204291D02*
G03*
X234763Y204291I-591J0D01*
G01*
X267591Y248626D02*
G03*
X267591Y248626I-591J0D01*
G01*
D14*
X51181Y95000D02*
G03*
X51181Y95000I-1181J0D01*
G01*
M02*
