M48
;Layer_Color=9474304
;FILE_FORMAT=2:5
INCH,LZ
;TYPE=PLATED
T1F00S00C0.01600
T3F00S00C0.02800
T4F00S00C0.03150
T5F00S00C0.03543
T6F00S00C0.03937
T7F00S00C0.04331
T8F00S00C0.04724
T9F00S00C0.05118
T10F00S00C0.05906
;TYPE=NON_PLATED
T11F00S00C0.02756
T12F00S00C0.04724
T13F00S00C0.07874
T14F00S00C0.12992
%
T01
X010069Y014869
X0144Y01405
X0158Y0152
X0187Y0144
X0162Y01155
X0219Y0116
X0261359Y0150586
X0270071Y0150114
X0288Y00965
X0303576Y009039
X0315Y0102
X0356Y0097
X0293391Y0155798
X0285Y0169
X02875Y01905
X0281Y0202
X028598Y0209564
X02825Y02425
X02665Y02365
X0267Y02255
X0277Y0224
X0247Y02305
X0244Y02365
X0241Y02425
X0238Y02245
X0232
X0241Y02105
X0232Y01915
X0227Y019096
X02195Y01975
X0210385Y0201771
X0194Y01955
X01885Y02035
X01835Y0192
X01725Y0196
X0163136Y0203152
X0149156Y020858
X0150021Y0196042
X01525Y0228
X0161122Y0228833
X0168Y02285
X0169Y0174
Y01575
X01835Y01655
X01935Y01625
X0214Y01655
X0219Y01755
X02135Y018
X018Y01795
X0241Y01725
X02535Y01715
X026Y0174
X02715Y0166
X0252106Y0253589
X0226325Y0298639
X0161Y02995
X0152903Y0299771
X011902Y0158499
X01115Y01585
X0089529Y0163529
X00995Y0174
X00895Y01845
X006Y0163
X0039Y01755
X0260143Y0319078
X0267
X0287
X0294133
T03
X00615Y01295
T04
X01915Y0169394
Y0188606
T05
X00315Y0080315
Y0129685
X0151Y01235
Y01135
X01885Y0099339
X01985
X02085Y0099339
X02185Y0099339
X02285
X02385Y0099339
X02485Y0099339
X02585
X02335Y012
Y013
Y014
X03515Y02215
Y02315
Y02415
Y02515
Y0264
Y0274
Y0284
X0071Y0283807
X0041
Y0197193
X0101
T06
X0093Y0108
X0093Y0118
X0093Y0128
X0123
X0123Y0118
Y0108
T07
X0294957Y0037657
Y0057342
X0352043
Y00475
X0352043Y0037657
T08
X00515Y01035
X00615Y01035
X00715Y0103461
T09
X0022Y01465
Y01565
T10
X0037441Y0306264
X0092559Y0306264
T11
X0342659Y0163768
Y0187232
T12
X0209Y0251646
Y0281173
T13
X0174114Y0020605
X0174287Y0095402
X0272886Y0095395
X0272713Y0020598
T14
X003941Y0326736
X0090591
M30
