G04*
G04 #@! TF.GenerationSoftware,Altium Limited,Altium Designer,21.3.2 (30)*
G04*
G04 Layer_Color=255*
%FSLAX25Y25*%
%MOIN*%
G70*
G04*
G04 #@! TF.SameCoordinates,AD82394D-94CB-4E6D-8DF2-E68E24F3FF13*
G04*
G04*
G04 #@! TF.FilePolarity,Positive*
G04*
G01*
G75*
%ADD21R,0.03661X0.03858*%
%ADD22R,0.21654X0.21654*%
%ADD23R,0.03937X0.05512*%
%ADD24R,0.03937X0.06299*%
%ADD25R,0.17323X0.09055*%
%ADD26R,0.15748X0.09055*%
%ADD27R,0.03858X0.03661*%
%ADD28R,0.03402X0.03150*%
%ADD29R,0.04331X0.09843*%
%ADD30R,0.14173X0.09213*%
%ADD31O,0.01102X0.03543*%
%ADD32O,0.03543X0.01102*%
%ADD33R,0.05512X0.03937*%
%ADD34R,0.06299X0.03937*%
%ADD35R,0.05512X0.04724*%
%ADD36R,0.04331X0.06693*%
%ADD37O,0.07343X0.02480*%
%ADD38R,0.05709X0.02362*%
%ADD39R,0.05709X0.01181*%
%ADD40R,0.06693X0.04331*%
%ADD41R,0.12598X0.06496*%
%ADD42R,0.08661X0.07087*%
%ADD43O,0.02398X0.08679*%
%ADD44R,0.04921X0.02756*%
%ADD87C,0.07087*%
%ADD88R,0.07087X0.07087*%
%ADD89C,0.04724*%
%ADD90C,0.19685*%
%ADD91C,0.12992*%
%ADD92C,0.08661*%
%ADD93C,0.11024*%
%ADD94C,0.02756*%
%ADD95O,0.06299X0.03937*%
%ADD96O,0.08268X0.03937*%
%ADD97R,0.07087X0.07087*%
%ADD98R,0.10236X0.07087*%
%ADD99O,0.10236X0.07087*%
%ADD100C,0.07874*%
D21*
X104094Y84500D02*
D03*
X98031D02*
D03*
X85937Y16000D02*
D03*
X92000D02*
D03*
X48000Y154500D02*
D03*
X54063D02*
D03*
X33979D02*
D03*
X40042D02*
D03*
X63594Y93500D02*
D03*
X57531D02*
D03*
X160007Y241175D02*
D03*
X153944D02*
D03*
X160007Y248675D02*
D03*
X153944D02*
D03*
X201381Y229175D02*
D03*
X207444D02*
D03*
X156007Y229675D02*
D03*
X149944Y229675D02*
D03*
X167344Y241175D02*
D03*
X173407D02*
D03*
X167424Y248679D02*
D03*
X173487Y248679D02*
D03*
X19958Y154500D02*
D03*
X26021D02*
D03*
X5937D02*
D03*
X12000D02*
D03*
X65906Y71500D02*
D03*
X71969D02*
D03*
X52437Y79000D02*
D03*
X58500Y79000D02*
D03*
X58594Y71500D02*
D03*
X52531D02*
D03*
X72063Y79000D02*
D03*
X66000D02*
D03*
D22*
X85056Y105325D02*
D03*
D23*
X35227Y163175D02*
D03*
Y193883D02*
D03*
X52944Y163175D02*
D03*
Y193883D02*
D03*
X7142Y163175D02*
D03*
Y193883D02*
D03*
X24859Y163175D02*
D03*
Y193883D02*
D03*
D24*
X44086Y193096D02*
D03*
X16000D02*
D03*
D25*
X113358Y31500D02*
D03*
D26*
X176350D02*
D03*
D27*
X211000Y168000D02*
D03*
Y161937D02*
D03*
X132787Y71094D02*
D03*
X132787Y65031D02*
D03*
X141000Y71094D02*
D03*
X141000Y65031D02*
D03*
X139500Y165000D02*
D03*
Y171063D02*
D03*
X108500Y117906D02*
D03*
Y123969D02*
D03*
X139500Y158094D02*
D03*
X139500Y152031D02*
D03*
X73056Y133888D02*
D03*
Y127825D02*
D03*
X121500Y80531D02*
D03*
Y86594D02*
D03*
X117000Y109719D02*
D03*
Y115781D02*
D03*
X65500Y133594D02*
D03*
Y127531D02*
D03*
X113500Y86594D02*
D03*
Y80531D02*
D03*
X124574Y71094D02*
D03*
Y65031D02*
D03*
X117000Y122406D02*
D03*
Y128469D02*
D03*
Y103094D02*
D03*
Y97031D02*
D03*
X200444Y215581D02*
D03*
Y221644D02*
D03*
X208444Y215581D02*
D03*
Y221644D02*
D03*
X149444Y222268D02*
D03*
Y216205D02*
D03*
X156944Y222238D02*
D03*
Y216175D02*
D03*
X182613Y190581D02*
D03*
Y196644D02*
D03*
X190502Y190581D02*
D03*
Y196644D02*
D03*
X174725Y190581D02*
D03*
Y196644D02*
D03*
X158948Y190581D02*
D03*
Y196644D02*
D03*
X166836Y190581D02*
D03*
Y196644D02*
D03*
X198390Y196768D02*
D03*
Y190705D02*
D03*
X206056Y203232D02*
D03*
Y209295D02*
D03*
X206279Y196768D02*
D03*
Y190705D02*
D03*
X213945Y203232D02*
D03*
X213945Y209295D02*
D03*
X214167Y196768D02*
D03*
Y190705D02*
D03*
X163500Y167500D02*
D03*
Y173563D02*
D03*
Y153937D02*
D03*
Y160000D02*
D03*
X37500Y110937D02*
D03*
Y117000D02*
D03*
X204000Y161937D02*
D03*
Y168000D02*
D03*
Y148937D02*
D03*
Y155000D02*
D03*
X92500Y23531D02*
D03*
Y29594D02*
D03*
X85000Y29594D02*
D03*
Y23531D02*
D03*
X251000Y147437D02*
D03*
Y153500D02*
D03*
X274000Y147437D02*
D03*
X274000Y153500D02*
D03*
D28*
X116999Y65333D02*
D03*
Y70844D02*
D03*
D29*
X188499Y229868D02*
D03*
X179444D02*
D03*
X170389D02*
D03*
D30*
X179444Y206482D02*
D03*
D31*
X95886Y91745D02*
D03*
X93916D02*
D03*
X91946D02*
D03*
X89976D02*
D03*
X88006D02*
D03*
X86036D02*
D03*
X84076D02*
D03*
X82106D02*
D03*
X80136D02*
D03*
X78166D02*
D03*
X76196D02*
D03*
X74226Y91745D02*
D03*
X74226Y118905D02*
D03*
X76196D02*
D03*
X78166D02*
D03*
X80136D02*
D03*
X82106D02*
D03*
X84076D02*
D03*
X86036D02*
D03*
X88006D02*
D03*
X89976D02*
D03*
X91946D02*
D03*
X93916D02*
D03*
X95886D02*
D03*
D32*
X71477Y94495D02*
D03*
X71477Y96465D02*
D03*
Y98435D02*
D03*
Y100405D02*
D03*
X71477Y102375D02*
D03*
Y104345D02*
D03*
X71477Y106305D02*
D03*
X71477Y108275D02*
D03*
Y110245D02*
D03*
Y112215D02*
D03*
Y114185D02*
D03*
Y116155D02*
D03*
X98637Y116155D02*
D03*
X98637Y114185D02*
D03*
Y112215D02*
D03*
Y110245D02*
D03*
X98637Y108275D02*
D03*
Y106305D02*
D03*
X98637Y104345D02*
D03*
X98637Y102375D02*
D03*
Y100405D02*
D03*
Y98435D02*
D03*
Y96465D02*
D03*
Y94495D02*
D03*
D33*
X131854Y151142D02*
D03*
X101146D02*
D03*
X131854Y168858D02*
D03*
X101146D02*
D03*
D34*
X101933Y160000D02*
D03*
D35*
X130837Y79821D02*
D03*
X141000Y86500D02*
D03*
X130837Y86513D02*
D03*
X141000Y79807D02*
D03*
D36*
X171807Y178000D02*
D03*
X185193D02*
D03*
D37*
X193561Y153500D02*
D03*
Y158500D02*
D03*
Y163500D02*
D03*
Y168500D02*
D03*
X172439Y153500D02*
D03*
Y158500D02*
D03*
Y163500D02*
D03*
Y168500D02*
D03*
D38*
X28030Y116323D02*
D03*
Y119354D02*
D03*
Y138646D02*
D03*
Y141697D02*
D03*
D39*
Y122110D02*
D03*
Y124079D02*
D03*
Y126047D02*
D03*
Y128016D02*
D03*
Y129984D02*
D03*
Y131953D02*
D03*
X28027Y133921D02*
D03*
X28030Y135890D02*
D03*
D40*
X211000Y155693D02*
D03*
Y142307D02*
D03*
D41*
X251500Y235512D02*
D03*
X251500Y210000D02*
D03*
X233000Y210244D02*
D03*
Y235756D02*
D03*
X270500Y209744D02*
D03*
Y235256D02*
D03*
D42*
X41000Y60106D02*
D03*
Y10894D02*
D03*
D43*
X99500Y73446D02*
D03*
X94500D02*
D03*
X89500D02*
D03*
X84500D02*
D03*
X99500Y45554D02*
D03*
X94500D02*
D03*
X89500D02*
D03*
X84500D02*
D03*
D44*
X258563Y154240D02*
D03*
Y146760D02*
D03*
X266437Y150500D02*
D03*
D87*
X71444Y297982D02*
D03*
X41444D02*
D03*
X101444Y211368D02*
D03*
X41444D02*
D03*
X132000Y187500D02*
D03*
X142000D02*
D03*
X112000D02*
D03*
X122000D02*
D03*
X82000D02*
D03*
X92000D02*
D03*
X102000D02*
D03*
X19000Y74500D02*
D03*
X29000D02*
D03*
X39000D02*
D03*
X131500Y106394D02*
D03*
Y125606D02*
D03*
X97500Y138500D02*
D03*
X107500D02*
D03*
X153500Y166000D02*
D03*
X19000Y100000D02*
D03*
X29000D02*
D03*
X12457Y45342D02*
D03*
X69543Y35500D02*
D03*
Y25657D02*
D03*
X12457D02*
D03*
X69543Y45342D02*
D03*
X272000Y195000D02*
D03*
X262000D02*
D03*
X252000D02*
D03*
X272000Y165000D02*
D03*
X262000Y165000D02*
D03*
X230315Y252500D02*
D03*
D88*
X72000Y187500D02*
D03*
X9000Y74500D02*
D03*
X87500Y138500D02*
D03*
X9000Y100000D02*
D03*
X279685Y252500D02*
D03*
D89*
X159028Y31500D02*
D03*
X129500D02*
D03*
D90*
X200000Y285658D02*
D03*
Y45500D02*
D03*
D91*
X292035Y292411D02*
D03*
X240853D02*
D03*
D92*
X238885Y271938D02*
D03*
X294003D02*
D03*
D93*
X162000Y299500D02*
D03*
X161915Y281047D02*
D03*
X161831Y262594D02*
D03*
D94*
X22341Y117268D02*
D03*
Y140733D02*
D03*
D95*
X7970Y111992D02*
D03*
Y146008D02*
D03*
D96*
X24428Y111992D02*
D03*
Y146008D02*
D03*
D97*
X153500Y156000D02*
D03*
X252000Y165000D02*
D03*
D98*
X295000Y232000D02*
D03*
D99*
X294961Y212000D02*
D03*
X295000Y222000D02*
D03*
D100*
X298500Y167500D02*
D03*
Y187500D02*
D03*
M02*
