G04*
G04 #@! TF.GenerationSoftware,Altium Limited,Altium Designer,21.3.2 (30)*
G04*
G04 Layer_Physical_Order=1*
G04 Layer_Color=255*
%FSLAX25Y25*%
%MOIN*%
G70*
G04*
G04 #@! TF.SameCoordinates,AD82394D-94CB-4E6D-8DF2-E68E24F3FF13*
G04*
G04*
G04 #@! TF.FilePolarity,Positive*
G04*
G01*
G75*
%ADD11C,0.01000*%
%ADD21R,0.03661X0.03858*%
%ADD22R,0.21654X0.21654*%
%ADD23R,0.03937X0.05512*%
%ADD24R,0.03937X0.06299*%
%ADD25R,0.17323X0.09055*%
%ADD26R,0.15748X0.09055*%
%ADD27R,0.03858X0.03661*%
%ADD28R,0.03402X0.03150*%
%ADD29R,0.04331X0.09843*%
%ADD30R,0.14173X0.09213*%
%ADD31O,0.01102X0.03543*%
%ADD32O,0.03543X0.01102*%
%ADD33R,0.05512X0.03937*%
%ADD34R,0.06299X0.03937*%
%ADD35R,0.05512X0.04724*%
%ADD36R,0.04331X0.06693*%
%ADD37O,0.07343X0.02480*%
%ADD38R,0.05709X0.02362*%
%ADD39R,0.05709X0.01181*%
%ADD40R,0.06693X0.04331*%
%ADD41R,0.12598X0.06496*%
%ADD42R,0.08661X0.07087*%
%ADD43O,0.02398X0.08679*%
%ADD44R,0.04921X0.02756*%
%ADD83C,0.03000*%
%ADD84C,0.02000*%
%ADD85C,0.02500*%
%ADD86C,0.01500*%
%ADD87C,0.07087*%
%ADD88R,0.07087X0.07087*%
%ADD89C,0.04724*%
%ADD90C,0.19685*%
%ADD91C,0.12992*%
%ADD92C,0.08661*%
%ADD93C,0.11024*%
%ADD94C,0.02756*%
%ADD95O,0.06299X0.03937*%
%ADD96O,0.08268X0.03937*%
%ADD97R,0.07087X0.07087*%
%ADD98R,0.10236X0.07087*%
%ADD99O,0.10236X0.07087*%
%ADD100C,0.07874*%
%ADD101C,0.02500*%
%ADD102C,0.04000*%
G36*
X166444Y302863D02*
X167437Y302028D01*
X167922Y301689D01*
X168399Y301402D01*
X168869Y301167D01*
X169332Y300985D01*
X169787Y300854D01*
X170235Y300776D01*
X170675Y300750D01*
Y298250D01*
X170235Y298224D01*
X169787Y298146D01*
X169332Y298015D01*
X168869Y297833D01*
X168399Y297598D01*
X167922Y297311D01*
X167437Y296972D01*
X166944Y296581D01*
X166444Y296137D01*
X165936Y295642D01*
Y303358D01*
X166444Y302863D01*
D02*
G37*
G36*
X74175Y300276D02*
X74394Y300109D01*
X74630Y299962D01*
X74884Y299835D01*
X75156Y299727D01*
X75446Y299639D01*
X75753Y299570D01*
X76078Y299521D01*
X76420Y299492D01*
X76780Y299482D01*
Y296482D01*
X76420Y296472D01*
X76078Y296443D01*
X75753Y296393D01*
X75446Y296325D01*
X75156Y296237D01*
X74884Y296129D01*
X74630Y296001D01*
X74394Y295854D01*
X74175Y295688D01*
X73974Y295501D01*
Y300462D01*
X74175Y300276D01*
D02*
G37*
G36*
X44221Y300228D02*
X44477Y300019D01*
X44743Y299835D01*
X45019Y299675D01*
X45305Y299539D01*
X45601Y299429D01*
X45907Y299342D01*
X46223Y299281D01*
X46549Y299244D01*
X46885Y299232D01*
Y296732D01*
X46549Y296720D01*
X46223Y296683D01*
X45907Y296621D01*
X45601Y296535D01*
X45305Y296424D01*
X45019Y296289D01*
X44743Y296129D01*
X44477Y295944D01*
X44221Y295735D01*
X43974Y295501D01*
Y300462D01*
X44221Y300228D01*
D02*
G37*
G36*
X157238Y287879D02*
X157621Y287596D01*
X158037Y287347D01*
X158485Y287132D01*
X158966Y286951D01*
X159480Y286805D01*
X160026Y286692D01*
X160605Y286613D01*
X161216Y286569D01*
X161860Y286558D01*
X156404Y281102D01*
X156393Y281746D01*
X156349Y282358D01*
X156270Y282936D01*
X156158Y283483D01*
X156011Y283996D01*
X155830Y284477D01*
X155615Y284926D01*
X155366Y285341D01*
X155083Y285724D01*
X154766Y286075D01*
X156887Y288196D01*
X157238Y287879D01*
D02*
G37*
G36*
X167437Y280348D02*
X167482Y279736D01*
X167560Y279157D01*
X167673Y278611D01*
X167820Y278097D01*
X168001Y277616D01*
X168216Y277168D01*
X168465Y276752D01*
X168748Y276369D01*
X169065Y276019D01*
X166944Y273897D01*
X166593Y274215D01*
X166210Y274498D01*
X165794Y274746D01*
X165346Y274961D01*
X164865Y275142D01*
X164351Y275289D01*
X163805Y275402D01*
X163226Y275480D01*
X162615Y275525D01*
X161970Y275535D01*
X167427Y280992D01*
X167437Y280348D01*
D02*
G37*
G36*
X290910Y268907D02*
X290559Y269245D01*
X290205Y269548D01*
X289848Y269815D01*
X289488Y270047D01*
X289124Y270243D01*
X288757Y270403D01*
X288387Y270528D01*
X288014Y270617D01*
X287638Y270671D01*
X287258Y270689D01*
Y273188D01*
X287638Y273206D01*
X288014Y273260D01*
X288387Y273349D01*
X288757Y273474D01*
X289124Y273634D01*
X289488Y273830D01*
X289848Y274061D01*
X290205Y274329D01*
X290559Y274632D01*
X290910Y274970D01*
Y268907D01*
D02*
G37*
G36*
X235792D02*
X235441Y269245D01*
X235087Y269548D01*
X234730Y269815D01*
X234370Y270047D01*
X234006Y270243D01*
X233639Y270403D01*
X233269Y270528D01*
X232896Y270617D01*
X232520Y270671D01*
X232140Y270689D01*
Y273188D01*
X232520Y273206D01*
X232896Y273260D01*
X233269Y273349D01*
X233639Y273474D01*
X234006Y273634D01*
X234370Y273830D01*
X234730Y274061D01*
X235087Y274329D01*
X235441Y274632D01*
X235792Y274970D01*
Y268907D01*
D02*
G37*
G36*
X165605Y246761D02*
X165585Y246935D01*
X165525Y247091D01*
X165426Y247228D01*
X165286Y247347D01*
X165105Y247448D01*
X164885Y247530D01*
X164626Y247594D01*
X164325Y247640D01*
X163986Y247668D01*
X163716Y247674D01*
X163446Y247668D01*
X163106Y247640D01*
X162806Y247594D01*
X162546Y247530D01*
X162326Y247447D01*
X162146Y247346D01*
X162006Y247226D01*
X161906Y247088D01*
X161846Y246932D01*
X161826Y246758D01*
Y250592D01*
X161846Y250418D01*
X161906Y250262D01*
X162006Y250125D01*
X162146Y250006D01*
X162326Y249905D01*
X162546Y249823D01*
X162806Y249759D01*
X163106Y249713D01*
X163446Y249686D01*
X163715Y249679D01*
X163986Y249686D01*
X164325Y249713D01*
X164626Y249759D01*
X164885Y249824D01*
X165105Y249906D01*
X165286Y250008D01*
X165426Y250127D01*
X165525Y250265D01*
X165585Y250421D01*
X165605Y250596D01*
Y246761D01*
D02*
G37*
G36*
X232514Y249678D02*
X232262Y249385D01*
X232040Y249091D01*
X231848Y248794D01*
X231685Y248495D01*
X231552Y248195D01*
X231448Y247893D01*
X231374Y247589D01*
X231330Y247283D01*
X231315Y246975D01*
X229315D01*
X229300Y247283D01*
X229256Y247589D01*
X229182Y247893D01*
X229078Y248195D01*
X228945Y248495D01*
X228782Y248794D01*
X228590Y249091D01*
X228368Y249385D01*
X228116Y249678D01*
X227835Y249970D01*
X232795D01*
X232514Y249678D01*
D02*
G37*
G36*
X281495Y248949D02*
X281325Y248889D01*
X281175Y248789D01*
X281045Y248649D01*
X280935Y248469D01*
X280845Y248249D01*
X280775Y247989D01*
X280725Y247689D01*
X280695Y247349D01*
X280685Y246969D01*
X278685D01*
X278675Y247349D01*
X278645Y247689D01*
X278595Y247989D01*
X278525Y248249D01*
X278435Y248469D01*
X278325Y248649D01*
X278195Y248789D01*
X278045Y248889D01*
X277875Y248949D01*
X277685Y248969D01*
X281685D01*
X281495Y248949D01*
D02*
G37*
G36*
X154954Y246769D02*
X154799Y246882D01*
X154616Y246937D01*
X154405Y246936D01*
X154165Y246878D01*
X153896Y246763D01*
X153599Y246593D01*
X153273Y246365D01*
X152919Y246081D01*
X152125Y245343D01*
X150711Y246758D01*
X151108Y247169D01*
X151733Y247906D01*
X151960Y248231D01*
X152131Y248528D01*
X152245Y248797D01*
X152303Y249037D01*
X152304Y249249D01*
X152249Y249431D01*
X152137Y249586D01*
X154954Y246769D01*
D02*
G37*
G36*
X175143Y246742D02*
X174997Y246681D01*
X174868Y246582D01*
X174756Y246442D01*
X174662Y246262D01*
X174584Y246041D01*
X174524Y245781D01*
X174481Y245481D01*
X174456Y245142D01*
X174451Y244919D01*
X174455Y244712D01*
X174517Y244072D01*
X174572Y243812D01*
X174642Y243592D01*
X174727Y243412D01*
X174829Y243272D01*
X174945Y243172D01*
X175078Y243112D01*
X175226Y243092D01*
X171588D01*
X171751Y243112D01*
X171897Y243172D01*
X172026Y243272D01*
X172138Y243412D01*
X172232Y243592D01*
X172310Y243812D01*
X172370Y244072D01*
X172413Y244372D01*
X172439Y244712D01*
X172443Y244935D01*
X172439Y245142D01*
X172377Y245781D01*
X172322Y246041D01*
X172252Y246262D01*
X172167Y246442D01*
X172066Y246582D01*
X171949Y246681D01*
X171816Y246742D01*
X171669Y246761D01*
X175306D01*
X175143Y246742D01*
D02*
G37*
G36*
X165525Y239258D02*
X165505Y239432D01*
X165445Y239588D01*
X165345Y239725D01*
X165205Y239844D01*
X165025Y239945D01*
X164805Y240028D01*
X164545Y240092D01*
X164245Y240138D01*
X163905Y240165D01*
X163675Y240171D01*
X163446Y240165D01*
X163106Y240138D01*
X162806Y240092D01*
X162546Y240028D01*
X162326Y239945D01*
X162146Y239844D01*
X162006Y239725D01*
X161906Y239588D01*
X161846Y239432D01*
X161826Y239258D01*
Y243092D01*
X161846Y242917D01*
X161906Y242762D01*
X162006Y242624D01*
X162146Y242505D01*
X162326Y242404D01*
X162546Y242321D01*
X162806Y242257D01*
X163106Y242211D01*
X163446Y242184D01*
X163675Y242178D01*
X163905Y242184D01*
X164245Y242211D01*
X164545Y242257D01*
X164805Y242321D01*
X165025Y242404D01*
X165205Y242505D01*
X165345Y242624D01*
X165445Y242762D01*
X165505Y242917D01*
X165525Y243092D01*
Y239258D01*
D02*
G37*
G36*
X175246Y242917D02*
X175306Y242762D01*
X175406Y242624D01*
X175546Y242505D01*
X175726Y242404D01*
X175946Y242321D01*
X176206Y242257D01*
X176506Y242211D01*
X176846Y242184D01*
X177226Y242175D01*
Y240175D01*
X176846Y240165D01*
X176506Y240138D01*
X176206Y240092D01*
X175946Y240028D01*
X175726Y239945D01*
X175546Y239844D01*
X175406Y239725D01*
X175306Y239588D01*
X175246Y239432D01*
X175226Y239258D01*
Y243092D01*
X175246Y242917D01*
D02*
G37*
G36*
X231325Y240612D02*
X231355Y240272D01*
X231405Y239972D01*
X231475Y239712D01*
X231565Y239492D01*
X231675Y239312D01*
X231805Y239172D01*
X231955Y239072D01*
X232125Y239012D01*
X232315Y238992D01*
X228315D01*
X228505Y239012D01*
X228675Y239072D01*
X228825Y239172D01*
X228955Y239312D01*
X229065Y239492D01*
X229155Y239712D01*
X229225Y239972D01*
X229275Y240272D01*
X229305Y240612D01*
X229315Y240992D01*
X231315D01*
X231325Y240612D01*
D02*
G37*
G36*
X186600Y241266D02*
X186898Y241023D01*
X187040Y240929D01*
X187177Y240852D01*
X187311Y240794D01*
X187439Y240754D01*
X187564Y240733D01*
X187684Y240729D01*
X187800Y240743D01*
X186235Y238421D01*
X186211Y238516D01*
X186173Y238618D01*
X186120Y238727D01*
X186054Y238842D01*
X185972Y238964D01*
X185768Y239229D01*
X185644Y239371D01*
X185354Y239676D01*
X186445Y241414D01*
X186600Y241266D01*
D02*
G37*
G36*
X278201Y238492D02*
X277805Y238082D01*
X277183Y237346D01*
X276957Y237021D01*
X276787Y236724D01*
X276674Y236455D01*
X276618Y236215D01*
Y236003D01*
X276674Y235819D01*
X276787Y235664D01*
X276102Y236349D01*
X275051Y235255D01*
X273550Y236756D01*
X273588Y236777D01*
X273666Y236841D01*
X273945Y237095D01*
X274656Y237794D01*
X273959Y238492D01*
X274114Y238379D01*
X274298Y238322D01*
X274510D01*
X274751Y238379D01*
X275019Y238492D01*
X275316Y238662D01*
X275642Y238888D01*
X275995Y239171D01*
X276787Y239906D01*
X278201Y238492D01*
D02*
G37*
G36*
X155639Y241932D02*
X155583Y241748D01*
X155585Y241537D01*
X155642Y241297D01*
X155757Y241028D01*
X155928Y240731D01*
X156155Y240406D01*
X156439Y240051D01*
X157177Y239258D01*
X155763Y237843D01*
X155351Y238241D01*
X154615Y238865D01*
X154289Y239093D01*
X153992Y239264D01*
X153723Y239378D01*
X153483Y239436D01*
X153272Y239437D01*
X153089Y239382D01*
X152934Y239269D01*
X155751Y242086D01*
X155639Y241932D01*
D02*
G37*
G36*
X189742Y237493D02*
X189691Y237392D01*
X189646Y237276D01*
X189607Y237146D01*
X189574Y237001D01*
X189547Y236842D01*
X189511Y236481D01*
X189508Y236421D01*
X189509Y236394D01*
X189539Y236052D01*
X189589Y235751D01*
X189659Y235489D01*
X189749Y235268D01*
X189859Y235087D01*
X189989Y234946D01*
X190139Y234845D01*
X190309Y234785D01*
X190499Y234765D01*
X186499D01*
X186689Y234785D01*
X186859Y234845D01*
X187009Y234946D01*
X187139Y235087D01*
X187249Y235268D01*
X187339Y235489D01*
X187409Y235751D01*
X187459Y236052D01*
X187470Y236176D01*
X187457Y236309D01*
X187424Y236478D01*
X187382Y236631D01*
X187330Y236768D01*
X187269Y236890D01*
X187199Y236997D01*
X187119Y237088D01*
X187030Y237163D01*
X189799Y237579D01*
X189742Y237493D01*
D02*
G37*
G36*
X177702Y235794D02*
X178439Y235169D01*
X178764Y234942D01*
X179061Y234771D01*
X179330Y234656D01*
X179570Y234599D01*
X179781Y234597D01*
X179964Y234653D01*
X180119Y234765D01*
X177303Y231948D01*
X177415Y232103D01*
X177470Y232286D01*
X177469Y232497D01*
X177411Y232737D01*
X177297Y233006D01*
X177126Y233303D01*
X176898Y233629D01*
X176614Y233983D01*
X175876Y234777D01*
X177291Y236191D01*
X177702Y235794D01*
D02*
G37*
G36*
X168236Y234777D02*
X168247Y231789D01*
X168227Y231979D01*
X168166Y232149D01*
X168065Y232299D01*
X167924Y232429D01*
X167743Y232539D01*
X167521Y232629D01*
X167260Y232699D01*
X166958Y232749D01*
X166617Y232779D01*
X166235Y232789D01*
Y234789D01*
X168236Y234777D01*
D02*
G37*
G36*
X250412Y232256D02*
X250252Y232195D01*
X250094Y232095D01*
X249935Y231955D01*
X249778Y231774D01*
X249621Y231553D01*
X249465Y231293D01*
X249309Y230992D01*
X249000Y230269D01*
X246000D01*
X246138Y230650D01*
X246320Y231293D01*
X246364Y231553D01*
X246377Y231774D01*
X246358Y231955D01*
X246308Y232095D01*
X246226Y232195D01*
X246113Y232256D01*
X245968Y232276D01*
X250572D01*
X250412Y232256D01*
D02*
G37*
G36*
X195503Y230245D02*
X195401Y230297D01*
X195287Y230338D01*
X195162Y230367D01*
X195024Y230385D01*
X194874Y230392D01*
X194713Y230387D01*
X194539Y230370D01*
X194354Y230343D01*
X193947Y230254D01*
X193443Y232189D01*
X193650Y232247D01*
X194017Y232376D01*
X194176Y232446D01*
X194320Y232521D01*
X194447Y232599D01*
X194559Y232682D01*
X194654Y232769D01*
X194734Y232860D01*
X194797Y232955D01*
X195503Y230245D01*
D02*
G37*
G36*
X289906Y229000D02*
X289876Y229285D01*
X289785Y229540D01*
X289635Y229765D01*
X289424Y229960D01*
X289153Y230125D01*
X288822Y230260D01*
X288430Y230365D01*
X287978Y230440D01*
X287466Y230485D01*
X286894Y230500D01*
Y233500D01*
X287466Y233515D01*
X287978Y233560D01*
X288430Y233635D01*
X288822Y233740D01*
X289153Y233875D01*
X289424Y234040D01*
X289635Y234235D01*
X289785Y234460D01*
X289876Y234715D01*
X289906Y235000D01*
Y229000D01*
D02*
G37*
G36*
X299938Y232461D02*
X299854Y232187D01*
X299855Y231871D01*
X299941Y231512D01*
X300111Y231111D01*
X300365Y230667D01*
X300704Y230181D01*
X301127Y229653D01*
X302227Y228469D01*
X300106Y226347D01*
X299493Y226940D01*
X298393Y227871D01*
X297907Y228210D01*
X297464Y228464D01*
X297063Y228634D01*
X296704Y228719D01*
X296388Y228720D01*
X296114Y228637D01*
X295882Y228469D01*
X300106Y232693D01*
X299938Y232461D01*
D02*
G37*
G36*
X209155Y227242D02*
X209058Y227198D01*
X208973Y227122D01*
X208899Y227017D01*
X208836Y226883D01*
X208785Y226717D01*
X208745Y226522D01*
X208717Y226297D01*
X208700Y226043D01*
X208694Y225758D01*
X207194D01*
X207186Y226043D01*
X207164Y226297D01*
X207126Y226522D01*
X207074Y226717D01*
X207006Y226883D01*
X206924Y227017D01*
X206826Y227122D01*
X206714Y227198D01*
X206586Y227242D01*
X206444Y227257D01*
X209263D01*
X209155Y227242D01*
D02*
G37*
G36*
X168236Y224958D02*
X168221Y224956D01*
X168179Y224954D01*
X166814Y224946D01*
Y226946D01*
X167086Y226950D01*
X167544Y226984D01*
X167730Y227014D01*
X167888Y227052D01*
X168017Y227098D01*
X168118Y227153D01*
X168190Y227216D01*
X168233Y227288D01*
X168247Y227368D01*
X168236Y224958D01*
D02*
G37*
G36*
X151504Y227749D02*
X151334Y227688D01*
X151184Y227587D01*
X151054Y227446D01*
X150944Y227265D01*
X150854Y227044D01*
X150784Y226782D01*
X150734Y226481D01*
X150704Y226139D01*
X150697Y225890D01*
X150701Y225707D01*
X150754Y225067D01*
X150801Y224807D01*
X150861Y224587D01*
X150934Y224407D01*
X151021Y224267D01*
X151121Y224167D01*
X151234Y224107D01*
X151361Y224087D01*
X147694Y224075D01*
X147884Y224096D01*
X148054Y224157D01*
X148204Y224257D01*
X148334Y224399D01*
X148444Y224580D01*
X148534Y224801D01*
X148604Y225062D01*
X148654Y225364D01*
X148684Y225705D01*
X148691Y225967D01*
X148688Y226137D01*
X148643Y226778D01*
X148603Y227038D01*
X148552Y227257D01*
X148489Y227437D01*
X148415Y227577D01*
X148330Y227677D01*
X148233Y227737D01*
X148125Y227758D01*
X151694Y227769D01*
X151504Y227749D01*
D02*
G37*
G36*
X157953Y225676D02*
X157981Y225336D01*
X158026Y225036D01*
X158091Y224776D01*
X158173Y224556D01*
X158274Y224376D01*
X158393Y224236D01*
X158531Y224136D01*
X158687Y224076D01*
X158861Y224056D01*
X155027D01*
X155201Y224076D01*
X155357Y224136D01*
X155494Y224236D01*
X155614Y224376D01*
X155715Y224556D01*
X155797Y224776D01*
X155861Y225036D01*
X155907Y225336D01*
X155935Y225676D01*
X155944Y226056D01*
X157944D01*
X157953Y225676D01*
D02*
G37*
G36*
X181484Y227631D02*
X181428Y227447D01*
Y227235D01*
X181484Y226995D01*
X181597Y226726D01*
X181767Y226429D01*
X181993Y226104D01*
X182276Y225750D01*
X183011Y224958D01*
X181597Y223544D01*
X181187Y223940D01*
X180452Y224562D01*
X180127Y224788D01*
X179830Y224958D01*
X179561Y225071D01*
X179320Y225128D01*
X179108D01*
X178924Y225071D01*
X178769Y224958D01*
X181597Y227787D01*
X181484Y227631D01*
D02*
G37*
G36*
X208701Y224676D02*
X208724Y224419D01*
X208761Y224193D01*
X208814Y223996D01*
X208881Y223830D01*
X208964Y223694D01*
X209061Y223588D01*
X209174Y223512D01*
X209301Y223466D01*
X209444Y223451D01*
X206527Y223463D01*
X206653Y223478D01*
X206767Y223523D01*
X206867Y223598D01*
X206954Y223703D01*
X207027Y223838D01*
X207087Y224003D01*
X207134Y224198D01*
X207167Y224423D01*
X207187Y224678D01*
X207194Y224963D01*
X208694D01*
X208701Y224676D01*
D02*
G37*
G36*
X147527Y220450D02*
X147507Y220605D01*
X147447Y220744D01*
X147347Y220867D01*
X147207Y220974D01*
X147027Y221064D01*
X146807Y221137D01*
X146547Y221195D01*
X146247Y221236D01*
X145907Y221260D01*
X145527Y221268D01*
Y223268D01*
X145907Y223277D01*
X146547Y223342D01*
X146807Y223399D01*
X147027Y223473D01*
X147207Y223563D01*
X147347Y223670D01*
X147447Y223792D01*
X147507Y223932D01*
X147527Y224087D01*
Y220450D01*
D02*
G37*
G36*
X210376Y222695D02*
X210421Y222567D01*
X210496Y222455D01*
X210601Y222357D01*
X210736Y222275D01*
X210901Y222207D01*
X211096Y222155D01*
X211321Y222117D01*
X211576Y222095D01*
X211861Y222087D01*
Y220587D01*
X211576Y220580D01*
X211321Y220557D01*
X211096Y220520D01*
X210901Y220467D01*
X210736Y220400D01*
X210601Y220317D01*
X210496Y220220D01*
X210421Y220107D01*
X210376Y219980D01*
X210361Y219837D01*
Y222837D01*
X210376Y222695D01*
D02*
G37*
G36*
X291454Y219050D02*
X291185Y219248D01*
X290886Y219425D01*
X290559Y219582D01*
X290201Y219717D01*
X289815Y219832D01*
X289399Y219926D01*
X288953Y219999D01*
X288478Y220051D01*
X287440Y220093D01*
X287067Y223093D01*
X287840Y223108D01*
X289134Y223227D01*
X289656Y223331D01*
X290094Y223466D01*
X290448Y223630D01*
X290718Y223823D01*
X290904Y224047D01*
X291007Y224300D01*
X291026Y224584D01*
X291454Y219050D01*
D02*
G37*
G36*
X160275Y217993D02*
X159878Y217582D01*
X159253Y216845D01*
X159026Y216520D01*
X158855Y216223D01*
X158741Y215954D01*
X158683Y215714D01*
X158682Y215502D01*
X158737Y215319D01*
X158849Y215165D01*
X156033Y217981D01*
X156187Y217869D01*
X156370Y217814D01*
X156582Y217815D01*
X156822Y217873D01*
X157090Y217987D01*
X157387Y218158D01*
X157713Y218386D01*
X158067Y218670D01*
X158861Y219408D01*
X160275Y217993D01*
D02*
G37*
G36*
X215277Y218941D02*
X215166Y218803D01*
X215069Y218658D01*
X214984Y218506D01*
X214913Y218347D01*
X214854Y218181D01*
X214809Y218007D01*
X214776Y217827D01*
X214756Y217640D01*
X214750Y217446D01*
X213250D01*
X213244Y217640D01*
X213224Y217827D01*
X213192Y218007D01*
X213146Y218181D01*
X213088Y218347D01*
X213016Y218506D01*
X212931Y218658D01*
X212834Y218803D01*
X212723Y218941D01*
X212600Y219072D01*
X215400D01*
X215277Y218941D01*
D02*
G37*
G36*
X189763Y218212D02*
X190060Y217961D01*
X190201Y217859D01*
X190338Y217773D01*
X190470Y217703D01*
X190598Y217649D01*
X190721Y217610D01*
X190840Y217588D01*
X190954Y217581D01*
X188975Y215601D01*
X188968Y215715D01*
X188945Y215834D01*
X188907Y215957D01*
X188852Y216085D01*
X188782Y216217D01*
X188696Y216354D01*
X188594Y216496D01*
X188477Y216642D01*
X188194Y216947D01*
X189608Y218361D01*
X189763Y218212D01*
D02*
G37*
G36*
X147527Y214387D02*
X147507Y214542D01*
X147447Y214681D01*
X147347Y214804D01*
X147207Y214911D01*
X147027Y215001D01*
X146807Y215074D01*
X146547Y215132D01*
X146247Y215173D01*
X145907Y215197D01*
X145527Y215205D01*
Y217205D01*
X145907Y217214D01*
X146547Y217279D01*
X146807Y217336D01*
X147027Y217410D01*
X147207Y217500D01*
X147347Y217606D01*
X147447Y217729D01*
X147507Y217868D01*
X147527Y218024D01*
Y214387D01*
D02*
G37*
G36*
X192488Y216905D02*
X192588Y216837D01*
X192703Y216777D01*
X192832Y216725D01*
X192975Y216681D01*
X193132Y216645D01*
X193304Y216617D01*
X193491Y216597D01*
X193907Y216581D01*
Y214581D01*
X193691Y214577D01*
X193304Y214545D01*
X193132Y214517D01*
X192975Y214481D01*
X192832Y214437D01*
X192703Y214385D01*
X192588Y214325D01*
X192488Y214257D01*
X192403Y214181D01*
Y216981D01*
X192488Y216905D01*
D02*
G37*
G36*
X206527Y213762D02*
X206507Y213918D01*
X206447Y214057D01*
X206347Y214180D01*
X206207Y214286D01*
X206027Y214376D01*
X205807Y214450D01*
X205547Y214507D01*
X205247Y214548D01*
X204907Y214573D01*
X204527Y214581D01*
Y216581D01*
X204907Y216589D01*
X205547Y216655D01*
X205807Y216712D01*
X206027Y216786D01*
X206207Y216876D01*
X206347Y216982D01*
X206447Y217105D01*
X206507Y217244D01*
X206527Y217400D01*
Y213762D01*
D02*
G37*
G36*
X202381Y217244D02*
X202441Y217105D01*
X202541Y216982D01*
X202681Y216876D01*
X202861Y216786D01*
X203081Y216712D01*
X203341Y216655D01*
X203641Y216614D01*
X203981Y216589D01*
X204361Y216581D01*
Y214581D01*
X203981Y214573D01*
X203341Y214507D01*
X203081Y214450D01*
X202861Y214376D01*
X202681Y214286D01*
X202541Y214180D01*
X202441Y214057D01*
X202381Y213918D01*
X202361Y213762D01*
Y217400D01*
X202381Y217244D01*
D02*
G37*
G36*
X198527Y213762D02*
X198507Y213918D01*
X198447Y214057D01*
X198347Y214180D01*
X198207Y214286D01*
X198027Y214376D01*
X197807Y214450D01*
X197547Y214507D01*
X197247Y214548D01*
X196907Y214573D01*
X196527Y214581D01*
Y216581D01*
X196907Y216589D01*
X197547Y216655D01*
X197807Y216712D01*
X198027Y216786D01*
X198207Y216876D01*
X198347Y216982D01*
X198447Y217105D01*
X198507Y217244D01*
X198527Y217400D01*
Y213762D01*
D02*
G37*
G36*
X241408Y213480D02*
X240815Y212865D01*
X239881Y211762D01*
X239542Y211274D01*
X239287Y210828D01*
X239118Y210425D01*
X239033Y210065D01*
Y209747D01*
X239118Y209471D01*
X239287Y209238D01*
X235045Y213480D01*
X235278Y213310D01*
X235554Y213226D01*
X235872D01*
X236232Y213310D01*
X236636Y213480D01*
X237081Y213735D01*
X237569Y214074D01*
X238099Y214498D01*
X239287Y215601D01*
X241408Y213480D01*
D02*
G37*
G36*
X190989Y213581D02*
X190876Y213572D01*
X190758Y213548D01*
X190635Y213508D01*
X190508Y213453D01*
X190376Y213381D01*
X190240Y213295D01*
X190098Y213192D01*
X189953Y213074D01*
X189647Y212791D01*
X188205Y214177D01*
X188354Y214331D01*
X188604Y214628D01*
X188705Y214770D01*
X188790Y214907D01*
X188859Y215040D01*
X188912Y215168D01*
X188949Y215292D01*
X188970Y215411D01*
X188975Y215526D01*
X190989Y213581D01*
D02*
G37*
G36*
X151381Y217866D02*
X151441Y217724D01*
X151541Y217599D01*
X151681Y217490D01*
X151861Y217399D01*
X152081Y217323D01*
X152341Y217265D01*
X152641Y217223D01*
X152981Y217198D01*
X153197Y217194D01*
X153407Y217198D01*
X154047Y217262D01*
X154307Y217319D01*
X154527Y217391D01*
X154707Y217479D01*
X154847Y217584D01*
X154947Y217704D01*
X155007Y217841D01*
X155027Y217993D01*
Y214356D01*
X158861D01*
X158687Y214336D01*
X158531Y214276D01*
X158393Y214176D01*
X158274Y214036D01*
X158173Y213856D01*
X158091Y213636D01*
X158026Y213376D01*
X157981Y213076D01*
X157953Y212736D01*
X157944Y212356D01*
X155944D01*
X155935Y212736D01*
X155907Y213076D01*
X155861Y213376D01*
X155797Y213636D01*
X155715Y213856D01*
X155614Y214036D01*
X155494Y214176D01*
X155357Y214276D01*
X155201Y214336D01*
X155027Y214356D01*
X155007Y214514D01*
X154947Y214656D01*
X154847Y214781D01*
X154707Y214890D01*
X154527Y214982D01*
X154307Y215057D01*
X154047Y215115D01*
X153747Y215157D01*
X153407Y215182D01*
X153191Y215186D01*
X152981Y215182D01*
X152341Y215118D01*
X152081Y215061D01*
X151861Y214989D01*
X151681Y214901D01*
X151541Y214796D01*
X151441Y214676D01*
X151381Y214539D01*
X151361Y214387D01*
Y218024D01*
X151381Y217866D01*
D02*
G37*
G36*
X106058Y214567D02*
X105851Y214339D01*
X105666Y214091D01*
X105503Y213824D01*
X105363Y213537D01*
X105244Y213230D01*
X105148Y212904D01*
X105075Y212558D01*
X105023Y212193D01*
X104994Y211808D01*
X104987Y211403D01*
X101479Y214911D01*
X101884Y214918D01*
X102269Y214947D01*
X102635Y214998D01*
X102981Y215072D01*
X103307Y215168D01*
X103613Y215286D01*
X103901Y215427D01*
X104168Y215589D01*
X104416Y215774D01*
X104644Y215982D01*
X106058Y214567D01*
D02*
G37*
G36*
X214757Y212326D02*
X214780Y212069D01*
X214818Y211842D01*
X214870Y211646D01*
X214937Y211479D01*
X215020Y211343D01*
X215118Y211237D01*
X215230Y211162D01*
X215357Y211116D01*
X215500Y211101D01*
X212500D01*
X212643Y211116D01*
X212770Y211162D01*
X212882Y211237D01*
X212980Y211343D01*
X213063Y211479D01*
X213130Y211646D01*
X213182Y211842D01*
X213220Y212069D01*
X213243Y212326D01*
X213250Y212613D01*
X214750D01*
X214757Y212326D01*
D02*
G37*
G36*
X187933Y211076D02*
X187537Y210666D01*
X186915Y209930D01*
X186688Y209605D01*
X186519Y209308D01*
X186405Y209039D01*
X186349Y208799D01*
Y208587D01*
X186405Y208403D01*
X186519Y208247D01*
X183690Y211076D01*
X183846Y210963D01*
X184029Y210906D01*
X184242D01*
X184482Y210963D01*
X184751Y211076D01*
X185048Y211246D01*
X185373Y211472D01*
X185726Y211755D01*
X186519Y212490D01*
X187933Y211076D01*
D02*
G37*
G36*
X227328Y215007D02*
X228431Y214074D01*
X228919Y213735D01*
X229364Y213480D01*
X229767Y213310D01*
X230128Y213226D01*
X230446D01*
X230722Y213310D01*
X230955Y213480D01*
X226713Y209238D01*
X226883Y209471D01*
X226967Y209747D01*
Y210065D01*
X226883Y210425D01*
X226713Y210828D01*
X226458Y211274D01*
X226119Y211762D01*
X225695Y212292D01*
X224591Y213480D01*
X226713Y215601D01*
X227328Y215007D01*
D02*
G37*
G36*
X291414Y209050D02*
X291054Y209325D01*
X290680Y209572D01*
X290291Y209789D01*
X289889Y209978D01*
X289473Y210137D01*
X289043Y210268D01*
X288599Y210369D01*
X288141Y210442D01*
X287669Y210486D01*
X287183Y210500D01*
Y213500D01*
X287669Y213514D01*
X288141Y213558D01*
X288599Y213631D01*
X289043Y213732D01*
X289473Y213863D01*
X289889Y214022D01*
X290291Y214211D01*
X290680Y214428D01*
X291054Y214675D01*
X291414Y214950D01*
Y209050D01*
D02*
G37*
G36*
X279787Y210500D02*
X279216Y210485D01*
X278704Y210440D01*
X278253Y210365D01*
X277862Y210260D01*
X277531Y210125D01*
X277259Y209960D01*
X277048Y209765D01*
X276897Y209540D01*
X276806Y209285D01*
X276775Y209000D01*
X276787Y212980D01*
X279787Y213500D01*
Y210500D01*
D02*
G37*
G36*
X212039Y207795D02*
X212024Y207937D01*
X211979Y208065D01*
X211903Y208177D01*
X211797Y208275D01*
X211661Y208357D01*
X211495Y208425D01*
X211298Y208477D01*
X211072Y208515D01*
X210815Y208537D01*
X210527Y208545D01*
Y210045D01*
X210815Y210052D01*
X211072Y210075D01*
X211298Y210112D01*
X211495Y210165D01*
X211661Y210232D01*
X211797Y210315D01*
X211903Y210412D01*
X211979Y210525D01*
X212024Y210652D01*
X212039Y210795D01*
Y207795D01*
D02*
G37*
G36*
X207988Y210652D02*
X208033Y210525D01*
X208108Y210412D01*
X208213Y210315D01*
X208348Y210232D01*
X208513Y210165D01*
X208708Y210112D01*
X208933Y210075D01*
X209188Y210052D01*
X209473Y210045D01*
Y208545D01*
X209188Y208537D01*
X208933Y208515D01*
X208708Y208477D01*
X208513Y208425D01*
X208348Y208357D01*
X208213Y208275D01*
X208108Y208177D01*
X208033Y208065D01*
X207988Y207937D01*
X207973Y207795D01*
Y210795D01*
X207988Y210652D01*
D02*
G37*
G36*
X254715Y206734D02*
X254460Y206644D01*
X254235Y206494D01*
X254040Y206284D01*
X253875Y206014D01*
X253740Y205684D01*
X253635Y205294D01*
X253560Y204844D01*
X253515Y204334D01*
X253500Y203764D01*
X250500D01*
X250485Y204334D01*
X250440Y204844D01*
X250365Y205294D01*
X250260Y205684D01*
X250125Y206014D01*
X249960Y206284D01*
X249765Y206494D01*
X249540Y206644D01*
X249285Y206734D01*
X249000Y206764D01*
X255000D01*
X254715Y206734D01*
D02*
G37*
G36*
X273215Y206490D02*
X272960Y206400D01*
X272735Y206249D01*
X272540Y206038D01*
X272375Y205767D01*
X272240Y205436D01*
X272135Y205044D01*
X272060Y204592D01*
X272015Y204080D01*
X272000Y203508D01*
X269000D01*
X268985Y204080D01*
X268940Y204592D01*
X268865Y205044D01*
X268760Y205436D01*
X268625Y205767D01*
X268460Y206038D01*
X268265Y206249D01*
X268040Y206400D01*
X267785Y206490D01*
X267500Y206520D01*
X273500D01*
X273215Y206490D01*
D02*
G37*
G36*
X186539Y204685D02*
X186599Y204515D01*
X186698Y204365D01*
X186838Y204235D01*
X187019Y204125D01*
X187239Y204035D01*
X187498Y203965D01*
X187799Y203915D01*
X188138Y203885D01*
X188519Y203875D01*
Y201875D01*
X186519Y201887D01*
Y204875D01*
X186539Y204685D01*
D02*
G37*
G36*
X212027Y201413D02*
X212007Y201569D01*
X211947Y201708D01*
X211847Y201831D01*
X211707Y201937D01*
X211527Y202027D01*
X211307Y202101D01*
X211047Y202158D01*
X210747Y202199D01*
X210407Y202223D01*
X210027Y202232D01*
Y204232D01*
X210407Y204240D01*
X211047Y204305D01*
X211307Y204363D01*
X211527Y204436D01*
X211707Y204526D01*
X211847Y204633D01*
X211947Y204756D01*
X212007Y204895D01*
X212027Y205050D01*
Y201413D01*
D02*
G37*
G36*
X207993Y204895D02*
X208053Y204756D01*
X208153Y204633D01*
X208293Y204526D01*
X208473Y204436D01*
X208693Y204363D01*
X208953Y204305D01*
X209253Y204264D01*
X209593Y204240D01*
X209973Y204232D01*
Y202232D01*
X209593Y202223D01*
X208953Y202158D01*
X208693Y202101D01*
X208473Y202027D01*
X208293Y201937D01*
X208153Y201830D01*
X208053Y201708D01*
X207993Y201569D01*
X207973Y201413D01*
Y205050D01*
X207993Y204895D01*
D02*
G37*
G36*
X215862Y201413D02*
X215709Y201393D01*
X215572Y201333D01*
X215451Y201233D01*
X215346Y201093D01*
X215257Y200913D01*
X215185Y200693D01*
X215128Y200433D01*
X215088Y200133D01*
X215081Y200033D01*
X215096Y199864D01*
X215146Y199562D01*
X215216Y199301D01*
X215306Y199080D01*
X215416Y198898D01*
X215546Y198758D01*
X215696Y198657D01*
X215866Y198596D01*
X216056Y198575D01*
X212250Y198587D01*
X212403Y198607D01*
X212540Y198667D01*
X212661Y198767D01*
X212766Y198907D01*
X212854Y199087D01*
X212927Y199307D01*
X212983Y199567D01*
X213023Y199867D01*
X213031Y199967D01*
X213016Y200136D01*
X212966Y200438D01*
X212896Y200699D01*
X212806Y200920D01*
X212696Y201101D01*
X212566Y201242D01*
X212416Y201343D01*
X212246Y201404D01*
X212056Y201425D01*
X215862Y201413D01*
D02*
G37*
G36*
X168113Y200605D02*
X168002Y200466D01*
X167905Y200322D01*
X167820Y200169D01*
X167749Y200010D01*
X167690Y199844D01*
X167645Y199671D01*
X167612Y199491D01*
X167611Y199479D01*
X167616Y199418D01*
X167654Y199192D01*
X167706Y198995D01*
X167774Y198829D01*
X167856Y198693D01*
X167954Y198587D01*
X168066Y198511D01*
X168194Y198466D01*
X168336Y198451D01*
X165336D01*
X165479Y198466D01*
X165606Y198511D01*
X165719Y198587D01*
X165816Y198693D01*
X165899Y198829D01*
X165966Y198995D01*
X166019Y199192D01*
X166056Y199418D01*
X166062Y199479D01*
X166060Y199491D01*
X166028Y199671D01*
X165982Y199844D01*
X165924Y200010D01*
X165852Y200169D01*
X165768Y200322D01*
X165670Y200466D01*
X165560Y200605D01*
X165436Y200735D01*
X168236D01*
X168113Y200605D01*
D02*
G37*
G36*
X253510Y199976D02*
X253539Y199634D01*
X253588Y199309D01*
X253657Y199002D01*
X253745Y198712D01*
X253853Y198441D01*
X253980Y198187D01*
X254127Y197950D01*
X254294Y197731D01*
X254480Y197530D01*
X249520D01*
X249706Y197731D01*
X249873Y197950D01*
X250020Y198187D01*
X250147Y198441D01*
X250255Y198712D01*
X250343Y199002D01*
X250412Y199309D01*
X250461Y199634D01*
X250490Y199976D01*
X250500Y200336D01*
X253500D01*
X253510Y199976D01*
D02*
G37*
G36*
X272012Y200302D02*
X272047Y199964D01*
X272106Y199656D01*
X272188Y199379D01*
X272294Y199131D01*
X272423Y198913D01*
X272576Y198726D01*
X272753Y198568D01*
X272953Y198440D01*
X273176Y198343D01*
X268698Y196284D01*
X268755Y196465D01*
X268807Y196695D01*
X268852Y196976D01*
X268924Y197686D01*
X268988Y199126D01*
X269000Y200336D01*
X272000Y200669D01*
X272012Y200302D01*
D02*
G37*
G36*
X196883Y199605D02*
X197618Y198983D01*
X197944Y198757D01*
X198241Y198587D01*
X198509Y198474D01*
X198750Y198417D01*
X198962D01*
X199146Y198474D01*
X199301Y198587D01*
X196473Y195759D01*
X196586Y195914D01*
X196643Y196098D01*
Y196310D01*
X196586Y196551D01*
X196473Y196819D01*
X196303Y197116D01*
X196077Y197442D01*
X195794Y197795D01*
X195059Y198587D01*
X196473Y200001D01*
X196883Y199605D01*
D02*
G37*
G36*
X188596Y195144D02*
X188581Y195287D01*
X188536Y195414D01*
X188460Y195527D01*
X188355Y195624D01*
X188218Y195706D01*
X188052Y195774D01*
X187856Y195826D01*
X187629Y195864D01*
X187372Y195887D01*
X187084Y195894D01*
Y197394D01*
X187372Y197401D01*
X187629Y197424D01*
X187856Y197461D01*
X188052Y197514D01*
X188218Y197582D01*
X188355Y197664D01*
X188460Y197761D01*
X188536Y197874D01*
X188581Y198002D01*
X188596Y198144D01*
Y195144D01*
D02*
G37*
G36*
X184545Y198002D02*
X184590Y197874D01*
X184665Y197761D01*
X184770Y197664D01*
X184905Y197582D01*
X185070Y197514D01*
X185265Y197461D01*
X185490Y197424D01*
X185745Y197401D01*
X186030Y197394D01*
Y195894D01*
X185745Y195887D01*
X185490Y195864D01*
X185265Y195826D01*
X185070Y195774D01*
X184905Y195706D01*
X184770Y195624D01*
X184665Y195527D01*
X184590Y195414D01*
X184545Y195287D01*
X184530Y195144D01*
Y198144D01*
X184545Y198002D01*
D02*
G37*
G36*
X180708Y195144D02*
X180693Y195287D01*
X180648Y195414D01*
X180572Y195527D01*
X180466Y195624D01*
X180330Y195706D01*
X180164Y195774D01*
X179967Y195826D01*
X179740Y195864D01*
X179483Y195887D01*
X179196Y195894D01*
Y197394D01*
X179483Y197401D01*
X179740Y197424D01*
X179967Y197461D01*
X180164Y197514D01*
X180330Y197582D01*
X180466Y197664D01*
X180572Y197761D01*
X180648Y197874D01*
X180693Y198002D01*
X180708Y198144D01*
Y195144D01*
D02*
G37*
G36*
X176657Y198002D02*
X176702Y197874D01*
X176777Y197761D01*
X176882Y197664D01*
X177017Y197582D01*
X177182Y197514D01*
X177377Y197461D01*
X177602Y197424D01*
X177857Y197401D01*
X178142Y197394D01*
Y195894D01*
X177857Y195887D01*
X177602Y195864D01*
X177377Y195826D01*
X177182Y195774D01*
X177017Y195706D01*
X176882Y195624D01*
X176777Y195527D01*
X176702Y195414D01*
X176657Y195287D01*
X176642Y195144D01*
Y198144D01*
X176657Y198002D01*
D02*
G37*
G36*
X172820Y195144D02*
X172804Y195287D01*
X172759Y195414D01*
X172684Y195527D01*
X172578Y195624D01*
X172442Y195706D01*
X172275Y195774D01*
X172079Y195826D01*
X171852Y195864D01*
X171595Y195887D01*
X171308Y195894D01*
Y197394D01*
X171595Y197401D01*
X171852Y197424D01*
X172079Y197461D01*
X172275Y197514D01*
X172442Y197582D01*
X172578Y197664D01*
X172684Y197761D01*
X172759Y197874D01*
X172804Y198002D01*
X172820Y198144D01*
Y195144D01*
D02*
G37*
G36*
X168768Y198002D02*
X168813Y197874D01*
X168888Y197761D01*
X168993Y197664D01*
X169128Y197582D01*
X169293Y197514D01*
X169488Y197461D01*
X169713Y197424D01*
X169968Y197401D01*
X170253Y197394D01*
Y195894D01*
X169968Y195887D01*
X169713Y195864D01*
X169488Y195826D01*
X169293Y195774D01*
X169128Y195706D01*
X168993Y195624D01*
X168888Y195527D01*
X168813Y195414D01*
X168768Y195287D01*
X168753Y195144D01*
Y198144D01*
X168768Y198002D01*
D02*
G37*
G36*
X164931Y195144D02*
X164916Y195287D01*
X164871Y195414D01*
X164795Y195527D01*
X164689Y195624D01*
X164553Y195706D01*
X164387Y195774D01*
X164190Y195826D01*
X163963Y195864D01*
X163707Y195887D01*
X163419Y195894D01*
Y197394D01*
X163707Y197401D01*
X163963Y197424D01*
X164190Y197461D01*
X164387Y197514D01*
X164553Y197582D01*
X164689Y197664D01*
X164795Y197761D01*
X164871Y197874D01*
X164916Y198002D01*
X164931Y198144D01*
Y195144D01*
D02*
G37*
G36*
X160880Y198002D02*
X160925Y197874D01*
X161000Y197761D01*
X161105Y197664D01*
X161240Y197582D01*
X161405Y197514D01*
X161600Y197461D01*
X161825Y197424D01*
X162080Y197401D01*
X162365Y197394D01*
Y195894D01*
X162080Y195887D01*
X161825Y195864D01*
X161600Y195826D01*
X161405Y195774D01*
X161240Y195706D01*
X161105Y195624D01*
X161000Y195527D01*
X160925Y195414D01*
X160880Y195287D01*
X160865Y195144D01*
Y198144D01*
X160880Y198002D01*
D02*
G37*
G36*
X212250Y194950D02*
X212230Y195105D01*
X212170Y195244D01*
X212070Y195367D01*
X211930Y195474D01*
X211750Y195564D01*
X211530Y195637D01*
X211270Y195695D01*
X210970Y195736D01*
X210630Y195760D01*
X210250Y195768D01*
Y197768D01*
X210630Y197777D01*
X211270Y197842D01*
X211530Y197899D01*
X211750Y197973D01*
X211930Y198063D01*
X212070Y198170D01*
X212170Y198292D01*
X212230Y198432D01*
X212250Y198587D01*
Y194950D01*
D02*
G37*
G36*
X208216Y198432D02*
X208276Y198292D01*
X208376Y198170D01*
X208516Y198063D01*
X208696Y197973D01*
X208916Y197899D01*
X209176Y197842D01*
X209476Y197801D01*
X209816Y197777D01*
X210196Y197768D01*
Y195768D01*
X209816Y195760D01*
X209176Y195695D01*
X208916Y195637D01*
X208696Y195564D01*
X208516Y195474D01*
X208376Y195367D01*
X208276Y195244D01*
X208216Y195105D01*
X208196Y194950D01*
Y198587D01*
X208216Y198432D01*
D02*
G37*
G36*
X204361Y194950D02*
X204341Y195105D01*
X204281Y195244D01*
X204181Y195367D01*
X204041Y195474D01*
X203861Y195564D01*
X203641Y195637D01*
X203381Y195695D01*
X203081Y195736D01*
X202741Y195760D01*
X202361Y195768D01*
Y197768D01*
X202741Y197777D01*
X203381Y197842D01*
X203641Y197899D01*
X203861Y197973D01*
X204041Y198063D01*
X204181Y198170D01*
X204281Y198292D01*
X204341Y198432D01*
X204361Y198587D01*
Y194950D01*
D02*
G37*
G36*
X200327Y198432D02*
X200387Y198292D01*
X200487Y198170D01*
X200627Y198063D01*
X200807Y197973D01*
X201027Y197899D01*
X201287Y197842D01*
X201587Y197801D01*
X201927Y197777D01*
X202307Y197768D01*
Y195768D01*
X201927Y195760D01*
X201287Y195695D01*
X201027Y195637D01*
X200807Y195564D01*
X200627Y195474D01*
X200487Y195367D01*
X200387Y195244D01*
X200327Y195105D01*
X200307Y194950D01*
Y198587D01*
X200327Y198432D01*
D02*
G37*
G36*
X192334Y196830D02*
X192291Y196692D01*
Y196533D01*
X192334Y196353D01*
X192419Y196151D01*
X192546Y195928D01*
X192716Y195684D01*
X192928Y195419D01*
X193479Y194825D01*
X192419Y193765D01*
X192111Y194062D01*
X191560Y194528D01*
X191316Y194698D01*
X191093Y194825D01*
X190891Y194910D01*
X190711Y194952D01*
X190552D01*
X190414Y194910D01*
X190297Y194825D01*
X192419Y196947D01*
X192334Y196830D01*
D02*
G37*
G36*
X196473Y192524D02*
Y190771D01*
X196463Y190821D01*
X196432Y190866D01*
X196382Y190906D01*
X196311Y190941D01*
X196219Y190970D01*
X196108Y190994D01*
X195976Y191012D01*
X195823Y191025D01*
X195458Y191036D01*
Y192536D01*
X196473Y192524D01*
D02*
G37*
G36*
X300013Y193118D02*
X300050Y192747D01*
X300113Y192392D01*
X300201Y192051D01*
X300314Y191725D01*
X300452Y191413D01*
X300615Y191116D01*
X300804Y190833D01*
X301017Y190565D01*
X301256Y190312D01*
X295744D01*
X295983Y190565D01*
X296196Y190833D01*
X296385Y191116D01*
X296548Y191413D01*
X296686Y191725D01*
X296799Y192051D01*
X296887Y192392D01*
X296950Y192747D01*
X296987Y193118D01*
X297000Y193502D01*
X300000D01*
X300013Y193118D01*
D02*
G37*
G36*
X53849Y191141D02*
X53764Y191111D01*
X53689Y191060D01*
X53624Y190989D01*
X53569Y190898D01*
X53524Y190787D01*
X53489Y190656D01*
X53464Y190504D01*
X53449Y190332D01*
X53444Y190139D01*
X52444D01*
X52439Y190332D01*
X52424Y190504D01*
X52399Y190656D01*
X52364Y190787D01*
X52319Y190898D01*
X52264Y190989D01*
X52199Y191060D01*
X52124Y191111D01*
X52039Y191141D01*
X51944Y191151D01*
X53944D01*
X53849Y191141D01*
D02*
G37*
G36*
X36132D02*
X36047Y191111D01*
X35972Y191060D01*
X35907Y190989D01*
X35852Y190898D01*
X35807Y190787D01*
X35772Y190656D01*
X35747Y190504D01*
X35732Y190332D01*
X35727Y190139D01*
X34727D01*
X34722Y190332D01*
X34707Y190504D01*
X34682Y190656D01*
X34647Y190787D01*
X34602Y190898D01*
X34547Y190989D01*
X34482Y191060D01*
X34407Y191111D01*
X34322Y191141D01*
X34227Y191151D01*
X36227D01*
X36132Y191141D01*
D02*
G37*
G36*
X25763D02*
X25679Y191111D01*
X25604Y191060D01*
X25539Y190989D01*
X25484Y190898D01*
X25438Y190787D01*
X25403Y190656D01*
X25379Y190504D01*
X25363Y190332D01*
X25359Y190139D01*
X24359D01*
X24353Y190332D01*
X24339Y190504D01*
X24314Y190656D01*
X24279Y190787D01*
X24234Y190898D01*
X24179Y190989D01*
X24114Y191060D01*
X24038Y191111D01*
X23954Y191141D01*
X23858Y191151D01*
X25859D01*
X25763Y191141D01*
D02*
G37*
G36*
X8047D02*
X7962Y191111D01*
X7887Y191060D01*
X7822Y190989D01*
X7767Y190898D01*
X7722Y190787D01*
X7687Y190656D01*
X7662Y190504D01*
X7647Y190332D01*
X7642Y190139D01*
X6642D01*
X6637Y190332D01*
X6622Y190504D01*
X6597Y190656D01*
X6562Y190787D01*
X6517Y190898D01*
X6462Y190989D01*
X6397Y191060D01*
X6322Y191111D01*
X6237Y191141D01*
X6142Y191151D01*
X8142D01*
X8047Y191141D01*
D02*
G37*
G36*
X157442Y193417D02*
X158179Y192792D01*
X158504Y192565D01*
X158801Y192394D01*
X159070Y192279D01*
X159310Y192222D01*
X159522Y192220D01*
X159705Y192276D01*
X159859Y192388D01*
X157043Y189571D01*
X157155Y189726D01*
X157210Y189909D01*
X157209Y190120D01*
X157151Y190360D01*
X157037Y190629D01*
X156866Y190926D01*
X156638Y191252D01*
X156354Y191606D01*
X155616Y192400D01*
X157031Y193814D01*
X157442Y193417D01*
D02*
G37*
G36*
X212250Y189205D02*
X212235Y189348D01*
X212190Y189475D01*
X212115Y189588D01*
X212010Y189685D01*
X211875Y189768D01*
X211710Y189835D01*
X211515Y189888D01*
X211290Y189925D01*
X211035Y189948D01*
X210750Y189955D01*
Y191455D01*
X211035Y191463D01*
X211290Y191485D01*
X211515Y191523D01*
X211710Y191575D01*
X211875Y191643D01*
X212010Y191725D01*
X212115Y191823D01*
X212190Y191935D01*
X212235Y192063D01*
X212250Y192205D01*
Y189205D01*
D02*
G37*
G36*
X208199Y192063D02*
X208244Y191935D01*
X208320Y191823D01*
X208426Y191725D01*
X208562Y191643D01*
X208728Y191575D01*
X208925Y191523D01*
X209151Y191485D01*
X209408Y191463D01*
X209696Y191455D01*
Y189955D01*
X209408Y189948D01*
X209151Y189925D01*
X208925Y189888D01*
X208728Y189835D01*
X208562Y189768D01*
X208426Y189685D01*
X208320Y189588D01*
X208244Y189475D01*
X208199Y189348D01*
X208184Y189205D01*
Y192205D01*
X208199Y192063D01*
D02*
G37*
G36*
X204361Y189205D02*
X204346Y189348D01*
X204301Y189475D01*
X204226Y189588D01*
X204121Y189685D01*
X203986Y189768D01*
X203821Y189835D01*
X203626Y189888D01*
X203401Y189925D01*
X203146Y189948D01*
X202861Y189955D01*
Y191455D01*
X203146Y191463D01*
X203401Y191485D01*
X203626Y191523D01*
X203821Y191575D01*
X203986Y191643D01*
X204121Y191725D01*
X204226Y191823D01*
X204301Y191935D01*
X204346Y192063D01*
X204361Y192205D01*
Y189205D01*
D02*
G37*
G36*
X200310Y192063D02*
X200356Y191935D01*
X200431Y191823D01*
X200537Y191725D01*
X200673Y191643D01*
X200840Y191575D01*
X201036Y191523D01*
X201263Y191485D01*
X201520Y191463D01*
X201807Y191455D01*
Y189955D01*
X201520Y189948D01*
X201263Y189925D01*
X201036Y189888D01*
X200840Y189835D01*
X200673Y189768D01*
X200537Y189685D01*
X200431Y189588D01*
X200356Y189475D01*
X200310Y189348D01*
X200295Y189205D01*
Y192205D01*
X200310Y192063D01*
D02*
G37*
G36*
X188584Y188762D02*
X188565Y188918D01*
X188505Y189057D01*
X188405Y189180D01*
X188265Y189286D01*
X188084Y189376D01*
X187864Y189450D01*
X187604Y189507D01*
X187304Y189548D01*
X186964Y189573D01*
X186584Y189581D01*
Y191581D01*
X186964Y191589D01*
X187604Y191655D01*
X187864Y191712D01*
X188084Y191786D01*
X188265Y191876D01*
X188405Y191982D01*
X188505Y192105D01*
X188565Y192244D01*
X188584Y192400D01*
Y188762D01*
D02*
G37*
G36*
X184550Y192244D02*
X184610Y192105D01*
X184710Y191982D01*
X184850Y191876D01*
X185030Y191786D01*
X185250Y191712D01*
X185510Y191655D01*
X185810Y191614D01*
X186150Y191589D01*
X186530Y191581D01*
Y189581D01*
X186150Y189573D01*
X185510Y189507D01*
X185250Y189450D01*
X185030Y189376D01*
X184850Y189286D01*
X184710Y189180D01*
X184610Y189057D01*
X184550Y188918D01*
X184530Y188762D01*
Y192400D01*
X184550Y192244D01*
D02*
G37*
G36*
X180696Y188762D02*
X180676Y188918D01*
X180616Y189057D01*
X180516Y189180D01*
X180376Y189286D01*
X180196Y189376D01*
X179976Y189450D01*
X179716Y189507D01*
X179416Y189548D01*
X179076Y189573D01*
X178696Y189581D01*
Y191581D01*
X179076Y191589D01*
X179716Y191655D01*
X179976Y191712D01*
X180196Y191786D01*
X180376Y191876D01*
X180516Y191982D01*
X180616Y192105D01*
X180676Y192244D01*
X180696Y192400D01*
Y188762D01*
D02*
G37*
G36*
X176662Y192244D02*
X176722Y192105D01*
X176822Y191982D01*
X176962Y191876D01*
X177142Y191786D01*
X177362Y191712D01*
X177622Y191655D01*
X177922Y191614D01*
X178262Y191589D01*
X178642Y191581D01*
Y189581D01*
X178262Y189573D01*
X177622Y189507D01*
X177362Y189450D01*
X177142Y189376D01*
X176962Y189286D01*
X176822Y189180D01*
X176722Y189057D01*
X176662Y188918D01*
X176642Y188762D01*
Y192400D01*
X176662Y192244D01*
D02*
G37*
G36*
X172808Y188762D02*
X172788Y188918D01*
X172728Y189057D01*
X172628Y189180D01*
X172488Y189286D01*
X172308Y189376D01*
X172088Y189450D01*
X171828Y189507D01*
X171528Y189548D01*
X171188Y189573D01*
X170808Y189581D01*
Y191581D01*
X171188Y191589D01*
X171828Y191655D01*
X172088Y191712D01*
X172308Y191786D01*
X172488Y191876D01*
X172628Y191982D01*
X172728Y192105D01*
X172788Y192244D01*
X172808Y192400D01*
Y188762D01*
D02*
G37*
G36*
X168773Y192244D02*
X168833Y192105D01*
X168933Y191982D01*
X169073Y191876D01*
X169253Y191786D01*
X169473Y191712D01*
X169733Y191655D01*
X170033Y191614D01*
X170373Y191589D01*
X170753Y191581D01*
Y189581D01*
X170373Y189573D01*
X169733Y189507D01*
X169473Y189450D01*
X169253Y189376D01*
X169073Y189286D01*
X168933Y189180D01*
X168833Y189057D01*
X168773Y188918D01*
X168753Y188762D01*
Y192400D01*
X168773Y192244D01*
D02*
G37*
G36*
X164919Y188762D02*
X164899Y188918D01*
X164839Y189057D01*
X164739Y189180D01*
X164599Y189286D01*
X164419Y189376D01*
X164199Y189450D01*
X163939Y189507D01*
X163639Y189548D01*
X163299Y189573D01*
X162919Y189581D01*
Y191581D01*
X163299Y191589D01*
X163939Y191655D01*
X164199Y191712D01*
X164419Y191786D01*
X164599Y191876D01*
X164739Y191982D01*
X164839Y192105D01*
X164899Y192244D01*
X164919Y192400D01*
Y188762D01*
D02*
G37*
G36*
X160885Y192244D02*
X160945Y192105D01*
X161045Y191982D01*
X161185Y191876D01*
X161365Y191786D01*
X161585Y191712D01*
X161845Y191655D01*
X162145Y191614D01*
X162485Y191589D01*
X162865Y191581D01*
Y189581D01*
X162485Y189573D01*
X161845Y189507D01*
X161585Y189450D01*
X161365Y189376D01*
X161185Y189286D01*
X161045Y189180D01*
X160945Y189057D01*
X160885Y188918D01*
X160865Y188762D01*
Y192400D01*
X160885Y192244D01*
D02*
G37*
G36*
X192290Y191342D02*
X192232Y191163D01*
X192230Y190954D01*
X192287Y190715D01*
X192401Y190447D01*
X192572Y190149D01*
X192801Y189822D01*
X193087Y189466D01*
X193833Y188664D01*
X192320Y187348D01*
X191914Y187741D01*
X191183Y188360D01*
X190858Y188586D01*
X190562Y188756D01*
X190293Y188871D01*
X190051Y188930D01*
X189837Y188934D01*
X189651Y188882D01*
X189492Y188774D01*
X192407Y191492D01*
X192290Y191342D01*
D02*
G37*
G36*
X207733Y188884D02*
X207608Y188838D01*
X207499Y188763D01*
X207407Y188657D01*
X207331Y188521D01*
X207272Y188355D01*
X207230Y188159D01*
X207212Y188002D01*
X207234Y187910D01*
X207288Y187739D01*
X207355Y187576D01*
X207435Y187421D01*
X207527Y187274D01*
X207632Y187134D01*
X207749Y187002D01*
X207879Y186878D01*
X205083Y186732D01*
X205200Y186870D01*
X205303Y187013D01*
X205393Y187163D01*
X205469Y187319D01*
X205532Y187482D01*
X205582Y187651D01*
X205619Y187826D01*
X205636Y187960D01*
X205592Y188159D01*
X205530Y188355D01*
X205453Y188521D01*
X205364Y188657D01*
X205261Y188763D01*
X205144Y188838D01*
X205014Y188884D01*
X204871Y188899D01*
X207875D01*
X207733Y188884D01*
D02*
G37*
G36*
X87401Y181531D02*
X87414Y181429D01*
X87436Y181327D01*
X87467Y181228D01*
X87506Y181130D01*
X87555Y181033D01*
X87613Y180938D01*
X87681Y180844D01*
X87757Y180752D01*
X87842Y180661D01*
X87135Y179954D01*
X87044Y180039D01*
X86952Y180116D01*
X86859Y180183D01*
X86763Y180241D01*
X86667Y180290D01*
X86568Y180330D01*
X86469Y180360D01*
X86368Y180382D01*
X86265Y180395D01*
X86161Y180398D01*
X87398Y181636D01*
X87401Y181531D01*
D02*
G37*
G36*
X164253Y180883D02*
X164266Y180780D01*
X164288Y180679D01*
X164319Y180580D01*
X164358Y180481D01*
X164407Y180385D01*
X164465Y180289D01*
X164532Y180196D01*
X164609Y180104D01*
X164694Y180013D01*
X163987Y179306D01*
X163896Y179391D01*
X163804Y179468D01*
X163710Y179535D01*
X163615Y179593D01*
X163519Y179642D01*
X163420Y179682D01*
X163321Y179712D01*
X163219Y179734D01*
X163117Y179747D01*
X163013Y179750D01*
X164250Y180988D01*
X164253Y180883D01*
D02*
G37*
G36*
X85210Y179339D02*
X85222Y179237D01*
X85244Y179135D01*
X85274Y179036D01*
X85314Y178937D01*
X85363Y178841D01*
X85421Y178746D01*
X85488Y178652D01*
X85565Y178560D01*
X85650Y178469D01*
X84943Y177762D01*
X84852Y177847D01*
X84760Y177924D01*
X84667Y177991D01*
X84571Y178049D01*
X84475Y178098D01*
X84377Y178138D01*
X84277Y178168D01*
X84176Y178190D01*
X84073Y178203D01*
X83969Y178206D01*
X85206Y179444D01*
X85210Y179339D01*
D02*
G37*
G36*
X190607Y177125D02*
X190577Y177149D01*
X190534Y177170D01*
X190479Y177189D01*
X190411Y177205D01*
X190332Y177219D01*
X190136Y177239D01*
X189891Y177249D01*
X189750Y177250D01*
Y178750D01*
X189891Y178751D01*
X190332Y178781D01*
X190411Y178795D01*
X190479Y178811D01*
X190534Y178830D01*
X190577Y178851D01*
X190607Y178875D01*
Y177125D01*
D02*
G37*
G36*
X169666Y177000D02*
X169655Y177095D01*
X169625Y177180D01*
X169574Y177255D01*
X169504Y177320D01*
X169413Y177375D01*
X169301Y177420D01*
X169170Y177455D01*
X169018Y177480D01*
X168846Y177495D01*
X168654Y177500D01*
Y178500D01*
X168846Y178505D01*
X169018Y178520D01*
X169170Y178545D01*
X169301Y178580D01*
X169413Y178625D01*
X169504Y178680D01*
X169574Y178745D01*
X169625Y178820D01*
X169655Y178905D01*
X169666Y179000D01*
Y177000D01*
D02*
G37*
G36*
X187350Y179358D02*
X187395Y179230D01*
X187470Y179118D01*
X187576Y179020D01*
X187713Y178937D01*
X187879Y178870D01*
X188075Y178817D01*
X188302Y178780D01*
X188559Y178758D01*
X188847Y178750D01*
Y177250D01*
X188559Y177243D01*
X188302Y177220D01*
X188075Y177182D01*
X187879Y177130D01*
X187713Y177062D01*
X187576Y176980D01*
X187470Y176883D01*
X187395Y176770D01*
X187350Y176643D01*
X187335Y176500D01*
Y179500D01*
X187350Y179358D01*
D02*
G37*
G36*
X82424Y176553D02*
X82436Y176451D01*
X82458Y176349D01*
X82489Y176250D01*
X82528Y176151D01*
X82577Y176055D01*
X82635Y175960D01*
X82702Y175866D01*
X82779Y175774D01*
X82864Y175683D01*
X82157Y174976D01*
X82066Y175061D01*
X81974Y175138D01*
X81880Y175205D01*
X81785Y175263D01*
X81689Y175312D01*
X81590Y175352D01*
X81491Y175382D01*
X81390Y175404D01*
X81287Y175417D01*
X81183Y175420D01*
X82420Y176658D01*
X82424Y176553D01*
D02*
G37*
G36*
X195504Y176217D02*
X195536Y175830D01*
X195564Y175658D01*
X195600Y175500D01*
X195644Y175357D01*
X195696Y175228D01*
X195756Y175114D01*
X195824Y175014D01*
X195900Y174928D01*
X193100D01*
X193176Y175014D01*
X193244Y175114D01*
X193304Y175228D01*
X193356Y175357D01*
X193400Y175500D01*
X193436Y175658D01*
X193464Y175830D01*
X193484Y176016D01*
X193500Y176432D01*
X195500D01*
X195504Y176217D01*
D02*
G37*
G36*
X171068Y174678D02*
X170991Y174733D01*
X170900Y174760D01*
X170794Y174759D01*
X170675Y174729D01*
X170540Y174672D01*
X170392Y174585D01*
X170229Y174471D01*
X170051Y174328D01*
X169653Y173958D01*
X168946Y174666D01*
X169146Y174872D01*
X169459Y175241D01*
X169573Y175404D01*
X169659Y175552D01*
X169717Y175687D01*
X169747Y175806D01*
X169748Y175912D01*
X169721Y176003D01*
X169666Y176080D01*
X171068Y174678D01*
D02*
G37*
G36*
X140257Y174107D02*
X140375D01*
X140351Y174077D01*
X140330Y174034D01*
X140311Y173979D01*
X140295Y173911D01*
X140281Y173832D01*
X140281Y173831D01*
X140317Y173611D01*
X140370Y173414D01*
X140437Y173248D01*
X140520Y173112D01*
X140618Y173006D01*
X140730Y172930D01*
X140858Y172885D01*
X141000Y172870D01*
X138000D01*
X138143Y172885D01*
X138270Y172930D01*
X138382Y173006D01*
X138480Y173112D01*
X138563Y173248D01*
X138630Y173414D01*
X138682Y173611D01*
X138719Y173830D01*
X138719Y173832D01*
X138705Y173911D01*
X138689Y173979D01*
X138670Y174034D01*
X138649Y174077D01*
X138625Y174107D01*
X138743D01*
X138750Y174382D01*
X140250D01*
X140257Y174107D01*
D02*
G37*
G36*
X80231Y174361D02*
X80244Y174258D01*
X80266Y174157D01*
X80296Y174058D01*
X80336Y173959D01*
X80385Y173863D01*
X80443Y173768D01*
X80510Y173674D01*
X80587Y173582D01*
X80672Y173491D01*
X79965Y172784D01*
X79874Y172869D01*
X79782Y172946D01*
X79689Y173013D01*
X79593Y173071D01*
X79497Y173120D01*
X79399Y173160D01*
X79299Y173190D01*
X79198Y173212D01*
X79095Y173225D01*
X78991Y173228D01*
X80228Y174466D01*
X80231Y174361D01*
D02*
G37*
G36*
X165427Y174468D02*
X165457Y174383D01*
X165507Y174308D01*
X165577Y174243D01*
X165667Y174188D01*
X165777Y174143D01*
X165907Y174108D01*
X166057Y174083D01*
X166227Y174068D01*
X166417Y174063D01*
Y173063D01*
X166227Y173058D01*
X166057Y173043D01*
X165907Y173018D01*
X165777Y172983D01*
X165667Y172938D01*
X165577Y172883D01*
X165507Y172818D01*
X165457Y172743D01*
X165427Y172658D01*
X165417Y172563D01*
Y174563D01*
X165427Y174468D01*
D02*
G37*
G36*
X196014Y174824D02*
X196114Y174756D01*
X196228Y174696D01*
X196357Y174644D01*
X196500Y174600D01*
X196658Y174564D01*
X196830Y174536D01*
X197016Y174516D01*
X197432Y174500D01*
Y172500D01*
X197217Y172496D01*
X196830Y172464D01*
X196658Y172436D01*
X196500Y172400D01*
X196357Y172356D01*
X196228Y172304D01*
X196114Y172244D01*
X196014Y172176D01*
X195928Y172100D01*
Y174900D01*
X196014Y174824D01*
D02*
G37*
G36*
X78899Y171884D02*
X78336Y171033D01*
X78242Y171121D01*
X78150Y171195D01*
X78060Y171255D01*
X77974Y171300D01*
X77889Y171330D01*
X77807Y171346D01*
X77728Y171347D01*
X77652Y171334D01*
X77578Y171307D01*
X77506Y171264D01*
X77871Y172906D01*
X78899Y171884D01*
D02*
G37*
G36*
X195824Y171986D02*
X195756Y171886D01*
X195696Y171772D01*
X195644Y171643D01*
X195600Y171500D01*
X195564Y171342D01*
X195536Y171170D01*
X195529Y171107D01*
X195540Y170981D01*
X195590Y170665D01*
X195659Y170389D01*
X195749Y170155D01*
X195858Y169963D01*
X195988Y169812D01*
X196137Y169703D01*
X196306Y169634D01*
X196495Y169608D01*
X192500Y169727D01*
X192690Y169741D01*
X192860Y169798D01*
X193010Y169895D01*
X193140Y170034D01*
X193250Y170215D01*
X193340Y170437D01*
X193410Y170700D01*
X193460Y171005D01*
X193469Y171109D01*
X193464Y171170D01*
X193436Y171342D01*
X193400Y171500D01*
X193356Y171643D01*
X193304Y171772D01*
X193244Y171886D01*
X193176Y171986D01*
X193100Y172072D01*
X195900D01*
X195824Y171986D01*
D02*
G37*
G36*
X74969Y170304D02*
X75050Y170240D01*
X75137Y170184D01*
X75230Y170135D01*
X75327Y170094D01*
X75430Y170060D01*
X75538Y170034D01*
X75652Y170015D01*
X75771Y170004D01*
X75896Y170000D01*
Y169000D01*
X75771Y168996D01*
X75652Y168985D01*
X75538Y168966D01*
X75430Y168940D01*
X75327Y168906D01*
X75230Y168865D01*
X75137Y168816D01*
X75050Y168760D01*
X74969Y168696D01*
X74893Y168625D01*
Y170375D01*
X74969Y170304D01*
D02*
G37*
G36*
X209083Y166500D02*
X209068Y166642D01*
X209023Y166770D01*
X208948Y166883D01*
X208843Y166980D01*
X208708Y167062D01*
X208543Y167130D01*
X208348Y167183D01*
X208123Y167220D01*
X207868Y167243D01*
X207583Y167250D01*
Y168750D01*
X207868Y168757D01*
X208123Y168780D01*
X208348Y168817D01*
X208543Y168870D01*
X208708Y168938D01*
X208843Y169020D01*
X208948Y169117D01*
X209023Y169230D01*
X209068Y169358D01*
X209083Y169500D01*
Y166500D01*
D02*
G37*
G36*
X205932Y169358D02*
X205977Y169230D01*
X206052Y169117D01*
X206157Y169020D01*
X206292Y168938D01*
X206457Y168870D01*
X206652Y168817D01*
X206877Y168780D01*
X207132Y168757D01*
X207417Y168750D01*
Y167250D01*
X207132Y167243D01*
X206877Y167220D01*
X206652Y167183D01*
X206457Y167130D01*
X206292Y167062D01*
X206157Y166980D01*
X206052Y166883D01*
X205977Y166770D01*
X205932Y166642D01*
X205917Y166500D01*
Y169500D01*
X205932Y169358D01*
D02*
G37*
G36*
X204285Y166193D02*
X204166Y166273D01*
X204026Y166312D01*
X203865Y166308D01*
X203684Y166264D01*
X203482Y166177D01*
X203260Y166049D01*
X203017Y165879D01*
X202753Y165668D01*
X202164Y165121D01*
X201022Y166101D01*
X201324Y166413D01*
X201798Y166971D01*
X201970Y167216D01*
X202099Y167439D01*
X202185Y167640D01*
X202227Y167819D01*
X202226Y167976D01*
X202182Y168110D01*
X202095Y168222D01*
X204285Y166193D01*
D02*
G37*
G36*
X165432Y168858D02*
X165477Y168730D01*
X165552Y168617D01*
X165657Y168520D01*
X165792Y168438D01*
X165957Y168370D01*
X166152Y168317D01*
X166377Y168280D01*
X166632Y168257D01*
X166917Y168250D01*
Y166750D01*
X166632Y166743D01*
X166377Y166720D01*
X166152Y166683D01*
X165957Y166630D01*
X165792Y166562D01*
X165657Y166480D01*
X165552Y166383D01*
X165477Y166270D01*
X165432Y166142D01*
X165417Y166000D01*
Y169000D01*
X165432Y168858D01*
D02*
G37*
G36*
X53449Y166726D02*
X53464Y166554D01*
X53489Y166402D01*
X53524Y166271D01*
X53569Y166160D01*
X53624Y166068D01*
X53689Y165998D01*
X53764Y165947D01*
X53849Y165917D01*
X53944Y165907D01*
X51944D01*
X52039Y165917D01*
X52124Y165947D01*
X52199Y165998D01*
X52264Y166068D01*
X52319Y166160D01*
X52364Y166271D01*
X52399Y166402D01*
X52424Y166554D01*
X52439Y166726D01*
X52444Y166919D01*
X53444D01*
X53449Y166726D01*
D02*
G37*
G36*
X35732D02*
X35747Y166554D01*
X35772Y166402D01*
X35807Y166271D01*
X35852Y166160D01*
X35907Y166068D01*
X35972Y165998D01*
X36047Y165947D01*
X36132Y165917D01*
X36227Y165907D01*
X34227D01*
X34322Y165917D01*
X34407Y165947D01*
X34482Y165998D01*
X34547Y166068D01*
X34602Y166160D01*
X34647Y166271D01*
X34682Y166402D01*
X34707Y166554D01*
X34722Y166726D01*
X34727Y166919D01*
X35727D01*
X35732Y166726D01*
D02*
G37*
G36*
X25363D02*
X25379Y166554D01*
X25403Y166402D01*
X25438Y166271D01*
X25484Y166160D01*
X25539Y166068D01*
X25604Y165998D01*
X25679Y165947D01*
X25763Y165917D01*
X25859Y165907D01*
X23858D01*
X23954Y165917D01*
X24038Y165947D01*
X24114Y165998D01*
X24179Y166068D01*
X24234Y166160D01*
X24279Y166271D01*
X24314Y166402D01*
X24339Y166554D01*
X24353Y166726D01*
X24359Y166919D01*
X25359D01*
X25363Y166726D01*
D02*
G37*
G36*
X7647D02*
X7662Y166554D01*
X7687Y166402D01*
X7722Y166271D01*
X7767Y166160D01*
X7822Y166068D01*
X7887Y165998D01*
X7962Y165947D01*
X8047Y165917D01*
X8142Y165907D01*
X6142D01*
X6237Y165917D01*
X6322Y165947D01*
X6397Y165998D01*
X6462Y166068D01*
X6517Y166160D01*
X6562Y166271D01*
X6597Y166402D01*
X6622Y166554D01*
X6637Y166726D01*
X6642Y166919D01*
X7642D01*
X7647Y166726D01*
D02*
G37*
G36*
X248880Y169548D02*
X249617Y168924D01*
X249942Y168696D01*
X250239Y168525D01*
X250508Y168411D01*
X250748Y168353D01*
X250960Y168352D01*
X251143Y168407D01*
X251297Y168519D01*
X248481Y165703D01*
X248593Y165857D01*
X248648Y166040D01*
X248647Y166252D01*
X248589Y166492D01*
X248475Y166761D01*
X248304Y167058D01*
X248076Y167383D01*
X247792Y167737D01*
X247055Y168531D01*
X248469Y169946D01*
X248880Y169548D01*
D02*
G37*
G36*
X102051Y166903D02*
X101966Y166873D01*
X101891Y166822D01*
X101826Y166752D01*
X101771Y166660D01*
X101726Y166549D01*
X101691Y166418D01*
X101666Y166267D01*
X101679Y166184D01*
X101706Y166076D01*
X101739Y165973D01*
X101781Y165875D01*
X101829Y165783D01*
X101886Y165696D01*
X101950Y165615D01*
X102021Y165538D01*
X100271D01*
X100342Y165615D01*
X100406Y165696D01*
X100462Y165783D01*
X100511Y165875D01*
X100552Y165973D01*
X100586Y166076D01*
X100612Y166184D01*
X100626Y166267D01*
X100601Y166418D01*
X100566Y166549D01*
X100521Y166660D01*
X100466Y166752D01*
X100401Y166822D01*
X100326Y166873D01*
X100241Y166903D01*
X100146Y166913D01*
X102146D01*
X102051Y166903D01*
D02*
G37*
G36*
X133212Y166898D02*
X133084Y166853D01*
X132972Y166777D01*
X132874Y166672D01*
X132792Y166535D01*
X132724Y166369D01*
X132672Y166173D01*
X132634Y165946D01*
X132612Y165689D01*
X132609Y165588D01*
X132635Y165201D01*
X132649Y165121D01*
X132666Y165054D01*
X132684Y164999D01*
X132705Y164956D01*
X132729Y164925D01*
X130979D01*
X131003Y164956D01*
X131024Y164999D01*
X131043Y165054D01*
X131059Y165121D01*
X131073Y165201D01*
X131093Y165397D01*
X131100Y165567D01*
X131097Y165689D01*
X131074Y165946D01*
X131037Y166173D01*
X130984Y166369D01*
X130917Y166535D01*
X130834Y166672D01*
X130737Y166777D01*
X130624Y166853D01*
X130497Y166898D01*
X130354Y166913D01*
X133354D01*
X133212Y166898D01*
D02*
G37*
G36*
X173796Y167258D02*
X173669Y167213D01*
X173556Y167137D01*
X173459Y167031D01*
X173377Y166895D01*
X173309Y166729D01*
X173257Y166532D01*
X173219Y166306D01*
X173196Y166049D01*
X173195Y166000D01*
X173196Y165952D01*
X173219Y165694D01*
X173257Y165468D01*
X173309Y165271D01*
X173377Y165105D01*
X173459Y164969D01*
X173556Y164863D01*
X173669Y164787D01*
X173796Y164742D01*
X173939Y164727D01*
X170939D01*
X171081Y164742D01*
X171209Y164787D01*
X171321Y164863D01*
X171419Y164969D01*
X171502Y165105D01*
X171569Y165271D01*
X171622Y165468D01*
X171659Y165694D01*
X171681Y165952D01*
X171683Y166000D01*
X171681Y166049D01*
X171659Y166306D01*
X171622Y166532D01*
X171569Y166729D01*
X171502Y166895D01*
X171419Y167031D01*
X171321Y167137D01*
X171209Y167213D01*
X171081Y167258D01*
X170939Y167273D01*
X173939D01*
X173796Y167258D01*
D02*
G37*
G36*
X196706Y164512D02*
X196820Y164457D01*
X196955Y164408D01*
X197110Y164366D01*
X197285Y164331D01*
X197480Y164302D01*
X197932Y164263D01*
X198465Y164250D01*
Y162750D01*
X198188Y162747D01*
X197480Y162698D01*
X197285Y162669D01*
X197110Y162634D01*
X196955Y162592D01*
X196820Y162543D01*
X196706Y162488D01*
X196611Y162427D01*
Y164573D01*
X196706Y164512D01*
D02*
G37*
G36*
X175584D02*
X175698Y164457D01*
X175833Y164408D01*
X175988Y164366D01*
X176163Y164331D01*
X176358Y164302D01*
X176810Y164263D01*
X177343Y164250D01*
Y162750D01*
X177066Y162747D01*
X176358Y162698D01*
X176163Y162669D01*
X175988Y162634D01*
X175833Y162592D01*
X175698Y162543D01*
X175584Y162488D01*
X175489Y162427D01*
Y164573D01*
X175584Y164512D01*
D02*
G37*
G36*
X140405Y163183D02*
X140320Y163153D01*
X140245Y163102D01*
X140180Y163031D01*
X140125Y162940D01*
X140080Y162829D01*
X140045Y162697D01*
X140020Y162546D01*
X140005Y162374D01*
X140000Y162181D01*
X139000D01*
X138995Y162374D01*
X138980Y162546D01*
X138955Y162697D01*
X138920Y162829D01*
X138875Y162940D01*
X138820Y163031D01*
X138755Y163102D01*
X138680Y163153D01*
X138595Y163183D01*
X138500Y163193D01*
X140500D01*
X140405Y163183D01*
D02*
G37*
G36*
X265581Y164694D02*
X265786Y163285D01*
X265877Y162900D01*
X265980Y162557D01*
X266093Y162256D01*
X266218Y161998D01*
X266354Y161782D01*
X266501Y161608D01*
X265851Y160843D01*
X265660Y161006D01*
X265432Y161146D01*
X265168Y161265D01*
X264869Y161361D01*
X264534Y161435D01*
X264163Y161486D01*
X263756Y161516D01*
X263313Y161523D01*
X262319Y161471D01*
X265535Y165249D01*
X265581Y164694D01*
D02*
G37*
G36*
X23874Y160443D02*
X23817Y160518D01*
X23741Y160560D01*
X23647Y160570D01*
X23533Y160547D01*
X23401Y160492D01*
X23250Y160403D01*
X23081Y160282D01*
X22893Y160129D01*
X22460Y159724D01*
X21841Y160520D01*
X22088Y160773D01*
X22642Y161432D01*
X22765Y161617D01*
X22857Y161785D01*
X22917Y161936D01*
X22947Y162070D01*
X22946Y162187D01*
X22914Y162287D01*
X23874Y160443D01*
D02*
G37*
G36*
X146969Y161804D02*
X147050Y161740D01*
X147137Y161684D01*
X147230Y161635D01*
X147327Y161594D01*
X147430Y161560D01*
X147538Y161534D01*
X147652Y161515D01*
X147771Y161504D01*
X147896Y161500D01*
Y160500D01*
X147771Y160496D01*
X147652Y160485D01*
X147538Y160466D01*
X147430Y160440D01*
X147327Y160406D01*
X147230Y160365D01*
X147137Y160316D01*
X147050Y160260D01*
X146969Y160196D01*
X146893Y160125D01*
Y161875D01*
X146969Y161804D01*
D02*
G37*
G36*
X202083Y160118D02*
X202068Y160219D01*
X202023Y160310D01*
X201948Y160389D01*
X201843Y160459D01*
X201708Y160517D01*
X201543Y160565D01*
X201348Y160602D01*
X201123Y160629D01*
X200868Y160645D01*
X200583Y160650D01*
Y162150D01*
X200870Y162157D01*
X201126Y162180D01*
X201353Y162217D01*
X201549Y162270D01*
X201715Y162338D01*
X201851Y162420D01*
X201957Y162517D01*
X202033Y162630D01*
X202079Y162758D01*
X202095Y162900D01*
X202083Y160118D01*
D02*
G37*
G36*
X140005Y160720D02*
X140020Y160548D01*
X140045Y160396D01*
X140080Y160265D01*
X140125Y160153D01*
X140180Y160062D01*
X140245Y159992D01*
X140320Y159941D01*
X140405Y159911D01*
X140500Y159900D01*
X138500D01*
X138595Y159911D01*
X138680Y159941D01*
X138755Y159992D01*
X138820Y160062D01*
X138875Y160153D01*
X138920Y160265D01*
X138955Y160396D01*
X138980Y160548D01*
X138995Y160720D01*
X139000Y160912D01*
X140000D01*
X140005Y160720D01*
D02*
G37*
G36*
X198271Y159718D02*
X198078Y159520D01*
X197611Y158986D01*
X197494Y158827D01*
X197395Y158678D01*
X197315Y158539D01*
X197254Y158409D01*
X197212Y158289D01*
X197189Y158179D01*
X195109Y159727D01*
X195239Y159657D01*
X195386Y159626D01*
X195551Y159634D01*
X195734Y159680D01*
X195935Y159766D01*
X196154Y159891D01*
X196391Y160054D01*
X196646Y160257D01*
X196919Y160498D01*
X197210Y160779D01*
X198271Y159718D01*
D02*
G37*
G36*
X12804Y160531D02*
X12740Y160450D01*
X12684Y160363D01*
X12635Y160270D01*
X12594Y160173D01*
X12560Y160070D01*
X12534Y159961D01*
X12515Y159848D01*
X12504Y159729D01*
X12500Y159604D01*
X11500D01*
X11496Y159729D01*
X11485Y159848D01*
X11466Y159961D01*
X11440Y160070D01*
X11406Y160173D01*
X11365Y160270D01*
X11316Y160363D01*
X11260Y160450D01*
X11196Y160531D01*
X11125Y160607D01*
X12875D01*
X12804Y160531D01*
D02*
G37*
G36*
X53838Y160433D02*
X53755Y160403D01*
X53683Y160353D01*
X53619Y160283D01*
X53566Y160193D01*
X53522Y160083D01*
X53488Y159953D01*
X53463Y159803D01*
X53449Y159634D01*
X53444Y159444D01*
X52444D01*
X52439Y159634D01*
X52424Y159803D01*
X52400Y159953D01*
X52366Y160083D01*
X52322Y160193D01*
X52269Y160283D01*
X52205Y160353D01*
X52132Y160403D01*
X52049Y160433D01*
X51957Y160443D01*
X53931D01*
X53838Y160433D01*
D02*
G37*
G36*
X36132Y160433D02*
X36047Y160402D01*
X35972Y160352D01*
X35907Y160281D01*
X35852Y160190D01*
X35807Y160078D01*
X35772Y159947D01*
X35747Y159795D01*
X35732Y159623D01*
X35727Y159431D01*
X34727D01*
X34722Y159623D01*
X34707Y159795D01*
X34682Y159947D01*
X34647Y160078D01*
X34602Y160190D01*
X34547Y160281D01*
X34482Y160352D01*
X34407Y160402D01*
X34322Y160433D01*
X34227Y160443D01*
X36227D01*
X36132Y160433D01*
D02*
G37*
G36*
X8047D02*
X7962Y160402D01*
X7887Y160352D01*
X7822Y160281D01*
X7767Y160190D01*
X7722Y160078D01*
X7687Y159947D01*
X7662Y159795D01*
X7647Y159623D01*
X7642Y159431D01*
X6642D01*
X6637Y159623D01*
X6622Y159795D01*
X6597Y159947D01*
X6562Y160078D01*
X6517Y160190D01*
X6462Y160281D01*
X6397Y160352D01*
X6322Y160402D01*
X6237Y160433D01*
X6142Y160443D01*
X8142D01*
X8047Y160433D01*
D02*
G37*
G36*
X211905Y160120D02*
X211820Y160090D01*
X211745Y160039D01*
X211680Y159968D01*
X211625Y159877D01*
X211580Y159766D01*
X211545Y159634D01*
X211520Y159483D01*
X211505Y159311D01*
X211500Y159118D01*
X210500D01*
X210495Y159311D01*
X210480Y159483D01*
X210455Y159634D01*
X210420Y159766D01*
X210375Y159877D01*
X210320Y159968D01*
X210255Y160039D01*
X210180Y160090D01*
X210095Y160120D01*
X210000Y160130D01*
X212000D01*
X211905Y160120D01*
D02*
G37*
G36*
X161595Y159000D02*
X161585Y159095D01*
X161554Y159180D01*
X161504Y159255D01*
X161433Y159320D01*
X161342Y159375D01*
X161231Y159420D01*
X161099Y159455D01*
X160947Y159480D01*
X160775Y159495D01*
X160583Y159500D01*
Y160500D01*
X160775Y160505D01*
X160947Y160520D01*
X161099Y160545D01*
X161231Y160580D01*
X161342Y160625D01*
X161433Y160680D01*
X161504Y160745D01*
X161554Y160820D01*
X161585Y160905D01*
X161595Y161000D01*
Y159000D01*
D02*
G37*
G36*
X205358Y160115D02*
X205230Y160070D01*
X205118Y159994D01*
X205020Y159888D01*
X204938Y159752D01*
X204870Y159586D01*
X204818Y159389D01*
X204780Y159163D01*
X204757Y158906D01*
X204750Y158618D01*
X203250D01*
X203242Y158906D01*
X203220Y159163D01*
X203183Y159389D01*
X203130Y159586D01*
X203063Y159752D01*
X202980Y159888D01*
X202883Y159994D01*
X202770Y160070D01*
X202642Y160115D01*
X202500Y160130D01*
X205500D01*
X205358Y160115D01*
D02*
G37*
G36*
X211505Y158654D02*
X211520Y158482D01*
X211545Y158330D01*
X211580Y158199D01*
X211625Y158088D01*
X211680Y157996D01*
X211745Y157925D01*
X211820Y157875D01*
X211905Y157845D01*
X212000Y157834D01*
X210000D01*
X210095Y157845D01*
X210180Y157875D01*
X210255Y157925D01*
X210320Y157996D01*
X210375Y158088D01*
X210420Y158199D01*
X210455Y158330D01*
X210480Y158482D01*
X210495Y158654D01*
X210500Y158846D01*
X211500D01*
X211505Y158654D01*
D02*
G37*
G36*
X204757Y158031D02*
X204780Y157774D01*
X204818Y157548D01*
X204870Y157351D01*
X204938Y157185D01*
X205020Y157049D01*
X205118Y156943D01*
X205230Y156867D01*
X205358Y156822D01*
X205500Y156807D01*
X202500D01*
X202642Y156822D01*
X202770Y156867D01*
X202883Y156943D01*
X202980Y157049D01*
X203063Y157185D01*
X203130Y157351D01*
X203183Y157548D01*
X203220Y157774D01*
X203242Y158031D01*
X203250Y158319D01*
X204750D01*
X204757Y158031D01*
D02*
G37*
G36*
X170291Y157273D02*
X170278Y157271D01*
X170267Y157258D01*
X170257Y157233D01*
X170248Y157196D01*
X170241Y157148D01*
X170231Y157017D01*
X170225Y156732D01*
X169225D01*
X169224Y156897D01*
X169177Y157601D01*
X169166Y157613D01*
X170291Y157273D01*
D02*
G37*
G36*
X12505Y157225D02*
X12520Y157053D01*
X12545Y156901D01*
X12580Y156770D01*
X12625Y156658D01*
X12680Y156567D01*
X12745Y156496D01*
X12820Y156446D01*
X12905Y156415D01*
X13000Y156405D01*
X11596D01*
X10193Y155003D01*
X10249Y155080D01*
X10276Y155171D01*
X10274Y155276D01*
X10245Y155396D01*
X10187Y155530D01*
X10101Y155679D01*
X9987Y155842D01*
X9844Y156019D01*
X9474Y156417D01*
X10181Y157124D01*
X10387Y156925D01*
X10757Y156612D01*
X10920Y156497D01*
X11066Y156412D01*
X11095Y156415D01*
X11180Y156446D01*
X11255Y156496D01*
X11320Y156567D01*
X11375Y156658D01*
X11420Y156770D01*
X11455Y156901D01*
X11480Y157053D01*
X11495Y157225D01*
X11500Y157417D01*
X12500D01*
X12505Y157225D01*
D02*
G37*
G36*
X26825Y157552D02*
X26761Y157471D01*
X26705Y157384D01*
X26656Y157291D01*
X26615Y157194D01*
X26581Y157091D01*
X26555Y156983D01*
X26554Y156976D01*
X26566Y156901D01*
X26601Y156770D01*
X26646Y156658D01*
X26701Y156567D01*
X26766Y156496D01*
X26841Y156446D01*
X26926Y156415D01*
X27021Y156405D01*
X25021D01*
X25116Y156415D01*
X25201Y156446D01*
X25276Y156496D01*
X25341Y156567D01*
X25396Y156658D01*
X25441Y156770D01*
X25476Y156901D01*
X25488Y156976D01*
X25487Y156983D01*
X25461Y157091D01*
X25427Y157194D01*
X25386Y157291D01*
X25337Y157384D01*
X25281Y157471D01*
X25217Y157552D01*
X25146Y157628D01*
X26896D01*
X26825Y157552D01*
D02*
G37*
G36*
X20463Y157225D02*
X20478Y157053D01*
X20503Y156901D01*
X20538Y156770D01*
X20583Y156658D01*
X20638Y156567D01*
X20703Y156496D01*
X20778Y156446D01*
X20863Y156415D01*
X20958Y156405D01*
X18958D01*
X19053Y156415D01*
X19138Y156446D01*
X19213Y156496D01*
X19278Y156567D01*
X19333Y156658D01*
X19378Y156770D01*
X19413Y156901D01*
X19438Y157053D01*
X19453Y157225D01*
X19458Y157417D01*
X20458D01*
X20463Y157225D01*
D02*
G37*
G36*
X50526Y156319D02*
X50331Y156117D01*
X50023Y155754D01*
X49911Y155592D01*
X49825Y155444D01*
X49767Y155309D01*
X49736Y155188D01*
X49732Y155080D01*
X49756Y154986D01*
X49807Y154904D01*
X48503Y156405D01*
X48575Y156345D01*
X48663Y156315D01*
X48766Y156314D01*
X48884Y156342D01*
X49018Y156399D01*
X49167Y156485D01*
X49332Y156601D01*
X49511Y156746D01*
X49917Y157124D01*
X50526Y156319D01*
D02*
G37*
G36*
X139189Y156287D02*
X139101Y156330D01*
X138992Y156340D01*
X138864Y156316D01*
X138717Y156259D01*
X138550Y156169D01*
X138363Y156045D01*
X138157Y155887D01*
X137686Y155472D01*
X137422Y155214D01*
X136876Y156083D01*
X137083Y156297D01*
X137408Y156678D01*
X137526Y156844D01*
X137613Y156993D01*
X137670Y157127D01*
X137696Y157244D01*
X137693Y157344D01*
X137659Y157429D01*
X137595Y157497D01*
X139189Y156287D01*
D02*
G37*
G36*
X157029Y156880D02*
X157059Y156800D01*
X157108Y156730D01*
X157176Y156669D01*
X157264Y156617D01*
X157372Y156575D01*
X157500Y156542D01*
X157647Y156519D01*
X157814Y156505D01*
X158000Y156500D01*
Y155500D01*
X157814Y155495D01*
X157647Y155481D01*
X157500Y155458D01*
X157372Y155425D01*
X157264Y155383D01*
X157176Y155331D01*
X157108Y155270D01*
X157059Y155200D01*
X157029Y155120D01*
X157019Y155031D01*
Y156969D01*
X157029Y156880D01*
D02*
G37*
G36*
X38335Y156921D02*
X38710Y156601D01*
X38875Y156485D01*
X39024Y156399D01*
X39158Y156342D01*
X39276Y156314D01*
X39379Y156315D01*
X39467Y156345D01*
X39539Y156405D01*
X38235Y154904D01*
X38286Y154986D01*
X38310Y155080D01*
X38306Y155188D01*
X38275Y155309D01*
X38217Y155444D01*
X38131Y155592D01*
X38019Y155754D01*
X37879Y155929D01*
X37516Y156319D01*
X38125Y157124D01*
X38335Y156921D01*
D02*
G37*
G36*
X214345Y156598D02*
X214374Y156513D01*
X214424Y156438D01*
X214494Y156373D01*
X214584Y156318D01*
X214694Y156273D01*
X214824Y156238D01*
X214974Y156213D01*
X215144Y156198D01*
X215335Y156193D01*
Y155193D01*
X215144Y155188D01*
X214974Y155173D01*
X214824Y155148D01*
X214694Y155113D01*
X214584Y155068D01*
X214494Y155013D01*
X214424Y154948D01*
X214374Y154873D01*
X214345Y154788D01*
X214335Y154693D01*
Y156693D01*
X214345Y156598D01*
D02*
G37*
G36*
X272289Y155827D02*
X272658Y155513D01*
X272821Y155399D01*
X272970Y155313D01*
X273104Y155255D01*
X273224Y155226D01*
X273329Y155224D01*
X273420Y155251D01*
X273497Y155307D01*
X272095Y153904D01*
X272150Y153981D01*
X272177Y154072D01*
X272176Y154178D01*
X272147Y154298D01*
X272089Y154432D01*
X272003Y154580D01*
X271888Y154743D01*
X271746Y154921D01*
X271376Y155319D01*
X272083Y156026D01*
X272289Y155827D01*
D02*
G37*
G36*
X60607Y153625D02*
X60577Y153649D01*
X60534Y153670D01*
X60479Y153689D01*
X60411Y153705D01*
X60332Y153719D01*
X60136Y153739D01*
X59891Y153749D01*
X59750Y153750D01*
Y155250D01*
X59891Y155251D01*
X60332Y155281D01*
X60411Y155295D01*
X60479Y155311D01*
X60534Y155330D01*
X60577Y155351D01*
X60607Y155375D01*
Y153625D01*
D02*
G37*
G36*
X256126Y153240D02*
X256116Y153335D01*
X256086Y153420D01*
X256035Y153495D01*
X255965Y153560D01*
X255873Y153615D01*
X255762Y153660D01*
X255631Y153695D01*
X255479Y153720D01*
X255307Y153735D01*
X255115Y153740D01*
Y154740D01*
X255307Y154745D01*
X255479Y154760D01*
X255631Y154785D01*
X255762Y154820D01*
X255873Y154865D01*
X255965Y154920D01*
X256035Y154985D01*
X256086Y155060D01*
X256116Y155145D01*
X256126Y155240D01*
Y153240D01*
D02*
G37*
G36*
X252927Y155145D02*
X252957Y155060D01*
X253007Y154985D01*
X253077Y154920D01*
X253167Y154865D01*
X253277Y154820D01*
X253407Y154785D01*
X253557Y154760D01*
X253727Y154745D01*
X253917Y154740D01*
Y153740D01*
X253727Y153735D01*
X253557Y153720D01*
X253407Y153695D01*
X253277Y153660D01*
X253167Y153615D01*
X253077Y153560D01*
X253007Y153495D01*
X252957Y153420D01*
X252927Y153335D01*
X252917Y153240D01*
Y155240D01*
X252927Y155145D01*
D02*
G37*
G36*
X190203Y155498D02*
X190731Y155054D01*
X190968Y154891D01*
X191187Y154766D01*
X191388Y154680D01*
X191571Y154633D01*
X191736Y154626D01*
X191883Y154657D01*
X192013Y154727D01*
X189933Y153179D01*
X189910Y153289D01*
X189868Y153409D01*
X189807Y153539D01*
X189727Y153678D01*
X189628Y153827D01*
X189511Y153986D01*
X189219Y154332D01*
X188851Y154718D01*
X189912Y155779D01*
X190203Y155498D01*
D02*
G37*
G36*
X135305Y153098D02*
X135107Y152893D01*
X134796Y152525D01*
X134683Y152363D01*
X134598Y152214D01*
X134542Y152080D01*
X134513Y151960D01*
Y151854D01*
X134542Y151762D01*
X134598Y151684D01*
X133184Y153098D01*
X133262Y153041D01*
X133354Y153013D01*
X133460D01*
X133580Y153041D01*
X133714Y153098D01*
X133863Y153183D01*
X134025Y153296D01*
X134202Y153437D01*
X134598Y153805D01*
X135305Y153098D01*
D02*
G37*
G36*
X55885Y155858D02*
X55930Y155730D01*
X56006Y155617D01*
X56112Y155520D01*
X56248Y155438D01*
X56414Y155370D01*
X56611Y155317D01*
X56837Y155280D01*
X57094Y155257D01*
X57382Y155250D01*
Y153750D01*
X57094Y153743D01*
X56837Y153720D01*
X56611Y153682D01*
X56414Y153630D01*
X56248Y153562D01*
X56112Y153480D01*
X56006Y153383D01*
X55930Y153270D01*
X55885Y153142D01*
X55870Y153000D01*
Y156000D01*
X55885Y155858D01*
D02*
G37*
G36*
X165427Y154842D02*
X165457Y154757D01*
X165507Y154682D01*
X165577Y154617D01*
X165667Y154562D01*
X165777Y154517D01*
X165907Y154482D01*
X166057Y154457D01*
X166227Y154442D01*
X166417Y154437D01*
Y153437D01*
X166227Y153432D01*
X166057Y153417D01*
X165907Y153392D01*
X165777Y153357D01*
X165667Y153312D01*
X165577Y153257D01*
X165507Y153192D01*
X165457Y153117D01*
X165427Y153032D01*
X165417Y152937D01*
Y154937D01*
X165427Y154842D01*
D02*
G37*
G36*
X161595Y152937D02*
X161585Y153032D01*
X161554Y153117D01*
X161504Y153192D01*
X161433Y153257D01*
X161342Y153312D01*
X161231Y153357D01*
X161099Y153392D01*
X160947Y153417D01*
X160775Y153432D01*
X160583Y153437D01*
Y154437D01*
X160775Y154442D01*
X160947Y154457D01*
X161099Y154482D01*
X161231Y154517D01*
X161342Y154562D01*
X161433Y154617D01*
X161504Y154682D01*
X161554Y154757D01*
X161585Y154842D01*
X161595Y154937D01*
Y152937D01*
D02*
G37*
G36*
X179107Y152625D02*
X179077Y152649D01*
X179034Y152670D01*
X178979Y152689D01*
X178911Y152705D01*
X178832Y152719D01*
X178636Y152739D01*
X178391Y152749D01*
X178250Y152750D01*
Y154250D01*
X178391Y154251D01*
X178832Y154281D01*
X178911Y154295D01*
X178979Y154311D01*
X179034Y154330D01*
X179077Y154351D01*
X179107Y154375D01*
Y152625D01*
D02*
G37*
G36*
X34282Y152583D02*
X34165Y152668D01*
X34027Y152710D01*
X33868D01*
X33688Y152668D01*
X33486Y152583D01*
X33263Y152456D01*
X33019Y152286D01*
X32754Y152074D01*
X32160Y151522D01*
X31100Y152583D01*
X31397Y152891D01*
X31863Y153442D01*
X32033Y153686D01*
X32160Y153909D01*
X32245Y154110D01*
X32288Y154290D01*
Y154450D01*
X32245Y154587D01*
X32160Y154704D01*
X34282Y152583D01*
D02*
G37*
G36*
X175584Y154511D02*
X175698Y154457D01*
X175833Y154408D01*
X175988Y154366D01*
X176163Y154331D01*
X176358Y154302D01*
X176810Y154263D01*
X177343Y154250D01*
Y152750D01*
X177066Y152747D01*
X176358Y152698D01*
X176163Y152669D01*
X175988Y152634D01*
X175833Y152592D01*
X175698Y152543D01*
X175584Y152489D01*
X175489Y152427D01*
Y154573D01*
X175584Y154511D01*
D02*
G37*
G36*
X40947Y152573D02*
X40862Y152543D01*
X40787Y152493D01*
X40722Y152423D01*
X40667Y152333D01*
X40622Y152223D01*
X40587Y152093D01*
X40562Y151943D01*
X40547Y151773D01*
X40542Y151583D01*
X39542D01*
X39537Y151773D01*
X39522Y151943D01*
X39497Y152093D01*
X39462Y152223D01*
X39417Y152333D01*
X39362Y152423D01*
X39297Y152493D01*
X39222Y152543D01*
X39137Y152573D01*
X39042Y152583D01*
X41042D01*
X40947Y152573D01*
D02*
G37*
G36*
X129122Y150142D02*
X129112Y150236D01*
X129082Y150321D01*
X129031Y150397D01*
X128961Y150461D01*
X128869Y150516D01*
X128758Y150561D01*
X128627Y150596D01*
X128475Y150621D01*
X128303Y150636D01*
X128110Y150642D01*
Y151641D01*
X128303Y151646D01*
X128475Y151662D01*
X128627Y151687D01*
X128758Y151722D01*
X128869Y151767D01*
X128961Y151821D01*
X129031Y151886D01*
X129082Y151962D01*
X129112Y152047D01*
X129122Y152141D01*
Y150142D01*
D02*
G37*
G36*
X103888Y152047D02*
X103918Y151962D01*
X103969Y151886D01*
X104040Y151821D01*
X104131Y151767D01*
X104242Y151722D01*
X104374Y151687D01*
X104525Y151662D01*
X104697Y151646D01*
X104890Y151641D01*
Y150642D01*
X104697Y150636D01*
X104525Y150621D01*
X104374Y150596D01*
X104242Y150561D01*
X104131Y150516D01*
X104040Y150461D01*
X103969Y150397D01*
X103918Y150321D01*
X103888Y150236D01*
X103878Y150142D01*
Y152141D01*
X103888Y152047D01*
D02*
G37*
G36*
X268818Y150460D02*
X268790Y150370D01*
X268791Y150265D01*
X268820Y150145D01*
X268878Y150011D01*
X268964Y149862D01*
X269079Y149699D01*
X269221Y149521D01*
X269593Y149122D01*
X268874Y148427D01*
X268668Y148626D01*
X268300Y148938D01*
X268137Y149053D01*
X267988Y149139D01*
X267854Y149196D01*
X267734Y149226D01*
X267628Y149228D01*
X267537Y149201D01*
X267460Y149146D01*
X268874Y150537D01*
X268818Y150460D01*
D02*
G37*
G36*
X140858Y150209D02*
X140730Y150163D01*
X140618Y150088D01*
X140520Y149982D01*
X140437Y149846D01*
X140370Y149680D01*
X140317Y149483D01*
X140280Y149256D01*
X140258Y149007D01*
X140281Y148668D01*
X140295Y148589D01*
X140311Y148521D01*
X140330Y148466D01*
X140351Y148423D01*
X140375Y148393D01*
X138625D01*
X138649Y148423D01*
X138670Y148466D01*
X138689Y148521D01*
X138705Y148589D01*
X138719Y148668D01*
X138739Y148864D01*
X138743Y148973D01*
X138742Y148999D01*
X138720Y149256D01*
X138682Y149483D01*
X138630Y149680D01*
X138563Y149846D01*
X138480Y149982D01*
X138382Y150088D01*
X138270Y150163D01*
X138143Y150209D01*
X138000Y150224D01*
X141000D01*
X140858Y150209D01*
D02*
G37*
G36*
X29072Y148434D02*
X28812Y148163D01*
X28421Y147688D01*
X28290Y147483D01*
X28202Y147300D01*
X28157Y147139D01*
X28154Y147000D01*
X28195Y146882D01*
X28279Y146787D01*
X28405Y146713D01*
X25437Y147969D01*
X25595Y147927D01*
X25772Y147926D01*
X25969Y147966D01*
X26186Y148047D01*
X26423Y148169D01*
X26681Y148332D01*
X26957Y148535D01*
X27255Y148780D01*
X27908Y149391D01*
X29072Y148434D01*
D02*
G37*
G36*
X101405Y149187D02*
X101320Y149156D01*
X101245Y149106D01*
X101180Y149035D01*
X101125Y148944D01*
X101080Y148833D01*
X101045Y148701D01*
X101026Y148586D01*
X101034Y148538D01*
X101060Y148430D01*
X101094Y148327D01*
X101135Y148230D01*
X101184Y148137D01*
X101240Y148050D01*
X101304Y147969D01*
X101375Y147893D01*
X99625D01*
X99696Y147969D01*
X99760Y148050D01*
X99816Y148137D01*
X99865Y148230D01*
X99906Y148327D01*
X99940Y148430D01*
X99966Y148538D01*
X99974Y148586D01*
X99955Y148701D01*
X99920Y148833D01*
X99875Y148944D01*
X99820Y149035D01*
X99755Y149106D01*
X99680Y149156D01*
X99595Y149187D01*
X99500Y149197D01*
X101500D01*
X101405Y149187D01*
D02*
G37*
G36*
X8980Y149562D02*
X9010Y149187D01*
X9060Y148856D01*
X9130Y148570D01*
X9219Y148327D01*
X9329Y148128D01*
X9458Y147974D01*
X9608Y147864D01*
X9777Y147797D01*
X9966Y147775D01*
X5975D01*
X6164Y147797D01*
X6333Y147864D01*
X6483Y147974D01*
X6612Y148128D01*
X6722Y148327D01*
X6811Y148570D01*
X6881Y148856D01*
X6931Y149187D01*
X6961Y149562D01*
X6971Y149981D01*
X8970D01*
X8980Y149562D01*
D02*
G37*
G36*
X205932Y150294D02*
X205977Y150167D01*
X206052Y150055D01*
X206157Y149957D01*
X206292Y149874D01*
X206457Y149807D01*
X206652Y149755D01*
X206877Y149717D01*
X207132Y149695D01*
X207417Y149687D01*
Y148187D01*
X207132Y148179D01*
X206877Y148157D01*
X206652Y148119D01*
X206457Y148067D01*
X206292Y148000D01*
X206157Y147917D01*
X206052Y147819D01*
X205977Y147707D01*
X205932Y147580D01*
X205917Y147437D01*
Y150437D01*
X205932Y150294D01*
D02*
G37*
G36*
X211393Y148169D02*
X211726Y147879D01*
X211792Y147832D01*
X211852Y147796D01*
X211904Y147770D01*
X211949Y147755D01*
X211987Y147750D01*
X210750Y146512D01*
X210745Y146551D01*
X210730Y146596D01*
X210704Y146649D01*
X210668Y146708D01*
X210622Y146774D01*
X210497Y146926D01*
X210331Y147107D01*
X210232Y147207D01*
X211293Y148268D01*
X211393Y148169D01*
D02*
G37*
G36*
X272095Y146437D02*
X272085Y146532D01*
X272054Y146617D01*
X272004Y146692D01*
X271933Y146757D01*
X271842Y146812D01*
X271730Y146857D01*
X271599Y146892D01*
X271447Y146917D01*
X271275Y146932D01*
X271083Y146937D01*
Y147937D01*
X271275Y147942D01*
X271447Y147957D01*
X271599Y147982D01*
X271730Y148017D01*
X271842Y148062D01*
X271933Y148117D01*
X272004Y148182D01*
X272054Y148257D01*
X272085Y148342D01*
X272095Y148437D01*
Y146437D01*
D02*
G37*
G36*
X245969Y147804D02*
X246050Y147740D01*
X246137Y147684D01*
X246230Y147635D01*
X246327Y147594D01*
X246430Y147560D01*
X246538Y147534D01*
X246652Y147515D01*
X246771Y147504D01*
X246896Y147500D01*
Y146500D01*
X246771Y146496D01*
X246652Y146485D01*
X246538Y146466D01*
X246430Y146440D01*
X246327Y146406D01*
X246230Y146365D01*
X246137Y146316D01*
X246050Y146260D01*
X245969Y146196D01*
X245893Y146125D01*
Y147875D01*
X245969Y147804D01*
D02*
G37*
G36*
X249095Y146000D02*
X249085Y146095D01*
X249054Y146180D01*
X249004Y146255D01*
X248933Y146320D01*
X248842Y146375D01*
X248730Y146420D01*
X248599Y146455D01*
X248447Y146480D01*
X248275Y146495D01*
X248083Y146500D01*
Y147500D01*
X248275Y147505D01*
X248447Y147520D01*
X248599Y147545D01*
X248730Y147580D01*
X248842Y147625D01*
X248933Y147680D01*
X249004Y147745D01*
X249054Y147820D01*
X249085Y147905D01*
X249095Y148000D01*
Y146000D01*
D02*
G37*
G36*
X28031Y144866D02*
X27862Y144751D01*
X27714Y144590D01*
X27585Y144383D01*
X27476Y144128D01*
X27387Y143827D01*
X27360Y143689D01*
X27389Y143580D01*
X27479Y143359D01*
X27588Y143178D01*
X27718Y143037D01*
X27869Y142936D01*
X28038Y142875D01*
X28229Y142854D01*
X27253Y142858D01*
X27238Y142642D01*
X27229Y142154D01*
X25229Y142034D01*
X25218Y142457D01*
X25188Y142830D01*
X25139Y143154D01*
X25069Y143429D01*
X24979Y143655D01*
X24869Y143831D01*
X24738Y143959D01*
X24588Y144037D01*
X24419Y144066D01*
X24228Y144046D01*
X25222Y144267D01*
X25229Y144866D01*
X27229D01*
X27233Y144714D01*
X28219Y144933D01*
X28031Y144866D01*
D02*
G37*
G36*
X212757Y145673D02*
X212763Y145607D01*
X212875D01*
X212851Y145577D01*
X212830Y145534D01*
X212811Y145479D01*
X212795Y145411D01*
X212788Y145369D01*
X212818Y145189D01*
X212870Y144993D01*
X212937Y144826D01*
X213020Y144690D01*
X213118Y144584D01*
X213230Y144509D01*
X213357Y144463D01*
X213500Y144448D01*
X210500D01*
X210643Y144463D01*
X210770Y144509D01*
X210882Y144584D01*
X210980Y144690D01*
X211063Y144826D01*
X211130Y144993D01*
X211182Y145189D01*
X211212Y145369D01*
X211205Y145411D01*
X211189Y145479D01*
X211170Y145534D01*
X211149Y145577D01*
X211125Y145607D01*
X211237D01*
X211243Y145673D01*
X211250Y145960D01*
X212750D01*
X212757Y145673D01*
D02*
G37*
G36*
X260373Y145386D02*
X260203Y145325D01*
X260053Y145225D01*
X259923Y145084D01*
X259813Y144903D01*
X259723Y144682D01*
X259653Y144420D01*
X259603Y144118D01*
X259573Y143776D01*
X259563Y143394D01*
X257563D01*
X257553Y143776D01*
X257523Y144118D01*
X257473Y144420D01*
X257403Y144682D01*
X257313Y144903D01*
X257203Y145084D01*
X257073Y145225D01*
X256923Y145325D01*
X256753Y145386D01*
X256563Y145406D01*
X260563D01*
X260373Y145386D01*
D02*
G37*
G36*
X113804Y138031D02*
X113740Y137950D01*
X113684Y137863D01*
X113635Y137770D01*
X113594Y137673D01*
X113560Y137570D01*
X113534Y137461D01*
X113515Y137348D01*
X113504Y137229D01*
X113500Y137104D01*
X112500D01*
X112496Y137229D01*
X112485Y137348D01*
X112466Y137461D01*
X112440Y137570D01*
X112406Y137673D01*
X112365Y137770D01*
X112316Y137863D01*
X112260Y137950D01*
X112196Y138031D01*
X112125Y138107D01*
X113875D01*
X113804Y138031D01*
D02*
G37*
G36*
X134607Y135625D02*
X134531Y135696D01*
X134450Y135760D01*
X134363Y135816D01*
X134270Y135865D01*
X134173Y135906D01*
X134070Y135940D01*
X133961Y135966D01*
X133848Y135985D01*
X133729Y135996D01*
X133604Y136000D01*
Y137000D01*
X133729Y137004D01*
X133848Y137015D01*
X133961Y137034D01*
X134070Y137060D01*
X134173Y137094D01*
X134270Y137135D01*
X134363Y137184D01*
X134450Y137240D01*
X134531Y137304D01*
X134607Y137375D01*
Y135625D01*
D02*
G37*
G36*
X128721Y137000D02*
X129611Y136000D01*
X129481Y135996D01*
X129364Y135983D01*
X129259Y135962D01*
X129165Y135932D01*
X129084Y135894D01*
X129015Y135847D01*
X128957Y135792D01*
X128912Y135728D01*
X128878Y135656D01*
X128857Y135575D01*
X127627Y136697D01*
X127962Y137003D01*
X128721Y137000D01*
D02*
G37*
G36*
X127627Y136697D02*
X126397Y135575D01*
X126376Y135656D01*
X126342Y135728D01*
X126297Y135792D01*
X126240Y135847D01*
X126170Y135894D01*
X126089Y135932D01*
X125995Y135962D01*
X125890Y135983D01*
X125773Y135996D01*
X125643Y136000D01*
X126533Y137000D01*
X127292Y137003D01*
X127627Y136697D01*
D02*
G37*
G36*
X136753Y136383D02*
X136766Y136281D01*
X136788Y136179D01*
X136819Y136080D01*
X136858Y135981D01*
X136907Y135885D01*
X136965Y135790D01*
X137032Y135696D01*
X137109Y135604D01*
X137194Y135513D01*
X136487Y134806D01*
X136396Y134891D01*
X136304Y134968D01*
X136211Y135035D01*
X136115Y135093D01*
X136019Y135142D01*
X135920Y135181D01*
X135821Y135212D01*
X135720Y135234D01*
X135617Y135247D01*
X135512Y135250D01*
X136750Y136487D01*
X136753Y136383D01*
D02*
G37*
G36*
X63583Y134369D02*
X63724Y134355D01*
X63968Y134345D01*
X64109Y134344D01*
Y132844D01*
X63968Y132843D01*
X63583Y132816D01*
Y132370D01*
X63571Y132460D01*
X63534Y132541D01*
X63473Y132612D01*
X63387Y132673D01*
X63277Y132725D01*
X63265Y132729D01*
X63252Y132719D01*
Y132733D01*
X63142Y132768D01*
X62983Y132801D01*
X62800Y132825D01*
X62592Y132839D01*
X62359Y132844D01*
Y134344D01*
X62592Y134348D01*
X62983Y134386D01*
X63142Y134420D01*
X63252Y134454D01*
Y134469D01*
X63265Y134458D01*
X63277Y134462D01*
X63387Y134514D01*
X63473Y134576D01*
X63534Y134647D01*
X63571Y134727D01*
X63583Y134817D01*
Y134369D01*
D02*
G37*
G36*
X107465Y134957D02*
X106930Y134954D01*
X105976Y134897D01*
X105558Y134843D01*
X105180Y134772D01*
X104840Y134684D01*
X104539Y134579D01*
X104277Y134458D01*
X104054Y134319D01*
X103870Y134163D01*
X103163Y134870D01*
X103319Y135054D01*
X103457Y135277D01*
X103579Y135539D01*
X103684Y135839D01*
X103772Y136179D01*
X103843Y136558D01*
X103897Y136976D01*
X103954Y137929D01*
X103957Y138465D01*
X107465Y134957D01*
D02*
G37*
G36*
X56755Y134949D02*
X56770Y134904D01*
X56796Y134852D01*
X56832Y134792D01*
X56879Y134726D01*
X57003Y134574D01*
X57169Y134393D01*
X57268Y134293D01*
X56207Y133232D01*
X56107Y133331D01*
X55774Y133622D01*
X55708Y133668D01*
X55648Y133704D01*
X55596Y133730D01*
X55551Y133745D01*
X55512Y133750D01*
X56750Y134987D01*
X56755Y134949D01*
D02*
G37*
G36*
X99651Y135634D02*
X99098Y134982D01*
X98873Y134666D01*
X98683Y134357D01*
X98527Y134054D01*
X98406Y133758D01*
X98319Y133469D01*
X98267Y133187D01*
X98250Y132911D01*
X96750D01*
X96733Y133187D01*
X96681Y133469D01*
X96594Y133758D01*
X96473Y134054D01*
X96317Y134357D01*
X96127Y134666D01*
X95902Y134982D01*
X95643Y135304D01*
X95020Y135970D01*
X99980D01*
X99651Y135634D01*
D02*
G37*
G36*
X71139Y132241D02*
X71124Y132384D01*
X71079Y132511D01*
X71004Y132624D01*
X70899Y132721D01*
X70764Y132803D01*
X70599Y132871D01*
X70404Y132923D01*
X70179Y132961D01*
X69924Y132984D01*
X69639Y132991D01*
Y134491D01*
X69924Y134499D01*
X70179Y134521D01*
X70404Y134558D01*
X70599Y134611D01*
X70764Y134678D01*
X70899Y134761D01*
X71004Y134859D01*
X71079Y134971D01*
X71124Y135099D01*
X71139Y135241D01*
Y132241D01*
D02*
G37*
G36*
X67420Y135099D02*
X67466Y134971D01*
X67541Y134859D01*
X67647Y134761D01*
X67783Y134678D01*
X67949Y134611D01*
X68146Y134558D01*
X68373Y134521D01*
X68630Y134499D01*
X68917Y134491D01*
Y132991D01*
X68630Y132984D01*
X68373Y132961D01*
X68146Y132923D01*
X67949Y132871D01*
X67783Y132803D01*
X67647Y132721D01*
X67541Y132624D01*
X67466Y132511D01*
X67420Y132384D01*
X67405Y132241D01*
Y135241D01*
X67420Y135099D01*
D02*
G37*
G36*
X140436Y132275D02*
X140617Y132124D01*
X140709Y132058D01*
X140802Y131999D01*
X140896Y131947D01*
X140991Y131901D01*
X141086Y131862D01*
X141183Y131830D01*
X141281Y131804D01*
X139788Y130891D01*
X139807Y130989D01*
X139814Y131086D01*
X139809Y131183D01*
X139793Y131279D01*
X139766Y131374D01*
X139726Y131469D01*
X139675Y131563D01*
X139612Y131656D01*
X139538Y131749D01*
X139452Y131841D01*
X140347Y132360D01*
X140436Y132275D01*
D02*
G37*
G36*
X122808Y133472D02*
X122722Y133381D01*
X122646Y133289D01*
X122579Y133195D01*
X122521Y133100D01*
X122472Y133003D01*
X122432Y132905D01*
X122401Y132805D01*
X122380Y132704D01*
X122367Y132601D01*
X122364Y132497D01*
X121114Y132485D01*
X121101Y131235D01*
X120997Y131231D01*
X120894Y131219D01*
X120793Y131197D01*
X120693Y131166D01*
X120595Y131126D01*
X120499Y131077D01*
X120403Y131019D01*
X120310Y130952D01*
X120218Y130876D01*
X120127Y130791D01*
X119420Y131498D01*
X119505Y131588D01*
X119581Y131681D01*
X119649Y131774D01*
X119706Y131869D01*
X119755Y131966D01*
X119795Y132064D01*
X119826Y132164D01*
X119848Y132265D01*
X119860Y132368D01*
X119864Y132472D01*
X121114Y132485D01*
X121126Y133735D01*
X121230Y133738D01*
X121333Y133751D01*
X121434Y133772D01*
X121534Y133803D01*
X121632Y133843D01*
X121729Y133892D01*
X121824Y133950D01*
X121918Y134017D01*
X122010Y134093D01*
X122101Y134179D01*
X122808Y133472D01*
D02*
G37*
G36*
X119624Y130288D02*
X119426Y130083D01*
X119115Y129715D01*
X119002Y129553D01*
X118917Y129404D01*
X118861Y129270D01*
X118832Y129150D01*
Y129043D01*
X118861Y128952D01*
X118917Y128874D01*
X117503Y130288D01*
X117581Y130231D01*
X117673Y130203D01*
X117779D01*
X117899Y130231D01*
X118033Y130288D01*
X118182Y130373D01*
X118344Y130486D01*
X118521Y130627D01*
X118917Y130995D01*
X119624Y130288D01*
D02*
G37*
G36*
X105826Y129912D02*
X105721Y129908D01*
X105619Y129896D01*
X105518Y129874D01*
X105418Y129843D01*
X105320Y129803D01*
X105223Y129754D01*
X105128Y129696D01*
X105034Y129629D01*
X104942Y129553D01*
X104851Y129468D01*
X104144Y130175D01*
X104230Y130265D01*
X104306Y130358D01*
X104373Y130451D01*
X104431Y130546D01*
X104480Y130643D01*
X104520Y130741D01*
X104551Y130841D01*
X104572Y130942D01*
X104585Y131045D01*
X104588Y131149D01*
X105826Y129912D01*
D02*
G37*
G36*
X141804Y129617D02*
X141740Y129535D01*
X141684Y129448D01*
X141635Y129356D01*
X141594Y129259D01*
X141560Y129156D01*
X141534Y129047D01*
X141515Y128934D01*
X141504Y128815D01*
X141500Y128690D01*
X140500D01*
X140496Y128815D01*
X140485Y128934D01*
X140466Y129047D01*
X140440Y129156D01*
X140406Y129259D01*
X140365Y129356D01*
X140316Y129448D01*
X140260Y129535D01*
X140196Y129617D01*
X140125Y129693D01*
X141875D01*
X141804Y129617D01*
D02*
G37*
G36*
X115095Y127469D02*
X115085Y127564D01*
X115054Y127649D01*
X115004Y127724D01*
X114933Y127789D01*
X114842Y127844D01*
X114731Y127889D01*
X114599Y127924D01*
X114447Y127949D01*
X114275Y127964D01*
X114083Y127969D01*
Y128969D01*
X114275Y128974D01*
X114447Y128989D01*
X114599Y129014D01*
X114731Y129049D01*
X114842Y129094D01*
X114933Y129149D01*
X115004Y129214D01*
X115054Y129289D01*
X115085Y129374D01*
X115095Y129469D01*
Y127469D01*
D02*
G37*
G36*
X30878Y128579D02*
X30896Y128566D01*
X30927Y128554D01*
X30970Y128544D01*
X31025Y128535D01*
X31172Y128523D01*
X31368Y128517D01*
X31484Y128516D01*
Y127516D01*
X31368Y127515D01*
X30970Y127488D01*
X30927Y127477D01*
X30896Y127466D01*
X30878Y127452D01*
X30872Y127437D01*
Y128595D01*
X30878Y128579D01*
D02*
G37*
G36*
X63890Y130113D02*
X64442Y129646D01*
X64686Y129477D01*
X64909Y129349D01*
X65110Y129265D01*
X65290Y129222D01*
X65450D01*
X65588Y129265D01*
X65704Y129349D01*
X63583Y127228D01*
X63668Y127345D01*
X63710Y127483D01*
Y127642D01*
X63668Y127822D01*
X63583Y128024D01*
X63456Y128246D01*
X63286Y128490D01*
X63074Y128755D01*
X62522Y129349D01*
X63583Y130410D01*
X63890Y130113D01*
D02*
G37*
G36*
X111124Y125788D02*
X110926Y125583D01*
X110615Y125215D01*
X110502Y125053D01*
X110417Y124904D01*
X110361Y124770D01*
X110332Y124650D01*
Y124543D01*
X110361Y124452D01*
X110417Y124374D01*
X109003Y125788D01*
X109081Y125731D01*
X109173Y125703D01*
X109279D01*
X109399Y125731D01*
X109533Y125788D01*
X109682Y125873D01*
X109844Y125986D01*
X110021Y126127D01*
X110417Y126495D01*
X111124Y125788D01*
D02*
G37*
G36*
X30882Y126611D02*
X30912Y126598D01*
X30962Y126586D01*
X31032Y126576D01*
X31232Y126560D01*
X31872Y126547D01*
Y125547D01*
X31682Y125547D01*
X30912Y125497D01*
X30882Y125484D01*
X30872Y125469D01*
Y126626D01*
X30882Y126611D01*
D02*
G37*
G36*
X67321Y127718D02*
X67280Y127581D01*
X67281Y127422D01*
X67325Y127242D01*
X67411Y127041D01*
X67540Y126818D01*
X67711Y126574D01*
X67924Y126308D01*
X68478Y125712D01*
X67417Y124651D01*
X67109Y124950D01*
X66556Y125419D01*
X66311Y125590D01*
X66088Y125718D01*
X65887Y125804D01*
X65707Y125848D01*
X65548Y125849D01*
X65411Y125808D01*
X65296Y125724D01*
X67405Y127833D01*
X67321Y127718D01*
D02*
G37*
G36*
X74414Y126004D02*
X74286Y125958D01*
X74174Y125882D01*
X74076Y125777D01*
X73994Y125641D01*
X73926Y125474D01*
X73874Y125278D01*
X73836Y125051D01*
X73814Y124794D01*
X73806Y124507D01*
X72306D01*
X72299Y124794D01*
X72276Y125051D01*
X72239Y125278D01*
X72186Y125474D01*
X72119Y125641D01*
X72036Y125777D01*
X71939Y125882D01*
X71826Y125958D01*
X71699Y126004D01*
X71556Y126019D01*
X74556D01*
X74414Y126004D01*
D02*
G37*
G36*
X119624Y124225D02*
X119426Y124020D01*
X119115Y123652D01*
X119002Y123490D01*
X118917Y123341D01*
X118861Y123207D01*
X118832Y123087D01*
Y122980D01*
X118861Y122889D01*
X118917Y122811D01*
X117503Y124225D01*
X117581Y124168D01*
X117673Y124140D01*
X117779D01*
X117899Y124168D01*
X118033Y124225D01*
X118182Y124310D01*
X118344Y124423D01*
X118521Y124564D01*
X118917Y124932D01*
X119624Y124225D01*
D02*
G37*
G36*
X128970Y123126D02*
X128589Y123502D01*
X127875Y124136D01*
X127541Y124393D01*
X127223Y124611D01*
X126921Y124790D01*
X126634Y124928D01*
X126362Y125027D01*
X126106Y125086D01*
X125866Y125106D01*
Y126106D01*
X126106Y126126D01*
X126362Y126186D01*
X126634Y126285D01*
X126921Y126423D01*
X127223Y126601D01*
X127541Y126819D01*
X127875Y127077D01*
X128589Y127710D01*
X128970Y128087D01*
Y123126D01*
D02*
G37*
G36*
X94424Y120336D02*
X93408D01*
X93410Y120348D01*
X93411Y120380D01*
X93416Y121348D01*
X94416D01*
X94424Y120336D01*
D02*
G37*
G36*
X92454D02*
X91438D01*
X91440Y120348D01*
X91441Y120380D01*
X91446Y121348D01*
X92446D01*
X92454Y120336D01*
D02*
G37*
G36*
X88514D02*
X87498D01*
X87500Y120348D01*
X87501Y120380D01*
X87506Y121348D01*
X88506D01*
X88514Y120336D01*
D02*
G37*
G36*
X86544D02*
X85528D01*
X85530Y120348D01*
X85531Y120380D01*
X85536Y121348D01*
X86536D01*
X86544Y120336D01*
D02*
G37*
G36*
X84584D02*
X83568D01*
X83570Y120348D01*
X83571Y120380D01*
X83576Y121348D01*
X84576D01*
X84584Y120336D01*
D02*
G37*
G36*
X82614D02*
X81598D01*
X81600Y120348D01*
X81601Y120380D01*
X81606Y121348D01*
X82606D01*
X82614Y120336D01*
D02*
G37*
G36*
X80644D02*
X79628D01*
X79626Y121326D01*
X80626Y121363D01*
X80644Y120336D01*
D02*
G37*
G36*
X117905Y120589D02*
X117820Y120559D01*
X117745Y120509D01*
X117680Y120438D01*
X117625Y120347D01*
X117580Y120235D01*
X117545Y120104D01*
X117520Y119952D01*
X117505Y119780D01*
X117500Y119588D01*
X116500D01*
X116495Y119780D01*
X116480Y119952D01*
X116455Y120104D01*
X116420Y120235D01*
X116375Y120347D01*
X116320Y120438D01*
X116255Y120509D01*
X116180Y120559D01*
X116095Y120589D01*
X116000Y120600D01*
X118000D01*
X117905Y120589D01*
D02*
G37*
G36*
X97496Y120278D02*
X97249Y120020D01*
X96847Y119534D01*
X96693Y119307D01*
X96570Y119090D01*
X96479Y118883D01*
X96418Y118686D01*
X96389Y118499D01*
X96391Y118323D01*
X96424Y118157D01*
X95676Y120634D01*
X95699Y120647D01*
X95743Y120681D01*
X95890Y120812D01*
X96805Y121708D01*
X97496Y120278D01*
D02*
G37*
G36*
X141504Y121771D02*
X141515Y121652D01*
X141534Y121538D01*
X141560Y121430D01*
X141594Y121327D01*
X141635Y121230D01*
X141684Y121137D01*
X141740Y121050D01*
X141804Y120969D01*
X141875Y120893D01*
X141000Y120000D01*
X141875Y119107D01*
X141804Y119031D01*
X141740Y118950D01*
X141684Y118863D01*
X141635Y118770D01*
X141594Y118673D01*
X141560Y118570D01*
X141534Y118462D01*
X141515Y118348D01*
X141504Y118229D01*
X141500Y118104D01*
X140500Y118104D01*
X140496Y118229D01*
X140485Y118348D01*
X140466Y118462D01*
X140440Y118570D01*
X140406Y118673D01*
X140365Y118770D01*
X140316Y118863D01*
X140260Y118950D01*
X140196Y119031D01*
X140125Y119107D01*
X141000Y120000D01*
X140125Y120893D01*
X140196Y120969D01*
X140260Y121050D01*
X140316Y121137D01*
X140365Y121230D01*
X140406Y121327D01*
X140440Y121430D01*
X140466Y121538D01*
X140485Y121652D01*
X140496Y121771D01*
X140500Y121896D01*
X141500Y121896D01*
X141504Y121771D01*
D02*
G37*
G36*
X117505Y118408D02*
X117520Y118236D01*
X117545Y118084D01*
X117580Y117953D01*
X117625Y117841D01*
X117680Y117750D01*
X117745Y117679D01*
X117820Y117629D01*
X117905Y117598D01*
X118000Y117588D01*
X116000D01*
X116095Y117598D01*
X116180Y117629D01*
X116255Y117679D01*
X116320Y117750D01*
X116375Y117841D01*
X116420Y117953D01*
X116455Y118084D01*
X116480Y118236D01*
X116495Y118408D01*
X116500Y118600D01*
X117500D01*
X117505Y118408D01*
D02*
G37*
G36*
X110432Y119264D02*
X110477Y119136D01*
X110552Y119024D01*
X110657Y118926D01*
X110792Y118844D01*
X110957Y118776D01*
X111152Y118724D01*
X111303Y118699D01*
X111318Y118701D01*
X111385Y118718D01*
X111440Y118736D01*
X111483Y118757D01*
X111514Y118781D01*
Y118674D01*
X111632Y118664D01*
X111917Y118656D01*
Y117156D01*
X111632Y117149D01*
X111514Y117138D01*
Y117031D01*
X111483Y117055D01*
X111440Y117076D01*
X111385Y117095D01*
X111318Y117111D01*
X111303Y117114D01*
X111152Y117089D01*
X110957Y117036D01*
X110792Y116969D01*
X110657Y116886D01*
X110552Y116789D01*
X110477Y116676D01*
X110432Y116549D01*
X110417Y116406D01*
Y119406D01*
X110432Y119264D01*
D02*
G37*
G36*
X35892Y119581D02*
X36445Y119112D01*
X36689Y118941D01*
X36912Y118813D01*
X37113Y118727D01*
X37293Y118683D01*
X37451Y118682D01*
X37589Y118723D01*
X37704Y118807D01*
X35595Y116697D01*
X35678Y116813D01*
X35720Y116950D01*
X35719Y117109D01*
X35675Y117288D01*
X35589Y117490D01*
X35460Y117713D01*
X35289Y117957D01*
X35076Y118223D01*
X34522Y118819D01*
X35583Y119879D01*
X35892Y119581D01*
D02*
G37*
G36*
X100000Y117677D02*
X100004Y117526D01*
X100033Y117238D01*
X100058Y117100D01*
X100091Y116967D01*
X100131Y116838D01*
X100179Y116713D01*
X100234Y116593D01*
X100296Y116477D01*
X100365Y116366D01*
X98500Y116693D01*
X98595Y116687D01*
X98680Y116706D01*
X98755Y116747D01*
X98820Y116813D01*
X98875Y116902D01*
X98920Y117015D01*
X98955Y117152D01*
X98980Y117313D01*
X98995Y117497D01*
X99000Y117705D01*
X100000Y117677D01*
D02*
G37*
G36*
X76702Y117462D02*
X76701Y117430D01*
X76699Y117027D01*
X76701Y116948D01*
X76716Y116776D01*
X76741Y116624D01*
X76776Y116492D01*
X76821Y116381D01*
X76876Y116290D01*
X76941Y116219D01*
X77016Y116169D01*
X77101Y116138D01*
X77196Y116128D01*
X75196D01*
X75291Y116138D01*
X75376Y116169D01*
X75451Y116219D01*
X75516Y116290D01*
X75571Y116381D01*
X75616Y116492D01*
X75651Y116624D01*
X75676Y116776D01*
X75691Y116948D01*
X75692Y116983D01*
X75688Y117474D01*
X76704D01*
X76702Y117462D01*
D02*
G37*
G36*
X109125Y116100D02*
X108985Y116159D01*
X108818Y116170D01*
X108622Y116132D01*
X108399Y116045D01*
X108148Y115909D01*
X107868Y115724D01*
X107561Y115490D01*
X106864Y114877D01*
X106473Y114497D01*
X105522Y115667D01*
X105839Y115994D01*
X106333Y116572D01*
X106511Y116823D01*
X106641Y117048D01*
X106725Y117247D01*
X106763Y117421D01*
X106753Y117569D01*
X106697Y117692D01*
X106595Y117788D01*
X109125Y116100D01*
D02*
G37*
G36*
X70046Y115647D02*
X70034Y115649D01*
X70002Y115650D01*
X69034Y115655D01*
Y116655D01*
X70046Y116663D01*
Y115647D01*
D02*
G37*
G36*
X60884Y115384D02*
X60924Y115363D01*
X60977Y115345D01*
X61042Y115329D01*
X61120Y115316D01*
X61314Y115297D01*
X61559Y115287D01*
X61700Y115286D01*
X61714Y114286D01*
X61605Y114284D01*
X61417Y114270D01*
X61337Y114257D01*
X61268Y114241D01*
X61208Y114221D01*
X61159Y114197D01*
X61119Y114170D01*
X61089Y114139D01*
X61069Y114105D01*
X60857Y115407D01*
X60884Y115384D01*
D02*
G37*
G36*
X116786Y113975D02*
X116693Y114014D01*
X116581Y114020D01*
X116451Y113994D01*
X116302Y113936D01*
X116135Y113845D01*
X115949Y113721D01*
X115744Y113565D01*
X115279Y113156D01*
X115018Y112902D01*
X114376Y113674D01*
X114588Y113893D01*
X114919Y114279D01*
X115037Y114446D01*
X115125Y114596D01*
X115181Y114729D01*
X115206Y114845D01*
X115200Y114943D01*
X115163Y115024D01*
X115095Y115088D01*
X116786Y113975D01*
D02*
G37*
G36*
X27229Y115847D02*
X27238Y115358D01*
X27257Y115162D01*
X28229Y115166D01*
X28038Y115145D01*
X27869Y115084D01*
X27718Y114983D01*
X27588Y114842D01*
X27479Y114661D01*
X27389Y114440D01*
X27357Y114323D01*
X27387Y114173D01*
X27476Y113872D01*
X27585Y113617D01*
X27714Y113410D01*
X27862Y113249D01*
X28031Y113135D01*
X28219Y113067D01*
X27232Y113286D01*
X27229Y113154D01*
X25229D01*
X25216Y113734D01*
X24228Y113953D01*
X24419Y113934D01*
X24588Y113963D01*
X24738Y114041D01*
X24869Y114169D01*
X24979Y114345D01*
X25069Y114571D01*
X25139Y114846D01*
X25188Y115170D01*
X25218Y115543D01*
X25229Y115965D01*
X27229Y115847D01*
D02*
G37*
G36*
X70046Y113677D02*
X70034Y113679D01*
X70002Y113680D01*
X69034Y113685D01*
Y114685D01*
X70046Y114693D01*
Y113677D01*
D02*
G37*
G36*
X63801Y113380D02*
X63716Y113289D01*
X63639Y113197D01*
X63572Y113103D01*
X63514Y113008D01*
X63465Y112912D01*
X63425Y112813D01*
X63395Y112714D01*
X63373Y112612D01*
X63360Y112510D01*
X63357Y112406D01*
X62120Y113643D01*
X62224Y113646D01*
X62327Y113659D01*
X62428Y113681D01*
X62527Y113712D01*
X62626Y113751D01*
X62722Y113800D01*
X62818Y113858D01*
X62911Y113926D01*
X63003Y114002D01*
X63094Y114087D01*
X63801Y113380D01*
D02*
G37*
G36*
X70046Y111707D02*
X70034Y111709D01*
X70002Y111710D01*
X69034Y111715D01*
Y112715D01*
X70046Y112723D01*
Y111707D01*
D02*
G37*
G36*
X141504Y113271D02*
X141515Y113152D01*
X141534Y113039D01*
X141560Y112930D01*
X141594Y112827D01*
X141635Y112730D01*
X141684Y112637D01*
X141740Y112550D01*
X141804Y112469D01*
X141875Y112393D01*
X141000Y111500D01*
X141875Y110607D01*
X141804Y110531D01*
X141740Y110450D01*
X141684Y110363D01*
X141635Y110270D01*
X141594Y110173D01*
X141560Y110070D01*
X141534Y109961D01*
X141515Y109848D01*
X141504Y109729D01*
X141500Y109604D01*
X140500Y109604D01*
X140496Y109729D01*
X140485Y109848D01*
X140466Y109961D01*
X140440Y110070D01*
X140406Y110173D01*
X140365Y110270D01*
X140316Y110363D01*
X140260Y110450D01*
X140196Y110531D01*
X140125Y110607D01*
X141000Y111500D01*
X140125Y112393D01*
X140196Y112469D01*
X140260Y112550D01*
X140316Y112637D01*
X140365Y112730D01*
X140406Y112827D01*
X140440Y112930D01*
X140466Y113039D01*
X140485Y113152D01*
X140496Y113271D01*
X140500Y113396D01*
X141500Y113396D01*
X141504Y113271D01*
D02*
G37*
G36*
X55804Y110031D02*
X55740Y109950D01*
X55684Y109863D01*
X55635Y109770D01*
X55594Y109673D01*
X55560Y109570D01*
X55534Y109461D01*
X55515Y109348D01*
X55504Y109229D01*
X55500Y109104D01*
X54500D01*
X54496Y109229D01*
X54485Y109348D01*
X54466Y109461D01*
X54440Y109570D01*
X54406Y109673D01*
X54365Y109770D01*
X54316Y109863D01*
X54260Y109950D01*
X54196Y110031D01*
X54125Y110107D01*
X55875D01*
X55804Y110031D01*
D02*
G37*
G36*
X64352Y109953D02*
X64266Y109860D01*
X64191Y109767D01*
X64129Y109674D01*
X64077Y109580D01*
X64038Y109485D01*
X64010Y109389D01*
X63993Y109293D01*
X63988Y109197D01*
X63995Y109099D01*
X64014Y109001D01*
X62525Y109921D01*
X62623Y109947D01*
X62720Y109979D01*
X62816Y110018D01*
X62911Y110063D01*
X63005Y110115D01*
X63098Y110174D01*
X63190Y110240D01*
X63371Y110390D01*
X63460Y110476D01*
X64352Y109953D01*
D02*
G37*
G36*
X38405Y109120D02*
X38320Y109090D01*
X38245Y109039D01*
X38180Y108968D01*
X38125Y108877D01*
X38080Y108766D01*
X38045Y108634D01*
X38020Y108483D01*
X38005Y108311D01*
X38000Y108118D01*
X37000D01*
X36995Y108311D01*
X36980Y108483D01*
X36955Y108634D01*
X36920Y108766D01*
X36875Y108877D01*
X36820Y108968D01*
X36755Y109039D01*
X36680Y109090D01*
X36595Y109120D01*
X36500Y109130D01*
X38500D01*
X38405Y109120D01*
D02*
G37*
G36*
X105988Y108250D02*
X105883Y108247D01*
X105780Y108234D01*
X105679Y108212D01*
X105580Y108182D01*
X105481Y108142D01*
X105385Y108093D01*
X105289Y108035D01*
X105196Y107968D01*
X105104Y107891D01*
X105013Y107806D01*
X104306Y108513D01*
X104391Y108604D01*
X104468Y108696D01*
X104535Y108790D01*
X104593Y108885D01*
X104642Y108981D01*
X104682Y109080D01*
X104712Y109179D01*
X104734Y109281D01*
X104747Y109383D01*
X104750Y109487D01*
X105988Y108250D01*
D02*
G37*
G36*
X95881Y109180D02*
X95911Y109095D01*
X95961Y109020D01*
X96031Y108955D01*
X96121Y108900D01*
X96231Y108855D01*
X96361Y108820D01*
X96511Y108795D01*
X96681Y108780D01*
X96716Y108779D01*
X97206Y108783D01*
Y107767D01*
X97194Y107769D01*
X97162Y107770D01*
X96759Y107772D01*
X96681Y107770D01*
X96511Y107755D01*
X96361Y107730D01*
X96231Y107695D01*
X96121Y107650D01*
X96031Y107595D01*
X95961Y107530D01*
X95911Y107455D01*
X95881Y107370D01*
X95871Y107275D01*
Y109275D01*
X95881Y109180D01*
D02*
G37*
G36*
X68572Y108838D02*
X68549Y108754D01*
X68541Y108669D01*
X68546Y108583D01*
X68565Y108495D01*
X68597Y108406D01*
X68643Y108316D01*
X68704Y108225D01*
X68777Y108133D01*
X68865Y108039D01*
X67734Y107755D01*
X67640Y107848D01*
X67229Y108206D01*
X67159Y108257D01*
X67030Y108337D01*
X66972Y108367D01*
X68608Y108921D01*
X68572Y108838D01*
D02*
G37*
G36*
X116497Y107912D02*
X118000D01*
X117905Y107902D01*
X117820Y107871D01*
X117745Y107821D01*
X117680Y107750D01*
X117625Y107659D01*
X117580Y107547D01*
X117545Y107416D01*
X117520Y107264D01*
X117505Y107092D01*
X117500Y106900D01*
X116500D01*
X116495Y107092D01*
X116480Y107264D01*
X116455Y107416D01*
X116420Y107547D01*
X116375Y107659D01*
X116320Y107750D01*
X116255Y107821D01*
X116180Y107871D01*
X116095Y107902D01*
X116000Y107912D01*
X116497D01*
X116420Y107967D01*
X116329Y107994D01*
X116224Y107993D01*
X116104Y107964D01*
X115970Y107906D01*
X115821Y107820D01*
X115658Y107705D01*
X115481Y107563D01*
X115083Y107193D01*
X114376Y107900D01*
X114575Y108106D01*
X114889Y108475D01*
X115003Y108638D01*
X115089Y108787D01*
X115147Y108921D01*
X115176Y109041D01*
X115177Y109146D01*
X115150Y109237D01*
X115095Y109314D01*
X116497Y107912D01*
D02*
G37*
G36*
X86866Y106428D02*
X85806Y105325D01*
X85056Y106075D01*
X84306Y105325D01*
X84295Y105344D01*
X84264Y105383D01*
X84137Y105522D01*
X83247Y106428D01*
X83954Y107135D01*
X85056Y106076D01*
X85075Y106086D01*
X85114Y106118D01*
X85253Y106245D01*
X86159Y107135D01*
X86866Y106428D01*
D02*
G37*
G36*
X100080Y106812D02*
X100112Y106810D01*
X101079Y106805D01*
Y105805D01*
X100067Y105797D01*
Y106813D01*
X100080Y106812D01*
D02*
G37*
G36*
X38004Y106098D02*
X38015Y105980D01*
X38034Y105866D01*
X38060Y105757D01*
X38094Y105655D01*
X38135Y105557D01*
X38184Y105465D01*
X38240Y105378D01*
X38304Y105296D01*
X38375Y105220D01*
X36625D01*
X36696Y105296D01*
X36760Y105378D01*
X36816Y105465D01*
X36865Y105557D01*
X36906Y105655D01*
X36940Y105757D01*
X36966Y105866D01*
X36985Y105980D01*
X36996Y106098D01*
X37000Y106223D01*
X38000D01*
X38004Y106098D01*
D02*
G37*
G36*
X117505Y105720D02*
X117520Y105548D01*
X117545Y105396D01*
X117580Y105265D01*
X117625Y105153D01*
X117680Y105062D01*
X117745Y104991D01*
X117820Y104941D01*
X117905Y104911D01*
X118000Y104900D01*
X116000D01*
X116095Y104911D01*
X116180Y104941D01*
X116255Y104991D01*
X116320Y105062D01*
X116375Y105153D01*
X116420Y105265D01*
X116455Y105396D01*
X116480Y105548D01*
X116495Y105720D01*
X116500Y105912D01*
X117500D01*
X117505Y105720D01*
D02*
G37*
G36*
X100080Y104852D02*
X100112Y104850D01*
X101079Y104845D01*
Y103845D01*
X100067Y103837D01*
Y104853D01*
X100080Y104852D01*
D02*
G37*
G36*
X70046Y103837D02*
X70034Y103839D01*
X70002Y103840D01*
X69034Y103845D01*
Y104845D01*
X70046Y104853D01*
Y103837D01*
D02*
G37*
G36*
X130226Y103087D02*
X129963Y103177D01*
X129709Y103239D01*
X129465Y103273D01*
X129230Y103280D01*
X129004Y103259D01*
X128789Y103210D01*
X128583Y103134D01*
X128386Y103030D01*
X128199Y102899D01*
X128021Y102740D01*
X127314Y103447D01*
X127486Y103636D01*
X127635Y103837D01*
X127761Y104048D01*
X127864Y104271D01*
X127944Y104506D01*
X128001Y104751D01*
X128035Y105008D01*
X128046Y105277D01*
X128034Y105556D01*
X127999Y105847D01*
X130226Y103087D01*
D02*
G37*
G36*
X141504Y105771D02*
X141515Y105652D01*
X141534Y105538D01*
X141560Y105430D01*
X141594Y105327D01*
X141635Y105230D01*
X141684Y105137D01*
X141740Y105050D01*
X141804Y104969D01*
X141875Y104893D01*
X141000Y104000D01*
X141875Y103107D01*
X141804Y103031D01*
X141740Y102950D01*
X141684Y102863D01*
X141635Y102770D01*
X141594Y102673D01*
X141560Y102570D01*
X141534Y102462D01*
X141515Y102348D01*
X141504Y102229D01*
X141500Y102104D01*
X140500Y102104D01*
X140496Y102229D01*
X140485Y102348D01*
X140466Y102462D01*
X140440Y102570D01*
X140406Y102673D01*
X140365Y102770D01*
X140316Y102863D01*
X140260Y102950D01*
X140196Y103031D01*
X140125Y103107D01*
X141000Y104000D01*
X140125Y104893D01*
X140196Y104969D01*
X140260Y105050D01*
X140316Y105137D01*
X140365Y105230D01*
X140406Y105327D01*
X140440Y105430D01*
X140466Y105538D01*
X140485Y105652D01*
X140496Y105771D01*
X140500Y105896D01*
X141500Y105896D01*
X141504Y105771D01*
D02*
G37*
G36*
X118915Y103999D02*
X118946Y103914D01*
X118996Y103839D01*
X119067Y103774D01*
X119158Y103719D01*
X119270Y103674D01*
X119401Y103639D01*
X119553Y103614D01*
X119725Y103599D01*
X119917Y103594D01*
Y102594D01*
X119725Y102589D01*
X119553Y102574D01*
X119401Y102549D01*
X119270Y102514D01*
X119158Y102469D01*
X119067Y102414D01*
X118996Y102349D01*
X118946Y102274D01*
X118915Y102189D01*
X118905Y102094D01*
Y104094D01*
X118915Y103999D01*
D02*
G37*
G36*
X70046Y101867D02*
X70034Y101869D01*
X70002Y101870D01*
X69034Y101875D01*
Y102875D01*
X70046Y102883D01*
Y101867D01*
D02*
G37*
G36*
X100080Y102882D02*
X100112Y102880D01*
X101079Y102875D01*
Y101875D01*
X100067Y101867D01*
Y102883D01*
X100080Y102882D01*
D02*
G37*
G36*
X70046Y100913D02*
Y99897D01*
X70028Y99903D01*
X69991Y99907D01*
X69935Y99911D01*
X69195Y99925D01*
X69005Y99925D01*
X69105Y100925D01*
X70046Y100913D01*
D02*
G37*
G36*
X100080Y98942D02*
X100112Y98940D01*
X101079Y98935D01*
Y97935D01*
X100067Y97927D01*
Y98943D01*
X100080Y98942D01*
D02*
G37*
G36*
X70046Y97927D02*
X70034Y97929D01*
X70002Y97930D01*
X69034Y97935D01*
Y98935D01*
X70046Y98943D01*
Y97927D01*
D02*
G37*
G36*
X139947Y99140D02*
X139862Y99050D01*
X139786Y98958D01*
X139719Y98864D01*
X139661Y98769D01*
X139612Y98672D01*
X139572Y98574D01*
X139541Y98474D01*
X139520Y98373D01*
X139507Y98270D01*
X139504Y98166D01*
X138254Y98154D01*
X138241Y96904D01*
X138137Y96900D01*
X138034Y96887D01*
X137933Y96866D01*
X137833Y96835D01*
X137735Y96795D01*
X137638Y96746D01*
X137543Y96688D01*
X137449Y96621D01*
X137357Y96545D01*
X137267Y96460D01*
X136560Y97167D01*
X136645Y97257D01*
X136721Y97349D01*
X136788Y97443D01*
X136846Y97538D01*
X136895Y97635D01*
X136935Y97733D01*
X136966Y97833D01*
X136987Y97934D01*
X137000Y98037D01*
X137004Y98141D01*
X138254Y98154D01*
X138266Y99404D01*
X138370Y99407D01*
X138473Y99420D01*
X138574Y99441D01*
X138674Y99472D01*
X138772Y99512D01*
X138869Y99561D01*
X138964Y99619D01*
X139058Y99686D01*
X139150Y99762D01*
X139240Y99848D01*
X139947Y99140D01*
D02*
G37*
G36*
X60410Y95417D02*
X60113Y95109D01*
X59646Y94558D01*
X59477Y94314D01*
X59349Y94091D01*
X59265Y93890D01*
X59222Y93709D01*
Y93550D01*
X59265Y93413D01*
X59349Y93296D01*
X57228Y95417D01*
X57345Y95332D01*
X57483Y95290D01*
X57642D01*
X57822Y95332D01*
X58024Y95417D01*
X58246Y95544D01*
X58490Y95714D01*
X58755Y95926D01*
X59349Y96478D01*
X60410Y95417D01*
D02*
G37*
G36*
X118916Y96605D02*
X118947Y96520D01*
X118998Y96445D01*
X119069Y96380D01*
X119160Y96325D01*
X119271Y96280D01*
X119403Y96245D01*
X119554Y96220D01*
X119726Y96205D01*
X119917Y96200D01*
Y95200D01*
X118917Y95212D01*
X118905Y96700D01*
X118916Y96605D01*
D02*
G37*
G36*
X74253Y94965D02*
X74238Y95108D01*
X74193Y95235D01*
X74117Y95348D01*
X74011Y95445D01*
X73875Y95528D01*
X73709Y95595D01*
X73513Y95648D01*
X73286Y95685D01*
X73029Y95708D01*
X72741Y95715D01*
Y97215D01*
X73029Y97223D01*
X73286Y97245D01*
X73513Y97283D01*
X73709Y97335D01*
X73875Y97403D01*
X74011Y97485D01*
X74117Y97583D01*
X74193Y97695D01*
X74238Y97823D01*
X74253Y97965D01*
Y94965D01*
D02*
G37*
G36*
X133132Y96552D02*
X133195Y96478D01*
X133266Y96413D01*
X133345Y96357D01*
X133432Y96309D01*
X133527Y96270D01*
X133629Y96239D01*
X133739Y96217D01*
X133858Y96204D01*
X133984Y96200D01*
X133711Y95200D01*
X133587Y95197D01*
X133352Y95176D01*
X133241Y95158D01*
X133134Y95134D01*
X133030Y95105D01*
X132931Y95071D01*
X132835Y95031D01*
X132744Y94986D01*
X132657Y94936D01*
X132000Y95580D01*
X133077Y96635D01*
X133132Y96552D01*
D02*
G37*
G36*
X132000Y95580D02*
X131343Y94936D01*
X131256Y94986D01*
X131165Y95031D01*
X131069Y95071D01*
X130970Y95105D01*
X130866Y95134D01*
X130759Y95158D01*
X130648Y95176D01*
X130413Y95197D01*
X130289Y95200D01*
X130016Y96200D01*
X130142Y96204D01*
X130261Y96217D01*
X130371Y96239D01*
X130473Y96270D01*
X130568Y96309D01*
X130655Y96357D01*
X130734Y96413D01*
X130805Y96478D01*
X130868Y96552D01*
X130923Y96635D01*
X132000Y95580D01*
D02*
G37*
G36*
X126132Y96552D02*
X126195Y96478D01*
X126266Y96413D01*
X126345Y96357D01*
X126432Y96309D01*
X126526Y96270D01*
X126629Y96239D01*
X126739Y96217D01*
X126858Y96204D01*
X126984Y96200D01*
X126710Y95200D01*
X126587Y95197D01*
X126352Y95176D01*
X126241Y95158D01*
X126134Y95134D01*
X126030Y95105D01*
X125931Y95071D01*
X125835Y95031D01*
X125744Y94986D01*
X125657Y94936D01*
X125000Y95580D01*
X126077Y96635D01*
X126132Y96552D01*
D02*
G37*
G36*
X125000Y95580D02*
X124343Y94936D01*
X124256Y94986D01*
X124165Y95031D01*
X124069Y95071D01*
X123970Y95105D01*
X123866Y95134D01*
X123759Y95158D01*
X123648Y95176D01*
X123413Y95197D01*
X123290Y95200D01*
X123016Y96200D01*
X123142Y96204D01*
X123261Y96217D01*
X123371Y96239D01*
X123474Y96270D01*
X123568Y96309D01*
X123655Y96357D01*
X123734Y96413D01*
X123805Y96478D01*
X123868Y96552D01*
X123923Y96635D01*
X125000Y95580D01*
D02*
G37*
G36*
X70046Y93987D02*
X70034Y93989D01*
X70002Y93990D01*
X69034Y93995D01*
Y94995D01*
X70046Y95003D01*
Y93987D01*
D02*
G37*
G36*
X65422Y95337D02*
X65452Y95265D01*
X65502Y95202D01*
X65572Y95147D01*
X65662Y95101D01*
X65772Y95063D01*
X65902Y95033D01*
X66052Y95012D01*
X66222Y94999D01*
X66412Y94995D01*
Y93995D01*
X66221Y93990D01*
X66049Y93975D01*
X65898Y93950D01*
X65766Y93915D01*
X65655Y93870D01*
X65564Y93815D01*
X65493Y93750D01*
X65442Y93675D01*
X65411Y93590D01*
X65400Y93495D01*
X65412Y95417D01*
X65422Y95337D01*
D02*
G37*
G36*
X100373Y94696D02*
X100394Y94672D01*
X101075Y93985D01*
X100407Y93239D01*
X100219Y93419D01*
X99875Y93708D01*
X99718Y93816D01*
X99571Y93900D01*
X99435Y93960D01*
X99309Y93996D01*
X99193Y94007D01*
X99088Y93994D01*
X98993Y93958D01*
X100365Y94706D01*
X100373Y94696D01*
D02*
G37*
G36*
X94441Y95915D02*
X94436Y95864D01*
X94427Y95676D01*
X94417Y94523D01*
X94916D01*
X94821Y94512D01*
X94736Y94482D01*
X94661Y94432D01*
X94596Y94361D01*
X94541Y94270D01*
X94496Y94158D01*
X94461Y94027D01*
X94436Y93875D01*
X94421Y93703D01*
X94420Y93667D01*
X94424Y93176D01*
X93408D01*
X93410Y93188D01*
X93411Y93220D01*
X93413Y93624D01*
X93411Y93703D01*
X93396Y93875D01*
X93371Y94027D01*
X93336Y94158D01*
X93291Y94270D01*
X93236Y94361D01*
X93171Y94432D01*
X93096Y94482D01*
X93011Y94512D01*
X92916Y94523D01*
X93414D01*
X93385Y95935D01*
X94447D01*
X94441Y95915D01*
D02*
G37*
G36*
X55724Y92000D02*
X55709Y92142D01*
X55664Y92270D01*
X55588Y92383D01*
X55482Y92480D01*
X55346Y92563D01*
X55180Y92630D01*
X54983Y92682D01*
X54756Y92720D01*
X54499Y92743D01*
X54212Y92750D01*
Y94250D01*
X54499Y94257D01*
X54756Y94280D01*
X54983Y94318D01*
X55180Y94370D01*
X55346Y94437D01*
X55482Y94520D01*
X55588Y94617D01*
X55664Y94730D01*
X55709Y94858D01*
X55724Y95000D01*
Y92000D01*
D02*
G37*
G36*
X52505Y94351D02*
X52548Y94330D01*
X52603Y94311D01*
X52670Y94295D01*
X52750Y94281D01*
X52946Y94261D01*
X53191Y94251D01*
X53332Y94250D01*
Y92750D01*
X53191Y92749D01*
X52750Y92719D01*
X52670Y92705D01*
X52603Y92689D01*
X52558Y92673D01*
X52552Y92644D01*
X52544Y92581D01*
X52528Y92314D01*
X52523Y91928D01*
X51023Y91632D01*
X51021Y91772D01*
X50996Y92119D01*
X50981Y92210D01*
X50962Y92289D01*
X50940Y92356D01*
X50914Y92411D01*
X50886Y92453D01*
X50853Y92484D01*
X52474Y92735D01*
Y94375D01*
X52505Y94351D01*
D02*
G37*
G36*
X96417Y91660D02*
X96434Y91575D01*
X96475Y91500D01*
X96541Y91435D01*
X96630Y91380D01*
X96743Y91335D01*
X96880Y91300D01*
X97041Y91275D01*
X97227Y91260D01*
X97436Y91255D01*
X97354Y90255D01*
X97179Y90253D01*
X96720Y90217D01*
X96589Y90195D01*
X96469Y90169D01*
X96359Y90138D01*
X96261Y90103D01*
X96173Y90062D01*
X96096Y90017D01*
X96424Y91755D01*
X96417Y91660D01*
D02*
G37*
G36*
X65345Y92920D02*
X65318Y92829D01*
X65319Y92724D01*
X65349Y92604D01*
X65406Y92470D01*
X65492Y92321D01*
X65607Y92158D01*
X65749Y91981D01*
X66071Y91635D01*
X66100Y91607D01*
X66193Y91531D01*
X66286Y91464D01*
X66381Y91406D01*
X66478Y91357D01*
X66576Y91317D01*
X66676Y91287D01*
X66777Y91265D01*
X66880Y91253D01*
X66984Y91250D01*
X65750Y90009D01*
X65746Y90113D01*
X65733Y90216D01*
X65712Y90317D01*
X65681Y90417D01*
X65641Y90515D01*
X65592Y90612D01*
X65533Y90707D01*
X65466Y90801D01*
X65390Y90893D01*
X65342Y90943D01*
X65206Y91075D01*
X64837Y91388D01*
X64674Y91503D01*
X64526Y91589D01*
X64391Y91647D01*
X64271Y91676D01*
X64166Y91677D01*
X64075Y91650D01*
X63998Y91595D01*
X65400Y92997D01*
X65345Y92920D01*
D02*
G37*
G36*
X94423Y90302D02*
X94421Y90270D01*
X94416Y89303D01*
X93416D01*
X93408Y90315D01*
X94424D01*
X94423Y90302D01*
D02*
G37*
G36*
X80642D02*
X80641Y90270D01*
X80636Y89303D01*
X79636D01*
X79628Y90315D01*
X80644D01*
X80642Y90302D01*
D02*
G37*
G36*
X78672D02*
X78671Y90270D01*
X78666Y89303D01*
X77666D01*
X77658Y90315D01*
X78674D01*
X78672Y90302D01*
D02*
G37*
G36*
X111788Y88921D02*
X112156Y88610D01*
X112318Y88497D01*
X112467Y88412D01*
X112601Y88356D01*
X112721Y88328D01*
X112827D01*
X112919Y88356D01*
X112997Y88412D01*
X111583Y86998D01*
X111639Y87076D01*
X111668Y87168D01*
Y87274D01*
X111639Y87394D01*
X111583Y87529D01*
X111498Y87677D01*
X111385Y87840D01*
X111243Y88016D01*
X110876Y88412D01*
X111583Y89119D01*
X111788Y88921D01*
D02*
G37*
G36*
X148137Y86125D02*
X148061Y86196D01*
X147980Y86260D01*
X147893Y86316D01*
X147801Y86365D01*
X147703Y86406D01*
X147600Y86440D01*
X147492Y86466D01*
X147378Y86485D01*
X147259Y86496D01*
X147134Y86500D01*
Y87500D01*
X147259Y87504D01*
X147378Y87515D01*
X147492Y87534D01*
X147600Y87560D01*
X147703Y87594D01*
X147801Y87635D01*
X147893Y87684D01*
X147980Y87740D01*
X148061Y87804D01*
X148137Y87875D01*
Y86125D01*
D02*
G37*
G36*
X143742Y87905D02*
X143772Y87820D01*
X143823Y87745D01*
X143894Y87680D01*
X143985Y87625D01*
X144096Y87580D01*
X144228Y87545D01*
X144380Y87520D01*
X144552Y87505D01*
X144744Y87500D01*
Y86500D01*
X144552Y86495D01*
X144380Y86480D01*
X144228Y86455D01*
X144096Y86420D01*
X143985Y86375D01*
X143894Y86320D01*
X143823Y86255D01*
X143772Y86180D01*
X143742Y86095D01*
X143732Y86000D01*
Y88000D01*
X143742Y87905D01*
D02*
G37*
G36*
X119595Y85594D02*
X119585Y85689D01*
X119554Y85774D01*
X119504Y85849D01*
X119433Y85914D01*
X119342Y85969D01*
X119230Y86014D01*
X119099Y86049D01*
X118947Y86074D01*
X118775Y86089D01*
X118583Y86094D01*
Y87094D01*
X118775Y87099D01*
X118947Y87114D01*
X119099Y87139D01*
X119230Y87174D01*
X119342Y87219D01*
X119433Y87274D01*
X119504Y87339D01*
X119554Y87414D01*
X119585Y87499D01*
X119595Y87594D01*
Y85594D01*
D02*
G37*
G36*
X115415Y87499D02*
X115446Y87414D01*
X115496Y87339D01*
X115567Y87274D01*
X115658Y87219D01*
X115770Y87174D01*
X115901Y87139D01*
X116053Y87114D01*
X116225Y87099D01*
X116417Y87094D01*
Y86094D01*
X116225Y86089D01*
X116053Y86074D01*
X115901Y86049D01*
X115770Y86014D01*
X115658Y85969D01*
X115567Y85914D01*
X115496Y85849D01*
X115446Y85774D01*
X115415Y85689D01*
X115405Y85594D01*
Y87594D01*
X115415Y87499D01*
D02*
G37*
G36*
X138268Y85513D02*
X138258Y85608D01*
X138228Y85693D01*
X138177Y85768D01*
X138106Y85833D01*
X138015Y85888D01*
X137904Y85933D01*
X137772Y85968D01*
X137620Y85993D01*
X137448Y86008D01*
X137256Y86013D01*
Y87013D01*
X137448Y87018D01*
X137620Y87033D01*
X137772Y87058D01*
X137904Y87093D01*
X138015Y87138D01*
X138106Y87193D01*
X138177Y87258D01*
X138228Y87333D01*
X138258Y87418D01*
X138268Y87513D01*
Y85513D01*
D02*
G37*
G36*
X133579Y87418D02*
X133609Y87333D01*
X133660Y87258D01*
X133731Y87193D01*
X133822Y87138D01*
X133933Y87093D01*
X134065Y87058D01*
X134216Y87033D01*
X134388Y87018D01*
X134581Y87013D01*
Y86013D01*
X134388Y86008D01*
X134216Y85993D01*
X134065Y85968D01*
X133933Y85933D01*
X133822Y85888D01*
X133731Y85833D01*
X133660Y85768D01*
X133609Y85693D01*
X133579Y85608D01*
X133569Y85513D01*
Y87513D01*
X133579Y87418D01*
D02*
G37*
G36*
X96316Y87221D02*
X96991Y86653D01*
X97177Y86530D01*
X97345Y86440D01*
X97492Y86384D01*
X97621Y86362D01*
X97730Y86373D01*
X97821Y86417D01*
X96212Y85197D01*
X96277Y85266D01*
X96312Y85351D01*
X96317Y85453D01*
X96292Y85570D01*
X96236Y85703D01*
X96150Y85853D01*
X96034Y86018D01*
X95888Y86200D01*
X95505Y86611D01*
X96053Y87478D01*
X96316Y87221D01*
D02*
G37*
G36*
X102480Y86926D02*
X102848Y86615D01*
X103010Y86502D01*
X103159Y86417D01*
X103293Y86361D01*
X103413Y86332D01*
X103519D01*
X103611Y86361D01*
X103689Y86417D01*
X102275Y85003D01*
X102332Y85081D01*
X102360Y85173D01*
Y85279D01*
X102332Y85399D01*
X102275Y85533D01*
X102190Y85682D01*
X102077Y85844D01*
X101936Y86021D01*
X101568Y86417D01*
X102275Y87124D01*
X102480Y86926D01*
D02*
G37*
G36*
X70626Y86564D02*
X70690Y86490D01*
X70762Y86426D01*
X70841Y86369D01*
X70929Y86321D01*
X71024Y86282D01*
X71127Y86252D01*
X71237Y86230D01*
X71356Y86217D01*
X71482Y86213D01*
X71221Y85213D01*
X71098Y85210D01*
X70863Y85189D01*
X70752Y85170D01*
X70644Y85146D01*
X70541Y85116D01*
X70442Y85081D01*
X70346Y85040D01*
X70255Y84995D01*
X70168Y84943D01*
X70570Y86647D01*
X70626Y86564D01*
D02*
G37*
G36*
X64756Y86172D02*
X64820Y86098D01*
X64892Y86033D01*
X64972Y85976D01*
X65059Y85929D01*
X65154Y85890D01*
X65257Y85859D01*
X65367Y85838D01*
X65486Y85825D01*
X65612Y85820D01*
X65351Y84820D01*
X65228Y84818D01*
X64993Y84796D01*
X64882Y84777D01*
X64775Y84753D01*
X64671Y84723D01*
X64572Y84688D01*
X64477Y84648D01*
X64385Y84602D01*
X64298Y84551D01*
X64700Y86254D01*
X64756Y86172D01*
D02*
G37*
G36*
X61760Y85335D02*
X61761Y85234D01*
X61773Y85134D01*
X61796Y85036D01*
X61829Y84938D01*
X61873Y84842D01*
X61927Y84747D01*
X61992Y84653D01*
X62067Y84560D01*
X62152Y84469D01*
X61347Y83860D01*
X61257Y83945D01*
X61166Y84023D01*
X61073Y84093D01*
X60979Y84155D01*
X60884Y84209D01*
X60787Y84256D01*
X60688Y84295D01*
X60588Y84326D01*
X60487Y84350D01*
X60385Y84366D01*
X61768Y85437D01*
X61760Y85335D01*
D02*
G37*
G36*
X58546Y85032D02*
X58542Y84986D01*
X58547Y84936D01*
X58562Y84883D01*
X58586Y84826D01*
X58620Y84765D01*
X58664Y84701D01*
X58718Y84633D01*
X58781Y84561D01*
X58854Y84485D01*
X58091Y83834D01*
X57990Y83933D01*
X57658Y84225D01*
X57593Y84272D01*
X57535Y84309D01*
X57484Y84336D01*
X57439Y84352D01*
X57402Y84358D01*
X58560Y85074D01*
X58546Y85032D01*
D02*
G37*
G36*
X74009Y84610D02*
X74100Y84536D01*
X74189Y84476D01*
X74274Y84431D01*
X74356Y84402D01*
X74435Y84386D01*
X74510Y84386D01*
X74582Y84401D01*
X74651Y84430D01*
X74717Y84474D01*
X74440Y82837D01*
X73375Y83824D01*
X73914Y84699D01*
X74009Y84610D01*
D02*
G37*
G36*
X104999Y82585D02*
X104914Y82554D01*
X104839Y82504D01*
X104774Y82433D01*
X104719Y82342D01*
X104674Y82231D01*
X104639Y82099D01*
X104614Y81947D01*
X104599Y81775D01*
X104594Y81583D01*
X103594D01*
X103589Y81775D01*
X103574Y81947D01*
X103549Y82099D01*
X103514Y82231D01*
X103469Y82342D01*
X103414Y82433D01*
X103349Y82504D01*
X103274Y82554D01*
X103189Y82585D01*
X103094Y82595D01*
X105094D01*
X104999Y82585D01*
D02*
G37*
G36*
X59005Y81725D02*
X59020Y81553D01*
X59045Y81401D01*
X59080Y81269D01*
X59125Y81158D01*
X59180Y81067D01*
X59245Y80996D01*
X59320Y80946D01*
X59405Y80915D01*
X59500Y80905D01*
X57500D01*
X57595Y80915D01*
X57680Y80946D01*
X57755Y80996D01*
X57820Y81067D01*
X57875Y81158D01*
X57920Y81269D01*
X57955Y81401D01*
X57980Y81553D01*
X57995Y81725D01*
X58000Y81917D01*
X59000D01*
X59005Y81725D01*
D02*
G37*
G36*
X52530Y82130D02*
X52553Y81874D01*
X52590Y81647D01*
X52643Y81451D01*
X52710Y81285D01*
X52793Y81149D01*
X52890Y81043D01*
X53003Y80967D01*
X53130Y80921D01*
X53273Y80905D01*
X50618Y80917D01*
X50695Y80932D01*
X50764Y80977D01*
X50825Y81052D01*
X50877Y81157D01*
X50922Y81292D01*
X50958Y81457D01*
X50986Y81652D01*
X51007Y81877D01*
X51023Y82417D01*
X52523D01*
X52530Y82130D01*
D02*
G37*
G36*
X109504Y80771D02*
X109515Y80652D01*
X109534Y80538D01*
X109560Y80430D01*
X109594Y80327D01*
X109635Y80230D01*
X109684Y80137D01*
X109740Y80050D01*
X109804Y79969D01*
X109875Y79893D01*
X108125D01*
X108196Y79969D01*
X108260Y80050D01*
X108316Y80137D01*
X108365Y80230D01*
X108406Y80327D01*
X108440Y80430D01*
X108466Y80538D01*
X108485Y80652D01*
X108496Y80771D01*
X108500Y80896D01*
X109500D01*
X109504Y80771D01*
D02*
G37*
G36*
X70449Y81426D02*
X70817Y81115D01*
X70980Y81002D01*
X71128Y80917D01*
X71263Y80861D01*
X71383Y80832D01*
X71489D01*
X71581Y80861D01*
X71658Y80917D01*
X70244Y79503D01*
X70301Y79581D01*
X70329Y79673D01*
Y79779D01*
X70301Y79899D01*
X70244Y80033D01*
X70159Y80182D01*
X70046Y80344D01*
X69905Y80521D01*
X69537Y80917D01*
X70244Y81624D01*
X70449Y81426D01*
D02*
G37*
G36*
X104597Y80246D02*
X104609Y80127D01*
X104628Y80013D01*
X104654Y79905D01*
X104688Y79802D01*
X104729Y79704D01*
X104778Y79612D01*
X104834Y79525D01*
X104897Y79443D01*
X104969Y79367D01*
X103219D01*
X103290Y79443D01*
X103354Y79525D01*
X103410Y79612D01*
X103459Y79704D01*
X103500Y79802D01*
X103534Y79905D01*
X103560Y80013D01*
X103579Y80127D01*
X103590Y80246D01*
X103594Y80370D01*
X104594D01*
X104597Y80246D01*
D02*
G37*
G36*
X128105Y78821D02*
X128095Y78916D01*
X128065Y79001D01*
X128014Y79075D01*
X127943Y79141D01*
X127852Y79195D01*
X127741Y79241D01*
X127609Y79276D01*
X127457Y79300D01*
X127285Y79316D01*
X127093Y79321D01*
Y80321D01*
X127285Y80326D01*
X127457Y80340D01*
X127609Y80366D01*
X127741Y80401D01*
X127852Y80445D01*
X127943Y80501D01*
X128014Y80566D01*
X128065Y80641D01*
X128095Y80726D01*
X128105Y80821D01*
Y78821D01*
D02*
G37*
G36*
X123427Y80726D02*
X123457Y80641D01*
X123507Y80566D01*
X123577Y80501D01*
X123667Y80445D01*
X123777Y80401D01*
X123907Y80366D01*
X124057Y80340D01*
X124227Y80326D01*
X124417Y80321D01*
Y79321D01*
X124227Y79316D01*
X124057Y79300D01*
X123907Y79276D01*
X123777Y79241D01*
X123667Y79195D01*
X123577Y79141D01*
X123507Y79075D01*
X123457Y79001D01*
X123427Y78916D01*
X123417Y78821D01*
Y80821D01*
X123427Y80726D01*
D02*
G37*
G36*
X114405Y78714D02*
X114320Y78684D01*
X114245Y78633D01*
X114180Y78562D01*
X114125Y78471D01*
X114080Y78360D01*
X114045Y78228D01*
X114020Y78076D01*
X114005Y77904D01*
X114000Y77712D01*
X113000D01*
X112995Y77904D01*
X112980Y78076D01*
X112955Y78228D01*
X112920Y78360D01*
X112875Y78471D01*
X112820Y78562D01*
X112755Y78633D01*
X112680Y78684D01*
X112595Y78714D01*
X112500Y78724D01*
X114500D01*
X114405Y78714D01*
D02*
G37*
G36*
X98895Y78279D02*
X99344Y77882D01*
X99427Y77823D01*
X99497Y77781D01*
X99555Y77756D01*
X99601Y77747D01*
X99635Y77754D01*
X98439Y77095D01*
X98461Y77115D01*
X98469Y77145D01*
X98464Y77184D01*
X98445Y77232D01*
X98413Y77289D01*
X98366Y77355D01*
X98307Y77431D01*
X98146Y77609D01*
X98045Y77713D01*
X98752Y78420D01*
X98895Y78279D01*
D02*
G37*
G36*
X88827Y78349D02*
X89198Y78035D01*
X89312Y77956D01*
X89421Y77888D01*
X89525Y77833D01*
X89625Y77791D01*
X89720Y77761D01*
X89810Y77743D01*
X88334Y76727D01*
X88403Y76791D01*
X88445Y76867D01*
X88459Y76957D01*
X88447Y77060D01*
X88407Y77176D01*
X88341Y77305D01*
X88247Y77448D01*
X88126Y77603D01*
X87979Y77772D01*
X87804Y77954D01*
X88694Y78478D01*
X88827Y78349D01*
D02*
G37*
G36*
X105298Y78107D02*
X105294Y78009D01*
X105300Y77911D01*
X105318Y77814D01*
X105347Y77718D01*
X105388Y77623D01*
X105440Y77529D01*
X105503Y77435D01*
X105578Y77342D01*
X105664Y77250D01*
X104794Y76706D01*
X104705Y76791D01*
X104523Y76941D01*
X104430Y77005D01*
X104336Y77063D01*
X104241Y77114D01*
X104145Y77158D01*
X104048Y77195D01*
X103950Y77225D01*
X103850Y77248D01*
X105315Y78207D01*
X105298Y78107D01*
D02*
G37*
G36*
X141905Y77447D02*
X141820Y77417D01*
X141745Y77367D01*
X141680Y77297D01*
X141625Y77207D01*
X141580Y77097D01*
X141545Y76967D01*
X141520Y76817D01*
X141505Y76647D01*
X141500Y76457D01*
X140500D01*
X140495Y76647D01*
X140480Y76817D01*
X140455Y76967D01*
X140420Y77097D01*
X140375Y77207D01*
X140320Y77297D01*
X140255Y77367D01*
X140180Y77417D01*
X140095Y77447D01*
X140000Y77457D01*
X142000D01*
X141905Y77447D01*
D02*
G37*
G36*
X114004Y77319D02*
X114015Y77200D01*
X114034Y77086D01*
X114060Y76978D01*
X114094Y76875D01*
X114135Y76777D01*
X114184Y76685D01*
X114240Y76598D01*
X114304Y76516D01*
X114375Y76440D01*
X112625D01*
X112696Y76516D01*
X112760Y76598D01*
X112816Y76685D01*
X112865Y76777D01*
X112906Y76875D01*
X112940Y76978D01*
X112966Y77086D01*
X112985Y77200D01*
X112996Y77319D01*
X113000Y77443D01*
X114000D01*
X114004Y77319D01*
D02*
G37*
G36*
X93580Y78221D02*
X93931Y77925D01*
X94087Y77817D01*
X94230Y77737D01*
X94360Y77684D01*
X94477Y77657D01*
X94580Y77657D01*
X94671Y77685D01*
X94749Y77739D01*
X93315Y76370D01*
X93373Y76444D01*
X93403Y76531D01*
X93407Y76632D01*
X93384Y76746D01*
X93333Y76872D01*
X93256Y77012D01*
X93152Y77165D01*
X93021Y77331D01*
X92863Y77510D01*
X92677Y77702D01*
X93385Y78409D01*
X93580Y78221D01*
D02*
G37*
G36*
X72968Y77085D02*
X72883Y77054D01*
X72808Y77004D01*
X72743Y76933D01*
X72688Y76842D01*
X72643Y76731D01*
X72608Y76599D01*
X72583Y76447D01*
X72568Y76275D01*
X72563Y76083D01*
X71563D01*
X71558Y76275D01*
X71543Y76447D01*
X71518Y76599D01*
X71483Y76731D01*
X71438Y76842D01*
X71383Y76933D01*
X71318Y77004D01*
X71243Y77054D01*
X71158Y77085D01*
X71063Y77095D01*
X73063D01*
X72968Y77085D01*
D02*
G37*
G36*
X59499Y77073D02*
X59414Y77043D01*
X59339Y76993D01*
X59274Y76923D01*
X59219Y76833D01*
X59174Y76723D01*
X59139Y76593D01*
X59114Y76443D01*
X59099Y76273D01*
X59094Y76083D01*
X58094D01*
X58089Y76273D01*
X58074Y76443D01*
X58049Y76593D01*
X58014Y76723D01*
X57969Y76833D01*
X57914Y76923D01*
X57849Y76993D01*
X57774Y77043D01*
X57689Y77073D01*
X57594Y77083D01*
X59594D01*
X59499Y77073D01*
D02*
G37*
G36*
X67751Y78420D02*
X67724Y78329D01*
X67725Y78224D01*
X67755Y78104D01*
X67813Y77970D01*
X67899Y77821D01*
X68013Y77658D01*
X68156Y77481D01*
X68440Y77175D01*
X68606Y77037D01*
X68698Y76972D01*
X68791Y76913D01*
X68885Y76861D01*
X68980Y76816D01*
X69077Y76777D01*
X69174Y76745D01*
X69272Y76720D01*
X67786Y75796D01*
X67804Y75894D01*
X67810Y75992D01*
X67805Y76089D01*
X67789Y76185D01*
X67761Y76280D01*
X67721Y76375D01*
X67670Y76469D01*
X67607Y76563D01*
X67565Y76616D01*
X67243Y76889D01*
X67080Y77003D01*
X66932Y77089D01*
X66798Y77147D01*
X66678Y77176D01*
X66572Y77177D01*
X66481Y77150D01*
X66404Y77095D01*
X67807Y78497D01*
X67751Y78420D01*
D02*
G37*
G36*
X23337Y78130D02*
X23181Y77946D01*
X23043Y77723D01*
X22921Y77461D01*
X22816Y77161D01*
X22728Y76820D01*
X22657Y76442D01*
X22603Y76024D01*
X22546Y75071D01*
X22543Y74535D01*
X19035Y78043D01*
X19570Y78046D01*
X20524Y78103D01*
X20942Y78157D01*
X21320Y78228D01*
X21660Y78316D01*
X21961Y78421D01*
X22223Y78543D01*
X22446Y78681D01*
X22630Y78837D01*
X23337Y78130D01*
D02*
G37*
G36*
X59099Y74227D02*
X59114Y74057D01*
X59139Y73907D01*
X59174Y73777D01*
X59219Y73667D01*
X59274Y73577D01*
X59339Y73507D01*
X59414Y73457D01*
X59499Y73427D01*
X59594Y73417D01*
X57594D01*
X57689Y73427D01*
X57774Y73457D01*
X57849Y73507D01*
X57914Y73577D01*
X57969Y73667D01*
X58014Y73777D01*
X58049Y73907D01*
X58074Y74057D01*
X58089Y74227D01*
X58094Y74417D01*
X59094D01*
X59099Y74227D01*
D02*
G37*
G36*
X72568Y74225D02*
X72583Y74053D01*
X72608Y73901D01*
X72643Y73769D01*
X72688Y73658D01*
X72743Y73567D01*
X72808Y73496D01*
X72883Y73446D01*
X72968Y73415D01*
X73063Y73405D01*
X71063D01*
X71158Y73415D01*
X71243Y73446D01*
X71318Y73496D01*
X71383Y73567D01*
X71438Y73658D01*
X71483Y73769D01*
X71518Y73901D01*
X71543Y74053D01*
X71558Y74225D01*
X71563Y74417D01*
X72563D01*
X72568Y74225D01*
D02*
G37*
G36*
X141505Y73720D02*
X141520Y73548D01*
X141545Y73396D01*
X141580Y73265D01*
X141625Y73153D01*
X141680Y73062D01*
X141745Y72992D01*
X141820Y72941D01*
X141905Y72910D01*
X142000Y72900D01*
X140000D01*
X140095Y72910D01*
X140180Y72941D01*
X140255Y72992D01*
X140320Y73062D01*
X140375Y73153D01*
X140420Y73265D01*
X140455Y73396D01*
X140480Y73548D01*
X140495Y73720D01*
X140500Y73912D01*
X141500D01*
X141505Y73720D01*
D02*
G37*
G36*
X80258Y74250D02*
X80340Y74186D01*
X80427Y74130D01*
X80519Y74081D01*
X80616Y74040D01*
X80719Y74006D01*
X80828Y73980D01*
X80941Y73961D01*
X81060Y73950D01*
X81185Y73946D01*
Y72946D01*
X81060Y72942D01*
X80941Y72931D01*
X80828Y72912D01*
X80719Y72886D01*
X80616Y72852D01*
X80519Y72811D01*
X80427Y72762D01*
X80340Y72706D01*
X80258Y72642D01*
X80182Y72571D01*
Y74321D01*
X80258Y74250D01*
D02*
G37*
G36*
X83315Y72446D02*
X83305Y72541D01*
X83275Y72626D01*
X83224Y72701D01*
X83153Y72766D01*
X83062Y72821D01*
X82951Y72866D01*
X82819Y72901D01*
X82667Y72926D01*
X82495Y72941D01*
X82303Y72946D01*
Y73946D01*
X82495Y73951D01*
X82667Y73966D01*
X82819Y73991D01*
X82951Y74026D01*
X83062Y74071D01*
X83153Y74126D01*
X83224Y74191D01*
X83275Y74266D01*
X83305Y74351D01*
X83315Y74446D01*
Y72446D01*
D02*
G37*
G36*
X139083Y70094D02*
X139073Y70189D01*
X139043Y70274D01*
X138993Y70349D01*
X138923Y70414D01*
X138833Y70469D01*
X138723Y70514D01*
X138593Y70549D01*
X138443Y70574D01*
X138273Y70589D01*
X138083Y70594D01*
Y71594D01*
X138273Y71599D01*
X138443Y71614D01*
X138593Y71639D01*
X138723Y71674D01*
X138833Y71719D01*
X138923Y71774D01*
X138993Y71839D01*
X139043Y71914D01*
X139073Y71999D01*
X139083Y72094D01*
Y70094D01*
D02*
G37*
G36*
X134702Y71999D02*
X134732Y71914D01*
X134783Y71839D01*
X134854Y71774D01*
X134945Y71719D01*
X135056Y71674D01*
X135188Y71639D01*
X135340Y71614D01*
X135512Y71599D01*
X135704Y71594D01*
Y70594D01*
X135512Y70589D01*
X135340Y70574D01*
X135188Y70549D01*
X135056Y70514D01*
X134945Y70469D01*
X134854Y70414D01*
X134783Y70349D01*
X134732Y70274D01*
X134702Y70189D01*
X134692Y70094D01*
Y72094D01*
X134702Y71999D01*
D02*
G37*
G36*
X130870Y70094D02*
X130860Y70189D01*
X130830Y70274D01*
X130780Y70349D01*
X130710Y70414D01*
X130620Y70469D01*
X130510Y70514D01*
X130380Y70549D01*
X130230Y70574D01*
X130060Y70589D01*
X129870Y70594D01*
Y71594D01*
X130060Y71599D01*
X130230Y71614D01*
X130380Y71639D01*
X130510Y71674D01*
X130620Y71719D01*
X130710Y71774D01*
X130780Y71839D01*
X130830Y71914D01*
X130860Y71999D01*
X130870Y72094D01*
Y70094D01*
D02*
G37*
G36*
X126489Y71999D02*
X126519Y71914D01*
X126570Y71839D01*
X126641Y71774D01*
X126732Y71719D01*
X126843Y71674D01*
X126975Y71639D01*
X127126Y71614D01*
X127298Y71599D01*
X127491Y71594D01*
Y70594D01*
X127298Y70589D01*
X127126Y70574D01*
X126975Y70549D01*
X126843Y70514D01*
X126732Y70469D01*
X126641Y70414D01*
X126570Y70349D01*
X126519Y70274D01*
X126489Y70189D01*
X126479Y70094D01*
Y72094D01*
X126489Y71999D01*
D02*
G37*
G36*
X122657Y69844D02*
X122646Y69939D01*
X122617Y70024D01*
X122566Y70099D01*
X122496Y70164D01*
X122406Y70219D01*
X122297Y70264D01*
X122167Y70299D01*
X122017Y70324D01*
X121846Y70339D01*
X121657Y70344D01*
Y71344D01*
X121846Y71349D01*
X122017Y71364D01*
X122167Y71389D01*
X122297Y71424D01*
X122406Y71469D01*
X122496Y71524D01*
X122566Y71589D01*
X122617Y71664D01*
X122646Y71749D01*
X122657Y71844D01*
Y69844D01*
D02*
G37*
G36*
X118686Y71749D02*
X118717Y71664D01*
X118767Y71589D01*
X118838Y71524D01*
X118929Y71469D01*
X119041Y71424D01*
X119172Y71389D01*
X119324Y71364D01*
X119496Y71349D01*
X119688Y71344D01*
Y70344D01*
X119496Y70339D01*
X119324Y70324D01*
X119172Y70299D01*
X119041Y70264D01*
X118929Y70219D01*
X118838Y70164D01*
X118767Y70099D01*
X118717Y70024D01*
X118686Y69939D01*
X118676Y69844D01*
Y71844D01*
X118686Y71749D01*
D02*
G37*
G36*
X72874Y69573D02*
X72789Y69543D01*
X72714Y69493D01*
X72649Y69423D01*
X72594Y69333D01*
X72549Y69223D01*
X72514Y69093D01*
X72489Y68943D01*
X72474Y68773D01*
X72469Y68583D01*
X71469D01*
X71464Y68773D01*
X71449Y68943D01*
X71424Y69093D01*
X71389Y69223D01*
X71344Y69333D01*
X71289Y69423D01*
X71224Y69493D01*
X71149Y69543D01*
X71064Y69573D01*
X70969Y69583D01*
X72969D01*
X72874Y69573D01*
D02*
G37*
G36*
X66811D02*
X66726Y69543D01*
X66651Y69493D01*
X66586Y69423D01*
X66531Y69333D01*
X66486Y69223D01*
X66451Y69093D01*
X66426Y68943D01*
X66411Y68773D01*
X66406Y68583D01*
X65406D01*
X65401Y68773D01*
X65386Y68943D01*
X65361Y69093D01*
X65326Y69223D01*
X65281Y69333D01*
X65226Y69423D01*
X65161Y69493D01*
X65086Y69543D01*
X65001Y69573D01*
X64906Y69583D01*
X66906D01*
X66811Y69573D01*
D02*
G37*
G36*
X58168Y69584D02*
X58083Y69553D01*
X58008Y69502D01*
X57943Y69431D01*
X57888Y69340D01*
X57843Y69229D01*
X57808Y69097D01*
X57783Y68946D01*
X57768Y68774D01*
X57763Y68583D01*
X56763D01*
X56775Y69583D01*
X58263Y69595D01*
X58168Y69584D01*
D02*
G37*
G36*
X52105D02*
X52020Y69553D01*
X51945Y69502D01*
X51880Y69431D01*
X51825Y69340D01*
X51780Y69229D01*
X51745Y69097D01*
X51720Y68946D01*
X51705Y68774D01*
X51700Y68583D01*
X50700D01*
X50712Y69583D01*
X52200Y69595D01*
X52105Y69584D01*
D02*
G37*
G36*
X51704Y67971D02*
X51715Y67852D01*
X51734Y67738D01*
X51760Y67630D01*
X51794Y67527D01*
X51835Y67430D01*
X51884Y67337D01*
X51940Y67250D01*
X52004Y67169D01*
X52075Y67093D01*
X50325D01*
X50396Y67169D01*
X50460Y67250D01*
X50516Y67337D01*
X50565Y67430D01*
X50606Y67527D01*
X50640Y67630D01*
X50666Y67738D01*
X50685Y67852D01*
X50696Y67971D01*
X50700Y68096D01*
X51700D01*
X51704Y67971D01*
D02*
G37*
G36*
X66410Y66365D02*
X66421Y66246D01*
X66440Y66132D01*
X66466Y66024D01*
X66500Y65921D01*
X66541Y65823D01*
X66590Y65731D01*
X66646Y65644D01*
X66710Y65563D01*
X66781Y65486D01*
X65031D01*
X65102Y65563D01*
X65166Y65644D01*
X65223Y65731D01*
X65271Y65823D01*
X65312Y65921D01*
X65346Y66024D01*
X65373Y66132D01*
X65391Y66246D01*
X65403Y66365D01*
X65406Y66489D01*
X66406D01*
X66410Y66365D01*
D02*
G37*
G36*
X115516Y67405D02*
X115884Y67094D01*
X116046Y66981D01*
X116195Y66896D01*
X116329Y66839D01*
X116449Y66811D01*
X116555D01*
X116647Y66839D01*
X116725Y66896D01*
X115311Y65482D01*
X115367Y65560D01*
X115396Y65652D01*
Y65758D01*
X115367Y65878D01*
X115311Y66012D01*
X115226Y66161D01*
X115113Y66323D01*
X114971Y66500D01*
X114604Y66896D01*
X115311Y67603D01*
X115516Y67405D01*
D02*
G37*
G36*
X139083Y64031D02*
X139073Y64126D01*
X139043Y64211D01*
X138993Y64286D01*
X138923Y64351D01*
X138833Y64406D01*
X138723Y64451D01*
X138593Y64486D01*
X138443Y64511D01*
X138273Y64526D01*
X138083Y64531D01*
Y65531D01*
X138273Y65536D01*
X138443Y65551D01*
X138593Y65576D01*
X138723Y65611D01*
X138833Y65656D01*
X138923Y65711D01*
X138993Y65776D01*
X139043Y65851D01*
X139073Y65936D01*
X139083Y66031D01*
Y64031D01*
D02*
G37*
G36*
X134702Y65936D02*
X134732Y65851D01*
X134783Y65776D01*
X134854Y65711D01*
X134945Y65656D01*
X135056Y65611D01*
X135188Y65576D01*
X135340Y65551D01*
X135512Y65536D01*
X135704Y65531D01*
Y64531D01*
X135512Y64526D01*
X135340Y64511D01*
X135188Y64486D01*
X135056Y64451D01*
X134945Y64406D01*
X134854Y64351D01*
X134783Y64286D01*
X134732Y64211D01*
X134702Y64126D01*
X134692Y64031D01*
Y66031D01*
X134702Y65936D01*
D02*
G37*
G36*
X130870Y64031D02*
X130860Y64126D01*
X130830Y64211D01*
X130780Y64286D01*
X130710Y64351D01*
X130620Y64406D01*
X130510Y64451D01*
X130380Y64486D01*
X130230Y64511D01*
X130060Y64526D01*
X129870Y64531D01*
Y65531D01*
X130060Y65536D01*
X130230Y65551D01*
X130380Y65576D01*
X130510Y65611D01*
X130620Y65656D01*
X130710Y65711D01*
X130780Y65776D01*
X130830Y65851D01*
X130860Y65936D01*
X130870Y66031D01*
Y64031D01*
D02*
G37*
G36*
X126489Y65936D02*
X126519Y65851D01*
X126570Y65776D01*
X126641Y65711D01*
X126732Y65656D01*
X126843Y65611D01*
X126975Y65576D01*
X127126Y65551D01*
X127298Y65536D01*
X127491Y65531D01*
Y64531D01*
X127298Y64526D01*
X127126Y64511D01*
X126975Y64486D01*
X126843Y64451D01*
X126732Y64406D01*
X126641Y64351D01*
X126570Y64286D01*
X126519Y64211D01*
X126489Y64126D01*
X126479Y64031D01*
Y66031D01*
X126489Y65936D01*
D02*
G37*
G36*
X146611Y63625D02*
X146535Y63696D01*
X146453Y63760D01*
X146366Y63816D01*
X146274Y63865D01*
X146176Y63906D01*
X146073Y63940D01*
X145965Y63966D01*
X145851Y63985D01*
X145732Y63996D01*
X145608Y64000D01*
Y65000D01*
X145732Y65004D01*
X145851Y65015D01*
X145965Y65034D01*
X146073Y65060D01*
X146176Y65094D01*
X146274Y65135D01*
X146366Y65184D01*
X146453Y65240D01*
X146535Y65304D01*
X146611Y65375D01*
Y63625D01*
D02*
G37*
G36*
X142915Y65405D02*
X142946Y65320D01*
X142996Y65245D01*
X143067Y65180D01*
X143158Y65125D01*
X143269Y65080D01*
X143401Y65045D01*
X143553Y65020D01*
X143725Y65005D01*
X143917Y65000D01*
Y64000D01*
X143725Y63995D01*
X143553Y63980D01*
X143401Y63955D01*
X143269Y63920D01*
X143158Y63875D01*
X143067Y63820D01*
X142996Y63755D01*
X142946Y63680D01*
X142915Y63595D01*
X142905Y63500D01*
Y65500D01*
X142915Y65405D01*
D02*
G37*
G36*
X87988Y53750D02*
X87883Y53747D01*
X87780Y53734D01*
X87679Y53712D01*
X87580Y53681D01*
X87481Y53642D01*
X87385Y53593D01*
X87290Y53535D01*
X87196Y53468D01*
X87104Y53391D01*
X87013Y53306D01*
X86306Y54013D01*
X86391Y54104D01*
X86468Y54196D01*
X86535Y54290D01*
X86593Y54385D01*
X86642Y54481D01*
X86681Y54580D01*
X86712Y54679D01*
X86734Y54781D01*
X86747Y54883D01*
X86750Y54988D01*
X87988Y53750D01*
D02*
G37*
G36*
X91323Y49810D02*
X91137Y49618D01*
X90848Y49273D01*
X90744Y49120D01*
X90667Y48981D01*
X90616Y48854D01*
X90593Y48740D01*
X90597Y48640D01*
X90627Y48552D01*
X90685Y48478D01*
X89252Y49847D01*
X89329Y49793D01*
X89420Y49765D01*
X89523Y49765D01*
X89640Y49792D01*
X89770Y49845D01*
X89913Y49926D01*
X90069Y50033D01*
X90238Y50168D01*
X90420Y50329D01*
X90615Y50517D01*
X91323Y49810D01*
D02*
G37*
G36*
X85005Y50499D02*
X85044Y50039D01*
X85079Y49852D01*
X85123Y49694D01*
X85177Y49564D01*
X85240Y49463D01*
X85314Y49391D01*
X85397Y49348D01*
X85491Y49334D01*
X83509D01*
X83603Y49348D01*
X83686Y49391D01*
X83760Y49463D01*
X83823Y49564D01*
X83877Y49694D01*
X83921Y49852D01*
X83956Y50039D01*
X83980Y50254D01*
X83995Y50499D01*
X84000Y50772D01*
X85000D01*
X85005Y50499D01*
D02*
G37*
G36*
X72323Y49062D02*
X72198Y48923D01*
X72099Y48783D01*
X72027Y48641D01*
X71981Y48498D01*
X71961Y48354D01*
X71969Y48209D01*
X72002Y48063D01*
X72062Y47915D01*
X72149Y47766D01*
X72261Y47616D01*
X69638Y48885D01*
X69849Y48888D01*
X70058Y48911D01*
X70263Y48952D01*
X70465Y49013D01*
X70665Y49092D01*
X70861Y49189D01*
X71054Y49306D01*
X71245Y49442D01*
X71432Y49596D01*
X71616Y49769D01*
X72323Y49062D01*
D02*
G37*
G36*
X103053Y44679D02*
X102977Y44750D01*
X102895Y44814D01*
X102809Y44870D01*
X102716Y44919D01*
X102619Y44960D01*
X102516Y44994D01*
X102407Y45020D01*
X102294Y45039D01*
X102175Y45050D01*
X102050Y45054D01*
Y46054D01*
X102175Y46058D01*
X102294Y46069D01*
X102407Y46088D01*
X102516Y46114D01*
X102619Y46148D01*
X102716Y46189D01*
X102809Y46238D01*
X102895Y46294D01*
X102977Y46358D01*
X103053Y46429D01*
Y44679D01*
D02*
G37*
G36*
X100695Y46459D02*
X100725Y46374D01*
X100776Y46299D01*
X100847Y46234D01*
X100938Y46179D01*
X101049Y46134D01*
X101181Y46099D01*
X101333Y46074D01*
X101505Y46059D01*
X101697Y46054D01*
Y45054D01*
X101505Y45049D01*
X101333Y45034D01*
X101181Y45009D01*
X101049Y44974D01*
X100938Y44929D01*
X100847Y44874D01*
X100776Y44809D01*
X100725Y44734D01*
X100695Y44649D01*
X100685Y44554D01*
Y46554D01*
X100695Y46459D01*
D02*
G37*
G36*
X98315Y44554D02*
X98305Y44649D01*
X98274Y44734D01*
X98224Y44809D01*
X98153Y44874D01*
X98062Y44929D01*
X97951Y44974D01*
X97819Y45009D01*
X97667Y45034D01*
X97495Y45049D01*
X97303Y45054D01*
Y46054D01*
X97495Y46059D01*
X97667Y46074D01*
X97819Y46099D01*
X97951Y46134D01*
X98062Y46179D01*
X98153Y46234D01*
X98224Y46299D01*
X98274Y46374D01*
X98305Y46459D01*
X98315Y46554D01*
Y44554D01*
D02*
G37*
G36*
X95695Y46459D02*
X95726Y46374D01*
X95776Y46299D01*
X95847Y46234D01*
X95938Y46179D01*
X96049Y46134D01*
X96181Y46099D01*
X96333Y46074D01*
X96505Y46059D01*
X96697Y46054D01*
Y45054D01*
X96505Y45049D01*
X96333Y45034D01*
X96181Y45009D01*
X96049Y44974D01*
X95938Y44929D01*
X95847Y44874D01*
X95776Y44809D01*
X95726Y44734D01*
X95695Y44649D01*
X95685Y44554D01*
Y46554D01*
X95695Y46459D01*
D02*
G37*
G36*
X15368Y47447D02*
X16082Y46813D01*
X16415Y46555D01*
X16734Y46338D01*
X17036Y46159D01*
X17323Y46021D01*
X17594Y45922D01*
X17850Y45862D01*
X18090Y45842D01*
Y44842D01*
X17850Y44823D01*
X17594Y44763D01*
X17323Y44664D01*
X17036Y44526D01*
X16734Y44347D01*
X16415Y44130D01*
X16082Y43872D01*
X15368Y43238D01*
X14987Y42862D01*
Y47823D01*
X15368Y47447D01*
D02*
G37*
G36*
X177154Y40382D02*
X177090Y40300D01*
X177034Y40213D01*
X176985Y40121D01*
X176944Y40023D01*
X176910Y39920D01*
X176884Y39812D01*
X176865Y39698D01*
X176854Y39579D01*
X176850Y39455D01*
X175850D01*
X175847Y39579D01*
X175835Y39698D01*
X175817Y39812D01*
X175790Y39920D01*
X175757Y40023D01*
X175715Y40121D01*
X175667Y40213D01*
X175610Y40300D01*
X175547Y40382D01*
X175475Y40458D01*
X177225D01*
X177154Y40382D01*
D02*
G37*
G36*
X110304Y39531D02*
X110240Y39450D01*
X110184Y39363D01*
X110135Y39270D01*
X110094Y39173D01*
X110060Y39070D01*
X110034Y38961D01*
X110015Y38848D01*
X110004Y38729D01*
X110000Y38604D01*
X109000D01*
X108996Y38729D01*
X108985Y38848D01*
X108966Y38961D01*
X108940Y39070D01*
X108906Y39173D01*
X108865Y39270D01*
X108816Y39363D01*
X108760Y39450D01*
X108696Y39531D01*
X108625Y39607D01*
X110375D01*
X110304Y39531D01*
D02*
G37*
G36*
X176855Y36823D02*
X176870Y36651D01*
X176895Y36499D01*
X176930Y36368D01*
X176975Y36257D01*
X177030Y36165D01*
X177095Y36095D01*
X177170Y36044D01*
X177255Y36014D01*
X177350Y36004D01*
X175350D01*
X175445Y36014D01*
X175530Y36044D01*
X175605Y36095D01*
X175670Y36165D01*
X175725Y36257D01*
X175770Y36368D01*
X175805Y36499D01*
X175830Y36651D01*
X175845Y36823D01*
X175850Y37016D01*
X176850D01*
X176855Y36823D01*
D02*
G37*
G36*
X110005D02*
X110020Y36651D01*
X110045Y36499D01*
X110080Y36368D01*
X110125Y36257D01*
X110180Y36165D01*
X110245Y36095D01*
X110320Y36044D01*
X110405Y36014D01*
X110500Y36004D01*
X108500D01*
X108595Y36014D01*
X108680Y36044D01*
X108755Y36095D01*
X108820Y36165D01*
X108875Y36257D01*
X108920Y36368D01*
X108955Y36499D01*
X108980Y36651D01*
X108995Y36823D01*
X109000Y37016D01*
X110000D01*
X110005Y36823D01*
D02*
G37*
G36*
X72365Y37699D02*
X72658Y37447D01*
X72953Y37225D01*
X73249Y37033D01*
X73548Y36870D01*
X73848Y36737D01*
X74151Y36633D01*
X74455Y36559D01*
X74761Y36515D01*
X75068Y36500D01*
Y34500D01*
X74761Y34485D01*
X74455Y34441D01*
X74151Y34367D01*
X73848Y34263D01*
X73548Y34130D01*
X73249Y33967D01*
X72953Y33775D01*
X72658Y33553D01*
X72365Y33301D01*
X72074Y33020D01*
Y37980D01*
X72365Y37699D01*
D02*
G37*
G36*
X83493Y32431D02*
X84228Y31808D01*
X84554Y31582D01*
X84851Y31412D01*
X85119Y31299D01*
X85360Y31243D01*
X85572D01*
X85756Y31299D01*
X85911Y31412D01*
X83083Y28584D01*
X83196Y28740D01*
X83253Y28923D01*
Y29136D01*
X83196Y29376D01*
X83083Y29645D01*
X82913Y29942D01*
X82687Y30267D01*
X82404Y30621D01*
X81669Y31412D01*
X83083Y32827D01*
X83493Y32431D01*
D02*
G37*
G36*
X94437Y31257D02*
X94497Y31118D01*
X94597Y30995D01*
X94737Y30888D01*
X94917Y30798D01*
X95137Y30725D01*
X95397Y30667D01*
X95697Y30626D01*
X96037Y30602D01*
X96417Y30594D01*
Y28594D01*
X96037Y28585D01*
X95397Y28520D01*
X95137Y28463D01*
X94917Y28389D01*
X94737Y28299D01*
X94597Y28192D01*
X94497Y28070D01*
X94437Y27931D01*
X94417Y27775D01*
Y31412D01*
X94437Y31257D01*
D02*
G37*
G36*
X66097Y29839D02*
X66320Y29700D01*
X66582Y29578D01*
X66883Y29473D01*
X67223Y29385D01*
X67602Y29314D01*
X68020Y29260D01*
X68973Y29204D01*
X69508Y29201D01*
X66000Y25693D01*
X65997Y26228D01*
X65940Y27181D01*
X65886Y27599D01*
X65816Y27978D01*
X65728Y28318D01*
X65623Y28619D01*
X65501Y28881D01*
X65362Y29104D01*
X65206Y29288D01*
X65913Y29995D01*
X66097Y29839D01*
D02*
G37*
G36*
X73025Y24949D02*
X73033Y24853D01*
X73057Y24751D01*
X73097Y24644D01*
X73153Y24531D01*
X73225Y24413D01*
X73312Y24289D01*
X73416Y24160D01*
X73671Y23884D01*
X72964Y23177D01*
X72872Y23263D01*
X72783Y23332D01*
X72698Y23385D01*
X72615Y23423D01*
X72537Y23443D01*
X72461Y23448D01*
X72389Y23437D01*
X72321Y23409D01*
X72255Y23365D01*
X72193Y23305D01*
X73032Y25040D01*
X73025Y24949D01*
D02*
G37*
G36*
X90595Y22531D02*
X90585Y22626D01*
X90554Y22711D01*
X90504Y22786D01*
X90433Y22851D01*
X90342Y22906D01*
X90231Y22951D01*
X90099Y22986D01*
X89947Y23011D01*
X89775Y23026D01*
X89583Y23031D01*
Y24031D01*
X89775Y24036D01*
X89947Y24051D01*
X90099Y24076D01*
X90231Y24111D01*
X90342Y24156D01*
X90433Y24211D01*
X90504Y24276D01*
X90554Y24351D01*
X90585Y24436D01*
X90595Y24531D01*
Y22531D01*
D02*
G37*
G36*
X86915Y24436D02*
X86946Y24351D01*
X86996Y24276D01*
X87067Y24211D01*
X87158Y24156D01*
X87269Y24111D01*
X87401Y24076D01*
X87553Y24051D01*
X87725Y24036D01*
X87917Y24031D01*
Y23031D01*
X87725Y23026D01*
X87553Y23011D01*
X87401Y22986D01*
X87269Y22951D01*
X87158Y22906D01*
X87067Y22851D01*
X86996Y22786D01*
X86946Y22711D01*
X86915Y22626D01*
X86905Y22531D01*
Y24531D01*
X86915Y24436D01*
D02*
G37*
G36*
X83083Y22531D02*
X83073Y22626D01*
X83043Y22711D01*
X82993Y22786D01*
X82923Y22851D01*
X82833Y22906D01*
X82723Y22951D01*
X82593Y22986D01*
X82443Y23011D01*
X82273Y23026D01*
X82083Y23031D01*
Y24031D01*
X82273Y24036D01*
X82443Y24051D01*
X82593Y24076D01*
X82723Y24111D01*
X82833Y24156D01*
X82923Y24211D01*
X82993Y24276D01*
X83043Y24351D01*
X83073Y24436D01*
X83083Y24531D01*
Y22531D01*
D02*
G37*
G36*
X16003Y25087D02*
X16060Y24134D01*
X16114Y23716D01*
X16184Y23337D01*
X16272Y22997D01*
X16377Y22696D01*
X16499Y22434D01*
X16638Y22211D01*
X16794Y22027D01*
X16087Y21320D01*
X15903Y21476D01*
X15680Y21615D01*
X15418Y21737D01*
X15117Y21842D01*
X14777Y21930D01*
X14398Y22001D01*
X13980Y22054D01*
X13027Y22111D01*
X12492Y22114D01*
X16000Y25622D01*
X16003Y25087D01*
D02*
G37*
G36*
X84130Y15000D02*
X84120Y15095D01*
X84090Y15180D01*
X84039Y15255D01*
X83968Y15320D01*
X83877Y15375D01*
X83766Y15420D01*
X83634Y15455D01*
X83483Y15480D01*
X83311Y15495D01*
X83118Y15500D01*
Y16500D01*
X83311Y16505D01*
X83483Y16520D01*
X83634Y16545D01*
X83766Y16580D01*
X83877Y16625D01*
X83968Y16680D01*
X84039Y16745D01*
X84090Y16820D01*
X84120Y16905D01*
X84130Y17000D01*
Y15000D01*
D02*
G37*
G36*
X93839Y17743D02*
X93899Y17587D01*
X93999Y17449D01*
X94139Y17330D01*
X94319Y17229D01*
X94539Y17147D01*
X94799Y17083D01*
X95099Y17037D01*
X95439Y17009D01*
X95819Y17000D01*
Y15000D01*
X95439Y14991D01*
X95099Y14963D01*
X94799Y14918D01*
X94539Y14853D01*
X94319Y14771D01*
X94139Y14670D01*
X93999Y14551D01*
X93899Y14413D01*
X93839Y14257D01*
X93819Y14083D01*
Y17917D01*
X93839Y17743D01*
D02*
G37*
%LPC*%
G36*
X11596Y156405D02*
X11082D01*
X11202Y156353D01*
X11322Y156324D01*
X11428Y156323D01*
X11519Y156350D01*
X11596Y156405D01*
D02*
G37*
%LPD*%
D11*
X141000Y130586D02*
G03*
X140707Y131293I-1000J0D01*
G01*
X140707Y100607D02*
G03*
X141000Y101314I-707J707D01*
G01*
X39186Y127814D02*
G03*
X38479Y128106I-707J-707D01*
G01*
X38983Y125754D02*
G03*
X38276Y126047I-707J-707D01*
G01*
X56835Y102665D02*
G03*
X57534Y102375I704J711D01*
G01*
X56523Y100714D02*
G03*
X57222Y100425I703J711D01*
G01*
X104386Y126386D02*
G03*
X104097Y125687I711J-704D01*
G01*
X112709Y134709D02*
G03*
X113000Y135410I-709J705D01*
G01*
X100847Y114834D02*
G03*
X101179Y115166I-990J1322D01*
G01*
X99771Y114185D02*
G03*
X100476Y114476I0J1000D01*
G01*
X100847Y114834D02*
G03*
X100747Y114747I604J-797D01*
G01*
X101265Y115265D02*
G03*
X101179Y115166I711J-704D01*
G01*
X102207Y116207D02*
G03*
X102497Y116911I-711J704D01*
G01*
X51200Y66200D02*
Y70169D01*
X52531Y71500D01*
X65906Y64594D02*
Y71500D01*
X141531Y64500D02*
X147504D01*
X141000Y65031D02*
X141531Y64500D01*
X141500Y87000D02*
X149030D01*
X141000Y86500D02*
X141500Y87000D01*
X99500Y45554D02*
X103946D01*
X94500D02*
X99500D01*
X37500Y104327D02*
Y110937D01*
X101146Y164646D02*
Y168858D01*
X117098Y128469D02*
X125129Y136500D01*
X135500D01*
X102805Y106305D02*
X106000Y109500D01*
X98637Y106305D02*
X102805D01*
X108500Y123969D02*
X108598D01*
X113098Y128469D01*
X117000D01*
X117000Y115781D02*
X117000Y115781D01*
Y122406D01*
X117000Y103094D02*
Y109719D01*
Y103094D02*
X117000Y103094D01*
X127668D01*
X130968Y106394D02*
X131500D01*
X127668Y103094D02*
X130968Y106394D01*
X117000Y122406D02*
X117098D01*
X120298Y125606D02*
X131500D01*
X117098Y122406D02*
X120298Y125606D01*
X135800Y95700D02*
X140707Y100607D01*
X141000Y101314D02*
X141000Y130586D01*
X135500Y136500D02*
X140707Y131293D01*
X117000Y128469D02*
X117098D01*
X118331Y95700D02*
X135800D01*
X117000Y97031D02*
X118331Y95700D01*
X106865Y93131D02*
X113402Y86594D01*
X106865Y93131D02*
Y93229D01*
X113402Y86594D02*
X113500D01*
X101658Y98435D02*
X106865Y93229D01*
X98637Y98435D02*
X101658D01*
X113500Y86594D02*
X121500D01*
X121500Y86594D01*
X113500Y75547D02*
Y80531D01*
X122210Y79821D02*
X130837D01*
X121500Y80531D02*
X122210Y79821D01*
X130837Y86513D02*
X140987D01*
X141000Y86500D01*
X116999Y70844D02*
X124324D01*
X124574Y71094D01*
X141000D02*
Y79807D01*
X132787Y71094D02*
X141000D01*
X124574D02*
X132787D01*
X132787Y65031D02*
X141000D01*
X124574D02*
X132787D01*
X176350Y31500D02*
Y41350D01*
X109500Y35358D02*
Y40500D01*
Y35358D02*
X113358Y31500D01*
X109000Y79000D02*
Y85352D01*
X98637Y94495D02*
X99857D01*
X109000Y85352D01*
X69000Y75500D02*
Y75902D01*
X66000Y78902D02*
Y79000D01*
Y78902D02*
X69000Y75902D01*
X66995Y90000D02*
X67000D01*
X63594Y93402D02*
Y93500D01*
Y93402D02*
X66995Y90000D01*
X116874Y65333D02*
X116999D01*
X104094Y78113D02*
X116874Y65333D01*
X104094Y78113D02*
Y78474D01*
Y84500D01*
X97937Y90755D02*
X104094Y84598D01*
X95886Y90802D02*
Y91745D01*
Y90802D02*
X95933Y90755D01*
X97937D01*
X104094Y84500D02*
Y84598D01*
X93916Y88907D02*
Y91745D01*
Y88907D02*
X96700Y86123D01*
Y85831D02*
Y86123D01*
Y85831D02*
X98031Y84500D01*
X12000Y154598D02*
Y161500D01*
Y154500D02*
Y154598D01*
X81726Y122670D02*
Y125500D01*
Y122670D02*
X82106Y122290D01*
X80126Y118915D02*
Y123777D01*
X82106Y118905D02*
Y122290D01*
X79376Y124527D02*
X80126Y123777D01*
Y118915D02*
X80136Y118905D01*
X84076D02*
Y126494D01*
X79376Y124527D02*
Y128931D01*
X76457Y131850D02*
X79376Y128931D01*
X49429Y155929D02*
X52944Y159444D01*
X49331Y155929D02*
X49429D01*
X52944Y159444D02*
Y163175D01*
X48000Y154598D02*
X49331Y155929D01*
X48000Y154500D02*
Y154598D01*
X52944Y163175D02*
Y193883D01*
X35227Y163175D02*
Y193883D01*
X24859Y163175D02*
Y193883D01*
X7142Y163175D02*
Y193883D01*
X8955Y157644D02*
X12000Y154598D01*
X8856Y157644D02*
X8955D01*
X7142Y159358D02*
X8856Y157644D01*
X7142Y159358D02*
Y163175D01*
X24859Y162387D02*
Y163175D01*
X19958Y154500D02*
Y157929D01*
X22948Y160919D01*
X23390D01*
X24859Y162387D01*
X26021Y154500D02*
Y158521D01*
X38613Y155929D02*
X38711D01*
X40042Y154500D02*
Y154598D01*
X35227Y159315D02*
Y163175D01*
Y159315D02*
X38613Y155929D01*
X38711D02*
X40042Y154598D01*
Y150364D02*
X41000Y149406D01*
X40042Y150364D02*
Y154500D01*
X41000Y149000D02*
Y149406D01*
X59915Y114585D02*
X60116Y114786D01*
X61714D01*
X62107Y112393D02*
X63899Y114185D01*
X64500Y111598D02*
Y112000D01*
X62800Y108702D02*
Y109108D01*
X64457Y110765D02*
Y111555D01*
X64500Y111598D01*
X62800Y109108D02*
X64457Y110765D01*
X64715Y112215D02*
X71477D01*
X67500Y108696D02*
X69572Y106624D01*
X64500Y112000D02*
X64715Y112215D01*
X67500Y108696D02*
Y109500D01*
X63899Y114185D02*
X71477D01*
X90666Y87500D02*
X92000D01*
X82381Y80271D02*
X87229D01*
X84357Y83471D02*
X90866D01*
X88325Y89841D02*
X90666Y87500D01*
X86056Y90032D02*
Y91726D01*
Y90032D02*
X86725Y89363D01*
X85462Y86057D02*
X86448Y85071D01*
X89215Y81871D02*
X94500Y76587D01*
X87229Y80271D02*
X87945Y79555D01*
X87134Y87708D02*
X87421Y87421D01*
X83384Y86057D02*
X85462D01*
X86725Y89178D02*
X87134Y88769D01*
Y87708D02*
Y88769D01*
X86036Y91745D02*
X86056Y91726D01*
X88006Y90497D02*
X88325Y90178D01*
X86725Y89178D02*
Y89363D01*
X83694Y81871D02*
X89215D01*
X90866Y83471D02*
X96799Y77539D01*
X88006Y90497D02*
Y91745D01*
X91529Y85071D02*
X98399Y78202D01*
X76566Y86087D02*
X82381Y80271D01*
X86448Y85071D02*
X91529D01*
X88325Y89841D02*
Y90178D01*
X83065Y82500D02*
X83694Y81871D01*
X83371Y84457D02*
X84357Y83471D01*
X84096Y88669D02*
Y91726D01*
X82086D02*
X82106Y91745D01*
X82722Y84457D02*
X83371D01*
X80136Y87042D02*
X82722Y84457D01*
X78166Y86749D02*
X82415Y82500D01*
X76566Y86087D02*
Y89104D01*
X78166Y86749D02*
Y91745D01*
X82086Y89459D02*
Y91726D01*
X84096Y88669D02*
X84358Y88407D01*
X82008Y89380D02*
X82086Y89459D01*
X80136Y87042D02*
Y91745D01*
X82008Y87433D02*
X83384Y86057D01*
X82415Y82500D02*
X83065D01*
X82008Y87433D02*
Y89380D01*
X89500Y73446D02*
Y76965D01*
X87945Y78520D02*
X89500Y76965D01*
X87945Y78520D02*
Y79555D01*
X84500Y51500D02*
X88000Y55000D01*
X84500Y45554D02*
Y51500D01*
X79289Y73446D02*
X84500D01*
X94500D02*
Y76587D01*
X98399Y78066D02*
Y78202D01*
Y78066D02*
X99500Y76965D01*
Y74500D02*
Y76965D01*
X96799Y55994D02*
Y77539D01*
X89500Y48695D02*
X96799Y55994D01*
X89500Y45554D02*
Y48695D01*
X76214Y89455D02*
Y91727D01*
X76196Y91745D02*
X76214Y91727D01*
X74000Y87500D02*
Y89157D01*
X74614Y89771D01*
X76214Y89455D02*
X76566Y89104D01*
X72193Y85713D02*
X74406Y83500D01*
X69787Y85713D02*
X72193D01*
X74406Y83500D02*
X75500D01*
X69500Y86000D02*
X69787Y85713D01*
X84076Y91745D02*
X84096Y91726D01*
X74545Y89841D02*
Y91000D01*
Y89841D02*
X74614Y89771D01*
X57430Y85201D02*
X58500Y84131D01*
Y79000D02*
Y84131D01*
X60530Y85384D02*
X62976Y82938D01*
X60530Y85384D02*
Y85607D01*
X57430Y85201D02*
Y85607D01*
X55000Y107500D02*
Y111000D01*
Y107500D02*
X58155Y104345D01*
X71477D01*
X39186Y127814D02*
X48750Y118250D01*
X31152Y128106D02*
X38479D01*
X38983Y125754D02*
X46815Y117922D01*
X28030Y126047D02*
X38276D01*
X46815Y110423D02*
X56523Y100714D01*
X46815Y110423D02*
Y117922D01*
X48750Y110750D02*
X56835Y102665D01*
X28030Y128016D02*
X31484D01*
X48750Y110750D02*
Y118250D01*
X57222Y100425D02*
X71457D01*
X57534Y102375D02*
X71477D01*
X245000Y147000D02*
X250563D01*
X251000Y147437D01*
X70228Y106305D02*
X71477D01*
X69910Y106624D02*
X70228Y106305D01*
X69572Y106624D02*
X69910D01*
X64589Y94495D02*
X71477D01*
X63594Y93500D02*
X64589Y94495D01*
X19000Y74500D02*
X43129Y98629D01*
X66944Y98435D02*
X71477D01*
X43129Y98629D02*
X66750D01*
X66944Y98435D01*
X71457Y100425D02*
X71477Y100405D01*
X57263Y66940D02*
Y70169D01*
X12457Y45342D02*
X35666D01*
X57263Y66940D01*
Y70169D02*
X58594Y71500D01*
X22114Y16000D02*
X85937D01*
X12457Y25657D02*
X22114Y16000D01*
X71190Y25657D02*
X73317Y23531D01*
X69543Y25657D02*
X71190D01*
X73317Y23531D02*
X85000D01*
X92500D01*
X71969Y49416D02*
Y71500D01*
X69543Y46990D02*
X71969Y49416D01*
X69543Y45342D02*
Y46990D01*
X72063Y71594D02*
Y79000D01*
X71969Y71500D02*
X72063Y71594D01*
X65841Y85320D02*
X72063Y79098D01*
X63917Y85320D02*
X65841D01*
X63630Y85607D02*
X63917Y85320D01*
X72063Y79000D02*
Y79098D01*
X62976Y32225D02*
Y82938D01*
Y32225D02*
X69543Y25657D01*
X58500Y79000D02*
X58594Y78906D01*
Y71500D02*
Y78906D01*
X61714Y114786D02*
X63083Y116155D01*
X71477D01*
X27939Y129894D02*
X28030Y129984D01*
X27939Y126138D02*
X28030Y126047D01*
X24075Y129062D02*
X24907Y129894D01*
X27939D01*
X24075Y126970D02*
Y129062D01*
X24907Y126138D02*
X27939D01*
X24075Y126970D02*
X24907Y126138D01*
X31984Y128938D02*
Y131031D01*
X31152Y128106D02*
X31984Y128938D01*
X30571Y131675D02*
X31339D01*
X31984Y131031D01*
X28030Y131953D02*
X30293D01*
X30571Y131675D01*
X24720Y133644D02*
X28000D01*
X28027Y133671D01*
X27939Y122201D02*
X28030Y122110D01*
X24907Y122201D02*
X27939D01*
X22475Y124633D02*
X24907Y122201D01*
X22475Y124633D02*
Y131399D01*
X24720Y133644D01*
X28027Y133671D02*
Y133921D01*
X251740Y154240D02*
X258563D01*
X251000Y153500D02*
X251740Y154240D01*
X268397Y149610D02*
Y149622D01*
X266437Y150500D02*
X267519D01*
X270571Y147437D02*
X274000D01*
X268397Y149610D02*
X270571Y147437D01*
X267519Y150500D02*
X268397Y149622D01*
X273902Y153500D02*
X274000D01*
X262000Y165000D02*
X262402D01*
X273902Y153500D01*
X146000Y161000D02*
X157142D01*
X158142Y160000D01*
X163500D01*
X166929Y153937D02*
X169725Y156732D01*
X163500Y153937D02*
X166929D01*
X169725Y156732D02*
Y157816D01*
X170408Y158500D01*
X172439D01*
X158000Y156000D02*
X160063Y153937D01*
X163500D01*
X153500Y156000D02*
X158000D01*
X139500Y158094D02*
Y165000D01*
X138071Y156763D02*
X139402Y158094D01*
X131854Y151142D02*
X132642D01*
X138071Y156571D01*
Y156763D01*
X139402Y158094D02*
X139500D01*
X101146Y151142D02*
X131854D01*
X100500Y147000D02*
Y150496D01*
X101146Y151142D01*
X115571Y114162D02*
Y114451D01*
X116902Y115781D01*
X117000D01*
X98637Y104345D02*
X105754D01*
X115571Y114162D01*
X109558Y102375D02*
X116902Y109719D01*
X117000D01*
X98637Y102375D02*
X109558D01*
X86148Y181648D02*
X93916Y173880D01*
X83956Y179456D02*
X91946Y171466D01*
X81170Y176670D02*
X88006Y169834D01*
X78978Y174478D02*
X86036Y167420D01*
X76786Y172286D02*
X77790D01*
X84076Y166000D01*
X74000Y169500D02*
X76636D01*
X80136Y166000D01*
Y148829D02*
Y166000D01*
X84076Y148244D02*
Y166000D01*
X82857Y134501D02*
X91946Y125412D01*
Y118905D02*
Y125412D01*
Y147063D02*
Y171466D01*
X88026Y143143D02*
X91946Y147063D01*
X83501Y143143D02*
X88026D01*
X81257Y133838D02*
X88006Y127089D01*
Y118905D02*
Y127089D01*
X86036Y147941D02*
Y167420D01*
X84438Y146343D02*
X86036Y147941D01*
X82176Y146343D02*
X84438D01*
X79657Y133176D02*
X86036Y126796D01*
Y118905D02*
Y126796D01*
X78057Y132513D02*
X84076Y126494D01*
X76457Y145150D02*
X80136Y148829D01*
X76457Y131850D02*
Y145150D01*
X83776Y147943D02*
X84076Y148244D01*
X81513Y147943D02*
X83776D01*
X78057Y144487D02*
X81513Y147943D01*
X78057Y132513D02*
Y144487D01*
X79657Y143824D02*
X82176Y146343D01*
X79657Y133176D02*
Y143824D01*
X87364Y144743D02*
X88006Y145386D01*
X82838Y144743D02*
X87364D01*
X81257Y143162D02*
X82838Y144743D01*
X81257Y133838D02*
Y143162D01*
X82857Y142499D02*
X83501Y143143D01*
X82857Y134501D02*
Y142499D01*
X93916Y141483D02*
Y173880D01*
X92857Y140423D02*
X93916Y141483D01*
X92857Y136577D02*
Y140423D01*
Y136577D02*
X93916Y135517D01*
Y118905D02*
Y135517D01*
X88006Y145386D02*
Y169834D01*
X107000Y138000D02*
X107500D01*
X98637Y116155D02*
X99453D01*
X99500Y116203D01*
Y130500D01*
X107000Y138000D01*
X107500D02*
Y138500D01*
X104386Y126386D02*
X112709Y134709D01*
X113000Y135410D02*
X113000Y135414D01*
X104097Y115797D02*
Y125687D01*
X113000Y135414D02*
Y139000D01*
X101265Y115265D02*
X102207Y116207D01*
X98637Y114185D02*
X99771D01*
X100476Y114476D02*
X100747Y114747D01*
X102497Y116911D02*
Y127820D01*
X105838Y131162D01*
X211000Y155693D02*
Y161937D01*
X216287Y155693D02*
X217094Y156500D01*
X211000Y155693D02*
X216287D01*
X217094Y156500D02*
X217500D01*
X100535Y112235D02*
X104097Y115797D01*
X98656Y112235D02*
X100535D01*
X98637Y112215D02*
X98656Y112235D01*
X168551Y173563D02*
X171807Y176819D01*
X163500Y173563D02*
X168551D01*
X171807Y176819D02*
Y178000D01*
X166000D02*
X171807D01*
X163000Y181000D02*
X166000Y178000D01*
X93916Y91745D02*
Y96465D01*
X85056Y105325D02*
X88006Y108275D01*
X98637D01*
X76196Y114185D02*
Y118905D01*
Y114185D02*
X85056Y105325D01*
D21*
X104094Y84500D02*
D03*
X98031D02*
D03*
X85937Y16000D02*
D03*
X92000D02*
D03*
X48000Y154500D02*
D03*
X54063D02*
D03*
X33979D02*
D03*
X40042D02*
D03*
X63594Y93500D02*
D03*
X57531D02*
D03*
X160007Y241175D02*
D03*
X153944D02*
D03*
X160007Y248675D02*
D03*
X153944D02*
D03*
X201381Y229175D02*
D03*
X207444D02*
D03*
X156007Y229675D02*
D03*
X149944Y229675D02*
D03*
X167344Y241175D02*
D03*
X173407D02*
D03*
X167424Y248679D02*
D03*
X173487Y248679D02*
D03*
X19958Y154500D02*
D03*
X26021D02*
D03*
X5937D02*
D03*
X12000D02*
D03*
X65906Y71500D02*
D03*
X71969D02*
D03*
X52437Y79000D02*
D03*
X58500Y79000D02*
D03*
X58594Y71500D02*
D03*
X52531D02*
D03*
X72063Y79000D02*
D03*
X66000D02*
D03*
D22*
X85056Y105325D02*
D03*
D23*
X35227Y163175D02*
D03*
Y193883D02*
D03*
X52944Y163175D02*
D03*
Y193883D02*
D03*
X7142Y163175D02*
D03*
Y193883D02*
D03*
X24859Y163175D02*
D03*
Y193883D02*
D03*
D24*
X44086Y193096D02*
D03*
X16000D02*
D03*
D25*
X113358Y31500D02*
D03*
D26*
X176350D02*
D03*
D27*
X211000Y168000D02*
D03*
Y161937D02*
D03*
X132787Y71094D02*
D03*
X132787Y65031D02*
D03*
X141000Y71094D02*
D03*
X141000Y65031D02*
D03*
X139500Y165000D02*
D03*
Y171063D02*
D03*
X108500Y117906D02*
D03*
Y123969D02*
D03*
X139500Y158094D02*
D03*
X139500Y152031D02*
D03*
X73056Y133888D02*
D03*
Y127825D02*
D03*
X121500Y80531D02*
D03*
Y86594D02*
D03*
X117000Y109719D02*
D03*
Y115781D02*
D03*
X65500Y133594D02*
D03*
Y127531D02*
D03*
X113500Y86594D02*
D03*
Y80531D02*
D03*
X124574Y71094D02*
D03*
Y65031D02*
D03*
X117000Y122406D02*
D03*
Y128469D02*
D03*
Y103094D02*
D03*
Y97031D02*
D03*
X200444Y215581D02*
D03*
Y221644D02*
D03*
X208444Y215581D02*
D03*
Y221644D02*
D03*
X149444Y222268D02*
D03*
Y216205D02*
D03*
X156944Y222238D02*
D03*
Y216175D02*
D03*
X182613Y190581D02*
D03*
Y196644D02*
D03*
X190502Y190581D02*
D03*
Y196644D02*
D03*
X174725Y190581D02*
D03*
Y196644D02*
D03*
X158948Y190581D02*
D03*
Y196644D02*
D03*
X166836Y190581D02*
D03*
Y196644D02*
D03*
X198390Y196768D02*
D03*
Y190705D02*
D03*
X206056Y203232D02*
D03*
Y209295D02*
D03*
X206279Y196768D02*
D03*
Y190705D02*
D03*
X213945Y203232D02*
D03*
X213945Y209295D02*
D03*
X214167Y196768D02*
D03*
Y190705D02*
D03*
X163500Y167500D02*
D03*
Y173563D02*
D03*
Y153937D02*
D03*
Y160000D02*
D03*
X37500Y110937D02*
D03*
Y117000D02*
D03*
X204000Y161937D02*
D03*
Y168000D02*
D03*
Y148937D02*
D03*
Y155000D02*
D03*
X92500Y23531D02*
D03*
Y29594D02*
D03*
X85000Y29594D02*
D03*
Y23531D02*
D03*
X251000Y147437D02*
D03*
Y153500D02*
D03*
X274000Y147437D02*
D03*
X274000Y153500D02*
D03*
D28*
X116999Y65333D02*
D03*
Y70844D02*
D03*
D29*
X188499Y229868D02*
D03*
X179444D02*
D03*
X170389D02*
D03*
D30*
X179444Y206482D02*
D03*
D31*
X95886Y91745D02*
D03*
X93916D02*
D03*
X91946D02*
D03*
X89976D02*
D03*
X88006D02*
D03*
X86036D02*
D03*
X84076D02*
D03*
X82106D02*
D03*
X80136D02*
D03*
X78166D02*
D03*
X76196D02*
D03*
X74226Y91745D02*
D03*
X74226Y118905D02*
D03*
X76196D02*
D03*
X78166D02*
D03*
X80136D02*
D03*
X82106D02*
D03*
X84076D02*
D03*
X86036D02*
D03*
X88006D02*
D03*
X89976D02*
D03*
X91946D02*
D03*
X93916D02*
D03*
X95886D02*
D03*
D32*
X71477Y94495D02*
D03*
X71477Y96465D02*
D03*
Y98435D02*
D03*
Y100405D02*
D03*
X71477Y102375D02*
D03*
Y104345D02*
D03*
X71477Y106305D02*
D03*
X71477Y108275D02*
D03*
Y110245D02*
D03*
Y112215D02*
D03*
Y114185D02*
D03*
Y116155D02*
D03*
X98637Y116155D02*
D03*
X98637Y114185D02*
D03*
Y112215D02*
D03*
Y110245D02*
D03*
X98637Y108275D02*
D03*
Y106305D02*
D03*
X98637Y104345D02*
D03*
X98637Y102375D02*
D03*
Y100405D02*
D03*
Y98435D02*
D03*
Y96465D02*
D03*
Y94495D02*
D03*
D33*
X131854Y151142D02*
D03*
X101146D02*
D03*
X131854Y168858D02*
D03*
X101146D02*
D03*
D34*
X101933Y160000D02*
D03*
D35*
X130837Y79821D02*
D03*
X141000Y86500D02*
D03*
X130837Y86513D02*
D03*
X141000Y79807D02*
D03*
D36*
X171807Y178000D02*
D03*
X185193D02*
D03*
D37*
X193561Y153500D02*
D03*
Y158500D02*
D03*
Y163500D02*
D03*
Y168500D02*
D03*
X172439Y153500D02*
D03*
Y158500D02*
D03*
Y163500D02*
D03*
Y168500D02*
D03*
D38*
X28030Y116323D02*
D03*
Y119354D02*
D03*
Y138646D02*
D03*
Y141697D02*
D03*
D39*
Y122110D02*
D03*
Y124079D02*
D03*
Y126047D02*
D03*
Y128016D02*
D03*
Y129984D02*
D03*
Y131953D02*
D03*
X28027Y133921D02*
D03*
X28030Y135890D02*
D03*
D40*
X211000Y155693D02*
D03*
Y142307D02*
D03*
D41*
X251500Y235512D02*
D03*
X251500Y210000D02*
D03*
X233000Y210244D02*
D03*
Y235756D02*
D03*
X270500Y209744D02*
D03*
Y235256D02*
D03*
D42*
X41000Y60106D02*
D03*
Y10894D02*
D03*
D43*
X99500Y73446D02*
D03*
X94500D02*
D03*
X89500D02*
D03*
X84500D02*
D03*
X99500Y45554D02*
D03*
X94500D02*
D03*
X89500D02*
D03*
X84500D02*
D03*
D44*
X258563Y154240D02*
D03*
Y146760D02*
D03*
X266437Y150500D02*
D03*
D83*
X248379Y232390D02*
G03*
X247500Y230269I2121J-2121D01*
G01*
X247400Y221593D02*
G03*
X247500Y222353I-2900J768D01*
G01*
X234809Y210244D02*
G03*
X236927Y211120I-0J3000D01*
G01*
X276807Y232000D02*
X295000D01*
X270500Y235256D02*
X273551D01*
X276807Y232000D01*
X298500Y166500D02*
Y167500D01*
X295000Y232000D02*
X296575D01*
X302218Y226357D01*
Y208437D02*
Y226357D01*
X298500Y187500D02*
Y204719D01*
X302218Y208437D01*
X273551Y209744D02*
X275807Y212000D01*
X294961D01*
X270500Y209744D02*
X273551D01*
X248379Y232390D02*
X251500Y235512D01*
X247400Y221593D02*
X247400Y221593D01*
X247500Y222353D02*
Y230269D01*
X247400Y221593D02*
X294593D01*
X236927Y211120D02*
X247400Y221593D01*
X233000Y210244D02*
X234809D01*
X294593Y221593D02*
X295000Y222000D01*
X272000Y195000D02*
Y196106D01*
X270500Y197606D02*
Y209744D01*
Y197606D02*
X272000Y196106D01*
X251500Y210000D02*
X252000Y209500D01*
Y195000D02*
Y209500D01*
X222000Y218193D02*
X229949Y210244D01*
X233000D01*
X222000Y218193D02*
Y221348D01*
X209606Y233743D02*
X222000Y221348D01*
X161915Y281047D02*
X209219Y233743D01*
X209606D01*
X71444Y297982D02*
X144980D01*
X161915Y281047D01*
D84*
X190499Y230455D02*
G03*
X190998Y230518I0J2000D01*
G01*
X92500Y29594D02*
X99406D01*
X92000Y16000D02*
X97500D01*
X78995Y35500D02*
X84902Y29594D01*
X85000D01*
X69543Y35500D02*
X78995D01*
X5937Y154402D02*
X7970Y152368D01*
X5937Y154402D02*
Y154500D01*
X7970Y146008D02*
Y152368D01*
X25334Y146008D02*
X26228Y145113D01*
X26410Y141697D02*
X28030D01*
X26228Y141878D02*
Y145113D01*
Y141878D02*
X26410Y141697D01*
X25334Y111992D02*
X26228Y112887D01*
X24428Y111992D02*
X25334D01*
X26410Y116323D02*
X28030D01*
X26228Y116142D02*
X26410Y116323D01*
X26228Y112887D02*
Y116142D01*
X258563Y140952D02*
Y146760D01*
X188499Y229868D02*
X189664Y230455D01*
X190998Y230518D02*
X196532Y231960D01*
X189664Y230455D02*
X190499D01*
X232563Y235756D02*
X233000D01*
X230315Y238004D02*
Y252500D01*
Y238004D02*
X232563Y235756D01*
X279685Y241390D02*
Y252500D01*
X273551Y235256D02*
X279685Y241390D01*
X156838Y227175D02*
X156944Y227068D01*
Y222238D02*
Y227068D01*
X156007Y229675D02*
X156838Y228844D01*
Y227175D02*
Y228844D01*
X143291Y222268D02*
X149444D01*
X149694Y222518D02*
Y229425D01*
X149944Y229675D01*
X149444Y222268D02*
X149694Y222518D01*
X160007Y241175D02*
X167344D01*
X179444Y229868D02*
Y232623D01*
X175050Y237017D02*
X179444Y232623D01*
X158003Y237017D02*
X175050D01*
X153944Y241076D02*
X158003Y237017D01*
X153944Y241076D02*
Y241175D01*
X170389Y229868D02*
Y232623D01*
Y227112D02*
Y229868D01*
X155307Y233789D02*
X169223D01*
X150513Y238583D02*
X155307Y233789D01*
X150513Y238583D02*
Y245146D01*
X153944Y248576D01*
Y248675D01*
X169223Y233789D02*
X170389Y232623D01*
X160009Y248677D02*
X167422D01*
X160007Y248675D02*
X160009Y248677D01*
X167422D02*
X167424Y248679D01*
X185270Y241175D02*
X187661Y238784D01*
X173407Y241175D02*
X185270D01*
X187661Y238784D02*
X188202D01*
X173447Y241215D02*
Y248639D01*
X173407Y241175D02*
X173447Y241215D01*
Y248639D02*
X173487Y248679D01*
X188499Y229868D02*
Y237999D01*
X206056Y203232D02*
X213945D01*
X206056Y203232D02*
X206056Y203232D01*
X213945D02*
X213945Y203232D01*
X214056Y196880D02*
Y203120D01*
Y196880D02*
X214167Y196768D01*
X213945Y203232D02*
X214056Y203120D01*
X194500Y173500D02*
Y186583D01*
Y168722D02*
Y173500D01*
X243500D02*
X252000Y165000D01*
X194500Y173500D02*
X243500D01*
X194278Y168500D02*
X194500Y168722D01*
X193561Y168500D02*
X194278D01*
X191431Y189652D02*
Y189750D01*
Y189652D02*
X194500Y186583D01*
X190502Y190581D02*
X190600D01*
X191431Y189750D01*
X182613Y190581D02*
X190502D01*
X174725D02*
X182613D01*
X166836D02*
X174725D01*
X158948D02*
X166836D01*
X158849D02*
X158948D01*
X155419Y194012D02*
Y203985D01*
Y194012D02*
X158849Y190581D01*
X156944Y205510D02*
Y216175D01*
X155419Y203985D02*
X156944Y205510D01*
X181924Y206482D02*
X190974Y215532D01*
Y215581D01*
X179444Y206482D02*
X181924D01*
X200444Y215581D02*
X208444D01*
X190974D02*
X200444D01*
X179444Y227112D02*
Y229868D01*
Y227112D02*
X190974Y215581D01*
X206279Y196768D02*
X214167D01*
X198390D02*
X206279D01*
X183050Y202875D02*
X192185D01*
X179444Y206482D02*
X183050Y202875D01*
X192185D02*
X198292Y196768D01*
X198390D01*
X166814Y225946D02*
X169223D01*
X170389Y227112D01*
X156944Y216175D02*
X157042D01*
X166814Y225946D01*
X149444Y216205D02*
X149459Y216190D01*
X156929D01*
X156944Y216175D01*
X106282Y216205D02*
X149444D01*
X101444Y211368D02*
X106282Y216205D01*
D85*
X156631Y294104D02*
G03*
X156628Y294107I-1768J-1768D01*
G01*
X161727Y289008D02*
G03*
X163081Y288316I1761J1774D01*
G01*
X163573Y288219D02*
G03*
X164110Y288159I549J2439D01*
G01*
X163573Y288219D02*
G03*
X163081Y288316I-1658J-7173D01*
G01*
X147973Y302763D02*
G03*
X146200Y303500I-1773J-1763D01*
G01*
X242603Y276897D02*
G03*
X242780Y276737I1761J1775D01*
G01*
X243684Y275834D02*
G03*
X243844Y275656I1934J1584D01*
G01*
X243684Y275834D02*
G03*
X242780Y276737I-4799J-3895D01*
G01*
X246833Y272667D02*
G03*
X248590Y271938I1764J1771D01*
G01*
X220727Y298773D02*
G03*
X218965Y299500I-1762J-1773D01*
G01*
X69987Y303500D02*
G03*
X70487Y303543I-8J3000D01*
G01*
X62387Y303500D02*
G03*
X60265Y302621I0J-3000D01*
G01*
X72411Y303542D02*
G03*
X70487Y303543I-967J-5560D01*
G01*
X72411Y303542D02*
G03*
X72901Y303500I498J2958D01*
G01*
X156631Y294104D02*
X161727Y289008D01*
X164110Y288159D02*
X177841D01*
X156624Y294111D02*
X156628Y294107D01*
X147973Y302763D02*
X156624Y294111D01*
X72901Y303500D02*
X146200D01*
X162000Y299500D02*
X218965D01*
X220727Y298773D02*
X242603Y276897D01*
X248590Y271938D02*
X294003D01*
X243844Y275656D02*
X246833Y272667D01*
X72411Y303542D02*
Y303542D01*
X62387Y303500D02*
X69987Y303500D01*
X55626Y297982D02*
X60265Y302621D01*
X194062Y271938D02*
X238885D01*
X177841Y288159D02*
X194062Y271938D01*
X41444Y297982D02*
X55626D01*
D86*
X213596Y220932D02*
G03*
X212043Y221337I-1096J-1024D01*
G01*
X206359Y189205D02*
G03*
X206360Y189130I1500J0D01*
G01*
X28030Y122110D02*
X32390D01*
X37402Y117000D02*
X37500D01*
X34200Y120202D02*
X37402Y117000D01*
X34200Y120202D02*
Y120300D01*
X32390Y122110D02*
X34200Y120300D01*
X54063Y154500D02*
X61500D01*
X108500Y117906D02*
X112406D01*
X55500Y135000D02*
X59506Y130994D01*
X61939D01*
X65402Y127531D02*
X65500D01*
X61939Y130994D02*
X65402Y127531D01*
X51773Y79664D02*
Y93309D01*
Y79664D02*
X52437Y79000D01*
X51582Y93500D02*
X51773Y93309D01*
X51582Y93500D02*
X57531D01*
X62359Y133594D02*
X65500D01*
X65647Y133741D02*
X72909D01*
X73056Y133888D01*
X65500Y133594D02*
X65647Y133741D01*
X25334Y146008D02*
X25933D01*
X24428D02*
X25334D01*
X25933D02*
X27059Y147134D01*
X33979Y154402D02*
Y154500D01*
X27059Y147482D02*
X33979Y154402D01*
X27059Y147134D02*
Y147482D01*
X57531Y93500D02*
Y93598D01*
X65984Y96779D02*
X66297Y96465D01*
X71477D01*
X60711Y96779D02*
X65984D01*
X57531Y93598D02*
X60711Y96779D01*
X204000Y148937D02*
X209563D01*
X212000Y146500D01*
Y143307D02*
Y146500D01*
X191130Y153500D02*
X193561D01*
X181130Y163500D02*
X191130Y153500D01*
X172439Y163500D02*
X181130D01*
X211000Y142307D02*
X212000Y143307D01*
X214000Y210375D02*
Y220500D01*
X213945Y209295D02*
X214000Y210375D01*
X213596Y220932D02*
X214000Y220500D01*
X209623Y221337D02*
X212043D01*
X206360Y189130D02*
X206556Y185379D01*
X206279Y190705D02*
X206359Y189625D01*
Y189205D02*
Y189625D01*
X208444Y221644D02*
X209623Y221337D01*
X207444Y229175D02*
X207944Y228675D01*
Y222144D02*
X208444Y221644D01*
X207944Y222144D02*
Y228675D01*
X206056Y209295D02*
X213945D01*
X206056Y209295D02*
X206056Y209295D01*
X190502Y196644D02*
X190600D01*
X195458Y191786D02*
X197309D01*
X190600Y196644D02*
X195458Y191786D01*
X197309D02*
X198390Y190705D01*
X182613Y196644D02*
X190502D01*
X198390Y190705D02*
X206279D01*
X204000Y168000D02*
X211000D01*
X198892Y161400D02*
X203463D01*
X196312Y158820D02*
X198892Y161400D01*
X193881Y158820D02*
X196312D01*
X193561Y158500D02*
X193881Y158820D01*
X203902Y168000D02*
X204000D01*
X203463Y161400D02*
X204000Y161937D01*
X199482Y163500D02*
X202821Y166839D01*
Y166919D02*
X203902Y168000D01*
X193561Y163500D02*
X199482D01*
X202821Y166839D02*
Y166919D01*
X204000Y155000D02*
Y161937D01*
X172439Y153500D02*
X180000D01*
X163500Y167500D02*
X168743D01*
X169743Y168500D01*
X172439D01*
Y163500D02*
Y168500D01*
X185193Y178000D02*
X191500D01*
X206279Y190705D02*
X214167D01*
X166836Y196644D02*
Y202164D01*
X174725Y196644D02*
X182613D01*
X166836D02*
X174725D01*
X158948D02*
X166836D01*
X139500Y171063D02*
Y175000D01*
X131854Y164033D02*
Y168858D01*
X139500Y147500D02*
Y152031D01*
X107321Y116405D02*
Y116826D01*
X108402Y117906D02*
X108500D01*
X98637Y110245D02*
X98706Y110314D01*
X101230D01*
X107321Y116405D01*
Y116826D02*
X108402Y117906D01*
X95886Y119728D02*
X97500Y121342D01*
Y138500D01*
X95886Y118905D02*
Y119728D01*
X85056Y105325D02*
X93916Y96465D01*
X71477D02*
X76196D01*
X85056Y105325D01*
X74027Y119927D02*
X74226Y119728D01*
Y118905D02*
Y119728D01*
X65500Y127531D02*
X65598D01*
X73202Y119927D01*
X74027D01*
X74607Y122464D02*
X76546D01*
X78097Y120913D01*
Y118974D02*
Y120913D01*
X73056Y124015D02*
Y127825D01*
Y124015D02*
X74607Y122464D01*
X78097Y118974D02*
X78166Y118905D01*
D87*
X71444Y297982D02*
D03*
X41444D02*
D03*
X101444Y211368D02*
D03*
X41444D02*
D03*
X132000Y187500D02*
D03*
X142000D02*
D03*
X112000D02*
D03*
X122000D02*
D03*
X82000D02*
D03*
X92000D02*
D03*
X102000D02*
D03*
X19000Y74500D02*
D03*
X29000D02*
D03*
X39000D02*
D03*
X131500Y106394D02*
D03*
Y125606D02*
D03*
X97500Y138500D02*
D03*
X107500D02*
D03*
X153500Y166000D02*
D03*
X19000Y100000D02*
D03*
X29000D02*
D03*
X12457Y45342D02*
D03*
X69543Y35500D02*
D03*
Y25657D02*
D03*
X12457D02*
D03*
X69543Y45342D02*
D03*
X272000Y195000D02*
D03*
X262000D02*
D03*
X252000D02*
D03*
X272000Y165000D02*
D03*
X262000Y165000D02*
D03*
X230315Y252500D02*
D03*
D88*
X72000Y187500D02*
D03*
X9000Y74500D02*
D03*
X87500Y138500D02*
D03*
X9000Y100000D02*
D03*
X279685Y252500D02*
D03*
D89*
X159028Y31500D02*
D03*
X129500D02*
D03*
D90*
X200000Y285658D02*
D03*
Y45500D02*
D03*
D91*
X292035Y292411D02*
D03*
X240853D02*
D03*
D92*
X238885Y271938D02*
D03*
X294003D02*
D03*
D93*
X162000Y299500D02*
D03*
X161915Y281047D02*
D03*
X161831Y262594D02*
D03*
D94*
X22341Y117268D02*
D03*
Y140733D02*
D03*
D95*
X7970Y111992D02*
D03*
Y146008D02*
D03*
D96*
X24428Y111992D02*
D03*
Y146008D02*
D03*
D97*
X153500Y156000D02*
D03*
X252000Y165000D02*
D03*
D98*
X295000Y232000D02*
D03*
D99*
X294961Y212000D02*
D03*
X295000Y222000D02*
D03*
D100*
X298500Y167500D02*
D03*
Y187500D02*
D03*
D101*
X51200Y66200D02*
D03*
X65906Y64594D02*
D03*
X147504Y64500D02*
D03*
X149030Y87000D02*
D03*
X103946Y45554D02*
D03*
X37500Y104327D02*
D03*
X101146Y164646D02*
D03*
X61500Y154500D02*
D03*
X112406Y117906D02*
D03*
X125000Y96000D02*
D03*
X132000D02*
D03*
X138254Y98154D02*
D03*
X141000Y104000D02*
D03*
Y111500D02*
D03*
Y120000D02*
D03*
Y130586D02*
D03*
X127627Y135798D02*
D03*
X106000Y109500D02*
D03*
X135500Y136500D02*
D03*
X121114Y132485D02*
D03*
X113500Y75547D02*
D03*
X176350Y41350D02*
D03*
X109500Y40500D02*
D03*
X109000Y79000D02*
D03*
X69000Y75500D02*
D03*
X67000Y90000D02*
D03*
X55500Y135000D02*
D03*
X104094Y78474D02*
D03*
X51582Y93500D02*
D03*
X62359Y133594D02*
D03*
X81726Y125500D02*
D03*
X12000Y161500D02*
D03*
X26021Y158521D02*
D03*
X41000Y149000D02*
D03*
X62107Y112393D02*
D03*
X59915Y114585D02*
D03*
X62800Y108702D02*
D03*
X67500Y109500D02*
D03*
X92000Y87500D02*
D03*
X87421Y87421D02*
D03*
X84358Y88407D02*
D03*
X88000Y55000D02*
D03*
X79289Y73446D02*
D03*
X74000Y87500D02*
D03*
X75500Y83500D02*
D03*
X69500Y86000D02*
D03*
X57430Y85607D02*
D03*
X60530D02*
D03*
X55000Y111000D02*
D03*
X245000Y147000D02*
D03*
X99406Y29594D02*
D03*
X97500Y16000D02*
D03*
X63630Y85607D02*
D03*
X212000Y146500D02*
D03*
X258563Y140952D02*
D03*
X298500Y166500D02*
D03*
X143291Y222268D02*
D03*
X180000Y153500D02*
D03*
X146000Y161000D02*
D03*
X191500Y178000D02*
D03*
X139500Y175000D02*
D03*
X131854Y164033D02*
D03*
X139500Y147500D02*
D03*
X100500Y147000D02*
D03*
X86148Y181648D02*
D03*
X83956Y179456D02*
D03*
X81170Y176670D02*
D03*
X78978Y174478D02*
D03*
X76786Y172286D02*
D03*
X74000Y169500D02*
D03*
X105838Y131162D02*
D03*
X113000Y139000D02*
D03*
X217500Y156500D02*
D03*
X163000Y181000D02*
D03*
D102*
X247400Y221593D02*
D03*
X196532Y231960D02*
D03*
X188202Y238784D02*
D03*
X214000Y220500D02*
D03*
X206556Y185379D02*
D03*
X194500Y173500D02*
D03*
X166836Y202164D02*
D03*
X190974Y215581D02*
D03*
M02*
