G04*
G04 #@! TF.GenerationSoftware,Altium Limited,Altium Designer,21.3.2 (30)*
G04*
G04 Layer_Color=32896*
%FSLAX25Y25*%
%MOIN*%
G70*
G04*
G04 #@! TF.SameCoordinates,2DA63E57-4869-4DD6-A6C4-22B490529F43*
G04*
G04*
G04 #@! TF.FilePolarity,Positive*
G04*
G01*
G75*
%ADD12C,0.00787*%
G36*
X166067Y85606D02*
X166145Y85602D01*
X166219Y85588D01*
X166288Y85574D01*
X166353Y85555D01*
X166413Y85537D01*
X166469Y85514D01*
X166519Y85491D01*
X166566Y85468D01*
X166603Y85445D01*
X166635Y85426D01*
X166663Y85408D01*
X166686Y85394D01*
X166700Y85380D01*
X166709Y85375D01*
X166714Y85371D01*
X166760Y85325D01*
X166801Y85274D01*
X166843Y85218D01*
X166875Y85163D01*
X166931Y85052D01*
X166968Y84941D01*
X166981Y84890D01*
X166995Y84839D01*
X167005Y84798D01*
X167014Y84761D01*
X167018Y84728D01*
Y84705D01*
X167023Y84692D01*
Y84687D01*
X166621Y84645D01*
X166612Y84752D01*
X166593Y84844D01*
X166566Y84927D01*
X166533Y84992D01*
X166506Y85047D01*
X166478Y85084D01*
X166459Y85107D01*
X166450Y85117D01*
X166381Y85172D01*
X166307Y85214D01*
X166228Y85246D01*
X166159Y85264D01*
X166095Y85278D01*
X166039Y85283D01*
X166021Y85287D01*
X165993D01*
X165896Y85283D01*
X165808Y85264D01*
X165734Y85237D01*
X165669Y85209D01*
X165619Y85177D01*
X165586Y85154D01*
X165563Y85135D01*
X165554Y85126D01*
X165498Y85061D01*
X165457Y84996D01*
X165425Y84932D01*
X165406Y84867D01*
X165392Y84816D01*
X165388Y84770D01*
X165383Y84742D01*
Y84738D01*
Y84733D01*
X165392Y84650D01*
X165411Y84562D01*
X165443Y84484D01*
X165475Y84410D01*
X165512Y84350D01*
X165545Y84299D01*
X165554Y84280D01*
X165563Y84267D01*
X165572Y84262D01*
Y84257D01*
X165609Y84206D01*
X165656Y84156D01*
X165706Y84100D01*
X165762Y84045D01*
X165877Y83934D01*
X165993Y83823D01*
X166053Y83772D01*
X166104Y83726D01*
X166155Y83684D01*
X166196Y83647D01*
X166228Y83620D01*
X166256Y83597D01*
X166275Y83583D01*
X166279Y83578D01*
X166395Y83481D01*
X166501Y83389D01*
X166589Y83306D01*
X166658Y83236D01*
X166718Y83176D01*
X166760Y83135D01*
X166783Y83107D01*
X166792Y83102D01*
Y83098D01*
X166857Y83019D01*
X166908Y82945D01*
X166954Y82871D01*
X166991Y82807D01*
X167018Y82751D01*
X167037Y82709D01*
X167046Y82682D01*
X167051Y82677D01*
Y82673D01*
X167069Y82622D01*
X167078Y82576D01*
X167088Y82529D01*
X167092Y82488D01*
X167097Y82451D01*
Y82423D01*
Y82405D01*
Y82400D01*
X164976D01*
Y82779D01*
X166552D01*
X166496Y82857D01*
X166469Y82890D01*
X166446Y82922D01*
X166422Y82950D01*
X166404Y82968D01*
X166390Y82982D01*
X166385Y82987D01*
X166362Y83010D01*
X166335Y83033D01*
X166270Y83093D01*
X166196Y83162D01*
X166118Y83232D01*
X166044Y83292D01*
X166011Y83319D01*
X165984Y83347D01*
X165961Y83366D01*
X165942Y83379D01*
X165933Y83389D01*
X165928Y83393D01*
X165854Y83458D01*
X165780Y83518D01*
X165716Y83578D01*
X165656Y83629D01*
X165600Y83680D01*
X165554Y83726D01*
X165508Y83767D01*
X165471Y83805D01*
X165434Y83841D01*
X165406Y83869D01*
X165383Y83892D01*
X165360Y83915D01*
X165337Y83943D01*
X165328Y83952D01*
X165263Y84031D01*
X165207Y84100D01*
X165161Y84170D01*
X165124Y84225D01*
X165096Y84276D01*
X165078Y84313D01*
X165069Y84336D01*
X165064Y84345D01*
X165036Y84414D01*
X165018Y84484D01*
X164999Y84548D01*
X164990Y84604D01*
X164986Y84655D01*
X164981Y84692D01*
Y84715D01*
Y84724D01*
X164986Y84793D01*
X164995Y84858D01*
X165004Y84922D01*
X165023Y84978D01*
X165069Y85089D01*
X165115Y85177D01*
X165143Y85218D01*
X165166Y85251D01*
X165189Y85283D01*
X165212Y85306D01*
X165231Y85325D01*
X165240Y85343D01*
X165249Y85348D01*
X165254Y85352D01*
X165304Y85398D01*
X165360Y85440D01*
X165420Y85472D01*
X165480Y85500D01*
X165600Y85546D01*
X165720Y85579D01*
X165771Y85588D01*
X165822Y85597D01*
X165868Y85602D01*
X165905Y85606D01*
X165937Y85611D01*
X165984D01*
X166067Y85606D01*
D02*
G37*
G36*
X163581D02*
X163660Y85602D01*
X163734Y85588D01*
X163803Y85574D01*
X163868Y85555D01*
X163928Y85537D01*
X163983Y85514D01*
X164034Y85491D01*
X164080Y85468D01*
X164117Y85445D01*
X164149Y85426D01*
X164177Y85408D01*
X164200Y85394D01*
X164214Y85380D01*
X164223Y85375D01*
X164228Y85371D01*
X164274Y85325D01*
X164316Y85274D01*
X164357Y85218D01*
X164390Y85163D01*
X164445Y85052D01*
X164482Y84941D01*
X164496Y84890D01*
X164510Y84839D01*
X164519Y84798D01*
X164528Y84761D01*
X164533Y84728D01*
Y84705D01*
X164538Y84692D01*
Y84687D01*
X164136Y84645D01*
X164126Y84752D01*
X164108Y84844D01*
X164080Y84927D01*
X164048Y84992D01*
X164020Y85047D01*
X163992Y85084D01*
X163974Y85107D01*
X163965Y85117D01*
X163895Y85172D01*
X163821Y85214D01*
X163743Y85246D01*
X163674Y85264D01*
X163609Y85278D01*
X163554Y85283D01*
X163535Y85287D01*
X163507D01*
X163410Y85283D01*
X163322Y85264D01*
X163249Y85237D01*
X163184Y85209D01*
X163133Y85177D01*
X163101Y85154D01*
X163078Y85135D01*
X163068Y85126D01*
X163013Y85061D01*
X162971Y84996D01*
X162939Y84932D01*
X162920Y84867D01*
X162907Y84816D01*
X162902Y84770D01*
X162897Y84742D01*
Y84738D01*
Y84733D01*
X162907Y84650D01*
X162925Y84562D01*
X162958Y84484D01*
X162990Y84410D01*
X163027Y84350D01*
X163059Y84299D01*
X163068Y84280D01*
X163078Y84267D01*
X163087Y84262D01*
Y84257D01*
X163124Y84206D01*
X163170Y84156D01*
X163221Y84100D01*
X163276Y84045D01*
X163392Y83934D01*
X163507Y83823D01*
X163567Y83772D01*
X163618Y83726D01*
X163669Y83684D01*
X163710Y83647D01*
X163743Y83620D01*
X163771Y83597D01*
X163789Y83583D01*
X163794Y83578D01*
X163909Y83481D01*
X164015Y83389D01*
X164103Y83306D01*
X164172Y83236D01*
X164233Y83176D01*
X164274Y83135D01*
X164297Y83107D01*
X164306Y83102D01*
Y83098D01*
X164371Y83019D01*
X164422Y82945D01*
X164468Y82871D01*
X164505Y82807D01*
X164533Y82751D01*
X164551Y82709D01*
X164561Y82682D01*
X164565Y82677D01*
Y82673D01*
X164584Y82622D01*
X164593Y82576D01*
X164602Y82529D01*
X164607Y82488D01*
X164611Y82451D01*
Y82423D01*
Y82405D01*
Y82400D01*
X162491D01*
Y82779D01*
X164066D01*
X164011Y82857D01*
X163983Y82890D01*
X163960Y82922D01*
X163937Y82950D01*
X163918Y82968D01*
X163905Y82982D01*
X163900Y82987D01*
X163877Y83010D01*
X163849Y83033D01*
X163785Y83093D01*
X163710Y83162D01*
X163632Y83232D01*
X163558Y83292D01*
X163526Y83319D01*
X163498Y83347D01*
X163475Y83366D01*
X163456Y83379D01*
X163447Y83389D01*
X163443Y83393D01*
X163369Y83458D01*
X163295Y83518D01*
X163230Y83578D01*
X163170Y83629D01*
X163115Y83680D01*
X163068Y83726D01*
X163022Y83767D01*
X162985Y83805D01*
X162948Y83841D01*
X162920Y83869D01*
X162897Y83892D01*
X162874Y83915D01*
X162851Y83943D01*
X162842Y83952D01*
X162777Y84031D01*
X162722Y84100D01*
X162676Y84170D01*
X162639Y84225D01*
X162611Y84276D01*
X162592Y84313D01*
X162583Y84336D01*
X162579Y84345D01*
X162551Y84414D01*
X162532Y84484D01*
X162514Y84548D01*
X162505Y84604D01*
X162500Y84655D01*
X162496Y84692D01*
Y84715D01*
Y84724D01*
X162500Y84793D01*
X162509Y84858D01*
X162519Y84922D01*
X162537Y84978D01*
X162583Y85089D01*
X162629Y85177D01*
X162657Y85218D01*
X162680Y85251D01*
X162703Y85283D01*
X162726Y85306D01*
X162745Y85325D01*
X162754Y85343D01*
X162763Y85348D01*
X162768Y85352D01*
X162819Y85398D01*
X162874Y85440D01*
X162934Y85472D01*
X162994Y85500D01*
X163115Y85546D01*
X163235Y85579D01*
X163286Y85588D01*
X163336Y85597D01*
X163382Y85602D01*
X163419Y85606D01*
X163452Y85611D01*
X163498D01*
X163581Y85606D01*
D02*
G37*
G36*
X170100Y82400D02*
X169675D01*
Y83818D01*
X169130D01*
X169079Y83814D01*
X169042D01*
X169010Y83809D01*
X168987Y83805D01*
X168968D01*
X168959Y83800D01*
X168954D01*
X168880Y83777D01*
X168848Y83763D01*
X168820Y83749D01*
X168792Y83735D01*
X168774Y83726D01*
X168765Y83721D01*
X168760Y83717D01*
X168723Y83689D01*
X168686Y83657D01*
X168617Y83587D01*
X168585Y83555D01*
X168561Y83527D01*
X168548Y83509D01*
X168543Y83504D01*
X168497Y83439D01*
X168446Y83370D01*
X168395Y83296D01*
X168344Y83227D01*
X168303Y83162D01*
X168271Y83112D01*
X168257Y83093D01*
X168247Y83079D01*
X168238Y83070D01*
Y83065D01*
X167818Y82400D01*
X167291D01*
X167841Y83269D01*
X167905Y83361D01*
X167966Y83444D01*
X168026Y83513D01*
X168076Y83578D01*
X168123Y83624D01*
X168160Y83661D01*
X168183Y83684D01*
X168192Y83694D01*
X168229Y83721D01*
X168271Y83754D01*
X168354Y83805D01*
X168391Y83823D01*
X168418Y83841D01*
X168437Y83851D01*
X168446Y83855D01*
X168363Y83869D01*
X168284Y83883D01*
X168215Y83906D01*
X168146Y83925D01*
X168086Y83948D01*
X168030Y83975D01*
X167979Y83999D01*
X167933Y84022D01*
X167896Y84049D01*
X167859Y84072D01*
X167832Y84091D01*
X167808Y84109D01*
X167790Y84123D01*
X167776Y84137D01*
X167771Y84142D01*
X167767Y84146D01*
X167730Y84193D01*
X167693Y84239D01*
X167638Y84336D01*
X167601Y84433D01*
X167573Y84525D01*
X167554Y84604D01*
X167550Y84636D01*
Y84668D01*
X167545Y84692D01*
Y84710D01*
Y84719D01*
Y84724D01*
X167550Y84821D01*
X167564Y84909D01*
X167587Y84992D01*
X167610Y85061D01*
X167638Y85121D01*
X167656Y85167D01*
X167675Y85195D01*
X167679Y85200D01*
Y85204D01*
X167735Y85278D01*
X167790Y85343D01*
X167850Y85398D01*
X167905Y85440D01*
X167956Y85472D01*
X167998Y85491D01*
X168026Y85505D01*
X168030Y85509D01*
X168035D01*
X168076Y85523D01*
X168127Y85537D01*
X168229Y85560D01*
X168340Y85574D01*
X168441Y85588D01*
X168538Y85592D01*
X168580D01*
X168617Y85597D01*
X170100D01*
Y82400D01*
D02*
G37*
%LPC*%
G36*
X169675Y85241D02*
X168668D01*
X168543Y85237D01*
X168437Y85218D01*
X168344Y85195D01*
X168275Y85167D01*
X168215Y85140D01*
X168178Y85117D01*
X168155Y85098D01*
X168146Y85093D01*
X168090Y85033D01*
X168049Y84973D01*
X168021Y84909D01*
X167998Y84853D01*
X167989Y84798D01*
X167984Y84756D01*
X167979Y84728D01*
Y84724D01*
Y84719D01*
X167984Y84664D01*
X167993Y84608D01*
X168007Y84562D01*
X168021Y84521D01*
X168040Y84484D01*
X168053Y84456D01*
X168063Y84437D01*
X168067Y84433D01*
X168099Y84387D01*
X168141Y84345D01*
X168183Y84313D01*
X168224Y84285D01*
X168261Y84267D01*
X168289Y84253D01*
X168307Y84243D01*
X168317Y84239D01*
X168381Y84220D01*
X168455Y84206D01*
X168529Y84197D01*
X168603Y84193D01*
X168668Y84188D01*
X168723Y84183D01*
X169675D01*
Y85241D01*
D02*
G37*
%LPD*%
D12*
X155606Y87110D02*
X160075Y87110D01*
X147988Y80890D02*
Y87110D01*
X160075Y80890D02*
X160075Y87110D01*
X147988Y87110D02*
X152457D01*
X155606Y80890D02*
X160075Y80890D01*
X147988D02*
X152457D01*
M02*
