G04*
G04 #@! TF.GenerationSoftware,Altium Limited,Altium Designer,21.3.2 (30)*
G04*
G04 Layer_Color=2752767*
%FSLAX25Y25*%
%MOIN*%
G70*
G04*
G04 #@! TF.SameCoordinates,2DA63E57-4869-4DD6-A6C4-22B490529F43*
G04*
G04*
G04 #@! TF.FilePolarity,Positive*
G04*
G01*
G75*
%ADD11C,0.01000*%
%ADD117C,0.00200*%
%ADD118C,0.00267*%
%ADD119C,0.00133*%
%ADD120C,0.01600*%
%ADD121C,0.00800*%
%ADD122C,0.00467*%
%ADD123C,0.01400*%
D11*
X498886Y211997D02*
X496887Y210998D01*
X494888Y208998D01*
Y206999D01*
X495887Y205999D01*
X497887D01*
X498886Y206999D01*
Y207999D01*
X497887Y208998D01*
X494888D01*
X500886Y210998D02*
X501885Y211997D01*
X503885D01*
X504884Y210998D01*
Y209998D01*
X503885Y208998D01*
X504884Y207999D01*
Y206999D01*
X503885Y205999D01*
X501885D01*
X500886Y206999D01*
Y207999D01*
X501885Y208998D01*
X500886Y209998D01*
Y210998D01*
X501885Y208998D02*
X503885D01*
X564469Y205999D02*
X566468D01*
X565469D01*
Y211997D01*
X564469Y210998D01*
X573466Y211997D02*
X571467Y210998D01*
X569467Y208998D01*
Y206999D01*
X570467Y205999D01*
X572466D01*
X573466Y206999D01*
Y207999D01*
X572466Y208998D01*
X569467D01*
X575465Y205999D02*
Y209998D01*
X576465D01*
X577465Y208998D01*
Y205999D01*
Y208998D01*
X578464Y209998D01*
X579464Y208998D01*
Y205999D01*
X581463D02*
X583463D01*
X582463D01*
Y209998D01*
X581463D01*
X586462Y205999D02*
X588461D01*
X587462D01*
Y211997D01*
X586462D01*
X599458Y205999D02*
X597458Y207999D01*
Y209998D01*
X599458Y211997D01*
X602457Y210998D02*
X603456Y211997D01*
X605456D01*
X606455Y210998D01*
Y206999D01*
X605456Y205999D01*
X603456D01*
X602457Y206999D01*
Y210998D01*
X608455Y205999D02*
Y206999D01*
X609454D01*
Y205999D01*
X608455D01*
X616452D02*
Y211997D01*
X613453Y208998D01*
X617452D01*
X619451Y210998D02*
X620451Y211997D01*
X622450D01*
X623450Y210998D01*
Y206999D01*
X622450Y205999D01*
X620451D01*
X619451Y206999D01*
Y210998D01*
X629448Y211997D02*
X627449Y210998D01*
X625449Y208998D01*
Y206999D01*
X626449Y205999D01*
X628448D01*
X629448Y206999D01*
Y207999D01*
X628448Y208998D01*
X625449D01*
X634446Y205999D02*
Y211997D01*
X631447Y208998D01*
X635446D01*
X637445Y205999D02*
Y209998D01*
X638445D01*
X639445Y208998D01*
Y205999D01*
Y208998D01*
X640444Y209998D01*
X641444Y208998D01*
Y205999D01*
X643443D02*
Y209998D01*
X644443D01*
X645443Y208998D01*
Y205999D01*
Y208998D01*
X646442Y209998D01*
X647442Y208998D01*
Y205999D01*
X649441D02*
X651441Y207999D01*
Y209998D01*
X649441Y211997D01*
X933961Y205999D02*
Y211997D01*
X936960D01*
X937960Y210998D01*
Y208998D01*
X936960Y207999D01*
X933961D01*
X939959Y211997D02*
X943958D01*
X941958D01*
Y205999D01*
X945957Y211997D02*
Y205999D01*
Y208998D01*
X949956D01*
Y211997D01*
Y205999D01*
X984349D02*
Y211997D01*
X987348D01*
X988347Y210998D01*
Y208998D01*
X987348Y207999D01*
X984349D01*
X986348D02*
X988347Y205999D01*
X991346D02*
X993346D01*
X994345Y206999D01*
Y208998D01*
X993346Y209998D01*
X991346D01*
X990347Y208998D01*
Y206999D01*
X991346Y205999D01*
X996345Y209998D02*
Y206999D01*
X997344Y205999D01*
X1000343D01*
Y209998D01*
X1002343Y205999D02*
Y209998D01*
X1005342D01*
X1006341Y208998D01*
Y205999D01*
X1012339Y211997D02*
Y205999D01*
X1009340D01*
X1008341Y206999D01*
Y208998D01*
X1009340Y209998D01*
X1012339D01*
X498886Y193999D02*
X494888D01*
X498886Y197998D01*
Y198998D01*
X497887Y199997D01*
X495887D01*
X494888Y198998D01*
X568468Y193999D02*
X564469D01*
X568468Y197998D01*
Y198998D01*
X567468Y199997D01*
X565469D01*
X564469Y198998D01*
X570467Y199997D02*
X574466D01*
Y198998D01*
X570467Y194999D01*
Y193999D01*
X576465D02*
Y194999D01*
X577465D01*
Y193999D01*
X576465D01*
X585462Y199997D02*
X581463D01*
Y196998D01*
X583463Y197998D01*
X584462D01*
X585462Y196998D01*
Y194999D01*
X584462Y193999D01*
X582463D01*
X581463Y194999D01*
X591460Y199997D02*
X589461Y198998D01*
X587462Y196998D01*
Y194999D01*
X588461Y193999D01*
X590460D01*
X591460Y194999D01*
Y195999D01*
X590460Y196998D01*
X587462D01*
X593460Y193999D02*
Y197998D01*
X594459D01*
X595459Y196998D01*
Y193999D01*
Y196998D01*
X596459Y197998D01*
X597458Y196998D01*
Y193999D01*
X599458D02*
X601457D01*
X600457D01*
Y197998D01*
X599458D01*
X604456Y193999D02*
X606455D01*
X605456D01*
Y199997D01*
X604456D01*
X617452Y193999D02*
X615452Y195999D01*
Y197998D01*
X617452Y199997D01*
X620451Y198998D02*
X621451Y199997D01*
X623450D01*
X624449Y198998D01*
Y194999D01*
X623450Y193999D01*
X621451D01*
X620451Y194999D01*
Y198998D01*
X626449Y193999D02*
Y194999D01*
X627449D01*
Y193999D01*
X626449D01*
X631447Y199997D02*
X635446D01*
Y198998D01*
X631447Y194999D01*
Y193999D01*
X637445Y198998D02*
X638445Y199997D01*
X640444D01*
X641444Y198998D01*
Y194999D01*
X640444Y193999D01*
X638445D01*
X637445Y194999D01*
Y198998D01*
X643443D02*
X644443Y199997D01*
X646442D01*
X647442Y198998D01*
Y194999D01*
X646442Y193999D01*
X644443D01*
X643443Y194999D01*
Y198998D01*
X649441D02*
X650441Y199997D01*
X652441D01*
X653440Y198998D01*
Y194999D01*
X652441Y193999D01*
X650441D01*
X649441Y194999D01*
Y198998D01*
X659438Y193999D02*
X655440D01*
X659438Y197998D01*
Y198998D01*
X658438Y199997D01*
X656439D01*
X655440Y198998D01*
X661438Y193999D02*
Y197998D01*
X662437D01*
X663437Y196998D01*
Y193999D01*
Y196998D01*
X664437Y197998D01*
X665436Y196998D01*
Y193999D01*
X667436D02*
Y197998D01*
X668435D01*
X669435Y196998D01*
Y193999D01*
Y196998D01*
X670435Y197998D01*
X671434Y196998D01*
Y193999D01*
X673434D02*
X675433Y195999D01*
Y197998D01*
X673434Y199997D01*
X933961Y193999D02*
Y199997D01*
X937960Y193999D01*
Y199997D01*
X939959Y193999D02*
Y199997D01*
X942958D01*
X943958Y198998D01*
Y196998D01*
X942958Y195999D01*
X939959D01*
X945957Y199997D02*
X949956D01*
X947956D01*
Y193999D01*
X951955Y199997D02*
Y193999D01*
Y196998D01*
X955954D01*
Y199997D01*
Y193999D01*
X984349D02*
Y199997D01*
X987348D01*
X988347Y198998D01*
Y196998D01*
X987348Y195999D01*
X984349D01*
X986348D02*
X988347Y193999D01*
X991346D02*
X993346D01*
X994345Y194999D01*
Y196998D01*
X993346Y197998D01*
X991346D01*
X990347Y196998D01*
Y194999D01*
X991346Y193999D01*
X996345Y197998D02*
Y194999D01*
X997344Y193999D01*
X1000343D01*
Y197998D01*
X1002343Y193999D02*
Y197998D01*
X1005342D01*
X1006341Y196998D01*
Y193999D01*
X1012339Y199997D02*
Y193999D01*
X1009340D01*
X1008341Y194999D01*
Y196998D01*
X1009340Y197998D01*
X1012339D01*
X494888Y181999D02*
X496887D01*
X495887D01*
Y187997D01*
X494888Y186998D01*
X568468Y181999D02*
X564469D01*
X568468Y185998D01*
Y186998D01*
X567468Y187997D01*
X565469D01*
X564469Y186998D01*
X570467D02*
X571467Y187997D01*
X573466D01*
X574466Y186998D01*
Y185998D01*
X573466Y184998D01*
X574466Y183999D01*
Y182999D01*
X573466Y181999D01*
X571467D01*
X570467Y182999D01*
Y183999D01*
X571467Y184998D01*
X570467Y185998D01*
Y186998D01*
X571467Y184998D02*
X573466D01*
X576465Y181999D02*
Y185998D01*
X577465D01*
X578464Y184998D01*
Y181999D01*
Y184998D01*
X579464Y185998D01*
X580464Y184998D01*
Y181999D01*
X582463D02*
X584462D01*
X583463D01*
Y185998D01*
X582463D01*
X587462Y181999D02*
X589461D01*
X588461D01*
Y187997D01*
X587462D01*
X600457Y181999D02*
X598458Y183999D01*
Y185998D01*
X600457Y187997D01*
X603456Y186998D02*
X604456Y187997D01*
X606455D01*
X607455Y186998D01*
Y182999D01*
X606455Y181999D01*
X604456D01*
X603456Y182999D01*
Y186998D01*
X609454Y181999D02*
Y182999D01*
X610454D01*
Y181999D01*
X609454D01*
X614453Y187997D02*
X618451D01*
Y186998D01*
X614453Y182999D01*
Y181999D01*
X620451D02*
X622450D01*
X621451D01*
Y187997D01*
X620451Y186998D01*
X625449Y181999D02*
X627449D01*
X626449D01*
Y187997D01*
X625449Y186998D01*
X634446Y181999D02*
X630448D01*
X634446Y185998D01*
Y186998D01*
X633447Y187997D01*
X631447D01*
X630448Y186998D01*
X636446Y181999D02*
Y185998D01*
X637445D01*
X638445Y184998D01*
Y181999D01*
Y184998D01*
X639445Y185998D01*
X640444Y184998D01*
Y181999D01*
X642444D02*
Y185998D01*
X643443D01*
X644443Y184998D01*
Y181999D01*
Y184998D01*
X645443Y185998D01*
X646442Y184998D01*
Y181999D01*
X648442D02*
X650441Y183999D01*
Y185998D01*
X648442Y187997D01*
X933961Y181999D02*
Y187997D01*
X936960D01*
X937960Y186998D01*
Y184998D01*
X936960Y183999D01*
X933961D01*
X939959Y187997D02*
X943958D01*
X941958D01*
Y181999D01*
X945957Y187997D02*
Y181999D01*
Y184998D01*
X949956D01*
Y187997D01*
Y181999D01*
X984349D02*
Y187997D01*
X987348D01*
X988347Y186998D01*
Y184998D01*
X987348Y183999D01*
X984349D01*
X986348D02*
X988347Y181999D01*
X991346D02*
X993346D01*
X994345Y182999D01*
Y184998D01*
X993346Y185998D01*
X991346D01*
X990347Y184998D01*
Y182999D01*
X991346Y181999D01*
X996345Y185998D02*
Y182999D01*
X997344Y181999D01*
X1000343D01*
Y185998D01*
X1002343Y181999D02*
Y185998D01*
X1005342D01*
X1006341Y184998D01*
Y181999D01*
X1012339Y187997D02*
Y181999D01*
X1009340D01*
X1008341Y182999D01*
Y184998D01*
X1009340Y185998D01*
X1012339D01*
X498886Y169999D02*
X494888D01*
X498886Y173998D01*
Y174998D01*
X497887Y175997D01*
X495887D01*
X494888Y174998D01*
X564469D02*
X565469Y175997D01*
X567468D01*
X568468Y174998D01*
Y173998D01*
X567468Y172998D01*
X566468D01*
X567468D01*
X568468Y171999D01*
Y170999D01*
X567468Y169999D01*
X565469D01*
X564469Y170999D01*
X570467Y169999D02*
X572466D01*
X571467D01*
Y175997D01*
X570467Y174998D01*
X575465Y169999D02*
Y170999D01*
X576465D01*
Y169999D01*
X575465D01*
X583463D02*
Y175997D01*
X580464Y172998D01*
X584462D01*
X586462Y170999D02*
X587462Y169999D01*
X589461D01*
X590460Y170999D01*
Y174998D01*
X589461Y175997D01*
X587462D01*
X586462Y174998D01*
Y173998D01*
X587462Y172998D01*
X590460D01*
X596459Y175997D02*
X594459Y174998D01*
X592460Y172998D01*
Y170999D01*
X593460Y169999D01*
X595459D01*
X596459Y170999D01*
Y171999D01*
X595459Y172998D01*
X592460D01*
X598458Y169999D02*
Y173998D01*
X599458D01*
X600457Y172998D01*
Y169999D01*
Y172998D01*
X601457Y173998D01*
X602457Y172998D01*
Y169999D01*
X604456D02*
X606455D01*
X605456D01*
Y173998D01*
X604456D01*
X609454Y169999D02*
X611454D01*
X610454D01*
Y175997D01*
X609454D01*
X622450Y169999D02*
X620451Y171999D01*
Y173998D01*
X622450Y175997D01*
X625449Y174998D02*
X626449Y175997D01*
X628448D01*
X629448Y174998D01*
Y170999D01*
X628448Y169999D01*
X626449D01*
X625449Y170999D01*
Y174998D01*
X631447Y169999D02*
Y170999D01*
X632447D01*
Y169999D01*
X631447D01*
X636446Y174998D02*
X637445Y175997D01*
X639445D01*
X640444Y174998D01*
Y173998D01*
X639445Y172998D01*
X640444Y171999D01*
Y170999D01*
X639445Y169999D01*
X637445D01*
X636446Y170999D01*
Y171999D01*
X637445Y172998D01*
X636446Y173998D01*
Y174998D01*
X637445Y172998D02*
X639445D01*
X642444Y169999D02*
Y173998D01*
X643443D01*
X644443Y172998D01*
Y169999D01*
Y172998D01*
X645443Y173998D01*
X646442Y172998D01*
Y169999D01*
X648442D02*
Y173998D01*
X649441D01*
X650441Y172998D01*
Y169999D01*
Y172998D01*
X651441Y173998D01*
X652441Y172998D01*
Y169999D01*
X654440D02*
X656439Y171999D01*
Y173998D01*
X654440Y175997D01*
X933961Y169999D02*
Y175997D01*
X936960D01*
X937960Y174998D01*
Y172998D01*
X936960Y171999D01*
X933961D01*
X939959Y175997D02*
X943958D01*
X941958D01*
Y169999D01*
X945957Y175997D02*
Y169999D01*
Y172998D01*
X949956D01*
Y175997D01*
Y169999D01*
X984349D02*
Y175997D01*
X987348D01*
X988347Y174998D01*
Y172998D01*
X987348Y171999D01*
X984349D01*
X986348D02*
X988347Y169999D01*
X991346D02*
X993346D01*
X994345Y170999D01*
Y172998D01*
X993346Y173998D01*
X991346D01*
X990347Y172998D01*
Y170999D01*
X991346Y169999D01*
X996345Y173998D02*
Y170999D01*
X997344Y169999D01*
X1000343D01*
Y173998D01*
X1002343Y169999D02*
Y173998D01*
X1005342D01*
X1006341Y172998D01*
Y169999D01*
X1012339Y175997D02*
Y169999D01*
X1009340D01*
X1008341Y170999D01*
Y172998D01*
X1009340Y173998D01*
X1012339D01*
X498886Y157999D02*
X494888D01*
X498886Y161998D01*
Y162998D01*
X497887Y163997D01*
X495887D01*
X494888Y162998D01*
X504884Y163997D02*
X502885Y162998D01*
X500886Y160998D01*
Y158999D01*
X501885Y157999D01*
X503885D01*
X504884Y158999D01*
Y159999D01*
X503885Y160998D01*
X500886D01*
X564469Y162998D02*
X565469Y163997D01*
X567468D01*
X568468Y162998D01*
Y161998D01*
X567468Y160998D01*
X566468D01*
X567468D01*
X568468Y159999D01*
Y158999D01*
X567468Y157999D01*
X565469D01*
X564469Y158999D01*
X574466Y163997D02*
X570467D01*
Y160998D01*
X572466Y161998D01*
X573466D01*
X574466Y160998D01*
Y158999D01*
X573466Y157999D01*
X571467D01*
X570467Y158999D01*
X576465Y157999D02*
Y158999D01*
X577465D01*
Y157999D01*
X576465D01*
X584462D02*
Y163997D01*
X581463Y160998D01*
X585462D01*
X587462Y162998D02*
X588461Y163997D01*
X590460D01*
X591460Y162998D01*
Y161998D01*
X590460Y160998D01*
X589461D01*
X590460D01*
X591460Y159999D01*
Y158999D01*
X590460Y157999D01*
X588461D01*
X587462Y158999D01*
X593460Y162998D02*
X594459Y163997D01*
X596459D01*
X597458Y162998D01*
Y161998D01*
X596459Y160998D01*
X595459D01*
X596459D01*
X597458Y159999D01*
Y158999D01*
X596459Y157999D01*
X594459D01*
X593460Y158999D01*
X599458Y157999D02*
Y161998D01*
X600457D01*
X601457Y160998D01*
Y157999D01*
Y160998D01*
X602457Y161998D01*
X603456Y160998D01*
Y157999D01*
X605456D02*
X607455D01*
X606455D01*
Y161998D01*
X605456D01*
X610454Y157999D02*
X612453D01*
X611454D01*
Y163997D01*
X610454D01*
X623450Y157999D02*
X621451Y159999D01*
Y161998D01*
X623450Y163997D01*
X626449Y162998D02*
X627449Y163997D01*
X629448D01*
X630448Y162998D01*
Y158999D01*
X629448Y157999D01*
X627449D01*
X626449Y158999D01*
Y162998D01*
X632447Y157999D02*
Y158999D01*
X633447D01*
Y157999D01*
X632447D01*
X637445Y158999D02*
X638445Y157999D01*
X640444D01*
X641444Y158999D01*
Y162998D01*
X640444Y163997D01*
X638445D01*
X637445Y162998D01*
Y161998D01*
X638445Y160998D01*
X641444D01*
X643443Y157999D02*
Y161998D01*
X644443D01*
X645443Y160998D01*
Y157999D01*
Y160998D01*
X646442Y161998D01*
X647442Y160998D01*
Y157999D01*
X649441D02*
Y161998D01*
X650441D01*
X651441Y160998D01*
Y157999D01*
Y160998D01*
X652441Y161998D01*
X653440Y160998D01*
Y157999D01*
X655440D02*
X657439Y159999D01*
Y161998D01*
X655440Y163997D01*
X933961Y157999D02*
Y163997D01*
X936960D01*
X937960Y162998D01*
Y160998D01*
X936960Y159999D01*
X933961D01*
X939959Y163997D02*
X943958D01*
X941958D01*
Y157999D01*
X945957Y163997D02*
Y157999D01*
Y160998D01*
X949956D01*
Y163997D01*
Y157999D01*
X984349D02*
Y163997D01*
X987348D01*
X988347Y162998D01*
Y160998D01*
X987348Y159999D01*
X984349D01*
X986348D02*
X988347Y157999D01*
X991346D02*
X993346D01*
X994345Y158999D01*
Y160998D01*
X993346Y161998D01*
X991346D01*
X990347Y160998D01*
Y158999D01*
X991346Y157999D01*
X996345Y161998D02*
Y158999D01*
X997344Y157999D01*
X1000343D01*
Y161998D01*
X1002343Y157999D02*
Y161998D01*
X1005342D01*
X1006341Y160998D01*
Y157999D01*
X1012339Y163997D02*
Y157999D01*
X1009340D01*
X1008341Y158999D01*
Y160998D01*
X1009340Y161998D01*
X1012339D01*
X498886Y151997D02*
X496887Y150998D01*
X494888Y148998D01*
Y146999D01*
X495887Y145999D01*
X497887D01*
X498886Y146999D01*
Y147999D01*
X497887Y148998D01*
X494888D01*
X564469Y150998D02*
X565469Y151997D01*
X567468D01*
X568468Y150998D01*
Y149998D01*
X567468Y148998D01*
X566468D01*
X567468D01*
X568468Y147999D01*
Y146999D01*
X567468Y145999D01*
X565469D01*
X564469Y146999D01*
X570467D02*
X571467Y145999D01*
X573466D01*
X574466Y146999D01*
Y150998D01*
X573466Y151997D01*
X571467D01*
X570467Y150998D01*
Y149998D01*
X571467Y148998D01*
X574466D01*
X576465Y145999D02*
Y146999D01*
X577465D01*
Y145999D01*
X576465D01*
X581463Y150998D02*
X582463Y151997D01*
X584462D01*
X585462Y150998D01*
Y149998D01*
X584462Y148998D01*
X583463D01*
X584462D01*
X585462Y147999D01*
Y146999D01*
X584462Y145999D01*
X582463D01*
X581463Y146999D01*
X587462Y151997D02*
X591460D01*
Y150998D01*
X587462Y146999D01*
Y145999D01*
X593460D02*
Y149998D01*
X594459D01*
X595459Y148998D01*
Y145999D01*
Y148998D01*
X596459Y149998D01*
X597458Y148998D01*
Y145999D01*
X599458D02*
X601457D01*
X600457D01*
Y149998D01*
X599458D01*
X604456Y145999D02*
X606455D01*
X605456D01*
Y151997D01*
X604456D01*
X617452Y145999D02*
X615452Y147999D01*
Y149998D01*
X617452Y151997D01*
X620451Y145999D02*
X622450D01*
X621451D01*
Y151997D01*
X620451Y150998D01*
X625449Y145999D02*
Y149998D01*
X626449D01*
X627449Y148998D01*
Y145999D01*
Y148998D01*
X628448Y149998D01*
X629448Y148998D01*
Y145999D01*
X631447D02*
Y149998D01*
X632447D01*
X633447Y148998D01*
Y145999D01*
Y148998D01*
X634446Y149998D01*
X635446Y148998D01*
Y145999D01*
X637445D02*
X639445Y147999D01*
Y149998D01*
X637445Y151997D01*
X933961Y145999D02*
Y151997D01*
X936960D01*
X937960Y150998D01*
Y148998D01*
X936960Y147999D01*
X933961D01*
X939959Y151997D02*
X943958D01*
X941958D01*
Y145999D01*
X945957Y151997D02*
Y145999D01*
Y148998D01*
X949956D01*
Y151997D01*
Y145999D01*
X984349D02*
Y151997D01*
X987348D01*
X988347Y150998D01*
Y148998D01*
X987348Y147999D01*
X984349D01*
X986348D02*
X988347Y145999D01*
X991346D02*
X993346D01*
X994345Y146999D01*
Y148998D01*
X993346Y149998D01*
X991346D01*
X990347Y148998D01*
Y146999D01*
X991346Y145999D01*
X996345Y149998D02*
Y146999D01*
X997344Y145999D01*
X1000343D01*
Y149998D01*
X1002343Y145999D02*
Y149998D01*
X1005342D01*
X1006341Y148998D01*
Y145999D01*
X1012339Y151997D02*
Y145999D01*
X1009340D01*
X1008341Y146999D01*
Y148998D01*
X1009340Y149998D01*
X1012339D01*
X498886Y139997D02*
X494888D01*
Y136998D01*
X496887Y137998D01*
X497887D01*
X498886Y136998D01*
Y134999D01*
X497887Y133999D01*
X495887D01*
X494888Y134999D01*
X567468Y133999D02*
Y139997D01*
X564469Y136998D01*
X568468D01*
X570467Y138998D02*
X571467Y139997D01*
X573466D01*
X574466Y138998D01*
Y137998D01*
X573466Y136998D01*
X572466D01*
X573466D01*
X574466Y135999D01*
Y134999D01*
X573466Y133999D01*
X571467D01*
X570467Y134999D01*
X576465Y133999D02*
Y134999D01*
X577465D01*
Y133999D01*
X576465D01*
X581463Y138998D02*
X582463Y139997D01*
X584462D01*
X585462Y138998D01*
Y137998D01*
X584462Y136998D01*
X583463D01*
X584462D01*
X585462Y135999D01*
Y134999D01*
X584462Y133999D01*
X582463D01*
X581463Y134999D01*
X587462Y138998D02*
X588461Y139997D01*
X590460D01*
X591460Y138998D01*
Y134999D01*
X590460Y133999D01*
X588461D01*
X587462Y134999D01*
Y138998D01*
X593460Y139997D02*
X597458D01*
Y138998D01*
X593460Y134999D01*
Y133999D01*
X599458D02*
Y137998D01*
X600457D01*
X601457Y136998D01*
Y133999D01*
Y136998D01*
X602457Y137998D01*
X603456Y136998D01*
Y133999D01*
X605456D02*
X607455D01*
X606455D01*
Y137998D01*
X605456D01*
X610454Y133999D02*
X612453D01*
X611454D01*
Y139997D01*
X610454D01*
X623450Y133999D02*
X621451Y135999D01*
Y137998D01*
X623450Y139997D01*
X626449Y133999D02*
X628448D01*
X627449D01*
Y139997D01*
X626449Y138998D01*
X631447Y133999D02*
Y134999D01*
X632447D01*
Y133999D01*
X631447D01*
X636446D02*
X638445D01*
X637445D01*
Y139997D01*
X636446Y138998D01*
X641444Y133999D02*
Y137998D01*
X642444D01*
X643443Y136998D01*
Y133999D01*
Y136998D01*
X644443Y137998D01*
X645443Y136998D01*
Y133999D01*
X647442D02*
Y137998D01*
X648442D01*
X649441Y136998D01*
Y133999D01*
Y136998D01*
X650441Y137998D01*
X651441Y136998D01*
Y133999D01*
X653440D02*
X655440Y135999D01*
Y137998D01*
X653440Y139997D01*
X933961Y133999D02*
Y139997D01*
X936960D01*
X937960Y138998D01*
Y136998D01*
X936960Y135999D01*
X933961D01*
X939959Y139997D02*
X943958D01*
X941958D01*
Y133999D01*
X945957Y139997D02*
Y133999D01*
Y136998D01*
X949956D01*
Y139997D01*
Y133999D01*
X984349D02*
Y139997D01*
X987348D01*
X988347Y138998D01*
Y136998D01*
X987348Y135999D01*
X984349D01*
X986348D02*
X988347Y133999D01*
X991346D02*
X993346D01*
X994345Y134999D01*
Y136998D01*
X993346Y137998D01*
X991346D01*
X990347Y136998D01*
Y134999D01*
X991346Y133999D01*
X996345Y137998D02*
Y134999D01*
X997344Y133999D01*
X1000343D01*
Y137998D01*
X1002343Y133999D02*
Y137998D01*
X1005342D01*
X1006341Y136998D01*
Y133999D01*
X1012339Y139997D02*
Y133999D01*
X1009340D01*
X1008341Y134999D01*
Y136998D01*
X1009340Y137998D01*
X1012339D01*
X494888Y126998D02*
X495887Y127997D01*
X497887D01*
X498886Y126998D01*
Y125998D01*
X497887Y124998D01*
X496887D01*
X497887D01*
X498886Y123999D01*
Y122999D01*
X497887Y121999D01*
X495887D01*
X494888Y122999D01*
X567468Y121999D02*
Y127997D01*
X564469Y124998D01*
X568468D01*
X570467Y127997D02*
X574466D01*
Y126998D01*
X570467Y122999D01*
Y121999D01*
X576465D02*
Y122999D01*
X577465D01*
Y121999D01*
X576465D01*
X585462D02*
X581463D01*
X585462Y125998D01*
Y126998D01*
X584462Y127997D01*
X582463D01*
X581463Y126998D01*
X590460Y121999D02*
Y127997D01*
X587462Y124998D01*
X591460D01*
X596459Y121999D02*
Y127997D01*
X593460Y124998D01*
X597458D01*
X599458Y121999D02*
Y125998D01*
X600457D01*
X601457Y124998D01*
Y121999D01*
Y124998D01*
X602457Y125998D01*
X603456Y124998D01*
Y121999D01*
X605456D02*
X607455D01*
X606455D01*
Y125998D01*
X605456D01*
X610454Y121999D02*
X612453D01*
X611454D01*
Y127997D01*
X610454D01*
X623450Y121999D02*
X621451Y123999D01*
Y125998D01*
X623450Y127997D01*
X626449Y121999D02*
X628448D01*
X627449D01*
Y127997D01*
X626449Y126998D01*
X631447Y121999D02*
Y122999D01*
X632447D01*
Y121999D01*
X631447D01*
X640444D02*
X636446D01*
X640444Y125998D01*
Y126998D01*
X639445Y127997D01*
X637445D01*
X636446Y126998D01*
X642444Y121999D02*
Y125998D01*
X643443D01*
X644443Y124998D01*
Y121999D01*
Y124998D01*
X645443Y125998D01*
X646442Y124998D01*
Y121999D01*
X648442D02*
Y125998D01*
X649441D01*
X650441Y124998D01*
Y121999D01*
Y124998D01*
X651441Y125998D01*
X652441Y124998D01*
Y121999D01*
X654440D02*
X656439Y123999D01*
Y125998D01*
X654440Y127997D01*
X933961Y121999D02*
Y127997D01*
X936960D01*
X937960Y126998D01*
Y124998D01*
X936960Y123999D01*
X933961D01*
X939959Y127997D02*
X943958D01*
X941958D01*
Y121999D01*
X945957Y127997D02*
Y121999D01*
Y124998D01*
X949956D01*
Y127997D01*
Y121999D01*
X984349D02*
Y127997D01*
X987348D01*
X988347Y126998D01*
Y124998D01*
X987348Y123999D01*
X984349D01*
X986348D02*
X988347Y121999D01*
X991346D02*
X993346D01*
X994345Y122999D01*
Y124998D01*
X993346Y125998D01*
X991346D01*
X990347Y124998D01*
Y122999D01*
X991346Y121999D01*
X996345Y125998D02*
Y122999D01*
X997344Y121999D01*
X1000343D01*
Y125998D01*
X1002343Y121999D02*
Y125998D01*
X1005342D01*
X1006341Y124998D01*
Y121999D01*
X1012339Y127997D02*
Y121999D01*
X1009340D01*
X1008341Y122999D01*
Y124998D01*
X1009340Y125998D01*
X1012339D01*
X498886Y109999D02*
X494888D01*
X498886Y113998D01*
Y114998D01*
X497887Y115997D01*
X495887D01*
X494888Y114998D01*
X567468Y109999D02*
Y115997D01*
X564469Y112998D01*
X568468D01*
X570467Y115997D02*
X574466D01*
Y114998D01*
X570467Y110999D01*
Y109999D01*
X576465D02*
Y110999D01*
X577465D01*
Y109999D01*
X576465D01*
X585462D02*
X581463D01*
X585462Y113998D01*
Y114998D01*
X584462Y115997D01*
X582463D01*
X581463Y114998D01*
X590460Y109999D02*
Y115997D01*
X587462Y112998D01*
X591460D01*
X596459Y109999D02*
Y115997D01*
X593460Y112998D01*
X597458D01*
X599458Y109999D02*
Y113998D01*
X600457D01*
X601457Y112998D01*
Y109999D01*
Y112998D01*
X602457Y113998D01*
X603456Y112998D01*
Y109999D01*
X605456D02*
X607455D01*
X606455D01*
Y113998D01*
X605456D01*
X610454Y109999D02*
X612453D01*
X611454D01*
Y115997D01*
X610454D01*
X623450Y109999D02*
X621451Y111999D01*
Y113998D01*
X623450Y115997D01*
X626449Y109999D02*
X628448D01*
X627449D01*
Y115997D01*
X626449Y114998D01*
X631447Y109999D02*
Y110999D01*
X632447D01*
Y109999D01*
X631447D01*
X640444D02*
X636446D01*
X640444Y113998D01*
Y114998D01*
X639445Y115997D01*
X637445D01*
X636446Y114998D01*
X642444Y109999D02*
Y113998D01*
X643443D01*
X644443Y112998D01*
Y109999D01*
Y112998D01*
X645443Y113998D01*
X646442Y112998D01*
Y109999D01*
X648442D02*
Y113998D01*
X649441D01*
X650441Y112998D01*
Y109999D01*
Y112998D01*
X651441Y113998D01*
X652441Y112998D01*
Y109999D01*
X654440D02*
X656439Y111999D01*
Y113998D01*
X654440Y115997D01*
X933961Y109999D02*
Y115997D01*
X937960Y109999D01*
Y115997D01*
X939959Y109999D02*
Y115997D01*
X942958D01*
X943958Y114998D01*
Y112998D01*
X942958Y111999D01*
X939959D01*
X945957Y115997D02*
X949956D01*
X947956D01*
Y109999D01*
X951955Y115997D02*
Y109999D01*
Y112998D01*
X955954D01*
Y115997D01*
Y109999D01*
X984349D02*
Y115997D01*
X987348D01*
X988347Y114998D01*
Y112998D01*
X987348Y111999D01*
X984349D01*
X986348D02*
X988347Y109999D01*
X991346D02*
X993346D01*
X994345Y110999D01*
Y112998D01*
X993346Y113998D01*
X991346D01*
X990347Y112998D01*
Y110999D01*
X991346Y109999D01*
X996345Y113998D02*
Y110999D01*
X997344Y109999D01*
X1000343D01*
Y113998D01*
X1002343Y109999D02*
Y113998D01*
X1005342D01*
X1006341Y112998D01*
Y109999D01*
X1012339Y115997D02*
Y109999D01*
X1009340D01*
X1008341Y110999D01*
Y112998D01*
X1009340Y113998D01*
X1012339D01*
X498886Y97999D02*
X494888D01*
X498886Y101998D01*
Y102998D01*
X497887Y103997D01*
X495887D01*
X494888Y102998D01*
X568468Y103997D02*
X564469D01*
Y100998D01*
X566468Y101998D01*
X567468D01*
X568468Y100998D01*
Y98999D01*
X567468Y97999D01*
X565469D01*
X564469Y98999D01*
X570467Y97999D02*
X572466D01*
X571467D01*
Y103997D01*
X570467Y102998D01*
X575465Y97999D02*
Y98999D01*
X576465D01*
Y97999D01*
X575465D01*
X580464D02*
X582463D01*
X581463D01*
Y103997D01*
X580464Y102998D01*
X585462D02*
X586462Y103997D01*
X588461D01*
X589461Y102998D01*
Y101998D01*
X588461Y100998D01*
X589461Y99999D01*
Y98999D01*
X588461Y97999D01*
X586462D01*
X585462Y98999D01*
Y99999D01*
X586462Y100998D01*
X585462Y101998D01*
Y102998D01*
X586462Y100998D02*
X588461D01*
X595459Y97999D02*
X591460D01*
X595459Y101998D01*
Y102998D01*
X594459Y103997D01*
X592460D01*
X591460Y102998D01*
X597458Y97999D02*
Y101998D01*
X598458D01*
X599458Y100998D01*
Y97999D01*
Y100998D01*
X600457Y101998D01*
X601457Y100998D01*
Y97999D01*
X603456D02*
X605456D01*
X604456D01*
Y101998D01*
X603456D01*
X608455Y97999D02*
X610454D01*
X609454D01*
Y103997D01*
X608455D01*
X621451Y97999D02*
X619451Y99999D01*
Y101998D01*
X621451Y103997D01*
X624449Y97999D02*
X626449D01*
X625449D01*
Y103997D01*
X624449Y102998D01*
X629448Y97999D02*
Y98999D01*
X630448D01*
Y97999D01*
X629448D01*
X634446Y102998D02*
X635446Y103997D01*
X637445D01*
X638445Y102998D01*
Y101998D01*
X637445Y100998D01*
X636446D01*
X637445D01*
X638445Y99999D01*
Y98999D01*
X637445Y97999D01*
X635446D01*
X634446Y98999D01*
X640444Y102998D02*
X641444Y103997D01*
X643443D01*
X644443Y102998D01*
Y98999D01*
X643443Y97999D01*
X641444D01*
X640444Y98999D01*
Y102998D01*
X646442D02*
X647442Y103997D01*
X649441D01*
X650441Y102998D01*
Y98999D01*
X649441Y97999D01*
X647442D01*
X646442Y98999D01*
Y102998D01*
X652440D02*
X653440Y103997D01*
X655440D01*
X656439Y102998D01*
Y98999D01*
X655440Y97999D01*
X653440D01*
X652440Y98999D01*
Y102998D01*
X662437Y97999D02*
X658438D01*
X662437Y101998D01*
Y102998D01*
X661438Y103997D01*
X659438D01*
X658438Y102998D01*
X664437Y97999D02*
Y101998D01*
X665436D01*
X666436Y100998D01*
Y97999D01*
Y100998D01*
X667436Y101998D01*
X668435Y100998D01*
Y97999D01*
X670435D02*
Y101998D01*
X671434D01*
X672434Y100998D01*
Y97999D01*
Y100998D01*
X673434Y101998D01*
X674433Y100998D01*
Y97999D01*
X676433D02*
X678432Y99999D01*
Y101998D01*
X676433Y103997D01*
X933961Y97999D02*
Y103997D01*
X936960D01*
X937960Y102998D01*
Y100998D01*
X936960Y99999D01*
X933961D01*
X939959Y103997D02*
X943958D01*
X941958D01*
Y97999D01*
X945957Y103997D02*
Y97999D01*
Y100998D01*
X949956D01*
Y103997D01*
Y97999D01*
X984349D02*
Y103997D01*
X987348D01*
X988347Y102998D01*
Y100998D01*
X987348Y99999D01*
X984349D01*
X986348D02*
X988347Y97999D01*
X991346D02*
X993346D01*
X994345Y98999D01*
Y100998D01*
X993346Y101998D01*
X991346D01*
X990347Y100998D01*
Y98999D01*
X991346Y97999D01*
X996345Y101998D02*
Y98999D01*
X997344Y97999D01*
X1000343D01*
Y101998D01*
X1002343Y97999D02*
Y101998D01*
X1005342D01*
X1006341Y100998D01*
Y97999D01*
X1012339Y103997D02*
Y97999D01*
X1009340D01*
X1008341Y98999D01*
Y100998D01*
X1009340Y101998D01*
X1012339D01*
X498886Y85999D02*
X494888D01*
X498886Y89998D01*
Y90998D01*
X497887Y91997D01*
X495887D01*
X494888Y90998D01*
X568468Y91997D02*
X564469D01*
Y88998D01*
X566468Y89998D01*
X567468D01*
X568468Y88998D01*
Y86999D01*
X567468Y85999D01*
X565469D01*
X564469Y86999D01*
X570467D02*
X571467Y85999D01*
X573466D01*
X574466Y86999D01*
Y90998D01*
X573466Y91997D01*
X571467D01*
X570467Y90998D01*
Y89998D01*
X571467Y88998D01*
X574466D01*
X576465Y85999D02*
Y86999D01*
X577465D01*
Y85999D01*
X576465D01*
X581463Y90998D02*
X582463Y91997D01*
X584462D01*
X585462Y90998D01*
Y86999D01*
X584462Y85999D01*
X582463D01*
X581463Y86999D01*
Y90998D01*
X591460Y91997D02*
X587462D01*
Y88998D01*
X589461Y89998D01*
X590460D01*
X591460Y88998D01*
Y86999D01*
X590460Y85999D01*
X588461D01*
X587462Y86999D01*
X597458Y91997D02*
X593460D01*
Y88998D01*
X595459Y89998D01*
X596459D01*
X597458Y88998D01*
Y86999D01*
X596459Y85999D01*
X594459D01*
X593460Y86999D01*
X599458Y85999D02*
Y89998D01*
X600457D01*
X601457Y88998D01*
Y85999D01*
Y88998D01*
X602457Y89998D01*
X603456Y88998D01*
Y85999D01*
X605456D02*
X607455D01*
X606455D01*
Y89998D01*
X605456D01*
X610454Y85999D02*
X612453D01*
X611454D01*
Y91997D01*
X610454D01*
X623450Y85999D02*
X621451Y87999D01*
Y89998D01*
X623450Y91997D01*
X626449Y85999D02*
X628448D01*
X627449D01*
Y91997D01*
X626449Y90998D01*
X631447Y85999D02*
Y86999D01*
X632447D01*
Y85999D01*
X631447D01*
X640444Y91997D02*
X636446D01*
Y88998D01*
X638445Y89998D01*
X639445D01*
X640444Y88998D01*
Y86999D01*
X639445Y85999D01*
X637445D01*
X636446Y86999D01*
X642444Y85999D02*
Y89998D01*
X643443D01*
X644443Y88998D01*
Y85999D01*
Y88998D01*
X645443Y89998D01*
X646442Y88998D01*
Y85999D01*
X648442D02*
Y89998D01*
X649441D01*
X650441Y88998D01*
Y85999D01*
Y88998D01*
X651441Y89998D01*
X652441Y88998D01*
Y85999D01*
X654440D02*
X656439Y87999D01*
Y89998D01*
X654440Y91997D01*
X933961Y85999D02*
Y91997D01*
X936960D01*
X937960Y90998D01*
Y88998D01*
X936960Y87999D01*
X933961D01*
X939959Y91997D02*
X943958D01*
X941958D01*
Y85999D01*
X945957Y91997D02*
Y85999D01*
Y88998D01*
X949956D01*
Y91997D01*
Y85999D01*
X984349D02*
Y91997D01*
X987348D01*
X988347Y90998D01*
Y88998D01*
X987348Y87999D01*
X984349D01*
X986348D02*
X988347Y85999D01*
X991346D02*
X993346D01*
X994345Y86999D01*
Y88998D01*
X993346Y89998D01*
X991346D01*
X990347Y88998D01*
Y86999D01*
X991346Y85999D01*
X996345Y89998D02*
Y86999D01*
X997344Y85999D01*
X1000343D01*
Y89998D01*
X1002343Y85999D02*
Y89998D01*
X1005342D01*
X1006341Y88998D01*
Y85999D01*
X1012339Y91997D02*
Y85999D01*
X1009340D01*
X1008341Y86999D01*
Y88998D01*
X1009340Y89998D01*
X1012339D01*
X497887Y73999D02*
Y79997D01*
X494888Y76998D01*
X498886D01*
X564469Y79997D02*
X568468D01*
Y78998D01*
X564469Y74999D01*
Y73999D01*
X570467Y78998D02*
X571467Y79997D01*
X573466D01*
X574466Y78998D01*
Y77998D01*
X573466Y76998D01*
X574466Y75999D01*
Y74999D01*
X573466Y73999D01*
X571467D01*
X570467Y74999D01*
Y75999D01*
X571467Y76998D01*
X570467Y77998D01*
Y78998D01*
X571467Y76998D02*
X573466D01*
X576465Y73999D02*
Y74999D01*
X577465D01*
Y73999D01*
X576465D01*
X581463Y79997D02*
X585462D01*
Y78998D01*
X581463Y74999D01*
Y73999D01*
X590460D02*
Y79997D01*
X587462Y76998D01*
X591460D01*
X593460Y73999D02*
Y77998D01*
X594459D01*
X595459Y76998D01*
Y73999D01*
Y76998D01*
X596459Y77998D01*
X597458Y76998D01*
Y73999D01*
X599458D02*
X601457D01*
X600457D01*
Y77998D01*
X599458D01*
X604456Y73999D02*
X606455D01*
X605456D01*
Y79997D01*
X604456D01*
X617452Y73999D02*
X615452Y75999D01*
Y77998D01*
X617452Y79997D01*
X624449Y73999D02*
X620451D01*
X624449Y77998D01*
Y78998D01*
X623450Y79997D01*
X621451D01*
X620451Y78998D01*
X626449Y73999D02*
Y77998D01*
X627449D01*
X628448Y76998D01*
Y73999D01*
Y76998D01*
X629448Y77998D01*
X630448Y76998D01*
Y73999D01*
X632447D02*
Y77998D01*
X633447D01*
X634446Y76998D01*
Y73999D01*
Y76998D01*
X635446Y77998D01*
X636446Y76998D01*
Y73999D01*
X638445D02*
X640444Y75999D01*
Y77998D01*
X638445Y79997D01*
X933961Y73999D02*
Y79997D01*
X937960Y73999D01*
Y79997D01*
X939959Y73999D02*
Y79997D01*
X942958D01*
X943958Y78998D01*
Y76998D01*
X942958Y75999D01*
X939959D01*
X945957Y79997D02*
X949956D01*
X947956D01*
Y73999D01*
X951955Y79997D02*
Y73999D01*
Y76998D01*
X955954D01*
Y79997D01*
Y73999D01*
X984349D02*
Y79997D01*
X987348D01*
X988347Y78998D01*
Y76998D01*
X987348Y75999D01*
X984349D01*
X986348D02*
X988347Y73999D01*
X991346D02*
X993346D01*
X994345Y74999D01*
Y76998D01*
X993346Y77998D01*
X991346D01*
X990347Y76998D01*
Y74999D01*
X991346Y73999D01*
X996345Y77998D02*
Y74999D01*
X997344Y73999D01*
X1000343D01*
Y77998D01*
X1002343Y73999D02*
Y77998D01*
X1005342D01*
X1006341Y76998D01*
Y73999D01*
X1012339Y79997D02*
Y73999D01*
X1009340D01*
X1008341Y74999D01*
Y76998D01*
X1009340Y77998D01*
X1012339D01*
X498886Y61999D02*
X494888D01*
X498886Y65998D01*
Y66998D01*
X497887Y67997D01*
X495887D01*
X494888Y66998D01*
X564469Y61999D02*
X566468D01*
X565469D01*
Y67997D01*
X564469Y66998D01*
X573466Y61999D02*
X569467D01*
X573466Y65998D01*
Y66998D01*
X572466Y67997D01*
X570467D01*
X569467Y66998D01*
X575465Y62999D02*
X576465Y61999D01*
X578464D01*
X579464Y62999D01*
Y66998D01*
X578464Y67997D01*
X576465D01*
X575465Y66998D01*
Y65998D01*
X576465Y64998D01*
X579464D01*
X581463Y61999D02*
Y62999D01*
X582463D01*
Y61999D01*
X581463D01*
X586462Y62999D02*
X587462Y61999D01*
X589461D01*
X590460Y62999D01*
Y66998D01*
X589461Y67997D01*
X587462D01*
X586462Y66998D01*
Y65998D01*
X587462Y64998D01*
X590460D01*
X596459Y61999D02*
X592460D01*
X596459Y65998D01*
Y66998D01*
X595459Y67997D01*
X593460D01*
X592460Y66998D01*
X598458Y61999D02*
X600457D01*
X599458D01*
Y67997D01*
X598458Y66998D01*
X603456Y61999D02*
Y65998D01*
X604456D01*
X605456Y64998D01*
Y61999D01*
Y64998D01*
X606455Y65998D01*
X607455Y64998D01*
Y61999D01*
X609454D02*
X611454D01*
X610454D01*
Y65998D01*
X609454D01*
X614453Y61999D02*
X616452D01*
X615452D01*
Y67997D01*
X614453D01*
X627449Y61999D02*
X625449Y63999D01*
Y65998D01*
X627449Y67997D01*
X630448Y66998D02*
X631447Y67997D01*
X633447D01*
X634446Y66998D01*
Y65998D01*
X633447Y64998D01*
X632447D01*
X633447D01*
X634446Y63999D01*
Y62999D01*
X633447Y61999D01*
X631447D01*
X630448Y62999D01*
X636446Y61999D02*
Y62999D01*
X637445D01*
Y61999D01*
X636446D01*
X641444Y66998D02*
X642444Y67997D01*
X644443D01*
X645443Y66998D01*
Y65998D01*
X644443Y64998D01*
X643443D01*
X644443D01*
X645443Y63999D01*
Y62999D01*
X644443Y61999D01*
X642444D01*
X641444Y62999D01*
X647442Y61999D02*
Y65998D01*
X648442D01*
X649441Y64998D01*
Y61999D01*
Y64998D01*
X650441Y65998D01*
X651441Y64998D01*
Y61999D01*
X653440D02*
Y65998D01*
X654440D01*
X655440Y64998D01*
Y61999D01*
Y64998D01*
X656439Y65998D01*
X657439Y64998D01*
Y61999D01*
X659438D02*
X661438Y63999D01*
Y65998D01*
X659438Y67997D01*
X933961Y61999D02*
Y67997D01*
X937960Y61999D01*
Y67997D01*
X939959Y61999D02*
Y67997D01*
X942958D01*
X943958Y66998D01*
Y64998D01*
X942958Y63999D01*
X939959D01*
X945957Y67997D02*
X949956D01*
X947956D01*
Y61999D01*
X951955Y67997D02*
Y61999D01*
Y64998D01*
X955954D01*
Y67997D01*
Y61999D01*
X984349D02*
Y67997D01*
X987348D01*
X988347Y66998D01*
Y64998D01*
X987348Y63999D01*
X984349D01*
X986348D02*
X988347Y61999D01*
X991346D02*
X993346D01*
X994345Y62999D01*
Y64998D01*
X993346Y65998D01*
X991346D01*
X990347Y64998D01*
Y62999D01*
X991346Y61999D01*
X996345Y65998D02*
Y62999D01*
X997344Y61999D01*
X1000343D01*
Y65998D01*
X1002343Y61999D02*
Y65998D01*
X1005342D01*
X1006341Y64998D01*
Y61999D01*
X1012339Y67997D02*
Y61999D01*
X1009340D01*
X1008341Y62999D01*
Y64998D01*
X1009340Y65998D01*
X1012339D01*
X498886Y49999D02*
X494888D01*
X498886Y53998D01*
Y54998D01*
X497887Y55997D01*
X495887D01*
X494888Y54998D01*
X568468Y49999D02*
X564469D01*
X568468Y53998D01*
Y54998D01*
X567468Y55997D01*
X565469D01*
X564469Y54998D01*
X570467D02*
X571467Y55997D01*
X573466D01*
X574466Y54998D01*
Y53998D01*
X573466Y52998D01*
X572466D01*
X573466D01*
X574466Y51999D01*
Y50999D01*
X573466Y49999D01*
X571467D01*
X570467Y50999D01*
X576465Y49999D02*
Y50999D01*
X577465D01*
Y49999D01*
X576465D01*
X585462Y55997D02*
X583463Y54998D01*
X581463Y52998D01*
Y50999D01*
X582463Y49999D01*
X584462D01*
X585462Y50999D01*
Y51999D01*
X584462Y52998D01*
X581463D01*
X591460Y49999D02*
X587462D01*
X591460Y53998D01*
Y54998D01*
X590460Y55997D01*
X588461D01*
X587462Y54998D01*
X597458Y49999D02*
X593460D01*
X597458Y53998D01*
Y54998D01*
X596459Y55997D01*
X594459D01*
X593460Y54998D01*
X599458Y49999D02*
Y53998D01*
X600457D01*
X601457Y52998D01*
Y49999D01*
Y52998D01*
X602457Y53998D01*
X603456Y52998D01*
Y49999D01*
X605456D02*
X607455D01*
X606455D01*
Y53998D01*
X605456D01*
X610454Y49999D02*
X612453D01*
X611454D01*
Y55997D01*
X610454D01*
X623450Y49999D02*
X621451Y51999D01*
Y53998D01*
X623450Y55997D01*
X626449Y54998D02*
X627449Y55997D01*
X629448D01*
X630448Y54998D01*
Y50999D01*
X629448Y49999D01*
X627449D01*
X626449Y50999D01*
Y54998D01*
X632447Y49999D02*
Y50999D01*
X633447D01*
Y49999D01*
X632447D01*
X641444Y55997D02*
X639445Y54998D01*
X637445Y52998D01*
Y50999D01*
X638445Y49999D01*
X640444D01*
X641444Y50999D01*
Y51999D01*
X640444Y52998D01*
X637445D01*
X643443Y49999D02*
Y53998D01*
X644443D01*
X645443Y52998D01*
Y49999D01*
Y52998D01*
X646442Y53998D01*
X647442Y52998D01*
Y49999D01*
X649441D02*
Y53998D01*
X650441D01*
X651441Y52998D01*
Y49999D01*
Y52998D01*
X652441Y53998D01*
X653440Y52998D01*
Y49999D01*
X655440D02*
X657439Y51999D01*
Y53998D01*
X655440Y55997D01*
X701828Y49999D02*
Y55997D01*
X698829Y52998D01*
X702828D01*
X704827Y55997D02*
X708826D01*
Y54998D01*
X704827Y50999D01*
Y49999D01*
X710825D02*
Y50999D01*
X711825D01*
Y49999D01*
X710825D01*
X719823D02*
X715824D01*
X719823Y53998D01*
Y54998D01*
X718823Y55997D01*
X716823D01*
X715824Y54998D01*
X724821Y49999D02*
Y55997D01*
X721822Y52998D01*
X725821D01*
X730819Y49999D02*
Y55997D01*
X727820Y52998D01*
X731819D01*
X733818Y49999D02*
Y53998D01*
X734818D01*
X735817Y52998D01*
Y49999D01*
Y52998D01*
X736817Y53998D01*
X737817Y52998D01*
Y49999D01*
X739816D02*
X741815D01*
X740816D01*
Y53998D01*
X739816D01*
X744814Y49999D02*
X746814D01*
X745814D01*
Y55997D01*
X744814D01*
X757810Y49999D02*
X755811Y51999D01*
Y53998D01*
X757810Y55997D01*
X760809Y49999D02*
X762809D01*
X761809D01*
Y55997D01*
X760809Y54998D01*
X765808Y49999D02*
Y50999D01*
X766807D01*
Y49999D01*
X765808D01*
X774805D02*
X770806D01*
X774805Y53998D01*
Y54998D01*
X773805Y55997D01*
X771806D01*
X770806Y54998D01*
X776804Y49999D02*
Y53998D01*
X777804D01*
X778803Y52998D01*
Y49999D01*
Y52998D01*
X779803Y53998D01*
X780803Y52998D01*
Y49999D01*
X782802D02*
Y53998D01*
X783802D01*
X784801Y52998D01*
Y49999D01*
Y52998D01*
X785801Y53998D01*
X786801Y52998D01*
Y49999D01*
X788800D02*
X790800Y51999D01*
Y53998D01*
X788800Y55997D01*
X816795Y49999D02*
X812796D01*
X816795Y53998D01*
Y54998D01*
X815795Y55997D01*
X813796D01*
X812796Y54998D01*
X818794D02*
X819794Y55997D01*
X821793D01*
X822793Y54998D01*
Y53998D01*
X821793Y52998D01*
X820794D01*
X821793D01*
X822793Y51999D01*
Y50999D01*
X821793Y49999D01*
X819794D01*
X818794Y50999D01*
X824792Y49999D02*
Y50999D01*
X825792D01*
Y49999D01*
X824792D01*
X833790Y55997D02*
X831790Y54998D01*
X829791Y52998D01*
Y50999D01*
X830791Y49999D01*
X832790D01*
X833790Y50999D01*
Y51999D01*
X832790Y52998D01*
X829791D01*
X839788Y49999D02*
X835789D01*
X839788Y53998D01*
Y54998D01*
X838788Y55997D01*
X836789D01*
X835789Y54998D01*
X845786Y49999D02*
X841787D01*
X845786Y53998D01*
Y54998D01*
X844786Y55997D01*
X842787D01*
X841787Y54998D01*
X847785Y49999D02*
Y53998D01*
X848785D01*
X849784Y52998D01*
Y49999D01*
Y52998D01*
X850784Y53998D01*
X851784Y52998D01*
Y49999D01*
X853783D02*
X855782D01*
X854783D01*
Y53998D01*
X853783D01*
X858782Y49999D02*
X860781D01*
X859781D01*
Y55997D01*
X858782D01*
X871777Y49999D02*
X869778Y51999D01*
Y53998D01*
X871777Y55997D01*
X874776Y54998D02*
X875776Y55997D01*
X877775D01*
X878775Y54998D01*
Y50999D01*
X877775Y49999D01*
X875776D01*
X874776Y50999D01*
Y54998D01*
X880774Y49999D02*
Y50999D01*
X881774D01*
Y49999D01*
X880774D01*
X889771Y55997D02*
X887772Y54998D01*
X885773Y52998D01*
Y50999D01*
X886772Y49999D01*
X888772D01*
X889771Y50999D01*
Y51999D01*
X888772Y52998D01*
X885773D01*
X891771Y49999D02*
Y53998D01*
X892770D01*
X893770Y52998D01*
Y49999D01*
Y52998D01*
X894770Y53998D01*
X895770Y52998D01*
Y49999D01*
X897769D02*
Y53998D01*
X898769D01*
X899768Y52998D01*
Y49999D01*
Y52998D01*
X900768Y53998D01*
X901768Y52998D01*
Y49999D01*
X903767D02*
X905766Y51999D01*
Y53998D01*
X903767Y55997D01*
X933961Y49999D02*
Y55997D01*
X936960D01*
X937960Y54998D01*
Y52998D01*
X936960Y51999D01*
X933961D01*
X939959Y55997D02*
X943958D01*
X941958D01*
Y49999D01*
X945957Y55997D02*
Y49999D01*
Y52998D01*
X949956D01*
Y55997D01*
Y49999D01*
X988347Y54998D02*
X987348Y55997D01*
X985348D01*
X984349Y54998D01*
Y53998D01*
X985348Y52998D01*
X987348D01*
X988347Y51999D01*
Y50999D01*
X987348Y49999D01*
X985348D01*
X984349Y50999D01*
X990347Y49999D02*
X992346D01*
X991346D01*
Y55997D01*
X990347D01*
X996345Y49999D02*
X998344D01*
X999344Y50999D01*
Y52998D01*
X998344Y53998D01*
X996345D01*
X995345Y52998D01*
Y50999D01*
X996345Y49999D01*
X1002343Y54998D02*
Y53998D01*
X1001343D01*
X1003342D01*
X1002343D01*
Y50999D01*
X1003342Y49999D01*
X498886Y37999D02*
X494888D01*
X498886Y41998D01*
Y42998D01*
X497887Y43997D01*
X495887D01*
X494888Y42998D01*
X568468Y37999D02*
X564469D01*
X568468Y41998D01*
Y42998D01*
X567468Y43997D01*
X565469D01*
X564469Y42998D01*
X570467D02*
X571467Y43997D01*
X573466D01*
X574466Y42998D01*
Y41998D01*
X573466Y40998D01*
X572466D01*
X573466D01*
X574466Y39999D01*
Y38999D01*
X573466Y37999D01*
X571467D01*
X570467Y38999D01*
X576465Y37999D02*
Y38999D01*
X577465D01*
Y37999D01*
X576465D01*
X585462Y43997D02*
X583463Y42998D01*
X581463Y40998D01*
Y38999D01*
X582463Y37999D01*
X584462D01*
X585462Y38999D01*
Y39999D01*
X584462Y40998D01*
X581463D01*
X591460Y37999D02*
X587462D01*
X591460Y41998D01*
Y42998D01*
X590460Y43997D01*
X588461D01*
X587462Y42998D01*
X597458Y37999D02*
X593460D01*
X597458Y41998D01*
Y42998D01*
X596459Y43997D01*
X594459D01*
X593460Y42998D01*
X599458Y37999D02*
Y41998D01*
X600457D01*
X601457Y40998D01*
Y37999D01*
Y40998D01*
X602457Y41998D01*
X603456Y40998D01*
Y37999D01*
X605456D02*
X607455D01*
X606455D01*
Y41998D01*
X605456D01*
X610454Y37999D02*
X612453D01*
X611454D01*
Y43997D01*
X610454D01*
X623450Y37999D02*
X621451Y39999D01*
Y41998D01*
X623450Y43997D01*
X626449Y42998D02*
X627449Y43997D01*
X629448D01*
X630448Y42998D01*
Y38999D01*
X629448Y37999D01*
X627449D01*
X626449Y38999D01*
Y42998D01*
X632447Y37999D02*
Y38999D01*
X633447D01*
Y37999D01*
X632447D01*
X641444Y43997D02*
X639445Y42998D01*
X637445Y40998D01*
Y38999D01*
X638445Y37999D01*
X640444D01*
X641444Y38999D01*
Y39999D01*
X640444Y40998D01*
X637445D01*
X643443Y37999D02*
Y41998D01*
X644443D01*
X645443Y40998D01*
Y37999D01*
Y40998D01*
X646442Y41998D01*
X647442Y40998D01*
Y37999D01*
X649441D02*
Y41998D01*
X650441D01*
X651441Y40998D01*
Y37999D01*
Y40998D01*
X652441Y41998D01*
X653440Y40998D01*
Y37999D01*
X655440D02*
X657439Y39999D01*
Y41998D01*
X655440Y43997D01*
X698829D02*
X702828D01*
Y42998D01*
X698829Y38999D01*
Y37999D01*
X704827Y42998D02*
X705827Y43997D01*
X707826D01*
X708826Y42998D01*
Y38999D01*
X707826Y37999D01*
X705827D01*
X704827Y38999D01*
Y42998D01*
X710825Y37999D02*
Y38999D01*
X711825D01*
Y37999D01*
X710825D01*
X715824Y42998D02*
X716823Y43997D01*
X718823D01*
X719823Y42998D01*
Y41998D01*
X718823Y40998D01*
X719823Y39999D01*
Y38999D01*
X718823Y37999D01*
X716823D01*
X715824Y38999D01*
Y39999D01*
X716823Y40998D01*
X715824Y41998D01*
Y42998D01*
X716823Y40998D02*
X718823D01*
X725821Y43997D02*
X723821Y42998D01*
X721822Y40998D01*
Y38999D01*
X722822Y37999D01*
X724821D01*
X725821Y38999D01*
Y39999D01*
X724821Y40998D01*
X721822D01*
X731819Y43997D02*
X729819Y42998D01*
X727820Y40998D01*
Y38999D01*
X728820Y37999D01*
X730819D01*
X731819Y38999D01*
Y39999D01*
X730819Y40998D01*
X727820D01*
X733818Y37999D02*
Y41998D01*
X734818D01*
X735817Y40998D01*
Y37999D01*
Y40998D01*
X736817Y41998D01*
X737817Y40998D01*
Y37999D01*
X739816D02*
X741815D01*
X740816D01*
Y41998D01*
X739816D01*
X744814Y37999D02*
X746814D01*
X745814D01*
Y43997D01*
X744814D01*
X757810Y37999D02*
X755811Y39999D01*
Y41998D01*
X757810Y43997D01*
X760809Y37999D02*
X762809D01*
X761809D01*
Y43997D01*
X760809Y42998D01*
X765808Y37999D02*
Y38999D01*
X766807D01*
Y37999D01*
X765808D01*
X770806Y42998D02*
X771806Y43997D01*
X773805D01*
X774805Y42998D01*
Y41998D01*
X773805Y40998D01*
X774805Y39999D01*
Y38999D01*
X773805Y37999D01*
X771806D01*
X770806Y38999D01*
Y39999D01*
X771806Y40998D01*
X770806Y41998D01*
Y42998D01*
X771806Y40998D02*
X773805D01*
X776804Y37999D02*
Y41998D01*
X777804D01*
X778803Y40998D01*
Y37999D01*
Y40998D01*
X779803Y41998D01*
X780803Y40998D01*
Y37999D01*
X782802D02*
Y41998D01*
X783802D01*
X784801Y40998D01*
Y37999D01*
Y40998D01*
X785801Y41998D01*
X786801Y40998D01*
Y37999D01*
X788800D02*
X790800Y39999D01*
Y41998D01*
X788800Y43997D01*
X815795Y37999D02*
Y43997D01*
X812796Y40998D01*
X816795D01*
X818794Y43997D02*
X822793D01*
Y42998D01*
X818794Y38999D01*
Y37999D01*
X824792D02*
Y38999D01*
X825792D01*
Y37999D01*
X824792D01*
X833790D02*
X829791D01*
X833790Y41998D01*
Y42998D01*
X832790Y43997D01*
X830791D01*
X829791Y42998D01*
X838788Y37999D02*
Y43997D01*
X835789Y40998D01*
X839788D01*
X844786Y37999D02*
Y43997D01*
X841787Y40998D01*
X845786D01*
X847785Y37999D02*
Y41998D01*
X848785D01*
X849784Y40998D01*
Y37999D01*
Y40998D01*
X850784Y41998D01*
X851784Y40998D01*
Y37999D01*
X853783D02*
X855782D01*
X854783D01*
Y41998D01*
X853783D01*
X858782Y37999D02*
X860781D01*
X859781D01*
Y43997D01*
X858782D01*
X871777Y37999D02*
X869778Y39999D01*
Y41998D01*
X871777Y43997D01*
X874776Y37999D02*
X876776D01*
X875776D01*
Y43997D01*
X874776Y42998D01*
X879775Y37999D02*
Y38999D01*
X880774D01*
Y37999D01*
X879775D01*
X888772D02*
X884773D01*
X888772Y41998D01*
Y42998D01*
X887772Y43997D01*
X885773D01*
X884773Y42998D01*
X890771Y37999D02*
Y41998D01*
X891771D01*
X892770Y40998D01*
Y37999D01*
Y40998D01*
X893770Y41998D01*
X894770Y40998D01*
Y37999D01*
X896769D02*
Y41998D01*
X897769D01*
X898769Y40998D01*
Y37999D01*
Y40998D01*
X899768Y41998D01*
X900768Y40998D01*
Y37999D01*
X902767D02*
X904767Y39999D01*
Y41998D01*
X902767Y43997D01*
X933961Y37999D02*
Y43997D01*
X936960D01*
X937960Y42998D01*
Y40998D01*
X936960Y39999D01*
X933961D01*
X939959Y43997D02*
X943958D01*
X941958D01*
Y37999D01*
X945957Y43997D02*
Y37999D01*
Y40998D01*
X949956D01*
Y43997D01*
Y37999D01*
X988347Y42998D02*
X987348Y43997D01*
X985348D01*
X984349Y42998D01*
Y41998D01*
X985348Y40998D01*
X987348D01*
X988347Y39999D01*
Y38999D01*
X987348Y37999D01*
X985348D01*
X984349Y38999D01*
X990347Y37999D02*
X992346D01*
X991346D01*
Y43997D01*
X990347D01*
X996345Y37999D02*
X998344D01*
X999344Y38999D01*
Y40998D01*
X998344Y41998D01*
X996345D01*
X995345Y40998D01*
Y38999D01*
X996345Y37999D01*
X1002343Y42998D02*
Y41998D01*
X1001343D01*
X1003342D01*
X1002343D01*
Y38999D01*
X1003342Y37999D01*
X494888Y25999D02*
X496887D01*
X495887D01*
Y31997D01*
X494888Y30998D01*
X503885Y25999D02*
X499886D01*
X503885Y29998D01*
Y30998D01*
X502885Y31997D01*
X500886D01*
X499886Y30998D01*
X505884Y26999D02*
X506884Y25999D01*
X508883D01*
X509883Y26999D01*
Y30998D01*
X508883Y31997D01*
X506884D01*
X505884Y30998D01*
Y29998D01*
X506884Y28998D01*
X509883D01*
X520683Y31997D02*
X524681D01*
X522682D01*
Y25999D01*
X527680D02*
X529680D01*
X530680Y26999D01*
Y28998D01*
X529680Y29998D01*
X527680D01*
X526681Y28998D01*
Y26999D01*
X527680Y25999D01*
X533678Y30998D02*
Y29998D01*
X532679D01*
X534678D01*
X533678D01*
Y26999D01*
X534678Y25999D01*
X538677Y29998D02*
X540676D01*
X541676Y28998D01*
Y25999D01*
X538677D01*
X537677Y26999D01*
X538677Y27999D01*
X541676D01*
X543675Y25999D02*
X545675D01*
X544675D01*
Y31997D01*
X543675D01*
X651838Y15999D02*
X655836D01*
X651838Y17998D02*
X655836D01*
X667832Y18998D02*
X666833Y19997D01*
X664833D01*
X663834Y18998D01*
Y14999D01*
X664833Y13999D01*
X666833D01*
X667832Y14999D01*
X670831Y17998D02*
X672831D01*
X673831Y16998D01*
Y13999D01*
X670831D01*
X669832Y14999D01*
X670831Y15999D01*
X673831D01*
X675830Y13999D02*
X677829D01*
X676829D01*
Y19997D01*
X675830D01*
X684827Y17998D02*
X681828D01*
X680828Y16998D01*
Y14999D01*
X681828Y13999D01*
X684827D01*
X686826Y17998D02*
Y14999D01*
X687826Y13999D01*
X690825D01*
Y17998D01*
X692824Y13999D02*
X694824D01*
X693824D01*
Y19997D01*
X692824D01*
X698822Y17998D02*
X700822D01*
X701821Y16998D01*
Y13999D01*
X698822D01*
X697823Y14999D01*
X698822Y15999D01*
X701821D01*
X704820Y18998D02*
Y17998D01*
X703821D01*
X705820D01*
X704820D01*
Y14999D01*
X705820Y13999D01*
X711818D02*
X709819D01*
X708819Y14999D01*
Y16998D01*
X709819Y17998D01*
X711818D01*
X712818Y16998D01*
Y15999D01*
X708819D01*
X718816Y19997D02*
Y13999D01*
X715817D01*
X714817Y14999D01*
Y16998D01*
X715817Y17998D01*
X718816D01*
X727813Y13999D02*
Y18998D01*
Y16998D01*
X726813D01*
X728813D01*
X727813D01*
Y18998D01*
X728813Y19997D01*
X731812Y17998D02*
Y13999D01*
Y15999D01*
X732811Y16998D01*
X733811Y17998D01*
X734811D01*
X738809Y13999D02*
X740809D01*
X741809Y14999D01*
Y16998D01*
X740809Y17998D01*
X738809D01*
X737810Y16998D01*
Y14999D01*
X738809Y13999D01*
X743808D02*
Y17998D01*
X744807D01*
X745807Y16998D01*
Y13999D01*
Y16998D01*
X746807Y17998D01*
X747807Y16998D01*
Y13999D01*
X756804Y18998D02*
Y17998D01*
X755804D01*
X757803D01*
X756804D01*
Y14999D01*
X757803Y13999D01*
X761802D02*
X763801D01*
X764801Y14999D01*
Y16998D01*
X763801Y17998D01*
X761802D01*
X760802Y16998D01*
Y14999D01*
X761802Y13999D01*
X767800D02*
X769799D01*
X770799Y14999D01*
Y16998D01*
X769799Y17998D01*
X767800D01*
X766800Y16998D01*
Y14999D01*
X767800Y13999D01*
X772798D02*
X774798D01*
X773798D01*
Y19997D01*
X772798D01*
X783795Y13999D02*
X786794D01*
X787794Y14999D01*
X786794Y15999D01*
X784795D01*
X783795Y16998D01*
X784795Y17998D01*
X787794D01*
X790793Y18998D02*
Y17998D01*
X789793D01*
X791792D01*
X790793D01*
Y14999D01*
X791792Y13999D01*
X795791Y17998D02*
X797790D01*
X798790Y16998D01*
Y13999D01*
X795791D01*
X794791Y14999D01*
X795791Y15999D01*
X798790D01*
X800789Y17998D02*
Y13999D01*
Y15999D01*
X801789Y16998D01*
X802789Y17998D01*
X803788D01*
X807787Y18998D02*
Y17998D01*
X806787D01*
X808787D01*
X807787D01*
Y14999D01*
X808787Y13999D01*
X821783Y17998D02*
X818784D01*
X817784Y16998D01*
Y14999D01*
X818784Y13999D01*
X821783D01*
X826781D02*
X824782D01*
X823782Y14999D01*
Y16998D01*
X824782Y17998D01*
X826781D01*
X827781Y16998D01*
Y15999D01*
X823782D01*
X829780Y13999D02*
Y17998D01*
X832779D01*
X833779Y16998D01*
Y13999D01*
X836778Y18998D02*
Y17998D01*
X835778D01*
X837777D01*
X836778D01*
Y14999D01*
X837777Y13999D01*
X840776Y17998D02*
Y13999D01*
Y15999D01*
X841776Y16998D01*
X842776Y17998D01*
X843775D01*
X849774Y13999D02*
X847774D01*
X846774Y14999D01*
Y16998D01*
X847774Y17998D01*
X849774D01*
X850773Y16998D01*
Y15999D01*
X846774D01*
X858771Y12000D02*
Y17998D01*
X861770D01*
X862769Y16998D01*
Y14999D01*
X861770Y13999D01*
X858771D01*
X865768D02*
X867768D01*
X868767Y14999D01*
Y16998D01*
X867768Y17998D01*
X865768D01*
X864769Y16998D01*
Y14999D01*
X865768Y13999D01*
X870767D02*
X873766D01*
X874765Y14999D01*
X873766Y15999D01*
X871766D01*
X870767Y16998D01*
X871766Y17998D01*
X874765D01*
X876765Y13999D02*
X878764D01*
X877765D01*
Y17998D01*
X876765D01*
X882763Y18998D02*
Y17998D01*
X881763D01*
X883762D01*
X882763D01*
Y14999D01*
X883762Y13999D01*
X886761D02*
X888761D01*
X887761D01*
Y17998D01*
X886761D01*
X892760Y13999D02*
X894759D01*
X895759Y14999D01*
Y16998D01*
X894759Y17998D01*
X892760D01*
X891760Y16998D01*
Y14999D01*
X892760Y13999D01*
X897758D02*
Y17998D01*
X900757D01*
X901757Y16998D01*
Y13999D01*
X910754Y18998D02*
Y17998D01*
X909754D01*
X911753D01*
X910754D01*
Y14999D01*
X911753Y13999D01*
X915752D02*
X917752D01*
X918751Y14999D01*
Y16998D01*
X917752Y17998D01*
X915752D01*
X914752Y16998D01*
Y14999D01*
X915752Y13999D01*
X927748Y18998D02*
Y17998D01*
X926749D01*
X928748D01*
X927748D01*
Y14999D01*
X928748Y13999D01*
X932747D02*
X934746D01*
X935746Y14999D01*
Y16998D01*
X934746Y17998D01*
X932747D01*
X931747Y16998D01*
Y14999D01*
X932747Y13999D01*
X938745D02*
X940744D01*
X941744Y14999D01*
Y16998D01*
X940744Y17998D01*
X938745D01*
X937745Y16998D01*
Y14999D01*
X938745Y13999D01*
X943743D02*
X945743D01*
X944743D01*
Y19997D01*
X943743D01*
X957739Y13999D02*
X955739D01*
X954740Y14999D01*
Y16998D01*
X955739Y17998D01*
X957739D01*
X958738Y16998D01*
Y15999D01*
X954740D01*
X960738Y13999D02*
Y17998D01*
X963737D01*
X964736Y16998D01*
Y13999D01*
X970734Y19997D02*
Y13999D01*
X967735D01*
X966736Y14999D01*
Y16998D01*
X967735Y17998D01*
X970734D01*
X982730D02*
X979731D01*
X978732Y16998D01*
Y14999D01*
X979731Y13999D01*
X982730D01*
X987729D02*
X985730D01*
X984730Y14999D01*
Y16998D01*
X985730Y17998D01*
X987729D01*
X988729Y16998D01*
Y15999D01*
X984730D01*
X990728Y13999D02*
Y17998D01*
X993727D01*
X994727Y16998D01*
Y13999D01*
X997726Y18998D02*
Y17998D01*
X996726D01*
X998725D01*
X997726D01*
Y14999D01*
X998725Y13999D01*
X1001724Y17998D02*
Y13999D01*
Y15999D01*
X1002724Y16998D01*
X1003724Y17998D01*
X1004723D01*
X1010721Y13999D02*
X1008722D01*
X1007722Y14999D01*
Y16998D01*
X1008722Y17998D01*
X1010721D01*
X1011721Y16998D01*
Y15999D01*
X1007722D01*
X1019718Y12000D02*
Y17998D01*
X1022718D01*
X1023717Y16998D01*
Y14999D01*
X1022718Y13999D01*
X1019718D01*
X1026716D02*
X1028716D01*
X1029715Y14999D01*
Y16998D01*
X1028716Y17998D01*
X1026716D01*
X1025717Y16998D01*
Y14999D01*
X1026716Y13999D01*
X1031715D02*
X1034714D01*
X1035713Y14999D01*
X1034714Y15999D01*
X1032714D01*
X1031715Y16998D01*
X1032714Y17998D01*
X1035713D01*
X1037713Y13999D02*
X1039712D01*
X1038712D01*
Y17998D01*
X1037713D01*
X1043711Y18998D02*
Y17998D01*
X1042711D01*
X1044710D01*
X1043711D01*
Y14999D01*
X1044710Y13999D01*
X1047709D02*
X1049709D01*
X1048709D01*
Y17998D01*
X1047709D01*
X1053708Y13999D02*
X1055707D01*
X1056707Y14999D01*
Y16998D01*
X1055707Y17998D01*
X1053708D01*
X1052708Y16998D01*
Y14999D01*
X1053708Y13999D01*
X1058706D02*
Y17998D01*
X1061705D01*
X1062705Y16998D01*
Y13999D01*
X1064704D02*
Y14999D01*
X1065704D01*
Y13999D01*
X1064704D01*
X651838Y3999D02*
X655836D01*
X651838Y5998D02*
X655836D01*
X663834Y1999D02*
Y7997D01*
X666833D01*
X667832Y6998D01*
Y4998D01*
X666833Y3999D01*
X663834D01*
X665833D02*
X667832Y1999D01*
X670831D02*
X672831D01*
X673831Y2999D01*
Y4998D01*
X672831Y5998D01*
X670831D01*
X669832Y4998D01*
Y2999D01*
X670831Y1999D01*
X675830Y5998D02*
Y2999D01*
X676829Y1999D01*
X679829D01*
Y5998D01*
X682828Y6998D02*
Y5998D01*
X681828D01*
X683827D01*
X682828D01*
Y2999D01*
X683827Y1999D01*
X692824D02*
Y7997D01*
X695823D01*
X696823Y6998D01*
Y4998D01*
X695823Y3999D01*
X692824D01*
X699822Y5998D02*
X701821D01*
X702821Y4998D01*
Y1999D01*
X699822D01*
X698822Y2999D01*
X699822Y3999D01*
X702821D01*
X705820Y6998D02*
Y5998D01*
X704820D01*
X706820D01*
X705820D01*
Y2999D01*
X706820Y1999D01*
X709819Y7997D02*
Y1999D01*
Y4998D01*
X710818Y5998D01*
X712818D01*
X713818Y4998D01*
Y1999D01*
X721815Y7997D02*
Y1999D01*
X725814D01*
X730812D02*
X728813D01*
X727813Y2999D01*
Y4998D01*
X728813Y5998D01*
X730812D01*
X731812Y4998D01*
Y3999D01*
X727813D01*
X733811Y1999D02*
Y5998D01*
X736810D01*
X737810Y4998D01*
Y1999D01*
X741809Y0D02*
X742808D01*
X743808Y1000D01*
Y5998D01*
X740809D01*
X739809Y4998D01*
Y2999D01*
X740809Y1999D01*
X743808D01*
X746807Y6998D02*
Y5998D01*
X745807D01*
X747807D01*
X746807D01*
Y2999D01*
X747807Y1999D01*
X750806Y7997D02*
Y1999D01*
Y4998D01*
X751805Y5998D01*
X753805D01*
X754804Y4998D01*
Y1999D01*
X762802Y4998D02*
X766800D01*
X764801Y6998D02*
Y2999D01*
X774798Y7997D02*
X778796D01*
X776797D01*
Y1999D01*
X781796D02*
X783795D01*
X784795Y2999D01*
Y4998D01*
X783795Y5998D01*
X781796D01*
X780796Y4998D01*
Y2999D01*
X781796Y1999D01*
X787794D02*
X789793D01*
X790793Y2999D01*
Y4998D01*
X789793Y5998D01*
X787794D01*
X786794Y4998D01*
Y2999D01*
X787794Y1999D01*
X792792D02*
X794791D01*
X793792D01*
Y7997D01*
X792792D01*
X807787Y6998D02*
X806787Y7997D01*
X804788D01*
X803788Y6998D01*
Y5998D01*
X804788Y4998D01*
X806787D01*
X807787Y3999D01*
Y2999D01*
X806787Y1999D01*
X804788D01*
X803788Y2999D01*
X809787Y1999D02*
X811786D01*
X810786D01*
Y5998D01*
X809787D01*
X814785D02*
X818784D01*
X814785Y1999D01*
X818784D01*
X823782D02*
X821783D01*
X820783Y2999D01*
Y4998D01*
X821783Y5998D01*
X823782D01*
X824782Y4998D01*
Y3999D01*
X820783D01*
X832779D02*
X836778D01*
X832779Y5998D02*
X836778D01*
X848774Y6998D02*
X847774Y7997D01*
X845775D01*
X844775Y6998D01*
Y5998D01*
X845775Y4998D01*
X847774D01*
X848774Y3999D01*
Y2999D01*
X847774Y1999D01*
X845775D01*
X844775Y2999D01*
X850773Y1999D02*
X852773D01*
X851773D01*
Y7997D01*
X850773D01*
X856771Y1999D02*
X858771D01*
X859770Y2999D01*
Y4998D01*
X858771Y5998D01*
X856771D01*
X855772Y4998D01*
Y2999D01*
X856771Y1999D01*
X862769Y6998D02*
Y5998D01*
X861770D01*
X863769D01*
X862769D01*
Y2999D01*
X863769Y1999D01*
X872766D02*
X874765D01*
X873766D01*
Y7997D01*
X872766D01*
X880764Y1999D02*
X878764D01*
X877765Y2999D01*
Y4998D01*
X878764Y5998D01*
X880764D01*
X881763Y4998D01*
Y3999D01*
X877765D01*
X883762Y1999D02*
Y5998D01*
X886762D01*
X887761Y4998D01*
Y1999D01*
X891760Y0D02*
X892760D01*
X893759Y1000D01*
Y5998D01*
X890760D01*
X889761Y4998D01*
Y2999D01*
X890760Y1999D01*
X893759D01*
X896758Y6998D02*
Y5998D01*
X895759D01*
X897758D01*
X896758D01*
Y2999D01*
X897758Y1999D01*
X900757Y7997D02*
Y1999D01*
Y4998D01*
X901757Y5998D01*
X903756D01*
X904756Y4998D01*
Y1999D01*
X913753Y5998D02*
X915752D01*
X916752Y4998D01*
Y1999D01*
X913753D01*
X912753Y2999D01*
X913753Y3999D01*
X916752D01*
X918751Y1999D02*
X921750D01*
X922750Y2999D01*
X921750Y3999D01*
X919751D01*
X918751Y4998D01*
X919751Y5998D01*
X922750D01*
X934746Y7997D02*
Y1999D01*
X931747D01*
X930747Y2999D01*
Y4998D01*
X931747Y5998D01*
X934746D01*
X939744Y1999D02*
X937745D01*
X936745Y2999D01*
Y4998D01*
X937745Y5998D01*
X939744D01*
X940744Y4998D01*
Y3999D01*
X936745D01*
X943743Y1999D02*
Y6998D01*
Y4998D01*
X942743D01*
X944743D01*
X943743D01*
Y6998D01*
X944743Y7997D01*
X947742Y1999D02*
X949741D01*
X948742D01*
Y5998D01*
X947742D01*
X952740Y1999D02*
Y5998D01*
X955739D01*
X956739Y4998D01*
Y1999D01*
X961737D02*
X959738D01*
X958738Y2999D01*
Y4998D01*
X959738Y5998D01*
X961737D01*
X962737Y4998D01*
Y3999D01*
X958738D01*
X968735Y7997D02*
Y1999D01*
X965736D01*
X964736Y2999D01*
Y4998D01*
X965736Y5998D01*
X968735D01*
X976733Y1999D02*
X978732D01*
X977732D01*
Y5998D01*
X976733D01*
X981731Y1999D02*
Y5998D01*
X984730D01*
X985730Y4998D01*
Y1999D01*
X994727Y6998D02*
Y5998D01*
X993727D01*
X995726D01*
X994727D01*
Y2999D01*
X995726Y1999D01*
X998725Y7997D02*
Y1999D01*
Y4998D01*
X999725Y5998D01*
X1001724D01*
X1002724Y4998D01*
Y1999D01*
X1007722D02*
X1005723D01*
X1004723Y2999D01*
Y4998D01*
X1005723Y5998D01*
X1007722D01*
X1008722Y4998D01*
Y3999D01*
X1004723D01*
X1016720Y1999D02*
Y7997D01*
X1019718D01*
X1020718Y6998D01*
Y4998D01*
X1019718Y3999D01*
X1016720D01*
X1026716Y6998D02*
X1025717Y7997D01*
X1023717D01*
X1022718Y6998D01*
Y2999D01*
X1023717Y1999D01*
X1025717D01*
X1026716Y2999D01*
X1028716Y7997D02*
Y1999D01*
X1031715D01*
X1032714Y2999D01*
Y3999D01*
X1031715Y4998D01*
X1028716D01*
X1031715D01*
X1032714Y5998D01*
Y6998D01*
X1031715Y7997D01*
X1028716D01*
X1040712Y1999D02*
X1042711D01*
X1041711D01*
Y7997D01*
X1040712D01*
X1046710Y5998D02*
X1048709D01*
X1049709Y4998D01*
Y1999D01*
X1046710D01*
X1045710Y2999D01*
X1046710Y3999D01*
X1049709D01*
X1051708Y5998D02*
Y2999D01*
X1052708Y1999D01*
X1055707D01*
Y1000D01*
X1054707Y0D01*
X1053708D01*
X1055707Y1999D02*
Y5998D01*
X1058706Y1999D02*
X1060705D01*
X1061705Y2999D01*
Y4998D01*
X1060705Y5998D01*
X1058706D01*
X1057706Y4998D01*
Y2999D01*
X1058706Y1999D01*
X1063704Y5998D02*
Y2999D01*
X1064704Y1999D01*
X1067703D01*
Y5998D01*
X1070702Y6998D02*
Y5998D01*
X1069702D01*
X1071702D01*
X1070702D01*
Y2999D01*
X1071702Y1999D01*
D117*
X351243Y46700D02*
Y48300D01*
X352843D01*
Y46700D01*
X351243D01*
Y56542D02*
Y58143D01*
X352843D01*
Y56542D01*
X351243D01*
X294157Y36858D02*
Y38458D01*
X295757D01*
Y36858D01*
X294157D01*
X351243Y36858D02*
Y38458D01*
X352843D01*
Y36858D01*
X351243D01*
X294157Y56542D02*
Y58143D01*
X295757D01*
Y56542D01*
X294157D01*
X209000Y250846D02*
X208200Y252446D01*
X209800D01*
X209000Y250846D01*
Y280373D02*
X208200Y281973D01*
X209800D01*
X209000Y280373D01*
X357030Y191708D02*
X357430Y192108D01*
X357829D01*
X357430Y192508D01*
X357829Y192908D01*
X357430D01*
X357030Y193308D01*
X356629Y192908D01*
X356229D01*
X356629Y192508D01*
X356229Y192108D01*
X356629D01*
X357030Y191708D01*
Y157692D02*
X357430Y158092D01*
X357829D01*
X357430Y158492D01*
X357829Y158892D01*
X357430D01*
X357030Y159292D01*
X356629Y158892D01*
X356229D01*
X356629Y158492D01*
X356229Y158092D01*
X356629D01*
X357030Y157692D01*
X339773Y191708D02*
X340173Y192508D01*
X339773Y193308D01*
X340573Y192908D01*
X341372Y193308D01*
X340972Y192508D01*
X341372Y191708D01*
X340573Y192108D01*
X339773Y191708D01*
X339773Y157692D02*
X340173Y158492D01*
X339773Y159292D01*
X340573Y158892D01*
X341372Y159292D01*
X340972Y158492D01*
X341372Y157692D01*
X340573Y158092D01*
X339773Y157692D01*
X342260Y186832D02*
Y186433D01*
X343059D01*
Y186832D01*
X343460D01*
Y187633D01*
X343059D01*
Y188032D01*
X342260D01*
Y187633D01*
X341860D01*
Y186832D01*
X342260D01*
Y163367D02*
Y162968D01*
X343059D01*
Y163367D01*
X343460D01*
Y164167D01*
X343059D01*
Y164567D01*
X342260D01*
Y164167D01*
X341860D01*
Y163367D01*
X342260D01*
X92200Y127200D02*
X92600D01*
X93000Y127600D01*
X93400Y127200D01*
X93800D01*
Y127600D01*
X93400Y128000D01*
X93800Y128400D01*
Y128800D01*
X93400D01*
X93000Y128400D01*
X92600Y128800D01*
X92200D01*
Y128400D01*
X92600Y128000D01*
X92200Y127600D01*
Y127200D01*
X92200Y117200D02*
X92600D01*
X93000Y117600D01*
X93400Y117200D01*
X93800D01*
Y117600D01*
X93400Y118000D01*
X93800Y118400D01*
Y118800D01*
X93400D01*
X93000Y118400D01*
X92600Y118800D01*
X92200D01*
Y118400D01*
X92600Y118000D01*
X92200Y117600D01*
Y117200D01*
X92200Y107200D02*
X92600D01*
X93000Y107600D01*
X93400Y107200D01*
X93800D01*
Y107600D01*
X93400Y108000D01*
X93800Y108400D01*
Y108800D01*
X93400D01*
X93000Y108400D01*
X92600Y108800D01*
X92200D01*
Y108400D01*
X92600Y108000D01*
X92200Y107600D01*
Y107200D01*
X122200Y127200D02*
X122600D01*
X123000Y127600D01*
X123400Y127200D01*
X123800D01*
Y127600D01*
X123400Y128000D01*
X123800Y128400D01*
Y128800D01*
X123400D01*
X123000Y128400D01*
X122600Y128800D01*
X122200D01*
Y128400D01*
X122600Y128000D01*
X122200Y127600D01*
Y127200D01*
X122200Y117200D02*
X122600D01*
X123000Y117600D01*
X123400Y117200D01*
X123800D01*
Y117600D01*
X123400Y118000D01*
X123800Y118400D01*
Y118800D01*
X123400D01*
X123000Y118400D01*
X122600Y118800D01*
X122200D01*
Y118400D01*
X122600Y118000D01*
X122200Y117600D01*
Y117200D01*
Y107200D02*
X122600D01*
X123000Y107600D01*
X123400Y107200D01*
X123800D01*
Y107600D01*
X123400Y108000D01*
X123800Y108400D01*
Y108800D01*
X123400D01*
X123000Y108400D01*
X122600Y108800D01*
X122200D01*
Y108400D01*
X122600Y108000D01*
X122200Y107600D01*
Y107200D01*
X21200Y146500D02*
X22000Y147300D01*
X22800Y146500D01*
X22000Y145700D01*
X21200Y146500D01*
Y156500D02*
X22000Y157300D01*
X22800Y156500D01*
X22000Y155700D01*
X21200Y156500D01*
X190700Y187806D02*
Y189406D01*
X192300D01*
Y187806D01*
X190700D01*
X191100Y188206D02*
Y189006D01*
X191900D01*
Y188206D01*
X191100D01*
X190700Y168594D02*
Y170194D01*
X192300D01*
Y168594D01*
X190700D01*
X191100Y168994D02*
Y169794D01*
X191900D01*
Y168994D01*
X191100D01*
X37441Y305464D02*
X36641Y307064D01*
X38241D01*
X37441Y305464D01*
Y305864D02*
X37041Y306664D01*
X37841D01*
X37441Y305864D01*
X92559Y305464D02*
X91759Y307064D01*
X93359D01*
X92559Y305464D01*
Y305864D02*
X92159Y306664D01*
X92959D01*
X92559Y305864D01*
X188500Y98539D02*
X188900Y98939D01*
X189300D01*
X188900Y99339D01*
X189300Y99739D01*
X188900D01*
X188500Y100139D01*
X188100Y99739D01*
X187700D01*
X188100Y99339D01*
X187700Y98939D01*
X188100D01*
X188500Y98539D01*
Y98939D02*
X188700Y99139D01*
X188900D01*
X188700Y99339D01*
X188900Y99539D01*
X188700D01*
X188500Y99739D01*
X188300Y99539D01*
X188100D01*
X188300Y99339D01*
X188100Y99139D01*
X188300D01*
X188500Y98939D01*
X272086Y94595D02*
X272486Y95395D01*
X272086Y96196D01*
X272886Y95796D01*
X273686Y96196D01*
X273286Y95395D01*
X273686Y94595D01*
X272886Y94995D01*
X272086Y94595D01*
X272486Y94995D02*
X272686Y95395D01*
X272486Y95796D01*
X272886Y95596D01*
X273286Y95796D01*
X273086Y95395D01*
X273286Y94995D01*
X272886Y95196D01*
X272486Y94995D01*
X173314Y19805D02*
X173714Y20605D01*
X173314Y21405D01*
X174114Y21004D01*
X174914Y21405D01*
X174514Y20605D01*
X174914Y19805D01*
X174114Y20204D01*
X173314Y19805D01*
X173714Y20204D02*
X173914Y20605D01*
X173714Y21004D01*
X174114Y20805D01*
X174514Y21004D01*
X174314Y20605D01*
X174514Y20204D01*
X174114Y20404D01*
X173714Y20204D01*
X173487Y94602D02*
X173887Y95402D01*
X173487Y96202D01*
X174287Y95802D01*
X175087Y96202D01*
X174687Y95402D01*
X175087Y94602D01*
X174287Y95002D01*
X173487Y94602D01*
X173887Y95002D02*
X174087Y95402D01*
X173887Y95802D01*
X174287Y95602D01*
X174687Y95802D01*
X174487Y95402D01*
X174687Y95002D01*
X174287Y95202D01*
X173887Y95002D01*
X271913Y19798D02*
X272313Y20598D01*
X271913Y21398D01*
X272713Y20998D01*
X273513Y21398D01*
X273113Y20598D01*
X273513Y19798D01*
X272713Y20198D01*
X271913Y19798D01*
X272313Y20198D02*
X272513Y20598D01*
X272313Y20998D01*
X272713Y20798D01*
X273113Y20998D01*
X272913Y20598D01*
X273113Y20198D01*
X272713Y20398D01*
X272313Y20198D01*
X248500Y98539D02*
X248900Y98939D01*
X249300D01*
X248900Y99339D01*
X249300Y99739D01*
X248900D01*
X248500Y100139D01*
X248100Y99739D01*
X247700D01*
X248100Y99339D01*
X247700Y98939D01*
X248100D01*
X248500Y98539D01*
Y98939D02*
X248700Y99139D01*
X248900D01*
X248700Y99339D01*
X248900Y99539D01*
X248700D01*
X248500Y99739D01*
X248300Y99539D01*
X248100D01*
X248300Y99339D01*
X248100Y99139D01*
X248300D01*
X248500Y98939D01*
X258500Y98539D02*
X258900Y98939D01*
X259300D01*
X258900Y99339D01*
X259300Y99739D01*
X258900D01*
X258500Y100139D01*
X258100Y99739D01*
X257700D01*
X258100Y99339D01*
X257700Y98939D01*
X258100D01*
X258500Y98539D01*
Y98939D02*
X258700Y99139D01*
X258900D01*
X258700Y99339D01*
X258900Y99539D01*
X258700D01*
X258500Y99739D01*
X258300Y99539D01*
X258100D01*
X258300Y99339D01*
X258100Y99139D01*
X258300D01*
X258500Y98939D01*
X228500Y98539D02*
X228900Y98939D01*
X229300D01*
X228900Y99339D01*
X229300Y99739D01*
X228900D01*
X228500Y100139D01*
X228100Y99739D01*
X227700D01*
X228100Y99339D01*
X227700Y98939D01*
X228100D01*
X228500Y98539D01*
Y98939D02*
X228700Y99139D01*
X228900D01*
X228700Y99339D01*
X228900Y99539D01*
X228700D01*
X228500Y99739D01*
X228300Y99539D01*
X228100D01*
X228300Y99339D01*
X228100Y99139D01*
X228300D01*
X228500Y98939D01*
X238500Y98539D02*
X238900Y98939D01*
X239300D01*
X238900Y99339D01*
X239300Y99739D01*
X238900D01*
X238500Y100139D01*
X238100Y99739D01*
X237700D01*
X238100Y99339D01*
X237700Y98939D01*
X238100D01*
X238500Y98539D01*
Y98939D02*
X238700Y99139D01*
X238900D01*
X238700Y99339D01*
X238900Y99539D01*
X238700D01*
X238500Y99739D01*
X238300Y99539D01*
X238100D01*
X238300Y99339D01*
X238100Y99139D01*
X238300D01*
X238500Y98939D01*
X198500Y98539D02*
X198900Y98939D01*
X199300D01*
X198900Y99339D01*
X199300Y99739D01*
X198900D01*
X198500Y100139D01*
X198100Y99739D01*
X197700D01*
X198100Y99339D01*
X197700Y98939D01*
X198100D01*
X198500Y98539D01*
Y98939D02*
X198700Y99139D01*
X198900D01*
X198700Y99339D01*
X198900Y99539D01*
X198700D01*
X198500Y99739D01*
X198300Y99539D01*
X198100D01*
X198300Y99339D01*
X198100Y99139D01*
X198300D01*
X198500Y98939D01*
X208500Y98539D02*
X208900Y98939D01*
X209300D01*
X208900Y99339D01*
X209300Y99739D01*
X208900D01*
X208500Y100139D01*
X208100Y99739D01*
X207700D01*
X208100Y99339D01*
X207700Y98939D01*
X208100D01*
X208500Y98539D01*
Y98939D02*
X208700Y99139D01*
X208900D01*
X208700Y99339D01*
X208900Y99539D01*
X208700D01*
X208500Y99739D01*
X208300Y99539D01*
X208100D01*
X208300Y99339D01*
X208100Y99139D01*
X208300D01*
X208500Y98939D01*
X218500Y98539D02*
X218900Y98939D01*
X219300D01*
X218900Y99339D01*
X219300Y99739D01*
X218900D01*
X218500Y100139D01*
X218100Y99739D01*
X217700D01*
X218100Y99339D01*
X217700Y98939D01*
X218100D01*
X218500Y98539D01*
Y98939D02*
X218700Y99139D01*
X218900D01*
X218700Y99339D01*
X218900Y99539D01*
X218700D01*
X218500Y99739D01*
X218300Y99539D01*
X218100D01*
X218300Y99339D01*
X218100Y99139D01*
X218300D01*
X218500Y98939D01*
X31500Y79515D02*
X31900Y79915D01*
X32300D01*
X31900Y80315D01*
X32300Y80715D01*
X31900D01*
X31500Y81115D01*
X31100Y80715D01*
X30700D01*
X31100Y80315D01*
X30700Y79915D01*
X31100D01*
X31500Y79515D01*
Y79915D02*
X31700Y80115D01*
X31900D01*
X31700Y80315D01*
X31900Y80515D01*
X31700D01*
X31500Y80715D01*
X31300Y80515D01*
X31100D01*
X31300Y80315D01*
X31100Y80115D01*
X31300D01*
X31500Y79915D01*
Y128885D02*
X31900Y129285D01*
X32300D01*
X31900Y129685D01*
X32300Y130085D01*
X31900D01*
X31500Y130485D01*
X31100Y130085D01*
X30700D01*
X31100Y129685D01*
X30700Y129285D01*
X31100D01*
X31500Y128885D01*
Y129285D02*
X31700Y129485D01*
X31900D01*
X31700Y129685D01*
X31900Y129885D01*
X31700D01*
X31500Y130085D01*
X31300Y129885D01*
X31100D01*
X31300Y129685D01*
X31100Y129485D01*
X31300D01*
X31500Y129285D01*
X101000Y196393D02*
X101400Y196793D01*
X101800D01*
X101400Y197193D01*
X101800Y197593D01*
X101400D01*
X101000Y197993D01*
X100600Y197593D01*
X100200D01*
X100600Y197193D01*
X100200Y196793D01*
X100600D01*
X101000Y196393D01*
Y196793D02*
X101200Y196993D01*
X101400D01*
X101200Y197193D01*
X101400Y197393D01*
X101200D01*
X101000Y197593D01*
X100800Y197393D01*
X100600D01*
X100800Y197193D01*
X100600Y196993D01*
X100800D01*
X101000Y196793D01*
X41000Y283007D02*
X41400Y283407D01*
X41800D01*
X41400Y283807D01*
X41800Y284207D01*
X41400D01*
X41000Y284607D01*
X40600Y284207D01*
X40200D01*
X40600Y283807D01*
X40200Y283407D01*
X40600D01*
X41000Y283007D01*
Y283407D02*
X41200Y283607D01*
X41400D01*
X41200Y283807D01*
X41400Y284007D01*
X41200D01*
X41000Y284207D01*
X40800Y284007D01*
X40600D01*
X40800Y283807D01*
X40600Y283607D01*
X40800D01*
X41000Y283407D01*
X71000Y283007D02*
X71400Y283407D01*
X71800D01*
X71400Y283807D01*
X71800Y284207D01*
X71400D01*
X71000Y284607D01*
X70600Y284207D01*
X70200D01*
X70600Y283807D01*
X70200Y283407D01*
X70600D01*
X71000Y283007D01*
Y283407D02*
X71200Y283607D01*
X71400D01*
X71200Y283807D01*
X71400Y284007D01*
X71200D01*
X71000Y284207D01*
X70800Y284007D01*
X70600D01*
X70800Y283807D01*
X70600Y283607D01*
X70800D01*
X71000Y283407D01*
X41000Y196393D02*
X41400Y196793D01*
X41800D01*
X41400Y197193D01*
X41800Y197593D01*
X41400D01*
X41000Y197993D01*
X40600Y197593D01*
X40200D01*
X40600Y197193D01*
X40200Y196793D01*
X40600D01*
X41000Y196393D01*
Y196793D02*
X41200Y196993D01*
X41400D01*
X41200Y197193D01*
X41400Y197393D01*
X41200D01*
X41000Y197593D01*
X40800Y197393D01*
X40600D01*
X40800Y197193D01*
X40600Y196993D01*
X40800D01*
X41000Y196793D01*
X151000Y122700D02*
X151400Y123100D01*
X151800D01*
X151400Y123500D01*
X151800Y123900D01*
X151400D01*
X151000Y124300D01*
X150600Y123900D01*
X150200D01*
X150600Y123500D01*
X150200Y123100D01*
X150600D01*
X151000Y122700D01*
Y123100D02*
X151200Y123300D01*
X151400D01*
X151200Y123500D01*
X151400Y123700D01*
X151200D01*
X151000Y123900D01*
X150800Y123700D01*
X150600D01*
X150800Y123500D01*
X150600Y123300D01*
X150800D01*
X151000Y123100D01*
Y112700D02*
X151400Y113100D01*
X151800D01*
X151400Y113500D01*
X151800Y113900D01*
X151400D01*
X151000Y114300D01*
X150600Y113900D01*
X150200D01*
X150600Y113500D01*
X150200Y113100D01*
X150600D01*
X151000Y112700D01*
Y113100D02*
X151200Y113300D01*
X151400D01*
X151200Y113500D01*
X151400Y113700D01*
X151200D01*
X151000Y113900D01*
X150800Y113700D01*
X150600D01*
X150800Y113500D01*
X150600Y113300D01*
X150800D01*
X151000Y113100D01*
X351500Y230700D02*
X351900Y231100D01*
X352300D01*
X351900Y231500D01*
X352300Y231900D01*
X351900D01*
X351500Y232300D01*
X351100Y231900D01*
X350700D01*
X351100Y231500D01*
X350700Y231100D01*
X351100D01*
X351500Y230700D01*
Y231100D02*
X351700Y231300D01*
X351900D01*
X351700Y231500D01*
X351900Y231700D01*
X351700D01*
X351500Y231900D01*
X351300Y231700D01*
X351100D01*
X351300Y231500D01*
X351100Y231300D01*
X351300D01*
X351500Y231100D01*
Y240700D02*
X351900Y241100D01*
X352300D01*
X351900Y241500D01*
X352300Y241900D01*
X351900D01*
X351500Y242300D01*
X351100Y241900D01*
X350700D01*
X351100Y241500D01*
X350700Y241100D01*
X351100D01*
X351500Y240700D01*
Y241100D02*
X351700Y241300D01*
X351900D01*
X351700Y241500D01*
X351900Y241700D01*
X351700D01*
X351500Y241900D01*
X351300Y241700D01*
X351100D01*
X351300Y241500D01*
X351100Y241300D01*
X351300D01*
X351500Y241100D01*
Y250700D02*
X351900Y251100D01*
X352300D01*
X351900Y251500D01*
X352300Y251900D01*
X351900D01*
X351500Y252300D01*
X351100Y251900D01*
X350700D01*
X351100Y251500D01*
X350700Y251100D01*
X351100D01*
X351500Y250700D01*
Y251100D02*
X351700Y251300D01*
X351900D01*
X351700Y251500D01*
X351900Y251700D01*
X351700D01*
X351500Y251900D01*
X351300Y251700D01*
X351100D01*
X351300Y251500D01*
X351100Y251300D01*
X351300D01*
X351500Y251100D01*
Y220700D02*
X351900Y221100D01*
X352300D01*
X351900Y221500D01*
X352300Y221900D01*
X351900D01*
X351500Y222300D01*
X351100Y221900D01*
X350700D01*
X351100Y221500D01*
X350700Y221100D01*
X351100D01*
X351500Y220700D01*
Y221100D02*
X351700Y221300D01*
X351900D01*
X351700Y221500D01*
X351900Y221700D01*
X351700D01*
X351500Y221900D01*
X351300Y221700D01*
X351100D01*
X351300Y221500D01*
X351100Y221300D01*
X351300D01*
X351500Y221100D01*
X233500Y129200D02*
X233900Y129600D01*
X234300D01*
X233900Y130000D01*
X234300Y130400D01*
X233900D01*
X233500Y130800D01*
X233100Y130400D01*
X232700D01*
X233100Y130000D01*
X232700Y129600D01*
X233100D01*
X233500Y129200D01*
Y129600D02*
X233700Y129800D01*
X233900D01*
X233700Y130000D01*
X233900Y130200D01*
X233700D01*
X233500Y130400D01*
X233300Y130200D01*
X233100D01*
X233300Y130000D01*
X233100Y129800D01*
X233300D01*
X233500Y129600D01*
Y119200D02*
X233900Y119600D01*
X234300D01*
X233900Y120000D01*
X234300Y120400D01*
X233900D01*
X233500Y120800D01*
X233100Y120400D01*
X232700D01*
X233100Y120000D01*
X232700Y119600D01*
X233100D01*
X233500Y119200D01*
Y119600D02*
X233700Y119800D01*
X233900D01*
X233700Y120000D01*
X233900Y120200D01*
X233700D01*
X233500Y120400D01*
X233300Y120200D01*
X233100D01*
X233300Y120000D01*
X233100Y119800D01*
X233300D01*
X233500Y119600D01*
Y139200D02*
X233900Y139600D01*
X234300D01*
X233900Y140000D01*
X234300Y140400D01*
X233900D01*
X233500Y140800D01*
X233100Y140400D01*
X232700D01*
X233100Y140000D01*
X232700Y139600D01*
X233100D01*
X233500Y139200D01*
Y139600D02*
X233700Y139800D01*
X233900D01*
X233700Y140000D01*
X233900Y140200D01*
X233700D01*
X233500Y140400D01*
X233300Y140200D01*
X233100D01*
X233300Y140000D01*
X233100Y139800D01*
X233300D01*
X233500Y139600D01*
X351500Y273200D02*
X351900Y273600D01*
X352300D01*
X351900Y274000D01*
X352300Y274400D01*
X351900D01*
X351500Y274800D01*
X351100Y274400D01*
X350700D01*
X351100Y274000D01*
X350700Y273600D01*
X351100D01*
X351500Y273200D01*
Y273600D02*
X351700Y273800D01*
X351900D01*
X351700Y274000D01*
X351900Y274200D01*
X351700D01*
X351500Y274400D01*
X351300Y274200D01*
X351100D01*
X351300Y274000D01*
X351100Y273800D01*
X351300D01*
X351500Y273600D01*
Y283200D02*
X351900Y283600D01*
X352300D01*
X351900Y284000D01*
X352300Y284400D01*
X351900D01*
X351500Y284800D01*
X351100Y284400D01*
X350700D01*
X351100Y284000D01*
X350700Y283600D01*
X351100D01*
X351500Y283200D01*
Y283600D02*
X351700Y283800D01*
X351900D01*
X351700Y284000D01*
X351900Y284200D01*
X351700D01*
X351500Y284400D01*
X351300Y284200D01*
X351100D01*
X351300Y284000D01*
X351100Y283800D01*
X351300D01*
X351500Y283600D01*
Y263200D02*
X351900Y263600D01*
X352300D01*
X351900Y264000D01*
X352300Y264400D01*
X351900D01*
X351500Y264800D01*
X351100Y264400D01*
X350700D01*
X351100Y264000D01*
X350700Y263600D01*
X351100D01*
X351500Y263200D01*
Y263600D02*
X351700Y263800D01*
X351900D01*
X351700Y264000D01*
X351900Y264200D01*
X351700D01*
X351500Y264400D01*
X351300Y264200D01*
X351100D01*
X351300Y264000D01*
X351100Y263800D01*
X351300D01*
X351500Y263600D01*
X253100Y171100D02*
Y170700D01*
X253900D01*
Y171100D01*
X254300D01*
Y171900D01*
X253900D01*
Y172300D01*
X253100D01*
Y171900D01*
X252700D01*
Y171100D01*
X253100D01*
X253300Y171300D02*
Y171100D01*
X253700D01*
Y171300D01*
X253900D01*
Y171700D01*
X253700D01*
Y171900D01*
X253300D01*
Y171700D01*
X253100D01*
Y171300D01*
X253300D01*
X38600Y175100D02*
Y174700D01*
X39400D01*
Y175100D01*
X39800D01*
Y175900D01*
X39400D01*
Y176300D01*
X38600D01*
Y175900D01*
X38200D01*
Y175100D01*
X38600D01*
X38800Y175300D02*
Y175100D01*
X39200D01*
Y175300D01*
X39400D01*
Y175700D01*
X39200D01*
Y175900D01*
X38800D01*
Y175700D01*
X38600D01*
Y175300D01*
X38800D01*
X355600Y96600D02*
Y96200D01*
X356400D01*
Y96600D01*
X356800D01*
Y97400D01*
X356400D01*
Y97800D01*
X355600D01*
Y97400D01*
X355200D01*
Y96600D01*
X355600D01*
X355800Y96800D02*
Y96600D01*
X356200D01*
Y96800D01*
X356400D01*
Y97200D01*
X356200D01*
Y97400D01*
X355800D01*
Y97200D01*
X355600D01*
Y96800D01*
X355800D01*
X225925Y298238D02*
Y297838D01*
X226725D01*
Y298238D01*
X227125D01*
Y299039D01*
X226725D01*
Y299439D01*
X225925D01*
Y299039D01*
X225525D01*
Y298238D01*
X225925D01*
X226125Y298439D02*
Y298238D01*
X226525D01*
Y298439D01*
X226725D01*
Y298838D01*
X226525D01*
Y299039D01*
X226125D01*
Y298838D01*
X225925D01*
Y298439D01*
X226125D01*
X172100Y195600D02*
Y195200D01*
X172900D01*
Y195600D01*
X173300D01*
Y196400D01*
X172900D01*
Y196800D01*
X172100D01*
Y196400D01*
X171700D01*
Y195600D01*
X172100D01*
X172300Y195800D02*
Y195600D01*
X172700D01*
Y195800D01*
X172900D01*
Y196200D01*
X172700D01*
Y196400D01*
X172300D01*
Y196200D01*
X172100D01*
Y195800D01*
X172300D01*
X167600Y228100D02*
Y227700D01*
X168400D01*
Y228100D01*
X168800D01*
Y228900D01*
X168400D01*
Y229300D01*
X167600D01*
Y228900D01*
X167200D01*
Y228100D01*
X167600D01*
X167800Y228300D02*
Y228100D01*
X168200D01*
Y228300D01*
X168400D01*
Y228700D01*
X168200D01*
Y228900D01*
X167800D01*
Y228700D01*
X167600D01*
Y228300D01*
X167800D01*
X213600Y165100D02*
Y164700D01*
X214400D01*
Y165100D01*
X214800D01*
Y165900D01*
X214400D01*
Y166300D01*
X213600D01*
Y165900D01*
X213200D01*
Y165100D01*
X213600D01*
X213800Y165300D02*
Y165100D01*
X214200D01*
Y165300D01*
X214400D01*
Y165700D01*
X214200D01*
Y165900D01*
X213800D01*
Y165700D01*
X213600D01*
Y165300D01*
X213800D01*
X218600Y175100D02*
Y174700D01*
X219400D01*
Y175100D01*
X219800D01*
Y175900D01*
X219400D01*
Y176300D01*
X218600D01*
Y175900D01*
X218200D01*
Y175100D01*
X218600D01*
X218800Y175300D02*
Y175100D01*
X219200D01*
Y175300D01*
X219400D01*
Y175700D01*
X219200D01*
Y175900D01*
X218800D01*
Y175700D01*
X218600D01*
Y175300D01*
X218800D01*
X60700Y128700D02*
X61100D01*
X61500Y129100D01*
X61900Y128700D01*
X62300D01*
Y129100D01*
X61900Y129500D01*
X62300Y129900D01*
Y130300D01*
X61900D01*
X61500Y129900D01*
X61100Y130300D01*
X60700D01*
Y129900D01*
X61100Y129500D01*
X60700Y129100D01*
Y128700D01*
X61100Y129100D02*
X61300D01*
X61500Y129300D01*
X61700Y129100D01*
X61900D01*
Y129300D01*
X61700Y129500D01*
X61900Y129700D01*
Y129900D01*
X61700D01*
X61500Y129700D01*
X61300Y129900D01*
X61100D01*
Y129700D01*
X61300Y129500D01*
X61100Y129300D01*
Y129100D01*
X292991Y155398D02*
Y154998D01*
X293791D01*
Y155398D01*
X294191D01*
Y156198D01*
X293791D01*
Y156598D01*
X292991D01*
Y156198D01*
X292591D01*
Y155398D01*
X292991D01*
X293191Y155598D02*
Y155398D01*
X293591D01*
Y155598D01*
X293791D01*
Y155998D01*
X293591D01*
Y156198D01*
X293191D01*
Y155998D01*
X292991D01*
Y155598D01*
X293191D01*
X287600Y96100D02*
Y95700D01*
X288400D01*
Y96100D01*
X288800D01*
Y96900D01*
X288400D01*
Y97300D01*
X287600D01*
Y96900D01*
X287200D01*
Y96100D01*
X287600D01*
X287800Y96300D02*
Y96100D01*
X288200D01*
Y96300D01*
X288400D01*
Y96700D01*
X288200D01*
Y96900D01*
X287800D01*
Y96700D01*
X287600D01*
Y96300D01*
X287800D01*
X303176Y89990D02*
Y89590D01*
X303976D01*
Y89990D01*
X304376D01*
Y90790D01*
X303976D01*
Y91189D01*
X303176D01*
Y90790D01*
X302776D01*
Y89990D01*
X303176D01*
X303376Y90189D02*
Y89990D01*
X303776D01*
Y90189D01*
X303976D01*
Y90589D01*
X303776D01*
Y90790D01*
X303376D01*
Y90589D01*
X303176D01*
Y90189D01*
X303376D01*
X314600Y101600D02*
Y101200D01*
X315400D01*
Y101600D01*
X315800D01*
Y102400D01*
X315400D01*
Y102800D01*
X314600D01*
Y102400D01*
X314200D01*
Y101600D01*
X314600D01*
X314800Y101800D02*
Y101600D01*
X315200D01*
Y101800D01*
X315400D01*
Y102200D01*
X315200D01*
Y102400D01*
X314800D01*
Y102200D01*
X314600D01*
Y101800D01*
X314800D01*
X240600Y172100D02*
Y171700D01*
X241400D01*
Y172100D01*
X241800D01*
Y172900D01*
X241400D01*
Y173300D01*
X240600D01*
Y172900D01*
X240200D01*
Y172100D01*
X240600D01*
X240800Y172300D02*
Y172100D01*
X241200D01*
Y172300D01*
X241400D01*
Y172700D01*
X241200D01*
Y172900D01*
X240800D01*
Y172700D01*
X240600D01*
Y172300D01*
X240800D01*
X100290Y148290D02*
Y147890D01*
X101090D01*
Y148290D01*
X101490D01*
Y149090D01*
X101090D01*
Y149490D01*
X100290D01*
Y149090D01*
X99890D01*
Y148290D01*
X100290D01*
X100490Y148490D02*
Y148290D01*
X100890D01*
Y148490D01*
X101090D01*
Y148890D01*
X100890D01*
Y149090D01*
X100490D01*
Y148890D01*
X100290D01*
Y148490D01*
X100490D01*
X89129Y163129D02*
Y162729D01*
X89929D01*
Y163129D01*
X90329D01*
Y163929D01*
X89929D01*
Y164329D01*
X89129D01*
Y163929D01*
X88729D01*
Y163129D01*
X89129D01*
X89329Y163329D02*
Y163129D01*
X89729D01*
Y163329D01*
X89929D01*
Y163729D01*
X89729D01*
Y163929D01*
X89329D01*
Y163729D01*
X89129D01*
Y163329D01*
X89329D01*
X111100Y158100D02*
Y157700D01*
X111900D01*
Y158100D01*
X112300D01*
Y158900D01*
X111900D01*
Y159300D01*
X111100D01*
Y158900D01*
X110700D01*
Y158100D01*
X111100D01*
X111300Y158300D02*
Y158100D01*
X111700D01*
Y158300D01*
X111900D01*
Y158700D01*
X111700D01*
Y158900D01*
X111300D01*
Y158700D01*
X111100D01*
Y158300D01*
X111300D01*
X118620Y158099D02*
Y157699D01*
X119420D01*
Y158099D01*
X119820D01*
Y158899D01*
X119420D01*
Y159299D01*
X118620D01*
Y158899D01*
X118220D01*
Y158099D01*
X118620D01*
X118820Y158299D02*
Y158099D01*
X119220D01*
Y158299D01*
X119420D01*
Y158699D01*
X119220D01*
Y158899D01*
X118820D01*
Y158699D01*
X118620D01*
Y158299D01*
X118820D01*
X89100Y184100D02*
Y183700D01*
X89900D01*
Y184100D01*
X90300D01*
Y184900D01*
X89900D01*
Y185300D01*
X89100D01*
Y184900D01*
X88700D01*
Y184100D01*
X89100D01*
X89300Y184300D02*
Y184100D01*
X89700D01*
Y184300D01*
X89900D01*
Y184700D01*
X89700D01*
Y184900D01*
X89300D01*
Y184700D01*
X89100D01*
Y184300D01*
X89300D01*
X99100Y173600D02*
Y173200D01*
X99900D01*
Y173600D01*
X100300D01*
Y174400D01*
X99900D01*
Y174800D01*
X99100D01*
Y174400D01*
X98700D01*
Y173600D01*
X99100D01*
X99300Y173800D02*
Y173600D01*
X99700D01*
Y173800D01*
X99900D01*
Y174200D01*
X99700D01*
Y174400D01*
X99300D01*
Y174200D01*
X99100D01*
Y173800D01*
X99300D01*
X59600Y162600D02*
Y162200D01*
X60400D01*
Y162600D01*
X60800D01*
Y163400D01*
X60400D01*
Y163800D01*
X59600D01*
Y163400D01*
X59200D01*
Y162600D01*
X59600D01*
X59800Y162800D02*
Y162600D01*
X60200D01*
Y162800D01*
X60400D01*
Y163200D01*
X60200D01*
Y163400D01*
X59800D01*
Y163200D01*
X59600D01*
Y162800D01*
X59800D01*
X293733Y318678D02*
Y318278D01*
X294533D01*
Y318678D01*
X294933D01*
Y319478D01*
X294533D01*
Y319878D01*
X293733D01*
Y319478D01*
X293333D01*
Y318678D01*
X293733D01*
X293933Y318878D02*
Y318678D01*
X294333D01*
Y318878D01*
X294533D01*
Y319278D01*
X294333D01*
Y319478D01*
X293933D01*
Y319278D01*
X293733D01*
Y318878D01*
X293933D01*
X286600Y318678D02*
Y318278D01*
X287400D01*
Y318678D01*
X287800D01*
Y319478D01*
X287400D01*
Y319878D01*
X286600D01*
Y319478D01*
X286200D01*
Y318678D01*
X286600D01*
X286800Y318878D02*
Y318678D01*
X287200D01*
Y318878D01*
X287400D01*
Y319278D01*
X287200D01*
Y319478D01*
X286800D01*
Y319278D01*
X286600D01*
Y318878D01*
X286800D01*
X266600Y318678D02*
Y318278D01*
X267400D01*
Y318678D01*
X267800D01*
Y319478D01*
X267400D01*
Y319878D01*
X266600D01*
Y319478D01*
X266200D01*
Y318678D01*
X266600D01*
X266800Y318878D02*
Y318678D01*
X267200D01*
Y318878D01*
X267400D01*
Y319278D01*
X267200D01*
Y319478D01*
X266800D01*
Y319278D01*
X266600D01*
Y318878D01*
X266800D01*
X259743Y318678D02*
Y318278D01*
X260543D01*
Y318678D01*
X260943D01*
Y319478D01*
X260543D01*
Y319878D01*
X259743D01*
Y319478D01*
X259343D01*
Y318678D01*
X259743D01*
X259943Y318878D02*
Y318678D01*
X260343D01*
Y318878D01*
X260543D01*
Y319278D01*
X260343D01*
Y319478D01*
X259943D01*
Y319278D01*
X259743D01*
Y318878D01*
X259943D01*
X186600Y143600D02*
Y143200D01*
X187400D01*
Y143600D01*
X187800D01*
Y144400D01*
X187400D01*
Y144800D01*
X186600D01*
Y144400D01*
X186200D01*
Y143600D01*
X186600D01*
X186800Y143800D02*
Y143600D01*
X187200D01*
Y143800D01*
X187400D01*
Y144200D01*
X187200D01*
Y144400D01*
X186800D01*
Y144200D01*
X186600D01*
Y143800D01*
X186800D01*
X161600Y115100D02*
Y114700D01*
X162400D01*
Y115100D01*
X162800D01*
Y115900D01*
X162400D01*
Y116300D01*
X161600D01*
Y115900D01*
X161200D01*
Y115100D01*
X161600D01*
X161800Y115300D02*
Y115100D01*
X162200D01*
Y115300D01*
X162400D01*
Y115700D01*
X162200D01*
Y115900D01*
X161800D01*
Y115700D01*
X161600D01*
Y115300D01*
X161800D01*
X143600Y140100D02*
Y139700D01*
X144400D01*
Y140100D01*
X144800D01*
Y140900D01*
X144400D01*
Y141300D01*
X143600D01*
Y140900D01*
X143200D01*
Y140100D01*
X143600D01*
X143800Y140300D02*
Y140100D01*
X144200D01*
Y140300D01*
X144400D01*
Y140700D01*
X144200D01*
Y140900D01*
X143800D01*
Y140700D01*
X143600D01*
Y140300D01*
X143800D01*
X157600Y151600D02*
Y151200D01*
X158400D01*
Y151600D01*
X158800D01*
Y152400D01*
X158400D01*
Y152800D01*
X157600D01*
Y152400D01*
X157200D01*
Y151600D01*
X157600D01*
X157800Y151800D02*
Y151600D01*
X158200D01*
Y151800D01*
X158400D01*
Y152200D01*
X158200D01*
Y152400D01*
X157800D01*
Y152200D01*
X157600D01*
Y151800D01*
X157800D01*
X231600Y191100D02*
Y190700D01*
X232400D01*
Y191100D01*
X232800D01*
Y191900D01*
X232400D01*
Y192300D01*
X231600D01*
Y191900D01*
X231200D01*
Y191100D01*
X231600D01*
X231800Y191300D02*
Y191100D01*
X232200D01*
Y191300D01*
X232400D01*
Y191700D01*
X232200D01*
Y191900D01*
X231800D01*
Y191700D01*
X231600D01*
Y191300D01*
X231800D01*
X259600Y173600D02*
Y173200D01*
X260400D01*
Y173600D01*
X260800D01*
Y174400D01*
X260400D01*
Y174800D01*
X259600D01*
Y174400D01*
X259200D01*
Y173600D01*
X259600D01*
X259800Y173800D02*
Y173600D01*
X260200D01*
Y173800D01*
X260400D01*
Y174200D01*
X260200D01*
Y174400D01*
X259800D01*
Y174200D01*
X259600D01*
Y173800D01*
X259800D01*
X168600Y157100D02*
Y156700D01*
X169400D01*
Y157100D01*
X169800D01*
Y157900D01*
X169400D01*
Y158300D01*
X168600D01*
Y157900D01*
X168200D01*
Y157100D01*
X168600D01*
X168800Y157300D02*
Y157100D01*
X169200D01*
Y157300D01*
X169400D01*
Y157700D01*
X169200D01*
Y157900D01*
X168800D01*
Y157700D01*
X168600D01*
Y157300D01*
X168800D01*
X168600Y173600D02*
Y173200D01*
X169400D01*
Y173600D01*
X169800D01*
Y174400D01*
X169400D01*
Y174800D01*
X168600D01*
Y174400D01*
X168200D01*
Y173600D01*
X168600D01*
X168800Y173800D02*
Y173600D01*
X169200D01*
Y173800D01*
X169400D01*
Y174200D01*
X169200D01*
Y174400D01*
X168800D01*
Y174200D01*
X168600D01*
Y173800D01*
X168800D01*
X162735Y202752D02*
Y202352D01*
X163535D01*
Y202752D01*
X163935D01*
Y203552D01*
X163535D01*
Y203952D01*
X162735D01*
Y203552D01*
X162336D01*
Y202752D01*
X162735D01*
X162935Y202952D02*
Y202752D01*
X163336D01*
Y202952D01*
X163535D01*
Y203352D01*
X163336D01*
Y203552D01*
X162935D01*
Y203352D01*
X162735D01*
Y202952D01*
X162935D01*
X149621Y195642D02*
Y195242D01*
X150421D01*
Y195642D01*
X150821D01*
Y196442D01*
X150421D01*
Y196842D01*
X149621D01*
Y196442D01*
X149221D01*
Y195642D01*
X149621D01*
X149821Y195842D02*
Y195642D01*
X150221D01*
Y195842D01*
X150421D01*
Y196242D01*
X150221D01*
Y196442D01*
X149821D01*
Y196242D01*
X149621D01*
Y195842D01*
X149821D01*
X148756Y208180D02*
Y207781D01*
X149556D01*
Y208180D01*
X149956D01*
Y208980D01*
X149556D01*
Y209381D01*
X148756D01*
Y208980D01*
X148356D01*
Y208180D01*
X148756D01*
X148956Y208381D02*
Y208180D01*
X149356D01*
Y208381D01*
X149556D01*
Y208781D01*
X149356D01*
Y208980D01*
X148956D01*
Y208781D01*
X148756D01*
Y208381D01*
X148956D01*
X152100Y227600D02*
Y227200D01*
X152900D01*
Y227600D01*
X153300D01*
Y228400D01*
X152900D01*
Y228800D01*
X152100D01*
Y228400D01*
X151700D01*
Y227600D01*
X152100D01*
X152300Y227800D02*
Y227600D01*
X152700D01*
Y227800D01*
X152900D01*
Y228200D01*
X152700D01*
Y228400D01*
X152300D01*
Y228200D01*
X152100D01*
Y227800D01*
X152300D01*
X160722Y228433D02*
Y228033D01*
X161522D01*
Y228433D01*
X161922D01*
Y229233D01*
X161522D01*
Y229633D01*
X160722D01*
Y229233D01*
X160322D01*
Y228433D01*
X160722D01*
X160922Y228633D02*
Y228433D01*
X161322D01*
Y228633D01*
X161522D01*
Y229033D01*
X161322D01*
Y229233D01*
X160922D01*
Y229033D01*
X160722D01*
Y228633D01*
X160922D01*
X152503Y299371D02*
Y298971D01*
X153303D01*
Y299371D01*
X153703D01*
Y300171D01*
X153303D01*
Y300571D01*
X152503D01*
Y300171D01*
X152103D01*
Y299371D01*
X152503D01*
X152703Y299571D02*
Y299371D01*
X153103D01*
Y299571D01*
X153303D01*
Y299971D01*
X153103D01*
Y300171D01*
X152703D01*
Y299971D01*
X152503D01*
Y299571D01*
X152703D01*
X160600Y299100D02*
Y298700D01*
X161400D01*
Y299100D01*
X161800D01*
Y299900D01*
X161400D01*
Y300300D01*
X160600D01*
Y299900D01*
X160200D01*
Y299100D01*
X160600D01*
X160800Y299300D02*
Y299100D01*
X161200D01*
Y299300D01*
X161400D01*
Y299700D01*
X161200D01*
Y299900D01*
X160800D01*
Y299700D01*
X160600D01*
Y299300D01*
X160800D01*
X237600Y224100D02*
Y223700D01*
X238400D01*
Y224100D01*
X238800D01*
Y224900D01*
X238400D01*
Y225300D01*
X237600D01*
Y224900D01*
X237200D01*
Y224100D01*
X237600D01*
X237800Y224300D02*
Y224100D01*
X238200D01*
Y224300D01*
X238400D01*
Y224700D01*
X238200D01*
Y224900D01*
X237800D01*
Y224700D01*
X237600D01*
Y224300D01*
X237800D01*
X240600Y210100D02*
Y209700D01*
X241400D01*
Y210100D01*
X241800D01*
Y210900D01*
X241400D01*
Y211300D01*
X240600D01*
Y210900D01*
X240200D01*
Y210100D01*
X240600D01*
X240800Y210300D02*
Y210100D01*
X241200D01*
Y210300D01*
X241400D01*
Y210700D01*
X241200D01*
Y210900D01*
X240800D01*
Y210700D01*
X240600D01*
Y210300D01*
X240800D01*
X285580Y209164D02*
Y208764D01*
X286380D01*
Y209164D01*
X286780D01*
Y209964D01*
X286380D01*
Y210364D01*
X285580D01*
Y209964D01*
X285180D01*
Y209164D01*
X285580D01*
X285780Y209364D02*
Y209164D01*
X286180D01*
Y209364D01*
X286380D01*
Y209764D01*
X286180D01*
Y209964D01*
X285780D01*
Y209764D01*
X285580D01*
Y209364D01*
X285780D01*
X280600Y201600D02*
Y201200D01*
X281400D01*
Y201600D01*
X281800D01*
Y202400D01*
X281400D01*
Y202800D01*
X280600D01*
Y202400D01*
X280200D01*
Y201600D01*
X280600D01*
X280800Y201800D02*
Y201600D01*
X281200D01*
Y201800D01*
X281400D01*
Y202200D01*
X281200D01*
Y202400D01*
X280800D01*
Y202200D01*
X280600D01*
Y201800D01*
X280800D01*
X251706Y253189D02*
Y252789D01*
X252506D01*
Y253189D01*
X252906D01*
Y253989D01*
X252506D01*
Y254389D01*
X251706D01*
Y253989D01*
X251306D01*
Y253189D01*
X251706D01*
X251906Y253389D02*
Y253189D01*
X252306D01*
Y253389D01*
X252506D01*
Y253789D01*
X252306D01*
Y253989D01*
X251906D01*
Y253789D01*
X251706D01*
Y253389D01*
X251906D01*
X231600Y224100D02*
Y223700D01*
X232400D01*
Y224100D01*
X232800D01*
Y224900D01*
X232400D01*
Y225300D01*
X231600D01*
Y224900D01*
X231200D01*
Y224100D01*
X231600D01*
X231800Y224300D02*
Y224100D01*
X232200D01*
Y224300D01*
X232400D01*
Y224700D01*
X232200D01*
Y224900D01*
X231800D01*
Y224700D01*
X231600D01*
Y224300D01*
X231800D01*
X266600Y225100D02*
Y224700D01*
X267400D01*
Y225100D01*
X267800D01*
Y225900D01*
X267400D01*
Y226300D01*
X266600D01*
Y225900D01*
X266200D01*
Y225100D01*
X266600D01*
X266800Y225300D02*
Y225100D01*
X267200D01*
Y225300D01*
X267400D01*
Y225700D01*
X267200D01*
Y225900D01*
X266800D01*
Y225700D01*
X266600D01*
Y225300D01*
X266800D01*
X271100Y165600D02*
Y165200D01*
X271900D01*
Y165600D01*
X272300D01*
Y166400D01*
X271900D01*
Y166800D01*
X271100D01*
Y166400D01*
X270700D01*
Y165600D01*
X271100D01*
X271300Y165800D02*
Y165600D01*
X271700D01*
Y165800D01*
X271900D01*
Y166200D01*
X271700D01*
Y166400D01*
X271300D01*
Y166200D01*
X271100D01*
Y165800D01*
X271300D01*
X269671Y149714D02*
Y149314D01*
X270471D01*
Y149714D01*
X270871D01*
Y150514D01*
X270471D01*
Y150914D01*
X269671D01*
Y150514D01*
X269271D01*
Y149714D01*
X269671D01*
X269871Y149914D02*
Y149714D01*
X270271D01*
Y149914D01*
X270471D01*
Y150314D01*
X270271D01*
Y150514D01*
X269871D01*
Y150314D01*
X269671D01*
Y149914D01*
X269871D01*
X260959Y150186D02*
Y149786D01*
X261759D01*
Y150186D01*
X262159D01*
Y150986D01*
X261759D01*
Y151386D01*
X260959D01*
Y150986D01*
X260559D01*
Y150186D01*
X260959D01*
X261159Y150386D02*
Y150186D01*
X261559D01*
Y150386D01*
X261759D01*
Y150786D01*
X261559D01*
Y150986D01*
X261159D01*
Y150786D01*
X260959D01*
Y150386D01*
X261159D01*
X276600Y223600D02*
Y223200D01*
X277400D01*
Y223600D01*
X277800D01*
Y224400D01*
X277400D01*
Y224800D01*
X276600D01*
Y224400D01*
X276200D01*
Y223600D01*
X276600D01*
X276800Y223800D02*
Y223600D01*
X277200D01*
Y223800D01*
X277400D01*
Y224200D01*
X277200D01*
Y224400D01*
X276800D01*
Y224200D01*
X276600D01*
Y223800D01*
X276800D01*
X218600Y115600D02*
Y115200D01*
X219400D01*
Y115600D01*
X219800D01*
Y116400D01*
X219400D01*
Y116800D01*
X218600D01*
Y116400D01*
X218200D01*
Y115600D01*
X218600D01*
X218800Y115800D02*
Y115600D01*
X219200D01*
Y115800D01*
X219400D01*
Y116200D01*
X219200D01*
Y116400D01*
X218800D01*
Y116200D01*
X218600D01*
Y115800D01*
X218800D01*
X284600Y168600D02*
Y168200D01*
X285400D01*
Y168600D01*
X285800D01*
Y169400D01*
X285400D01*
Y169800D01*
X284600D01*
Y169400D01*
X284200D01*
Y168600D01*
X284600D01*
X284800Y168800D02*
Y168600D01*
X285200D01*
Y168800D01*
X285400D01*
Y169200D01*
X285200D01*
Y169400D01*
X284800D01*
Y169200D01*
X284600D01*
Y168800D01*
X284800D01*
X287100Y190100D02*
Y189700D01*
X287900D01*
Y190100D01*
X288300D01*
Y190900D01*
X287900D01*
Y191300D01*
X287100D01*
Y190900D01*
X286700D01*
Y190100D01*
X287100D01*
X287300Y190300D02*
Y190100D01*
X287700D01*
Y190300D01*
X287900D01*
Y190700D01*
X287700D01*
Y190900D01*
X287300D01*
Y190700D01*
X287100D01*
Y190300D01*
X287300D01*
X240600Y242100D02*
Y241700D01*
X241400D01*
Y242100D01*
X241800D01*
Y242900D01*
X241400D01*
Y243300D01*
X240600D01*
Y242900D01*
X240200D01*
Y242100D01*
X240600D01*
X240800Y242300D02*
Y242100D01*
X241200D01*
Y242300D01*
X241400D01*
Y242700D01*
X241200D01*
Y242900D01*
X240800D01*
Y242700D01*
X240600D01*
Y242300D01*
X240800D01*
X243600Y236100D02*
Y235700D01*
X244400D01*
Y236100D01*
X244800D01*
Y236900D01*
X244400D01*
Y237300D01*
X243600D01*
Y236900D01*
X243200D01*
Y236100D01*
X243600D01*
X243800Y236300D02*
Y236100D01*
X244200D01*
Y236300D01*
X244400D01*
Y236700D01*
X244200D01*
Y236900D01*
X243800D01*
Y236700D01*
X243600D01*
Y236300D01*
X243800D01*
X282100Y242100D02*
Y241700D01*
X282900D01*
Y242100D01*
X283300D01*
Y242900D01*
X282900D01*
Y243300D01*
X282100D01*
Y242900D01*
X281700D01*
Y242100D01*
X282100D01*
X282300Y242300D02*
Y242100D01*
X282700D01*
Y242300D01*
X282900D01*
Y242700D01*
X282700D01*
Y242900D01*
X282300D01*
Y242700D01*
X282100D01*
Y242300D01*
X282300D01*
X266100Y236100D02*
Y235700D01*
X266900D01*
Y236100D01*
X267300D01*
Y236900D01*
X266900D01*
Y237300D01*
X266100D01*
Y236900D01*
X265700D01*
Y236100D01*
X266100D01*
X266300Y236300D02*
Y236100D01*
X266700D01*
Y236300D01*
X266900D01*
Y236700D01*
X266700D01*
Y236900D01*
X266300D01*
Y236700D01*
X266100D01*
Y236300D01*
X266300D01*
X246600Y230100D02*
Y229700D01*
X247400D01*
Y230100D01*
X247800D01*
Y230900D01*
X247400D01*
Y231300D01*
X246600D01*
Y230900D01*
X246200D01*
Y230100D01*
X246600D01*
X246800Y230300D02*
Y230100D01*
X247200D01*
Y230300D01*
X247400D01*
Y230700D01*
X247200D01*
Y230900D01*
X246800D01*
Y230700D01*
X246600D01*
Y230300D01*
X246800D01*
X188100Y203100D02*
Y202700D01*
X188900D01*
Y203100D01*
X189300D01*
Y203900D01*
X188900D01*
Y204300D01*
X188100D01*
Y203900D01*
X187700D01*
Y203100D01*
X188100D01*
X188300Y203300D02*
Y203100D01*
X188700D01*
Y203300D01*
X188900D01*
Y203700D01*
X188700D01*
Y203900D01*
X188300D01*
Y203700D01*
X188100D01*
Y203300D01*
X188300D01*
X209985Y201371D02*
Y200971D01*
X210785D01*
Y201371D01*
X211185D01*
Y202171D01*
X210785D01*
Y202571D01*
X209985D01*
Y202171D01*
X209585D01*
Y201371D01*
X209985D01*
X210185Y201571D02*
Y201371D01*
X210585D01*
Y201571D01*
X210785D01*
Y201971D01*
X210585D01*
Y202171D01*
X210185D01*
Y201971D01*
X209985D01*
Y201571D01*
X210185D01*
X193100Y162100D02*
Y161700D01*
X193900D01*
Y162100D01*
X194300D01*
Y162900D01*
X193900D01*
Y163300D01*
X193100D01*
Y162900D01*
X192700D01*
Y162100D01*
X193100D01*
X193300Y162300D02*
Y162100D01*
X193700D01*
Y162300D01*
X193900D01*
Y162700D01*
X193700D01*
Y162900D01*
X193300D01*
Y162700D01*
X193100D01*
Y162300D01*
X193300D01*
X183100Y165100D02*
Y164700D01*
X183900D01*
Y165100D01*
X184300D01*
Y165900D01*
X183900D01*
Y166300D01*
X183100D01*
Y165900D01*
X182700D01*
Y165100D01*
X183100D01*
X183300Y165300D02*
Y165100D01*
X183700D01*
Y165300D01*
X183900D01*
Y165700D01*
X183700D01*
Y165900D01*
X183300D01*
Y165700D01*
X183100D01*
Y165300D01*
X183300D01*
X179600Y179100D02*
Y178700D01*
X180400D01*
Y179100D01*
X180800D01*
Y179900D01*
X180400D01*
Y180300D01*
X179600D01*
Y179900D01*
X179200D01*
Y179100D01*
X179600D01*
X179800Y179300D02*
Y179100D01*
X180200D01*
Y179300D01*
X180400D01*
Y179700D01*
X180200D01*
Y179900D01*
X179800D01*
Y179700D01*
X179600D01*
Y179300D01*
X179800D01*
X183100Y191600D02*
Y191200D01*
X183900D01*
Y191600D01*
X184300D01*
Y192400D01*
X183900D01*
Y192800D01*
X183100D01*
Y192400D01*
X182700D01*
Y191600D01*
X183100D01*
X183300Y191800D02*
Y191600D01*
X183700D01*
Y191800D01*
X183900D01*
Y192200D01*
X183700D01*
Y192400D01*
X183300D01*
Y192200D01*
X183100D01*
Y191800D01*
X183300D01*
X193600Y195100D02*
Y194700D01*
X194400D01*
Y195100D01*
X194800D01*
Y195900D01*
X194400D01*
Y196300D01*
X193600D01*
Y195900D01*
X193200D01*
Y195100D01*
X193600D01*
X193800Y195300D02*
Y195100D01*
X194200D01*
Y195300D01*
X194400D01*
Y195700D01*
X194200D01*
Y195900D01*
X193800D01*
Y195700D01*
X193600D01*
Y195300D01*
X193800D01*
X219100Y197100D02*
Y196700D01*
X219900D01*
Y197100D01*
X220300D01*
Y197900D01*
X219900D01*
Y198300D01*
X219100D01*
Y197900D01*
X218700D01*
Y197100D01*
X219100D01*
X219300Y197300D02*
Y197100D01*
X219700D01*
Y197300D01*
X219900D01*
Y197700D01*
X219700D01*
Y197900D01*
X219300D01*
Y197700D01*
X219100D01*
Y197300D01*
X219300D01*
X213100Y179600D02*
Y179200D01*
X213900D01*
Y179600D01*
X214300D01*
Y180400D01*
X213900D01*
Y180800D01*
X213100D01*
Y180400D01*
X212700D01*
Y179600D01*
X213100D01*
X213300Y179800D02*
Y179600D01*
X213700D01*
Y179800D01*
X213900D01*
Y180200D01*
X213700D01*
Y180400D01*
X213300D01*
Y180200D01*
X213100D01*
Y179800D01*
X213300D01*
X226600Y190560D02*
Y190160D01*
X227400D01*
Y190560D01*
X227800D01*
Y191360D01*
X227400D01*
Y191760D01*
X226600D01*
Y191360D01*
X226200D01*
Y190560D01*
X226600D01*
X226800Y190760D02*
Y190560D01*
X227200D01*
Y190760D01*
X227400D01*
Y191160D01*
X227200D01*
Y191360D01*
X226800D01*
Y191160D01*
X226600D01*
Y190760D01*
X226800D01*
X445700Y207799D02*
Y206599D01*
X448100D01*
Y207799D01*
X449300D01*
Y210199D01*
X448100D01*
Y211399D01*
X445700D01*
Y210199D01*
X444500D01*
Y207799D01*
X445700D01*
X446200Y208299D02*
Y207599D01*
X447600D01*
Y208299D01*
X448300D01*
Y209699D01*
X447600D01*
Y210399D01*
X446200D01*
Y209699D01*
X445500D01*
Y208299D01*
X446200D01*
X445700Y195799D02*
Y194599D01*
X448100D01*
Y195799D01*
X449300D01*
Y198199D01*
X448100D01*
Y199399D01*
X445700D01*
Y198199D01*
X444500D01*
Y195799D01*
X445700D01*
X444500Y182599D02*
X445700D01*
X446900Y183799D01*
X448100Y182599D01*
X449300D01*
Y183799D01*
X448100Y184999D01*
X449300Y186199D01*
Y187399D01*
X448100D01*
X446900Y186199D01*
X445700Y187399D01*
X444500D01*
Y186199D01*
X445700Y184999D01*
X444500Y183799D01*
Y182599D01*
X445500Y183599D02*
X446200D01*
X446900Y184299D01*
X447600Y183599D01*
X448300D01*
Y184299D01*
X447600Y184999D01*
X448300Y185699D01*
Y186399D01*
X447600D01*
X446900Y185699D01*
X446200Y186399D01*
X445500D01*
Y185699D01*
X446200Y184999D01*
X445500Y184299D01*
Y183599D01*
X444500Y170599D02*
Y175399D01*
X449300D01*
Y170599D01*
X444500D01*
X445500Y171599D02*
Y174399D01*
X448300D01*
Y171599D01*
X445500D01*
X446900Y158599D02*
X448100Y159799D01*
X449300D01*
X448100Y160999D01*
X449300Y162199D01*
X448100D01*
X446900Y163399D01*
X445700Y162199D01*
X444500D01*
X445700Y160999D01*
X444500Y159799D01*
X445700D01*
X446900Y158599D01*
Y159599D02*
X447600Y160299D01*
X448300D01*
X447600Y160999D01*
X448300Y161699D01*
X447600D01*
X446900Y162399D01*
X446200Y161699D01*
X445500D01*
X446200Y160999D01*
X445500Y160299D01*
X446200D01*
X446900Y159599D01*
X444500Y146599D02*
X445700D01*
X446900Y147799D01*
X448100Y146599D01*
X449300D01*
Y147799D01*
X448100Y148999D01*
X449300Y150199D01*
Y151399D01*
X448100D01*
X446900Y150199D01*
X445700Y151399D01*
X444500D01*
Y150199D01*
X445700Y148999D01*
X444500Y147799D01*
Y146599D01*
Y134599D02*
Y139399D01*
X449300D01*
Y134599D01*
X444500D01*
X446900Y110599D02*
X444500Y115399D01*
X449300D01*
X446900Y110599D01*
X444500Y100999D02*
X446900Y103399D01*
X449300Y100999D01*
X446900Y98599D01*
X444500Y100999D01*
X446900Y86599D02*
X444500Y91399D01*
X449300D01*
X446900Y86599D01*
Y87599D02*
X445500Y90399D01*
X448300D01*
X446900Y87599D01*
X444500Y74599D02*
X445700Y76999D01*
X444500Y79399D01*
X446900Y78199D01*
X449300Y79399D01*
X448100Y76999D01*
X449300Y74599D01*
X446900Y75799D01*
X444500Y74599D01*
X445500Y75599D02*
X446200Y76999D01*
X445500Y78399D01*
X446900Y77699D01*
X448300Y78399D01*
X447600Y76999D01*
X448300Y75599D01*
X446900Y76299D01*
X445500Y75599D01*
X446900Y50599D02*
X448100Y51799D01*
X449300D01*
X448100Y52999D01*
X449300Y54199D01*
X448100D01*
X446900Y55399D01*
X445700Y54199D01*
X444500D01*
X445700Y52999D01*
X444500Y51799D01*
X445700D01*
X446900Y50599D01*
X444500Y38599D02*
X445700Y40999D01*
X444500Y43399D01*
X446900Y42199D01*
X449300Y43399D01*
X448100Y40999D01*
X449300Y38599D01*
X446900Y39799D01*
X444500Y38599D01*
D118*
X52300Y103500D02*
G03*
X52300Y103500I-800J0D01*
G01*
X72300Y103461D02*
G03*
X72300Y103461I-800J0D01*
G01*
X62300Y103500D02*
G03*
X62300Y103500I-800J0D01*
G01*
X91391Y326736D02*
G03*
X91391Y326736I-800J0D01*
G01*
X40209D02*
G03*
X40209Y326736I-800J0D01*
G01*
D119*
X90991D02*
G03*
X90991Y326736I-400J0D01*
G01*
X39810D02*
G03*
X39810Y326736I-400J0D01*
G01*
D120*
X449298Y226397D02*
X448099Y227597D01*
X445700D01*
X444500Y226397D01*
Y225198D01*
X445700Y223998D01*
X448099D01*
X449298Y222799D01*
Y221599D01*
X448099Y220399D01*
X445700D01*
X444500Y221599D01*
X451698Y225198D02*
Y221599D01*
X452897Y220399D01*
X456496D01*
Y219200D01*
X455297Y218000D01*
X454097D01*
X456496Y220399D02*
Y225198D01*
X458895Y220399D02*
Y225198D01*
X460095D01*
X461295Y223998D01*
Y220399D01*
Y223998D01*
X462494Y225198D01*
X463694Y223998D01*
Y220399D01*
X466093Y227597D02*
Y220399D01*
X469692D01*
X470892Y221599D01*
Y222799D01*
Y223998D01*
X469692Y225198D01*
X466093D01*
X474490Y220399D02*
X476890D01*
X478089Y221599D01*
Y223998D01*
X476890Y225198D01*
X474490D01*
X473291Y223998D01*
Y221599D01*
X474490Y220399D01*
X480488D02*
X482888D01*
X481688D01*
Y227597D01*
X480488D01*
X494888D02*
Y220399D01*
Y223998D01*
X499686D01*
Y227597D01*
Y220399D01*
X502085D02*
X504485D01*
X503285D01*
Y225198D01*
X502085D01*
X509283Y226397D02*
Y225198D01*
X508083D01*
X510483D01*
X509283D01*
Y221599D01*
X510483Y220399D01*
X526078Y226397D02*
X524878Y227597D01*
X522479D01*
X521279Y226397D01*
Y221599D01*
X522479Y220399D01*
X524878D01*
X526078Y221599D01*
X529676Y220399D02*
X532076D01*
X533275Y221599D01*
Y223998D01*
X532076Y225198D01*
X529676D01*
X528477Y223998D01*
Y221599D01*
X529676Y220399D01*
X535674Y225198D02*
Y221599D01*
X536874Y220399D01*
X540473D01*
Y225198D01*
X542872Y220399D02*
Y225198D01*
X546471D01*
X547671Y223998D01*
Y220399D01*
X551269Y226397D02*
Y225198D01*
X550070D01*
X552469D01*
X551269D01*
Y221599D01*
X552469Y220399D01*
X569267Y227597D02*
X564469D01*
Y223998D01*
X566868D01*
X564469D01*
Y220399D01*
X571667D02*
X574066D01*
X572866D01*
Y225198D01*
X571667D01*
X577665Y220399D02*
Y225198D01*
X581263D01*
X582463Y223998D01*
Y220399D01*
X584862D02*
X587261D01*
X586062D01*
Y225198D01*
X584862D01*
X590860Y220399D02*
X594459D01*
X595659Y221599D01*
X594459Y222799D01*
X592060D01*
X590860Y223998D01*
X592060Y225198D01*
X595659D01*
X598058Y227597D02*
Y220399D01*
Y223998D01*
X599258Y225198D01*
X601657D01*
X602856Y223998D01*
Y220399D01*
X608855D02*
X606455D01*
X605256Y221599D01*
Y223998D01*
X606455Y225198D01*
X608855D01*
X610054Y223998D01*
Y222799D01*
X605256D01*
X617252Y227597D02*
Y220399D01*
X613653D01*
X612453Y221599D01*
Y223998D01*
X613653Y225198D01*
X617252D01*
X626849Y227597D02*
Y220399D01*
Y223998D01*
X631647D01*
Y227597D01*
Y220399D01*
X635246D02*
X637645D01*
X638845Y221599D01*
Y223998D01*
X637645Y225198D01*
X635246D01*
X634046Y223998D01*
Y221599D01*
X635246Y220399D01*
X641244D02*
X643643D01*
X642444D01*
Y227597D01*
X641244D01*
X650841Y220399D02*
X648442D01*
X647242Y221599D01*
Y223998D01*
X648442Y225198D01*
X650841D01*
X652041Y223998D01*
Y222799D01*
X647242D01*
X666436Y226397D02*
X665236Y227597D01*
X662837D01*
X661637Y226397D01*
Y225198D01*
X662837Y223998D01*
X665236D01*
X666436Y222799D01*
Y221599D01*
X665236Y220399D01*
X662837D01*
X661637Y221599D01*
X668835Y220399D02*
X671234D01*
X670035D01*
Y225198D01*
X668835D01*
X674833D02*
X679632D01*
X674833Y220399D01*
X679632D01*
X685630D02*
X683230D01*
X682031Y221599D01*
Y223998D01*
X683230Y225198D01*
X685630D01*
X686829Y223998D01*
Y222799D01*
X682031D01*
X698829Y220399D02*
Y227597D01*
X702428D01*
X703628Y226397D01*
Y223998D01*
X702428Y222799D01*
X698829D01*
X706027Y227597D02*
Y220399D01*
Y223998D01*
X707227Y225198D01*
X709626D01*
X710825Y223998D01*
Y220399D01*
X713225Y225198D02*
Y221599D01*
X714424Y220399D01*
X718023D01*
Y219200D01*
X716823Y218000D01*
X715624D01*
X718023Y220399D02*
Y225198D01*
X720422Y220399D02*
X724021D01*
X725221Y221599D01*
X724021Y222799D01*
X721622D01*
X720422Y223998D01*
X721622Y225198D01*
X725221D01*
X727620Y220399D02*
X730019D01*
X728820D01*
Y225198D01*
X727620D01*
X738416D02*
X734818D01*
X733618Y223998D01*
Y221599D01*
X734818Y220399D01*
X738416D01*
X742015Y225198D02*
X744415D01*
X745614Y223998D01*
Y220399D01*
X742015D01*
X740816Y221599D01*
X742015Y222799D01*
X745614D01*
X748013Y220399D02*
X750413D01*
X749213D01*
Y227597D01*
X748013D01*
X761209D02*
Y220399D01*
X766008D01*
X772006D02*
X769606D01*
X768407Y221599D01*
Y223998D01*
X769606Y225198D01*
X772006D01*
X773205Y223998D01*
Y222799D01*
X768407D01*
X775604Y220399D02*
Y225198D01*
X779203D01*
X780403Y223998D01*
Y220399D01*
X785201Y218000D02*
X786401D01*
X787601Y219200D01*
Y225198D01*
X784002D01*
X782802Y223998D01*
Y221599D01*
X784002Y220399D01*
X787601D01*
X791199Y226397D02*
Y225198D01*
X790000D01*
X792399D01*
X791199D01*
Y221599D01*
X792399Y220399D01*
X795998Y227597D02*
Y220399D01*
Y223998D01*
X797197Y225198D01*
X799597D01*
X800796Y223998D01*
Y220399D01*
X812796D02*
Y227597D01*
X816395D01*
X817595Y226397D01*
Y223998D01*
X816395Y222799D01*
X812796D01*
X815196D02*
X817595Y220399D01*
X821194D02*
X823593D01*
X824792Y221599D01*
Y223998D01*
X823593Y225198D01*
X821194D01*
X819994Y223998D01*
Y221599D01*
X821194Y220399D01*
X827192Y225198D02*
Y221599D01*
X828391Y220399D01*
X831990D01*
Y225198D01*
X835589Y226397D02*
Y225198D01*
X834389D01*
X836789D01*
X835589D01*
Y221599D01*
X836789Y220399D01*
X847585D02*
Y227597D01*
X851184D01*
X852384Y226397D01*
Y223998D01*
X851184Y222799D01*
X847585D01*
X855982Y225198D02*
X858382D01*
X859581Y223998D01*
Y220399D01*
X855982D01*
X854783Y221599D01*
X855982Y222799D01*
X859581D01*
X863180Y226397D02*
Y225198D01*
X861980D01*
X864380D01*
X863180D01*
Y221599D01*
X864380Y220399D01*
X867978Y227597D02*
Y220399D01*
Y223998D01*
X869178Y225198D01*
X871577D01*
X872777Y223998D01*
Y220399D01*
X882374Y227597D02*
Y220399D01*
X887172D01*
X893170D02*
X890771D01*
X889571Y221599D01*
Y223998D01*
X890771Y225198D01*
X893170D01*
X894370Y223998D01*
Y222799D01*
X889571D01*
X896769Y220399D02*
Y225198D01*
X900368D01*
X901568Y223998D01*
Y220399D01*
X906366Y218000D02*
X907566D01*
X908765Y219200D01*
Y225198D01*
X905166D01*
X903967Y223998D01*
Y221599D01*
X905166Y220399D01*
X908765D01*
X912364Y226397D02*
Y225198D01*
X911164D01*
X913564D01*
X912364D01*
Y221599D01*
X913564Y220399D01*
X917163Y227597D02*
Y220399D01*
Y223998D01*
X918362Y225198D01*
X920761D01*
X921961Y223998D01*
Y220399D01*
X933961D02*
Y227597D01*
X937560D01*
X938759Y226397D01*
Y223998D01*
X937560Y222799D01*
X933961D01*
X941159Y220399D02*
X943558D01*
X942358D01*
Y227597D01*
X941159D01*
X948356Y225198D02*
X950756D01*
X951955Y223998D01*
Y220399D01*
X948356D01*
X947157Y221599D01*
X948356Y222799D01*
X951955D01*
X955554Y226397D02*
Y225198D01*
X954354D01*
X956754D01*
X955554D01*
Y221599D01*
X956754Y220399D01*
X963951D02*
X961552D01*
X960353Y221599D01*
Y223998D01*
X961552Y225198D01*
X963951D01*
X965151Y223998D01*
Y222799D01*
X960353D01*
X972349Y227597D02*
Y220399D01*
X968750D01*
X967550Y221599D01*
Y223998D01*
X968750Y225198D01*
X972349D01*
X984349Y227597D02*
Y220399D01*
Y223998D01*
X989147D01*
Y227597D01*
Y220399D01*
X992746D02*
X995145D01*
X996345Y221599D01*
Y223998D01*
X995145Y225198D01*
X992746D01*
X991546Y223998D01*
Y221599D01*
X992746Y220399D01*
X998744D02*
X1001143D01*
X999944D01*
Y227597D01*
X998744D01*
X1008341Y220399D02*
X1005942D01*
X1004742Y221599D01*
Y223998D01*
X1005942Y225198D01*
X1008341D01*
X1009540Y223998D01*
Y222799D01*
X1004742D01*
X1019137Y227597D02*
X1023936D01*
X1021537D01*
Y220399D01*
X1026335Y225198D02*
Y221599D01*
X1027535Y220399D01*
X1031133D01*
Y219200D01*
X1029934Y218000D01*
X1028734D01*
X1031133Y220399D02*
Y225198D01*
X1033533Y218000D02*
Y225198D01*
X1037132D01*
X1038331Y223998D01*
Y221599D01*
X1037132Y220399D01*
X1033533D01*
X1044329D02*
X1041930D01*
X1040730Y221599D01*
Y223998D01*
X1041930Y225198D01*
X1044329D01*
X1045529Y223998D01*
Y222799D01*
X1040730D01*
X435700Y231199D02*
X1057529D01*
X435700Y214999D02*
X1057529D01*
X435700Y231199D02*
Y22999D01*
X1057529Y231199D02*
Y22999D01*
X490488Y231199D02*
Y22999D01*
X560069Y231199D02*
Y22999D01*
X694429Y231199D02*
Y22999D01*
X808396Y231199D02*
Y22999D01*
X929561Y231199D02*
Y22999D01*
X979949Y231199D02*
Y22999D01*
X435700Y34999D02*
X1057529D01*
X435700Y22999D02*
X1057529D01*
D121*
X449300Y124999D02*
G03*
X449300Y124999I-2400J0D01*
G01*
Y64999D02*
G03*
X449300Y64999I-2400J0D01*
G01*
D122*
X448300D02*
G03*
X448300Y64999I-1400J0D01*
G01*
D123*
X448499Y18998D02*
X447499Y19997D01*
X445500D01*
X444500Y18998D01*
Y17998D01*
X445500Y16998D01*
X447499D01*
X448499Y15999D01*
Y14999D01*
X447499Y13999D01*
X445500D01*
X444500Y14999D01*
X450498Y13999D02*
X452497D01*
X451498D01*
Y19997D01*
X450498D01*
X456496Y13999D02*
X458496D01*
X459495Y14999D01*
Y16998D01*
X458496Y17998D01*
X456496D01*
X455496Y16998D01*
Y14999D01*
X456496Y13999D01*
X462494Y18998D02*
Y17998D01*
X461494D01*
X463494D01*
X462494D01*
Y14999D01*
X463494Y13999D01*
X476490Y19997D02*
Y13999D01*
X473491D01*
X472491Y14999D01*
Y16998D01*
X473491Y17998D01*
X476490D01*
X481488Y13999D02*
X479489D01*
X478489Y14999D01*
Y16998D01*
X479489Y17998D01*
X481488D01*
X482488Y16998D01*
Y15999D01*
X478489D01*
X485487Y13999D02*
Y18998D01*
Y16998D01*
X484487D01*
X486486D01*
X485487D01*
Y18998D01*
X486486Y19997D01*
X489485Y13999D02*
X491485D01*
X490485D01*
Y17998D01*
X489485D01*
X494484Y13999D02*
Y17998D01*
X497483D01*
X498483Y16998D01*
Y13999D01*
X500482D02*
X502481D01*
X501482D01*
Y17998D01*
X500482D01*
X506480Y18998D02*
Y17998D01*
X505480D01*
X507480D01*
X506480D01*
Y14999D01*
X507480Y13999D01*
X510479D02*
X512478D01*
X511478D01*
Y17998D01*
X510479D01*
X516477Y13999D02*
X518476D01*
X519476Y14999D01*
Y16998D01*
X518476Y17998D01*
X516477D01*
X515477Y16998D01*
Y14999D01*
X516477Y13999D01*
X521475D02*
Y17998D01*
X524474D01*
X525474Y16998D01*
Y13999D01*
X527473D02*
X530472D01*
X531472Y14999D01*
X530472Y15999D01*
X528473D01*
X527473Y16998D01*
X528473Y17998D01*
X531472D01*
X539469D02*
X540469D01*
Y16998D01*
X539469D01*
Y17998D01*
Y14999D02*
X540469D01*
Y13999D01*
X539469D01*
Y14999D01*
X552069Y13999D02*
Y19997D01*
X555068D01*
X556068Y18998D01*
Y16998D01*
X555068Y15999D01*
X552069D01*
X554068D02*
X556068Y13999D01*
X559067D02*
X561066D01*
X562066Y14999D01*
Y16998D01*
X561066Y17998D01*
X559067D01*
X558067Y16998D01*
Y14999D01*
X559067Y13999D01*
X564065Y17998D02*
Y14999D01*
X565065Y13999D01*
X568064D01*
Y17998D01*
X571063Y18998D02*
Y17998D01*
X570063D01*
X572062D01*
X571063D01*
Y14999D01*
X572062Y13999D01*
X581060D02*
Y19997D01*
X584059D01*
X585058Y18998D01*
Y16998D01*
X584059Y15999D01*
X581060D01*
X588057Y17998D02*
X590057D01*
X591056Y16998D01*
Y13999D01*
X588057D01*
X587058Y14999D01*
X588057Y15999D01*
X591056D01*
X594055Y18998D02*
Y17998D01*
X593056D01*
X595055D01*
X594055D01*
Y14999D01*
X595055Y13999D01*
X598054Y19997D02*
Y13999D01*
Y16998D01*
X599054Y17998D01*
X601053D01*
X602053Y16998D01*
Y13999D01*
X610050Y19997D02*
Y13999D01*
X614049D01*
X619047D02*
X617048D01*
X616048Y14999D01*
Y16998D01*
X617048Y17998D01*
X619047D01*
X620047Y16998D01*
Y15999D01*
X616048D01*
X622046Y13999D02*
Y17998D01*
X625045D01*
X626045Y16998D01*
Y13999D01*
X630044Y12000D02*
X631043D01*
X632043Y13000D01*
Y17998D01*
X629044D01*
X628044Y16998D01*
Y14999D01*
X629044Y13999D01*
X632043D01*
X635042Y18998D02*
Y17998D01*
X634042D01*
X636042D01*
X635042D01*
Y14999D01*
X636042Y13999D01*
X639041Y19997D02*
Y13999D01*
Y16998D01*
X640040Y17998D01*
X642040D01*
X643040Y16998D01*
Y13999D01*
X552069Y1999D02*
Y7997D01*
X555068D01*
X556068Y6998D01*
Y4998D01*
X555068Y3999D01*
X552069D01*
X558067Y7997D02*
Y1999D01*
Y4998D01*
X559067Y5998D01*
X561066D01*
X562066Y4998D01*
Y1999D01*
X564065Y5998D02*
Y2999D01*
X565065Y1999D01*
X568064D01*
Y1000D01*
X567064Y0D01*
X566064D01*
X568064Y1999D02*
Y5998D01*
X570063Y1999D02*
X573062D01*
X574062Y2999D01*
X573062Y3999D01*
X571063D01*
X570063Y4998D01*
X571063Y5998D01*
X574062D01*
X576061Y1999D02*
X578060D01*
X577061D01*
Y5998D01*
X576061D01*
X585058D02*
X582059D01*
X581060Y4998D01*
Y2999D01*
X582059Y1999D01*
X585058D01*
X588057Y5998D02*
X590057D01*
X591056Y4998D01*
Y1999D01*
X588057D01*
X587058Y2999D01*
X588057Y3999D01*
X591056D01*
X593056Y1999D02*
X595055D01*
X594055D01*
Y7997D01*
X593056D01*
X604052D02*
Y1999D01*
X608051D01*
X613049D02*
X611050D01*
X610050Y2999D01*
Y4998D01*
X611050Y5998D01*
X613049D01*
X614049Y4998D01*
Y3999D01*
X610050D01*
X616048Y1999D02*
Y5998D01*
X619047D01*
X620047Y4998D01*
Y1999D01*
X624046Y0D02*
X625045D01*
X626045Y1000D01*
Y5998D01*
X623046D01*
X622046Y4998D01*
Y2999D01*
X623046Y1999D01*
X626045D01*
X629044Y6998D02*
Y5998D01*
X628044D01*
X630044D01*
X629044D01*
Y2999D01*
X630044Y1999D01*
X633043Y7997D02*
Y1999D01*
Y4998D01*
X634042Y5998D01*
X636042D01*
X637041Y4998D01*
Y1999D01*
M02*
