G04*
G04 #@! TF.GenerationSoftware,Altium Limited,Altium Designer,21.3.2 (30)*
G04*
G04 Layer_Color=16711935*
%FSLAX25Y25*%
%MOIN*%
G70*
G04*
G04 #@! TF.SameCoordinates,2DA63E57-4869-4DD6-A6C4-22B490529F43*
G04*
G04*
G04 #@! TF.FilePolarity,Negative*
G04*
G01*
G75*
%ADD46R,0.04461X0.04658*%
%ADD65C,0.07887*%
%ADD66R,0.07887X0.11036*%
%ADD67O,0.07887X0.11036*%
%ADD68C,0.05524*%
%ADD69O,0.07099X0.04737*%
%ADD70O,0.09068X0.04737*%
%ADD71C,0.03556*%
%ADD72R,0.07887X0.07887*%
%ADD73C,0.08674*%
%ADD74C,0.13792*%
%ADD75C,0.09461*%
%ADD76C,0.14580*%
%ADD77R,0.07887X0.07887*%
D46*
X157063Y84000D02*
D03*
X151000Y84000D02*
D03*
D65*
X352043Y47500D02*
D03*
Y57342D02*
D03*
X294957Y37657D02*
D03*
X352043Y37657D02*
D03*
X294957Y57342D02*
D03*
X93000Y128000D02*
D03*
X93000Y118000D02*
D03*
X93000Y108000D02*
D03*
X123000Y128000D02*
D03*
X123000Y118000D02*
D03*
X191500Y188606D02*
D03*
Y169394D02*
D03*
X248500Y99339D02*
D03*
X258500D02*
D03*
X228500D02*
D03*
X238500Y99339D02*
D03*
X198500Y99339D02*
D03*
X208500Y99339D02*
D03*
X218500Y99339D02*
D03*
X31500Y129685D02*
D03*
X101000Y197193D02*
D03*
X41000Y283807D02*
D03*
X71000D02*
D03*
X41000Y197193D02*
D03*
X151000Y113500D02*
D03*
X351500Y231500D02*
D03*
Y241500D02*
D03*
Y251500D02*
D03*
X233500Y130000D02*
D03*
Y120000D02*
D03*
X351500Y274000D02*
D03*
Y284000D02*
D03*
D66*
X51500Y103500D02*
D03*
D67*
X71500Y103461D02*
D03*
X61500Y103500D02*
D03*
D68*
X209000Y251646D02*
D03*
Y281173D02*
D03*
D69*
X357030Y192508D02*
D03*
Y158492D02*
D03*
D70*
X340573Y192508D02*
D03*
X340573Y158492D02*
D03*
D71*
X342659Y187232D02*
D03*
Y163768D02*
D03*
D72*
X123000Y108000D02*
D03*
X188500Y99339D02*
D03*
D73*
X22000Y146500D02*
D03*
Y156500D02*
D03*
D74*
X90591Y326736D02*
D03*
X39410D02*
D03*
D75*
X37441Y306264D02*
D03*
X92559Y306264D02*
D03*
D76*
X272886Y95395D02*
D03*
X174114Y20605D02*
D03*
X174287Y95402D02*
D03*
X272713Y20598D02*
D03*
D77*
X31500Y80315D02*
D03*
X151000Y123500D02*
D03*
X351500Y221500D02*
D03*
X233500Y140000D02*
D03*
X351500Y264000D02*
D03*
M02*
