M48
;Layer_Color=9474304
;FILE_FORMAT=2:5
INCH,LZ
;TYPE=PLATED
T1F00S00C0.01600
T3F00S00C0.02500
T4F00S00C0.03150
T5F00S00C0.03543
T6F00S00C0.03937
T7F00S00C0.04331
T8F00S00C0.04724
T9F00S00C0.05118
T10F00S00C0.05906
T11F00S00C0.09843
;TYPE=NON_PLATED
T12F00S00C0.02756
T13F00S00C0.04724
T14F00S00C0.12992
T15F00S00C0.19685
%
T01
X0147504Y00645
X017635Y004135
X01095Y00405
X0103946Y0045554
X0099406Y0029594
X00975Y0016
X0088Y0055
X0065906Y0064594
X00512Y00662
X005743Y0085607
X006053
X006363
X00695Y0086
X0074Y00875
X00755Y00835
X0084358Y0088407
X0087421Y0087421
X0092Y00875
X0104094Y0078474
X0109Y0079
X01135Y0075547
X0125Y0096
X0106Y01095
X0112406Y0117906
X0105838Y0131162
X0113Y0139
X0121114Y0132485
X01005Y0147
X0101146Y0164646
X0086148Y0181648
X0083956Y0179456
X008117Y017667
X0078978Y0174478
X0076786Y0172286
X0074Y01695
X00615Y01545
X0062359Y0133594
X00555Y0135
X0055Y0111
X0062107Y0112393
X0059915Y0114585
X00628Y0108702
X00675Y01095
X0067Y009
X0069Y00755
X0079289Y0073446
X0051582Y00935
X00375Y0104327
X0041Y0149
X0026021Y0158521
X0012Y01615
X0081726Y01255
X0127627Y0135798
X01355Y01365
X0141Y0130586
Y012
Y01115
Y0104
X0138254Y0098154
X0132Y0096
X014903Y0087
X01395Y01475
X0146Y0161
X0131854Y0164033
X01395Y0175
X0163Y0181
X01915Y0178
X018Y01535
X0212Y01465
X02175Y01565
X0245Y0147
X0258563Y0140952
X0143291Y0222268
X02985Y01665
T03
X01945Y01735
X0206556Y0185379
X0214Y02205
X0190974Y0215581
X0166836Y0202164
X02474Y0221593
X0196532Y023196
X0188202Y0238784
T04
X01315Y0106394
Y0125606
T05
X0009Y00745
X0019
X0029
X0039
X0029Y01
X0019
X0009
X00875Y01385
X00975
X01075
X0112Y01875
X0122
X0102
X0092
X0082
X0072
X0101444Y0211368
X0041444
X0132Y01875
X0142
X01535Y0166
Y0156
X0230315Y02525
X0279685
X0071444Y0297982
X0041444
T06
X0252Y0165
X0262Y0165
X0272Y0165
Y0195
X0262
X0252
T07
X0012457Y0025657
Y0045342
X0069543
Y00355
Y0025657
T08
X0294961Y0212
X0295Y0222
X0295Y0232
T09
X02985Y01675
Y01875
T10
X0294003Y0271938
X0238885
T11
X0161831Y0262594
X0161915Y0281047
X0162Y02995
T12
X0022341Y0117268
Y0140733
T13
X01295Y00315
X0159028
T14
X0292035Y0292411
X0240853
T15
X02Y00455
Y0285658
M30
