G04*
G04 #@! TF.GenerationSoftware,Altium Limited,Altium Designer,21.3.2 (30)*
G04*
G04 Layer_Physical_Order=4*
G04 Layer_Color=16711680*
%FSLAX25Y25*%
%MOIN*%
G70*
G04*
G04 #@! TF.SameCoordinates,AD82394D-94CB-4E6D-8DF2-E68E24F3FF13*
G04*
G04*
G04 #@! TF.FilePolarity,Positive*
G04*
G01*
G75*
%ADD11C,0.01000*%
%ADD83C,0.03000*%
%ADD87C,0.07087*%
%ADD88R,0.07087X0.07087*%
%ADD89C,0.04724*%
%ADD90C,0.19685*%
%ADD91C,0.12992*%
%ADD92C,0.08661*%
%ADD93C,0.11024*%
%ADD94C,0.02756*%
%ADD95O,0.06299X0.03937*%
%ADD96O,0.08268X0.03937*%
%ADD97R,0.07087X0.07087*%
%ADD98R,0.10236X0.07087*%
%ADD99O,0.10236X0.07087*%
%ADD100C,0.07874*%
%ADD101C,0.02500*%
%ADD102C,0.04000*%
G36*
X23337Y103630D02*
X23181Y103446D01*
X23043Y103223D01*
X22921Y102961D01*
X22816Y102661D01*
X22728Y102321D01*
X22657Y101942D01*
X22603Y101524D01*
X22546Y100570D01*
X22543Y100035D01*
X19035Y103543D01*
X19570Y103546D01*
X20524Y103603D01*
X20942Y103657D01*
X21320Y103728D01*
X21660Y103816D01*
X21961Y103921D01*
X22223Y104042D01*
X22446Y104181D01*
X22630Y104337D01*
X23337Y103630D01*
D02*
G37*
G36*
X32630Y95663D02*
X32446Y95819D01*
X32223Y95957D01*
X31962Y96079D01*
X31661Y96184D01*
X31321Y96272D01*
X30942Y96343D01*
X30524Y96397D01*
X29570Y96454D01*
X29035Y96457D01*
X32543Y99965D01*
X32546Y99430D01*
X32603Y98476D01*
X32657Y98058D01*
X32728Y97680D01*
X32816Y97339D01*
X32921Y97039D01*
X33042Y96777D01*
X33181Y96554D01*
X33337Y96370D01*
X32630Y95663D01*
D02*
G37*
G36*
X44634Y74000D02*
X44394Y73980D01*
X44138Y73921D01*
X43866Y73822D01*
X43579Y73683D01*
X43277Y73505D01*
X42959Y73287D01*
X42625Y73030D01*
X41911Y72396D01*
X41530Y72020D01*
Y76980D01*
X41911Y76604D01*
X42625Y75970D01*
X42959Y75713D01*
X43277Y75495D01*
X43579Y75317D01*
X43866Y75178D01*
X44138Y75079D01*
X44394Y75020D01*
X44634Y75000D01*
Y74000D01*
D02*
G37*
G36*
X58680Y87357D02*
X58644Y85906D01*
X57266Y86847D01*
X57344Y86864D01*
X57415Y86893D01*
X57477Y86936D01*
X57531Y86991D01*
X57576Y87058D01*
X57614Y87138D01*
X57643Y87230D01*
X57663Y87335D01*
X57676Y87452D01*
X57680Y87582D01*
X58680Y87357D01*
D02*
G37*
G36*
X60950Y87535D02*
X60954Y87410D01*
X60966Y87291D01*
X60986Y87178D01*
X61013Y87071D01*
X61049Y86970D01*
X61093Y86875D01*
X61144Y86786D01*
X61203Y86703D01*
X61271Y86625D01*
X61346Y86554D01*
X59600Y86442D01*
X59666Y86523D01*
X59726Y86608D01*
X59778Y86698D01*
X59824Y86793D01*
X59862Y86893D01*
X59894Y86998D01*
X59918Y87107D01*
X59936Y87221D01*
X59947Y87341D01*
X59950Y87465D01*
X60950Y87535D01*
D02*
G37*
G36*
X63604Y107733D02*
X63540Y107651D01*
X63484Y107565D01*
X63435Y107472D01*
X63394Y107375D01*
X63360Y107272D01*
X63334Y107163D01*
X63315Y107050D01*
X63304Y106931D01*
X63300Y106806D01*
X62300D01*
X62296Y106931D01*
X62285Y107050D01*
X62266Y107163D01*
X62240Y107272D01*
X62206Y107375D01*
X62165Y107472D01*
X62116Y107565D01*
X62060Y107651D01*
X61996Y107733D01*
X61925Y107809D01*
X63675D01*
X63604Y107733D01*
D02*
G37*
G36*
X83402Y87601D02*
X83332Y87677D01*
X83255Y87744D01*
X83173Y87804D01*
X83084Y87856D01*
X82990Y87900D01*
X82889Y87936D01*
X82782Y87964D01*
X82670Y87984D01*
X82551Y87996D01*
X82426Y88000D01*
X82507Y89000D01*
X82631Y89003D01*
X82751Y89014D01*
X82865Y89031D01*
X82975Y89055D01*
X83080Y89087D01*
X83180Y89125D01*
X83275Y89170D01*
X83366Y89221D01*
X83452Y89280D01*
X83533Y89346D01*
X83402Y87601D01*
D02*
G37*
G36*
X63384Y87452D02*
X63397Y87335D01*
X63417Y87230D01*
X63446Y87138D01*
X63484Y87058D01*
X63529Y86991D01*
X63583Y86936D01*
X63645Y86893D01*
X63716Y86864D01*
X63794Y86847D01*
X62416Y85906D01*
X62380Y87357D01*
X63380Y87582D01*
X63384Y87452D01*
D02*
G37*
G36*
X74216Y86269D02*
X74116Y86247D01*
X74016Y86219D01*
X73918Y86184D01*
X73822Y86141D01*
X73726Y86091D01*
X73632Y86035D01*
X73539Y85970D01*
X73447Y85900D01*
X73356Y85821D01*
X73267Y85736D01*
X72415Y86299D01*
X72501Y86391D01*
X72576Y86484D01*
X72639Y86577D01*
X72692Y86672D01*
X72733Y86767D01*
X72764Y86864D01*
X72783Y86961D01*
X72791Y87060D01*
X72788Y87159D01*
X72773Y87259D01*
X74216Y86269D01*
D02*
G37*
G36*
X69488Y84750D02*
X69383Y84747D01*
X69280Y84734D01*
X69179Y84712D01*
X69080Y84681D01*
X68981Y84642D01*
X68885Y84593D01*
X68789Y84535D01*
X68696Y84468D01*
X68604Y84391D01*
X68513Y84306D01*
X67806Y85013D01*
X67891Y85104D01*
X67968Y85196D01*
X68035Y85290D01*
X68093Y85385D01*
X68142Y85481D01*
X68182Y85580D01*
X68212Y85679D01*
X68234Y85781D01*
X68247Y85883D01*
X68250Y85988D01*
X69488Y84750D01*
D02*
G37*
G36*
X77194Y84487D02*
X77109Y84396D01*
X77032Y84304D01*
X76965Y84210D01*
X76907Y84115D01*
X76858Y84019D01*
X76819Y83920D01*
X76788Y83821D01*
X76766Y83719D01*
X76753Y83617D01*
X76750Y83513D01*
X75512Y84750D01*
X75617Y84753D01*
X75719Y84766D01*
X75821Y84788D01*
X75920Y84819D01*
X76019Y84858D01*
X76115Y84907D01*
X76210Y84965D01*
X76304Y85032D01*
X76396Y85109D01*
X76487Y85194D01*
X77194Y84487D01*
D02*
G37*
G36*
X53104Y111500D02*
X53229Y111504D01*
X53348Y111515D01*
X53461Y111534D01*
X53570Y111560D01*
X53673Y111594D01*
X53770Y111635D01*
X53863Y111684D01*
X53950Y111740D01*
X54031Y111804D01*
X54107Y111875D01*
Y110125D01*
X54031Y110196D01*
X53950Y110260D01*
X53863Y110316D01*
X53770Y110365D01*
X53673Y110406D01*
X53570Y110440D01*
X53461Y110466D01*
X53348Y110485D01*
X53229Y110496D01*
X53104Y110500D01*
Y111500D01*
D02*
G37*
G36*
X40500Y147104D02*
X40496Y147229D01*
X40485Y147348D01*
X40466Y147461D01*
X40440Y147570D01*
X40406Y147673D01*
X40365Y147770D01*
X40316Y147863D01*
X40260Y147950D01*
X40196Y148031D01*
X40125Y148107D01*
X41875D01*
X41804Y148031D01*
X41740Y147950D01*
X41684Y147863D01*
X41635Y147770D01*
X41594Y147673D01*
X41560Y147570D01*
X41534Y147461D01*
X41515Y147348D01*
X41504Y147229D01*
X41500Y147104D01*
X40500D01*
D02*
G37*
G36*
X13896Y161000D02*
X13771Y160996D01*
X13652Y160985D01*
X13539Y160966D01*
X13430Y160940D01*
X13327Y160906D01*
X13230Y160865D01*
X13137Y160816D01*
X13050Y160760D01*
X12969Y160696D01*
X12893Y160625D01*
Y162375D01*
X12969Y162304D01*
X13050Y162240D01*
X13137Y162184D01*
X13230Y162135D01*
X13327Y162094D01*
X13430Y162060D01*
X13539Y162034D01*
X13652Y162015D01*
X13771Y162004D01*
X13896Y162000D01*
Y161000D01*
D02*
G37*
G36*
X58221Y113598D02*
X58314Y113695D01*
X58469Y113881D01*
X58530Y113970D01*
X58580Y114056D01*
X58620Y114138D01*
X58649Y114219D01*
X58668Y114296D01*
X58676Y114371D01*
X58673Y114442D01*
X59772Y113343D01*
X59701Y113346D01*
X59626Y113338D01*
X59549Y113320D01*
X59468Y113290D01*
X59385Y113250D01*
X59300Y113200D01*
X59211Y113139D01*
X59119Y113067D01*
X59025Y112984D01*
X58928Y112891D01*
X58221Y113598D01*
D02*
G37*
G36*
X60555Y111142D02*
X60641Y111234D01*
X60716Y111327D01*
X60778Y111421D01*
X60830Y111515D01*
X60869Y111610D01*
X60897Y111705D01*
X60914Y111802D01*
X60919Y111898D01*
X60912Y111996D01*
X60893Y112094D01*
X62382Y111174D01*
X62284Y111148D01*
X62187Y111116D01*
X62091Y111077D01*
X61996Y111032D01*
X61902Y110980D01*
X61809Y110921D01*
X61717Y110855D01*
X61536Y110705D01*
X61446Y110619D01*
X60555Y111142D01*
D02*
G37*
G36*
X69396Y109000D02*
X69271Y108996D01*
X69152Y108985D01*
X69038Y108966D01*
X68930Y108940D01*
X68827Y108906D01*
X68730Y108865D01*
X68637Y108816D01*
X68550Y108760D01*
X68469Y108696D01*
X68393Y108625D01*
Y110375D01*
X68469Y110304D01*
X68550Y110240D01*
X68637Y110184D01*
X68730Y110135D01*
X68827Y110094D01*
X68930Y110060D01*
X69038Y110034D01*
X69152Y110015D01*
X69271Y110004D01*
X69396Y110000D01*
Y109000D01*
D02*
G37*
G36*
X80951Y127256D02*
X81041Y127171D01*
X81131Y127093D01*
X81224Y127023D01*
X81317Y126960D01*
X81412Y126904D01*
X81508Y126856D01*
X81606Y126815D01*
X81705Y126782D01*
X81806Y126755D01*
X81907Y126737D01*
X80493Y125706D01*
X80505Y125807D01*
X80506Y125907D01*
X80496Y126006D01*
X80475Y126104D01*
X80443Y126201D01*
X80400Y126297D01*
X80347Y126392D01*
X80283Y126486D01*
X80208Y126579D01*
X80122Y126671D01*
X80951Y127256D01*
D02*
G37*
G36*
X75896Y169000D02*
X75771Y168996D01*
X75652Y168985D01*
X75538Y168966D01*
X75430Y168940D01*
X75327Y168906D01*
X75230Y168865D01*
X75137Y168816D01*
X75050Y168760D01*
X74969Y168696D01*
X74893Y168625D01*
Y170375D01*
X74969Y170304D01*
X75050Y170240D01*
X75137Y170184D01*
X75230Y170135D01*
X75327Y170094D01*
X75430Y170060D01*
X75538Y170034D01*
X75652Y170015D01*
X75771Y170004D01*
X75896Y170000D01*
Y169000D01*
D02*
G37*
G36*
X78599Y171628D02*
X78475Y171625D01*
X78356Y171615D01*
X78241Y171599D01*
X78131Y171576D01*
X78025Y171547D01*
X77923Y171512D01*
X77826Y171470D01*
X77733Y171421D01*
X77645Y171367D01*
X77561Y171305D01*
X77782Y173041D01*
X77848Y172963D01*
X77921Y172892D01*
X78000Y172830D01*
X78085Y172777D01*
X78178Y172731D01*
X78277Y172694D01*
X78382Y172665D01*
X78494Y172645D01*
X78613Y172632D01*
X78738Y172628D01*
X78599Y171628D01*
D02*
G37*
G36*
X80791Y173820D02*
X80667Y173817D01*
X80548Y173807D01*
X80433Y173791D01*
X80323Y173768D01*
X80217Y173739D01*
X80115Y173704D01*
X80018Y173662D01*
X79925Y173614D01*
X79837Y173559D01*
X79753Y173497D01*
X79974Y175233D01*
X80040Y175155D01*
X80113Y175084D01*
X80192Y175022D01*
X80278Y174969D01*
X80370Y174923D01*
X80469Y174886D01*
X80574Y174857D01*
X80686Y174837D01*
X80805Y174824D01*
X80930Y174820D01*
X80791Y173820D01*
D02*
G37*
G36*
X83066Y176170D02*
X82941Y176166D01*
X82822Y176155D01*
X82709Y176136D01*
X82600Y176110D01*
X82497Y176076D01*
X82400Y176035D01*
X82307Y175986D01*
X82221Y175930D01*
X82139Y175866D01*
X82063Y175795D01*
Y177545D01*
X82139Y177474D01*
X82221Y177410D01*
X82307Y177354D01*
X82400Y177305D01*
X82497Y177264D01*
X82600Y177230D01*
X82709Y177204D01*
X82822Y177185D01*
X82941Y177174D01*
X83066Y177170D01*
Y176170D01*
D02*
G37*
G36*
X88500Y56896D02*
X88504Y56771D01*
X88515Y56652D01*
X88534Y56538D01*
X88560Y56430D01*
X88594Y56327D01*
X88635Y56230D01*
X88684Y56137D01*
X88740Y56050D01*
X88804Y55969D01*
X88875Y55893D01*
X87125D01*
X87196Y55969D01*
X87260Y56050D01*
X87316Y56137D01*
X87365Y56230D01*
X87406Y56327D01*
X87440Y56430D01*
X87466Y56538D01*
X87485Y56652D01*
X87496Y56771D01*
X87500Y56896D01*
X88500D01*
D02*
G37*
G36*
X87500Y85424D02*
X87496Y85552D01*
X87482Y85669D01*
X87460Y85776D01*
X87429Y85872D01*
X87390Y85958D01*
X87341Y86033D01*
X87284Y86097D01*
X87218Y86150D01*
X87143Y86193D01*
X87059Y86225D01*
X88598Y87001D01*
X88580Y86937D01*
X88563Y86855D01*
X88548Y86756D01*
X88525Y86504D01*
X88504Y85993D01*
X88500Y85563D01*
X87500Y85424D01*
D02*
G37*
G36*
X91013Y89194D02*
X91104Y89109D01*
X91196Y89032D01*
X91290Y88965D01*
X91385Y88907D01*
X91481Y88858D01*
X91580Y88819D01*
X91679Y88788D01*
X91781Y88766D01*
X91883Y88753D01*
X91988Y88750D01*
X90750Y87512D01*
X90747Y87617D01*
X90734Y87720D01*
X90712Y87821D01*
X90681Y87920D01*
X90642Y88019D01*
X90593Y88115D01*
X90535Y88210D01*
X90468Y88304D01*
X90391Y88396D01*
X90306Y88487D01*
X91013Y89194D01*
D02*
G37*
G36*
X105013Y111194D02*
X105104Y111109D01*
X105196Y111032D01*
X105289Y110965D01*
X105385Y110907D01*
X105481Y110858D01*
X105580Y110819D01*
X105679Y110788D01*
X105780Y110766D01*
X105883Y110753D01*
X105988Y110750D01*
X104750Y109512D01*
X104747Y109617D01*
X104734Y109720D01*
X104712Y109821D01*
X104682Y109920D01*
X104642Y110019D01*
X104593Y110115D01*
X104535Y110211D01*
X104468Y110304D01*
X104391Y110396D01*
X104306Y110487D01*
X105013Y111194D01*
D02*
G37*
G36*
X107706Y130567D02*
X107582Y130570D01*
X107463Y130565D01*
X107348Y130552D01*
X107239Y130531D01*
X107134Y130502D01*
X107035Y130466D01*
X106940Y130422D01*
X106850Y130370D01*
X106766Y130310D01*
X106686Y130243D01*
X106774Y131991D01*
X106846Y131916D01*
X106924Y131848D01*
X107008Y131788D01*
X107098Y131734D01*
X107194Y131688D01*
X107295Y131649D01*
X107402Y131618D01*
X107514Y131593D01*
X107633Y131576D01*
X107757Y131566D01*
X107706Y130567D01*
D02*
G37*
G36*
X101487Y145306D02*
X101396Y145391D01*
X101304Y145468D01*
X101210Y145535D01*
X101115Y145593D01*
X101019Y145642D01*
X100920Y145682D01*
X100821Y145712D01*
X100719Y145734D01*
X100617Y145747D01*
X100513Y145750D01*
X101750Y146987D01*
X101753Y146883D01*
X101766Y146781D01*
X101788Y146679D01*
X101819Y146580D01*
X101858Y146481D01*
X101907Y146385D01*
X101965Y146290D01*
X102032Y146196D01*
X102109Y146104D01*
X102194Y146013D01*
X101487Y145306D01*
D02*
G37*
G36*
X109500Y42500D02*
X109504Y42372D01*
X109518Y42255D01*
X109540Y42147D01*
X109571Y42049D01*
X109611Y41961D01*
X109660Y41883D01*
X109718Y41814D01*
X109785Y41756D01*
X109860Y41707D01*
X109945Y41668D01*
X108342Y40972D01*
X108372Y41052D01*
X108399Y41137D01*
X108443Y41322D01*
X108461Y41422D01*
X108486Y41638D01*
X108498Y41874D01*
X108500Y42000D01*
X109500Y42500D01*
D02*
G37*
G36*
X108500Y77104D02*
X108496Y77229D01*
X108485Y77348D01*
X108466Y77461D01*
X108440Y77570D01*
X108406Y77673D01*
X108365Y77770D01*
X108316Y77863D01*
X108260Y77950D01*
X108196Y78031D01*
X108125Y78107D01*
X109875D01*
X109804Y78031D01*
X109740Y77950D01*
X109684Y77863D01*
X109635Y77770D01*
X109594Y77673D01*
X109560Y77570D01*
X109534Y77461D01*
X109515Y77348D01*
X109504Y77229D01*
X109500Y77104D01*
X108500D01*
D02*
G37*
G36*
X114694Y139987D02*
X114609Y139896D01*
X114532Y139804D01*
X114465Y139710D01*
X114407Y139615D01*
X114358Y139519D01*
X114319Y139420D01*
X114288Y139321D01*
X114266Y139219D01*
X114253Y139117D01*
X114250Y139013D01*
X113013Y140250D01*
X113117Y140253D01*
X113219Y140266D01*
X113321Y140288D01*
X113420Y140319D01*
X113519Y140358D01*
X113615Y140407D01*
X113710Y140465D01*
X113804Y140532D01*
X113896Y140609D01*
X113987Y140694D01*
X114694Y139987D01*
D02*
G37*
G36*
X215806Y155513D02*
X215891Y155604D01*
X215968Y155696D01*
X216035Y155789D01*
X216093Y155885D01*
X216142Y155981D01*
X216181Y156080D01*
X216212Y156179D01*
X216234Y156281D01*
X216247Y156383D01*
X216250Y156488D01*
X217488Y155250D01*
X217383Y155247D01*
X217281Y155234D01*
X217179Y155212D01*
X217080Y155182D01*
X216981Y155142D01*
X216885Y155093D01*
X216790Y155035D01*
X216696Y154968D01*
X216604Y154891D01*
X216513Y154806D01*
X215806Y155513D01*
D02*
G37*
G36*
X243306Y146013D02*
X243391Y146104D01*
X243468Y146196D01*
X243535Y146290D01*
X243593Y146385D01*
X243642Y146481D01*
X243682Y146580D01*
X243712Y146679D01*
X243734Y146781D01*
X243747Y146883D01*
X243750Y146987D01*
X244988Y145750D01*
X244883Y145747D01*
X244780Y145734D01*
X244679Y145712D01*
X244580Y145682D01*
X244481Y145642D01*
X244385Y145593D01*
X244289Y145535D01*
X244196Y145468D01*
X244104Y145391D01*
X244013Y145306D01*
X243306Y146013D01*
D02*
G37*
G36*
X85769Y178798D02*
X85645Y178795D01*
X85526Y178785D01*
X85411Y178769D01*
X85301Y178746D01*
X85195Y178717D01*
X85093Y178682D01*
X84996Y178640D01*
X84903Y178592D01*
X84815Y178537D01*
X84731Y178475D01*
X84952Y180211D01*
X85018Y180133D01*
X85091Y180062D01*
X85170Y180000D01*
X85255Y179947D01*
X85348Y179901D01*
X85447Y179864D01*
X85552Y179835D01*
X85664Y179815D01*
X85783Y179802D01*
X85908Y179798D01*
X85769Y178798D01*
D02*
G37*
G36*
X86648Y183544D02*
X86652Y183419D01*
X86663Y183300D01*
X86682Y183187D01*
X86708Y183078D01*
X86742Y182975D01*
X86783Y182878D01*
X86832Y182785D01*
X86888Y182699D01*
X86952Y182617D01*
X87023Y182541D01*
X85273D01*
X85344Y182617D01*
X85408Y182699D01*
X85464Y182785D01*
X85513Y182878D01*
X85554Y182975D01*
X85588Y183078D01*
X85614Y183187D01*
X85633Y183300D01*
X85644Y183419D01*
X85648Y183544D01*
X86648D01*
D02*
G37*
G36*
X88625Y183743D02*
X88780Y183918D01*
X88905Y184104D01*
X89000Y184299D01*
X89065Y184504D01*
X89099Y184719D01*
X89104Y184943D01*
X89078Y185178D01*
X89021Y185423D01*
X88935Y185677D01*
X88818Y185941D01*
X91939Y183957D01*
X91614Y183953D01*
X91304Y183930D01*
X91008Y183886D01*
X90727Y183824D01*
X90459Y183741D01*
X90205Y183639D01*
X89966Y183518D01*
X89740Y183377D01*
X89529Y183216D01*
X89332Y183036D01*
X88625Y183743D01*
D02*
G37*
G36*
X97663Y183870D02*
X97819Y184054D01*
X97957Y184277D01*
X98079Y184539D01*
X98184Y184839D01*
X98272Y185179D01*
X98343Y185558D01*
X98397Y185976D01*
X98454Y186930D01*
X98457Y187465D01*
X101965Y183957D01*
X101429Y183954D01*
X100476Y183897D01*
X100058Y183843D01*
X99679Y183772D01*
X99339Y183684D01*
X99038Y183579D01*
X98777Y183458D01*
X98554Y183319D01*
X98370Y183163D01*
X97663Y183870D01*
D02*
G37*
G36*
X107663D02*
X107819Y184054D01*
X107957Y184277D01*
X108079Y184539D01*
X108184Y184839D01*
X108272Y185179D01*
X108343Y185558D01*
X108397Y185976D01*
X108454Y186930D01*
X108457Y187465D01*
X111965Y183957D01*
X111430Y183954D01*
X110476Y183897D01*
X110058Y183843D01*
X109679Y183772D01*
X109339Y183684D01*
X109039Y183579D01*
X108777Y183458D01*
X108554Y183319D01*
X108370Y183163D01*
X107663Y183870D01*
D02*
G37*
G36*
X117663D02*
X117819Y184054D01*
X117957Y184277D01*
X118079Y184539D01*
X118184Y184839D01*
X118272Y185179D01*
X118343Y185558D01*
X118397Y185976D01*
X118454Y186930D01*
X118457Y187465D01*
X121965Y183957D01*
X121430Y183954D01*
X120476Y183897D01*
X120058Y183843D01*
X119679Y183772D01*
X119340Y183684D01*
X119039Y183579D01*
X118777Y183458D01*
X118554Y183319D01*
X118370Y183163D01*
X117663Y183870D01*
D02*
G37*
G36*
X128370Y191837D02*
X128554Y191681D01*
X128777Y191542D01*
X129039Y191421D01*
X129340Y191316D01*
X129680Y191228D01*
X130058Y191157D01*
X130476Y191103D01*
X131430Y191046D01*
X131965Y191043D01*
X128457Y187535D01*
X128454Y188070D01*
X128397Y189024D01*
X128343Y189442D01*
X128272Y189821D01*
X128184Y190161D01*
X128079Y190462D01*
X127957Y190723D01*
X127819Y190946D01*
X127663Y191130D01*
X128370Y191837D01*
D02*
G37*
G36*
X137663Y183870D02*
X137819Y184054D01*
X137958Y184277D01*
X138079Y184539D01*
X138184Y184839D01*
X138272Y185179D01*
X138343Y185558D01*
X138397Y185976D01*
X138454Y186930D01*
X138457Y187465D01*
X141965Y183957D01*
X141429Y183954D01*
X140476Y183897D01*
X140058Y183843D01*
X139680Y183772D01*
X139339Y183684D01*
X139039Y183579D01*
X138777Y183458D01*
X138554Y183319D01*
X138370Y183163D01*
X137663Y183870D01*
D02*
G37*
G36*
X161104Y181500D02*
X161229Y181504D01*
X161348Y181515D01*
X161461Y181534D01*
X161570Y181560D01*
X161673Y181594D01*
X161770Y181635D01*
X161863Y181684D01*
X161950Y181740D01*
X162031Y181804D01*
X162107Y181875D01*
Y180125D01*
X162031Y180196D01*
X161950Y180260D01*
X161863Y180316D01*
X161770Y180365D01*
X161673Y180406D01*
X161570Y180440D01*
X161461Y180466D01*
X161348Y180485D01*
X161229Y180496D01*
X161104Y180500D01*
Y181500D01*
D02*
G37*
G36*
X295316Y172805D02*
X295597Y172542D01*
X295886Y172307D01*
X296181Y172100D01*
X296485Y171921D01*
X296795Y171770D01*
X297113Y171647D01*
X297439Y171553D01*
X297772Y171486D01*
X298113Y171447D01*
X298461Y171437D01*
X294563Y167539D01*
X294553Y167887D01*
X294514Y168228D01*
X294447Y168561D01*
X294353Y168886D01*
X294230Y169205D01*
X294079Y169515D01*
X293900Y169819D01*
X293693Y170114D01*
X293458Y170403D01*
X293195Y170684D01*
X295316Y172805D01*
D02*
G37*
G36*
X242534Y266168D02*
X242235Y266445D01*
X241922Y266693D01*
X241596Y266911D01*
X241256Y267100D01*
X240902Y267259D01*
X240534Y267388D01*
X240153Y267487D01*
X239759Y267557D01*
X239350Y267597D01*
X238928Y267608D01*
X243215Y271895D01*
X243226Y271473D01*
X243266Y271065D01*
X243336Y270670D01*
X243436Y270289D01*
X243565Y269921D01*
X243724Y269568D01*
X243912Y269228D01*
X244130Y268901D01*
X244378Y268588D01*
X244656Y268289D01*
X242534Y266168D01*
D02*
G37*
D11*
X109038Y131001D02*
G03*
X109088Y131000I50J999D01*
G01*
X102857Y112643D02*
Y144643D01*
Y112643D02*
X106000Y109500D01*
X109000Y41000D02*
X109500Y40500D01*
X109000Y41000D02*
Y79000D01*
X61323Y74500D02*
X74000Y87177D01*
X39000Y74500D02*
X61323D01*
X46000Y83000D02*
X66500D01*
X69500Y86000D01*
X29000Y100000D02*
X46000Y83000D01*
Y161500D02*
X81726Y125774D01*
Y125500D02*
Y125774D01*
X12000Y161500D02*
X46000D01*
X41000Y141800D02*
Y149000D01*
Y141800D02*
X65150Y117650D01*
Y108527D02*
Y117650D01*
X62800Y105752D02*
Y108702D01*
X62500Y90000D02*
Y105452D01*
X62107Y111987D02*
Y112393D01*
X60450Y85687D02*
X60530Y85607D01*
X58560Y90000D02*
Y113230D01*
X59915Y114585D01*
X62500Y105452D02*
X62800Y105752D01*
X60450Y110330D02*
X62107Y111987D01*
X58180Y86357D02*
Y89620D01*
X60450Y85687D02*
Y110330D01*
X62500Y90000D02*
X62880Y89620D01*
X65150Y108527D02*
X66527Y107150D01*
X58180Y89620D02*
X58560Y90000D01*
X67500Y109500D02*
X89500D01*
X66527Y107150D02*
X72350D01*
X92000Y87500D01*
X89500Y109500D02*
X107500Y91500D01*
X88000Y55000D02*
Y86436D01*
X87421Y87015D02*
X88000Y86436D01*
X87421Y87015D02*
Y87421D01*
X80500Y88500D02*
X84264D01*
X84358Y88407D01*
X74000Y87177D02*
Y87500D01*
X75500Y83500D02*
X80500Y88500D01*
X57430Y85607D02*
X58180Y86357D01*
X19000Y100000D02*
X30000Y111000D01*
X55000D01*
X239500Y141500D02*
X245000Y147000D01*
X155000Y141500D02*
X239500D01*
X150000Y136500D02*
X155000Y141500D01*
X150000Y102500D02*
Y136500D01*
X139000Y91500D02*
X150000Y102500D01*
X107500Y91500D02*
X139000D01*
X62880Y86357D02*
Y89620D01*
Y86357D02*
X63630Y85607D01*
X130000Y150500D02*
X211500D01*
X217500Y156500D01*
X110500Y131000D02*
X130000Y150500D01*
X100500Y147000D02*
X102857Y144643D01*
X84114Y179298D02*
X87121D01*
X83956Y179456D02*
X84114Y179298D01*
X92000Y186411D02*
Y187500D01*
X88978Y183389D02*
X92000Y186411D01*
X88978Y181155D02*
Y183389D01*
X87121Y179298D02*
X88978Y181155D01*
X91170Y176670D02*
X102000Y187500D01*
X81170Y176670D02*
X91170D01*
X78978Y174478D02*
X79136Y174320D01*
X98820D02*
X112000Y187500D01*
X79136Y174320D02*
X98820D01*
X106628Y172128D02*
X122000Y187500D01*
X76944Y172128D02*
X106628D01*
X76786Y172286D02*
X76944Y172128D01*
X86148Y185082D02*
X87357Y186290D01*
X86148Y181648D02*
Y185082D01*
X87357Y186290D02*
Y190357D01*
X89143Y192143D01*
X127357D01*
X132000Y187500D01*
X74000Y169500D02*
X124000D01*
X142000Y187500D01*
X105838Y131162D02*
X109038Y131001D01*
X109088Y131000D02*
X110500D01*
X155000Y181000D02*
X163000D01*
X113000Y139000D02*
X155000Y181000D01*
D83*
X238885Y271938D02*
X262500Y248323D01*
Y232660D02*
Y248323D01*
Y232660D02*
X277643Y217516D01*
X298500Y166500D02*
Y167500D01*
X277643Y188357D02*
X298500Y167500D01*
X277643Y188357D02*
Y217516D01*
D87*
X71444Y297982D02*
D03*
X41444D02*
D03*
X101444Y211368D02*
D03*
X41444D02*
D03*
X132000Y187500D02*
D03*
X142000D02*
D03*
X112000D02*
D03*
X122000D02*
D03*
X82000D02*
D03*
X92000D02*
D03*
X102000D02*
D03*
X19000Y74500D02*
D03*
X29000D02*
D03*
X39000D02*
D03*
X131500Y106394D02*
D03*
Y125606D02*
D03*
X97500Y138500D02*
D03*
X107500D02*
D03*
X153500Y166000D02*
D03*
X19000Y100000D02*
D03*
X29000D02*
D03*
X12457Y45342D02*
D03*
X69543Y35500D02*
D03*
Y25657D02*
D03*
X12457D02*
D03*
X69543Y45342D02*
D03*
X272000Y195000D02*
D03*
X262000D02*
D03*
X252000D02*
D03*
X272000Y165000D02*
D03*
X262000Y165000D02*
D03*
X230315Y252500D02*
D03*
D88*
X72000Y187500D02*
D03*
X9000Y74500D02*
D03*
X87500Y138500D02*
D03*
X9000Y100000D02*
D03*
X279685Y252500D02*
D03*
D89*
X159028Y31500D02*
D03*
X129500D02*
D03*
D90*
X200000Y285658D02*
D03*
Y45500D02*
D03*
D91*
X292035Y292411D02*
D03*
X240853D02*
D03*
D92*
X238885Y271938D02*
D03*
X294003D02*
D03*
D93*
X162000Y299500D02*
D03*
X161915Y281047D02*
D03*
X161831Y262594D02*
D03*
D94*
X22341Y117268D02*
D03*
Y140733D02*
D03*
D95*
X7970Y111992D02*
D03*
Y146008D02*
D03*
D96*
X24428Y111992D02*
D03*
Y146008D02*
D03*
D97*
X153500Y156000D02*
D03*
X252000Y165000D02*
D03*
D98*
X295000Y232000D02*
D03*
D99*
X294961Y212000D02*
D03*
X295000Y222000D02*
D03*
D100*
X298500Y167500D02*
D03*
Y187500D02*
D03*
D101*
X51200Y66200D02*
D03*
X65906Y64594D02*
D03*
X147504Y64500D02*
D03*
X149030Y87000D02*
D03*
X103946Y45554D02*
D03*
X37500Y104327D02*
D03*
X101146Y164646D02*
D03*
X61500Y154500D02*
D03*
X112406Y117906D02*
D03*
X125000Y96000D02*
D03*
X132000D02*
D03*
X138254Y98154D02*
D03*
X141000Y104000D02*
D03*
Y111500D02*
D03*
Y120000D02*
D03*
Y130586D02*
D03*
X127627Y135798D02*
D03*
X106000Y109500D02*
D03*
X135500Y136500D02*
D03*
X121114Y132485D02*
D03*
X113500Y75547D02*
D03*
X176350Y41350D02*
D03*
X109500Y40500D02*
D03*
X109000Y79000D02*
D03*
X69000Y75500D02*
D03*
X67000Y90000D02*
D03*
X55500Y135000D02*
D03*
X104094Y78474D02*
D03*
X51582Y93500D02*
D03*
X62359Y133594D02*
D03*
X81726Y125500D02*
D03*
X12000Y161500D02*
D03*
X26021Y158521D02*
D03*
X41000Y149000D02*
D03*
X62107Y112393D02*
D03*
X59915Y114585D02*
D03*
X62800Y108702D02*
D03*
X67500Y109500D02*
D03*
X92000Y87500D02*
D03*
X87421Y87421D02*
D03*
X84358Y88407D02*
D03*
X88000Y55000D02*
D03*
X79289Y73446D02*
D03*
X74000Y87500D02*
D03*
X75500Y83500D02*
D03*
X69500Y86000D02*
D03*
X57430Y85607D02*
D03*
X60530D02*
D03*
X55000Y111000D02*
D03*
X245000Y147000D02*
D03*
X99406Y29594D02*
D03*
X97500Y16000D02*
D03*
X63630Y85607D02*
D03*
X212000Y146500D02*
D03*
X258563Y140952D02*
D03*
X298500Y166500D02*
D03*
X143291Y222268D02*
D03*
X180000Y153500D02*
D03*
X146000Y161000D02*
D03*
X191500Y178000D02*
D03*
X139500Y175000D02*
D03*
X131854Y164033D02*
D03*
X139500Y147500D02*
D03*
X100500Y147000D02*
D03*
X86148Y181648D02*
D03*
X83956Y179456D02*
D03*
X81170Y176670D02*
D03*
X78978Y174478D02*
D03*
X76786Y172286D02*
D03*
X74000Y169500D02*
D03*
X105838Y131162D02*
D03*
X113000Y139000D02*
D03*
X217500Y156500D02*
D03*
X163000Y181000D02*
D03*
D102*
X247400Y221593D02*
D03*
X196532Y231960D02*
D03*
X188202Y238784D02*
D03*
X214000Y220500D02*
D03*
X206556Y185379D02*
D03*
X194500Y173500D02*
D03*
X166836Y202164D02*
D03*
X190974Y215581D02*
D03*
M02*
