G04*
G04 #@! TF.GenerationSoftware,Altium Limited,Altium Designer,21.3.2 (30)*
G04*
G04 Layer_Physical_Order=4*
G04 Layer_Color=16711680*
%FSLAX25Y25*%
%MOIN*%
G70*
G04*
G04 #@! TF.SameCoordinates,2DA63E57-4869-4DD6-A6C4-22B490529F43*
G04*
G04*
G04 #@! TF.FilePolarity,Positive*
G04*
G01*
G75*
%ADD11C,0.01000*%
%ADD24R,0.03661X0.03858*%
%ADD79C,0.05000*%
%ADD80C,0.07087*%
%ADD81R,0.07087X0.10236*%
%ADD82O,0.07087X0.10236*%
%ADD83C,0.04724*%
%ADD84O,0.06299X0.03937*%
%ADD85O,0.08268X0.03937*%
%ADD86C,0.02756*%
%ADD87R,0.07087X0.07087*%
%ADD88C,0.07874*%
%ADD89C,0.12992*%
%ADD90C,0.08661*%
%ADD91C,0.13780*%
%ADD92R,0.07087X0.07087*%
%ADD93C,0.02800*%
%ADD94C,0.04000*%
D11*
X303576Y90390D02*
G03*
X306880Y82821I11491J511D01*
G01*
X255214Y102619D02*
G03*
X253871Y99707I3286J-3281D01*
G01*
X285709Y133114D02*
G03*
X286000Y133819I-709J705D01*
G01*
X286293Y148700D02*
G03*
X286000Y147993I707J-707D01*
G01*
X253433Y98933D02*
G03*
X253143Y98234I711J-704D01*
G01*
X253585Y99085D02*
G03*
X253871Y99707I-711J704D01*
G01*
X151000Y89090D02*
G03*
X150709Y89791I-1000J-5D01*
G01*
X123000Y117914D02*
G03*
X123291Y117209I1000J0D01*
G01*
X224789Y156289D02*
G03*
X224500Y155590I711J-704D01*
G01*
X230712Y107289D02*
G03*
X231408Y107000I703J711D01*
G01*
X224500Y113908D02*
G03*
X224788Y113212I1000J6D01*
G01*
X224586Y161500D02*
G03*
X225291Y161791I0J1000D01*
G01*
X234711Y171211D02*
G03*
X235000Y171914I-711J704D01*
G01*
X260621Y171500D02*
G03*
X261328Y171793I0J1000D01*
G01*
X326586Y249500D02*
G03*
X327291Y249791I0J1000D01*
G01*
X281576Y242005D02*
G03*
X282298Y242298I15J1000D01*
G01*
X253500Y171500D02*
X260621D01*
X306880Y82821D02*
X352043Y37657D01*
X255214Y102619D02*
X285709Y133114D01*
X286000Y133819D02*
X286000Y147993D01*
X286000Y133819D02*
X286000Y133819D01*
X286293Y148700D02*
X293391Y155798D01*
X253143Y97415D02*
Y98234D01*
X253433Y98933D02*
X253585Y99085D01*
X239728Y84000D02*
X253143Y97415D01*
X157063Y84000D02*
X239728D01*
X123000Y117914D02*
Y118000D01*
X151000Y84000D02*
Y89086D01*
X123291Y117209D02*
X150709Y89791D01*
X151000Y89090D02*
X151000Y89086D01*
X224789Y156289D02*
X241000Y172500D01*
X224500Y113908D02*
Y155590D01*
X224788Y113212D02*
X230712Y107289D01*
X231408Y107000D02*
X240839D01*
X248500Y99339D01*
X235000Y171914D02*
Y177000D01*
X225291Y161791D02*
X234711Y171211D01*
X213000Y161500D02*
X224586D01*
X232000Y180000D02*
X235000Y177000D01*
X203500Y152000D02*
X213000Y161500D01*
X158000Y152000D02*
X203500D01*
X232000Y180000D02*
Y191500D01*
X271500Y181965D02*
Y218500D01*
X261328Y171793D02*
X271500Y181965D01*
Y218500D02*
X277000Y224000D01*
X327291Y249791D02*
X351500Y274000D01*
X327291Y249791D02*
X327291Y249791D01*
X322500Y245000D02*
X327291Y249791D01*
X322500Y225500D02*
Y245000D01*
X287500Y190500D02*
X322500Y225500D01*
X282298Y242298D02*
X282500Y242500D01*
X241000D02*
X281576Y242005D01*
X244000Y236500D02*
X266500D01*
X247000Y230500D02*
X297500D01*
X351000Y284000D01*
D24*
X157063Y84000D02*
D03*
X151000Y84000D02*
D03*
D79*
X31500Y129685D02*
X61315D01*
X61500Y129500D01*
D80*
X352043Y47500D02*
D03*
Y57342D02*
D03*
X294957Y37657D02*
D03*
X352043Y37657D02*
D03*
X294957Y57342D02*
D03*
X93000Y128000D02*
D03*
X93000Y118000D02*
D03*
X93000Y108000D02*
D03*
X123000Y128000D02*
D03*
X123000Y118000D02*
D03*
X191500Y188606D02*
D03*
Y169394D02*
D03*
X248500Y99339D02*
D03*
X258500D02*
D03*
X228500D02*
D03*
X238500Y99339D02*
D03*
X198500Y99339D02*
D03*
X208500Y99339D02*
D03*
X218500Y99339D02*
D03*
X31500Y129685D02*
D03*
X101000Y197193D02*
D03*
X41000Y283807D02*
D03*
X71000D02*
D03*
X41000Y197193D02*
D03*
X151000Y113500D02*
D03*
X351500Y231500D02*
D03*
Y241500D02*
D03*
Y251500D02*
D03*
X233500Y130000D02*
D03*
Y120000D02*
D03*
X351500Y274000D02*
D03*
Y284000D02*
D03*
D81*
X51500Y103500D02*
D03*
D82*
X71500Y103461D02*
D03*
X61500Y103500D02*
D03*
D83*
X209000Y251646D02*
D03*
Y281173D02*
D03*
D84*
X357030Y192508D02*
D03*
Y158492D02*
D03*
D85*
X340573Y192508D02*
D03*
X340573Y158492D02*
D03*
D86*
X342659Y187232D02*
D03*
Y163768D02*
D03*
D87*
X123000Y108000D02*
D03*
X188500Y99339D02*
D03*
D88*
X22000Y146500D02*
D03*
Y156500D02*
D03*
D89*
X90591Y326736D02*
D03*
X39410D02*
D03*
D90*
X37441Y306264D02*
D03*
X92559Y306264D02*
D03*
D91*
X272886Y95395D02*
D03*
X174114Y20605D02*
D03*
X174287Y95402D02*
D03*
X272713Y20598D02*
D03*
D92*
X31500Y80315D02*
D03*
X151000Y123500D02*
D03*
X351500Y221500D02*
D03*
X233500Y140000D02*
D03*
X351500Y264000D02*
D03*
D93*
X253500Y171500D02*
D03*
X39000Y175500D02*
D03*
X356000Y97000D02*
D03*
X226325Y298639D02*
D03*
X172500Y196000D02*
D03*
X168000Y228500D02*
D03*
X214000Y165500D02*
D03*
X219000Y175500D02*
D03*
X293391Y155798D02*
D03*
X288000Y96500D02*
D03*
X303576Y90390D02*
D03*
X315000Y102000D02*
D03*
X241000Y172500D02*
D03*
X100690Y148690D02*
D03*
X89529Y163529D02*
D03*
X111500Y158500D02*
D03*
X119020Y158499D02*
D03*
X89500Y184500D02*
D03*
X99500Y174000D02*
D03*
X60000Y163000D02*
D03*
X294133Y319078D02*
D03*
X287000D02*
D03*
X267000D02*
D03*
X260143D02*
D03*
X187000Y144000D02*
D03*
X162000Y115500D02*
D03*
X144000Y140500D02*
D03*
X158000Y152000D02*
D03*
X232000Y191500D02*
D03*
X260000Y174000D02*
D03*
X169000Y157500D02*
D03*
Y174000D02*
D03*
X163136Y203152D02*
D03*
X150021Y196042D02*
D03*
X149156Y208580D02*
D03*
X152500Y228000D02*
D03*
X161122Y228833D02*
D03*
X152903Y299771D02*
D03*
X161000Y299500D02*
D03*
X238000Y224500D02*
D03*
X241000Y210500D02*
D03*
X285980Y209564D02*
D03*
X281000Y202000D02*
D03*
X252106Y253589D02*
D03*
X232000Y224500D02*
D03*
X267000Y225500D02*
D03*
X271500Y166000D02*
D03*
X270071Y150114D02*
D03*
X261359Y150586D02*
D03*
X277000Y224000D02*
D03*
X219000Y116000D02*
D03*
X285000Y169000D02*
D03*
X287500Y190500D02*
D03*
X241000Y242500D02*
D03*
X244000Y236500D02*
D03*
X282500Y242500D02*
D03*
X266500Y236500D02*
D03*
X247000Y230500D02*
D03*
X188500Y203500D02*
D03*
X210385Y201771D02*
D03*
X193500Y162500D02*
D03*
X183500Y165500D02*
D03*
X180000Y179500D02*
D03*
X183500Y192000D02*
D03*
X194000Y195500D02*
D03*
X219500Y197500D02*
D03*
X213500Y180000D02*
D03*
X227000Y190960D02*
D03*
D94*
X61500Y129500D02*
D03*
M02*
