G04*
G04 #@! TF.GenerationSoftware,Altium Limited,Altium Designer,21.3.2 (30)*
G04*
G04 Layer_Physical_Order=2*
G04 Layer_Color=32768*
%FSLAX25Y25*%
%MOIN*%
G70*
G04*
G04 #@! TF.SameCoordinates,AD82394D-94CB-4E6D-8DF2-E68E24F3FF13*
G04*
G04*
G04 #@! TF.FilePolarity,Negative*
G04*
G01*
G75*
%ADD103C,0.04000*%
%ADD104C,0.07543*%
G04:AMPARAMS|DCode=105|XSize=95.433mil|YSize=95.433mil|CornerRadius=0mil|HoleSize=0mil|Usage=FLASHONLY|Rotation=0.000|XOffset=0mil|YOffset=0mil|HoleType=Round|Shape=Relief|Width=10mil|Gap=10mil|Entries=4|*
%AMTHD105*
7,0,0,0.09543,0.07543,0.01000,45*
%
%ADD105THD105*%
%ADD106C,0.08724*%
%ADD107C,0.23685*%
%ADD108C,0.16992*%
%ADD109C,0.09906*%
%ADD110C,0.13843*%
%ADD111C,0.07150*%
%ADD112C,0.06756*%
%AMTHOVALD113*
21,1,0.02362,0.08362,0,0,360.0*
1,1,0.08362,-0.01181,0.00000*
1,1,0.08362,0.01181,0.00000*
21,0,0.02362,0.06362,0,0,360.0*
1,0,0.06362,-0.01181,0.00000*
1,0,0.06362,0.01181,0.00000*
4,0,4,-0.00828,-0.00354,-0.03784,-0.03310,-0.04491,-0.02603,-0.01535,0.00354,-0.00828,-0.00354,0.0*
4,0,4,0.01535,-0.00354,0.04491,0.02603,0.03784,0.03310,0.00828,0.00354,0.01535,-0.00354,0.0*
4,0,4,-0.01535,-0.00354,-0.04491,0.02603,-0.03784,0.03310,-0.00828,0.00354,-0.01535,-0.00354,0.0*
4,0,4,0.00828,-0.00354,0.03784,-0.03310,0.04491,-0.02603,0.01535,0.00354,0.00828,-0.00354,0.0*
%
%ADD113THOVALD113*%

%AMTHOVALD114*
21,1,0.04724,0.08362,0,0,360.0*
1,1,0.08362,-0.02362,0.00000*
1,1,0.08362,0.02362,0.00000*
21,0,0.04724,0.06362,0,0,360.0*
1,0,0.06362,-0.02362,0.00000*
1,0,0.06362,0.02362,0.00000*
4,0,4,-0.02009,-0.00354,-0.04965,-0.03310,-0.05672,-0.02603,-0.02716,0.00354,-0.02009,-0.00354,0.0*
4,0,4,0.02716,-0.00354,0.05672,0.02603,0.04965,0.03310,0.02009,0.00354,0.02716,-0.00354,0.0*
4,0,4,-0.02716,-0.00354,-0.05672,0.02603,-0.04965,0.03310,-0.02009,0.00354,-0.02716,-0.00354,0.0*
4,0,4,0.02009,-0.00354,0.04965,-0.03310,0.05672,-0.02603,0.02716,0.00354,0.02009,-0.00354,0.0*
%
%ADD114THOVALD114*%

%ADD115C,0.08331*%
G04:AMPARAMS|DCode=116|XSize=103.307mil|YSize=103.307mil|CornerRadius=0mil|HoleSize=0mil|Usage=FLASHONLY|Rotation=0.000|XOffset=0mil|YOffset=0mil|HoleType=Round|Shape=Relief|Width=10mil|Gap=10mil|Entries=4|*
%AMTHD116*
7,0,0,0.10331,0.08331,0.01000,45*
%
%ADD116THD116*%
%ADD117C,0.07937*%
%ADD118C,0.08724*%
%ADD119C,0.09118*%
G04:AMPARAMS|DCode=120|XSize=76mil|YSize=76mil|CornerRadius=0mil|HoleSize=0mil|Usage=FLASHONLY|Rotation=0.000|XOffset=0mil|YOffset=0mil|HoleType=Round|Shape=Relief|Width=10mil|Gap=10mil|Entries=4|*
%AMTHD120*
7,0,0,0.07600,0.05600,0.01000,45*
%
%ADD120THD120*%
%ADD121C,0.05600*%
%ADD122C,0.06500*%
G04:AMPARAMS|DCode=123|XSize=85mil|YSize=85mil|CornerRadius=0mil|HoleSize=0mil|Usage=FLASHONLY|Rotation=0.000|XOffset=0mil|YOffset=0mil|HoleType=Round|Shape=Relief|Width=10mil|Gap=10mil|Entries=4|*
%AMTHD123*
7,0,0,0.08500,0.06500,0.01000,45*
%
%ADD123THD123*%
D103*
X-56Y175D02*
Y314500D01*
X194000D01*
Y311000D02*
Y314500D01*
Y311000D02*
X310000D01*
Y196500D02*
Y311000D01*
X312500Y156000D02*
Y196500D01*
X279500Y156000D02*
X312500D01*
X279500Y131500D02*
Y156000D01*
X159500Y131500D02*
X279500D01*
X-56Y175D02*
X188500D01*
Y30500D01*
X215000D01*
Y61000D01*
X159500D02*
X215000D01*
X159500D02*
Y131500D01*
X310000Y196500D02*
X312500D01*
D104*
X71444Y297982D02*
D03*
X41444D02*
D03*
X101444Y211368D02*
D03*
X132000Y187500D02*
D03*
X142000D02*
D03*
X112000D02*
D03*
X122000D02*
D03*
X82000D02*
D03*
X92000D02*
D03*
X102000D02*
D03*
X19000Y74500D02*
D03*
X29000D02*
D03*
X39000D02*
D03*
X97500Y138500D02*
D03*
X107500D02*
D03*
X153500Y156000D02*
D03*
X19000Y100000D02*
D03*
X29000D02*
D03*
X230315Y252500D02*
D03*
X279685D02*
D03*
D105*
X41444Y211368D02*
D03*
X72000Y187500D02*
D03*
X9000Y74500D02*
D03*
X87500Y138500D02*
D03*
X153500Y166000D02*
D03*
X9000Y100000D02*
D03*
D106*
X159028Y31500D02*
D03*
X129500D02*
D03*
D107*
X200000Y285658D02*
D03*
Y45500D02*
D03*
D108*
X292035Y292411D02*
D03*
X240853D02*
D03*
D109*
X238885Y271938D02*
D03*
X294003D02*
D03*
D110*
X162000Y299500D02*
D03*
X161915Y281047D02*
D03*
X161831Y262594D02*
D03*
D111*
X131500Y106394D02*
D03*
Y125606D02*
D03*
D112*
X22341Y117268D02*
D03*
Y140733D02*
D03*
D113*
X7970Y111992D02*
D03*
Y146008D02*
D03*
D114*
X24428Y111992D02*
D03*
Y146008D02*
D03*
D115*
X12457Y45342D02*
D03*
X69543Y25657D02*
D03*
X12457D02*
D03*
X69543Y45342D02*
D03*
D116*
Y35500D02*
D03*
D117*
X272000Y195000D02*
D03*
X262000D02*
D03*
X252000D02*
D03*
X272000Y165000D02*
D03*
X262000Y165000D02*
D03*
X252000Y165000D02*
D03*
D118*
X295000Y232000D02*
D03*
X294961Y212000D02*
D03*
X295000Y222000D02*
D03*
D119*
X298500Y167500D02*
D03*
Y187500D02*
D03*
D120*
X51200Y66200D02*
D03*
X65906Y64594D02*
D03*
X147504Y64500D02*
D03*
X149030Y87000D02*
D03*
X103946Y45554D02*
D03*
X37500Y104327D02*
D03*
X101146Y164646D02*
D03*
X125000Y96000D02*
D03*
X132000D02*
D03*
X138254Y98154D02*
D03*
X141000Y104000D02*
D03*
Y111500D02*
D03*
Y120000D02*
D03*
Y130586D02*
D03*
X127627Y135798D02*
D03*
X135500Y136500D02*
D03*
X121114Y132485D02*
D03*
X113500Y75547D02*
D03*
X176350Y41350D02*
D03*
X51582Y93500D02*
D03*
X62359Y133594D02*
D03*
X212000Y146500D02*
D03*
X258563Y140952D02*
D03*
X143291Y222268D02*
D03*
X180000Y153500D02*
D03*
X191500Y178000D02*
D03*
X131854Y164033D02*
D03*
X139500Y147500D02*
D03*
D121*
X61500Y154500D02*
D03*
X112406Y117906D02*
D03*
X106000Y109500D02*
D03*
X109500Y40500D02*
D03*
X109000Y79000D02*
D03*
X69000Y75500D02*
D03*
X67000Y90000D02*
D03*
X55500Y135000D02*
D03*
X104094Y78474D02*
D03*
X81726Y125500D02*
D03*
X12000Y161500D02*
D03*
X26021Y158521D02*
D03*
X41000Y149000D02*
D03*
X62107Y112393D02*
D03*
X59915Y114585D02*
D03*
X62800Y108702D02*
D03*
X67500Y109500D02*
D03*
X92000Y87500D02*
D03*
X87421Y87421D02*
D03*
X84358Y88407D02*
D03*
X88000Y55000D02*
D03*
X79289Y73446D02*
D03*
X74000Y87500D02*
D03*
X75500Y83500D02*
D03*
X69500Y86000D02*
D03*
X57430Y85607D02*
D03*
X60530D02*
D03*
X55000Y111000D02*
D03*
X245000Y147000D02*
D03*
X99406Y29594D02*
D03*
X97500Y16000D02*
D03*
X63630Y85607D02*
D03*
X298500Y166500D02*
D03*
X146000Y161000D02*
D03*
X139500Y175000D02*
D03*
X100500Y147000D02*
D03*
X86148Y181648D02*
D03*
X83956Y179456D02*
D03*
X81170Y176670D02*
D03*
X78978Y174478D02*
D03*
X76786Y172286D02*
D03*
X74000Y169500D02*
D03*
X105838Y131162D02*
D03*
X113000Y139000D02*
D03*
X217500Y156500D02*
D03*
X163000Y181000D02*
D03*
D122*
X247400Y221593D02*
D03*
X194500Y173500D02*
D03*
X190974Y215581D02*
D03*
D123*
X196532Y231960D02*
D03*
X188202Y238784D02*
D03*
X214000Y220500D02*
D03*
X206556Y185379D02*
D03*
X166836Y202164D02*
D03*
M02*
