G04*
G04 #@! TF.GenerationSoftware,Altium Limited,Altium Designer,21.3.2 (30)*
G04*
G04 Layer_Color=32768*
%FSLAX25Y25*%
%MOIN*%
G70*
G04*
G04 #@! TF.SameCoordinates,AD82394D-94CB-4E6D-8DF2-E68E24F3FF13*
G04*
G04*
G04 #@! TF.FilePolarity,Positive*
G04*
G01*
G75*
%ADD10C,0.00787*%
%ADD12C,0.01181*%
%ADD14C,0.02362*%
%ADD15C,0.01575*%
G36*
X173125Y177621D02*
X170525Y177621D01*
Y178321D01*
X173125D01*
Y177621D01*
D02*
G37*
G36*
X185514Y178321D02*
X186511D01*
X186511Y177621D01*
X185514D01*
Y176682D01*
X184814D01*
Y177621D01*
X183911D01*
X183911Y178321D01*
X184814D01*
Y179282D01*
X185514Y179282D01*
Y178321D01*
D02*
G37*
G36*
X211321Y142686D02*
X212282D01*
X212282Y141986D01*
X211321D01*
Y140989D01*
X210621Y140989D01*
Y141986D01*
X209682D01*
Y142686D01*
X210621D01*
Y143589D01*
X211321Y143589D01*
Y142686D01*
D02*
G37*
G36*
X210621Y154375D02*
X210621Y156975D01*
X211321D01*
Y154375D01*
X210621D01*
D02*
G37*
G36*
X306831Y241921D02*
X303524Y241921D01*
Y202354D01*
X306831D01*
Y241921D01*
D02*
G37*
D10*
X257146Y154831D02*
G03*
X257146Y154831I-394J0D01*
G01*
D12*
X101395Y93514D02*
G03*
X101395Y93514I-591J0D01*
G01*
X170205Y168500D02*
G03*
X170205Y168500I-591J0D01*
G01*
X85091Y42374D02*
G03*
X85091Y42374I-591J0D01*
G01*
D14*
X287681Y233500D02*
G03*
X287681Y233500I-1181J0D01*
G01*
D15*
X36086Y162611D02*
G03*
X36086Y162611I-787J0D01*
G01*
X133205Y151214D02*
G03*
X133205Y151214I-787J0D01*
G01*
X8001Y162611D02*
G03*
X8001Y162611I-787J0D01*
G01*
X296726Y163250D02*
G03*
X296726Y163250I-787J0D01*
G01*
M02*
